<?xml version="1.0" standalone="no"?>
<!DOCTYPE svg PUBLIC "-//W3C//DTD SVG 1.1//EN" "http://www.w3.org/Graphics/SVG/1.1/DTD/svg11.dtd" >
<svg xmlns="http://www.w3.org/2000/svg" xmlns:xlink="http://www.w3.org/1999/xlink" version="1.1">
<metadata>
Created by FontForge 20170731 at Wed May 27 11:48:13 2020
 By Aleksey,,,
</metadata>
<defs>
<font id="NanumSquareRoundOTFEB00" horiz-adv-x="910" vert-adv-y="1000" >
  <font-face 
    font-family="NanumSquareRoundOTFEB00"
    font-weight="700"
    font-stretch="normal"
    units-per-em="1000"
    panose-1="2 0 8 3 0 0 0 0 0 0"
    ascent="800"
    descent="-200"
    x-height="535"
    cap-height="715"
    bbox="-67.0909 -255 1255 894"
    underline-thickness="50"
    underline-position="-200"
    unicode-range="U+0020-FFE6"
  />
<missing-glyph vert-adv-y="1105" 
d="M153 788h604q32 0 44 -12.5t12 -46.5v-782q0 -34 -12 -46.5t-44 -12.5h-604q-32 0 -44 12.5t-12 46.5v782q0 34 12 46.5t44 12.5zM455 309l-301 -386h602zM775 722l-296 -383l296 -383v766zM135 722v-766l296 383zM156 753l299 -385l299 385h-598z" />
    <glyph glyph-name=".notdef" vert-adv-y="1105" 
d="M153 788h604q32 0 44 -12.5t12 -46.5v-782q0 -34 -12 -46.5t-44 -12.5h-604q-32 0 -44 12.5t-12 46.5v782q0 34 12 46.5t44 12.5zM455 309l-301 -386h602zM775 722l-296 -383l296 -383v766zM135 722v-766l296 383zM156 753l299 -385l299 385h-598z" />
    <glyph glyph-name=".null" horiz-adv-x="0" vert-adv-y="0" 
 />
    <glyph glyph-name="nonmarkingreturn" horiz-adv-x="333" 
 />
    <glyph glyph-name="space" unicode=" " horiz-adv-x="250" vert-adv-y="1105" 
 />
    <glyph glyph-name="exclam" unicode="!" horiz-adv-x="320" vert-adv-y="1105" 
d="M160 106q32 0 54 -22t22 -54t-22 -54t-54 -22t-54 22t-22 54t22 54t54 22zM160 746q33 0 52 -14.5t18 -46.5l-16 -457q-1 -29 -16 -42t-38 -13t-38 13t-16 42l-16 457q-1 32 18 46.5t52 14.5z" />
    <glyph glyph-name="quotedbl" unicode="&#x22;" horiz-adv-x="401" vert-adv-y="1105" 
d="M109 746q27 0 45.5 -14t17.5 -40l-8 -142q-3 -54 -55 -54t-55 54l-8 142q-1 26 17.5 40t45.5 14zM292 746q27 0 45.5 -14t17.5 -40l-8 -142q-3 -54 -55 -54t-55 54l-8 142q-1 26 17.5 40t45.5 14z" />
    <glyph glyph-name="numbersign" unicode="#" horiz-adv-x="643" vert-adv-y="1105" 
d="M257 721q22 -2 34 -15t9 -35l-18 -134h119l20 142q2 20 18 31.5t40 10.5q22 -2 34 -15t9 -35l-18 -134h49q23 0 34.5 -15t11.5 -38t-11.5 -38t-34.5 -15h-64l-18 -137h51q23 0 34.5 -15t11.5 -38t-11.5 -38t-34.5 -15h-65l-20 -148q-2 -20 -18.5 -31.5t-40.5 -10.5
q-22 2 -34 15t-9 35l19 140h-119l-20 -148q-2 -20 -18.5 -31.5t-40.5 -10.5q-22 2 -34 15t-9 35l19 140h-50q-23 0 -34.5 15t-11.5 38t11.5 38t34.5 15h64l19 137h-52q-23 0 -34.5 15t-11.5 38t11.5 38t34.5 15h66l20 142q2 20 18 31.5t40 10.5zM266 431l-18 -137h121
l19 137h-122z" />
    <glyph glyph-name="dollar" unicode="$" horiz-adv-x="626" vert-adv-y="1105" 
d="M350 298v-188q49 6 71.5 29t22.5 55v5q0 39 -17.5 60.5t-76.5 38.5zM276 609q-87 -9 -87 -72v-12q0 -42 19 -60.5t68 -33.5v178zM313 777q15 0 26 -8t11 -24v-30q91 -6 155 -41q20 -11 25.5 -32.5t-5.5 -40.5q-23 -44 -65 -22q-55 28 -110 32v-198q127 -34 173 -79.5
t46 -125.5v-3q0 -102 -58.5 -147t-160.5 -52v-43q0 -16 -11 -24t-26 -8t-26 8t-11 24v43q-113 8 -192 55q-21 12 -25 35.5t9 42.5q29 43 73 18q61 -35 135 -46v205q-35 8 -59 16t-55 24t-50 36.5t-32.5 53.5t-13.5 74v13q0 68 50 119.5t160 61.5v31q0 16 11 24t26 8z" />
    <glyph glyph-name="percent" unicode="%" horiz-adv-x="925" vert-adv-y="1105" 
d="M229 726q82 0 126.5 -47.5t44.5 -129.5v-21q0 -82 -44.5 -129.5t-126.5 -47.5t-126.5 47.5t-44.5 129.5v21q0 82 44.5 129.5t126.5 47.5zM229 638q-37 0 -54 -23t-17 -72v-10q0 -49 17 -71.5t54 -22.5t54 22.5t17 71.5v10q0 49 -17 72t-54 23zM678 714q18 -10 23.5 -26.5
t-5.5 -38.5l-381 -629q-11 -17 -30.5 -21t-36.5 6q-18 10 -23.5 26.5t5.5 38.5l381 629q11 17 30.5 21t36.5 -6zM696 368q82 0 126.5 -47.5t44.5 -129.5v-21q0 -82 -44.5 -129.5t-126.5 -47.5t-126.5 47.5t-44.5 129.5v21q0 82 44.5 129.5t126.5 47.5zM696 280
q-37 0 -54 -23t-17 -72v-10q0 -49 17 -71.5t54 -22.5t54 22.5t17 71.5v10q0 49 -17 72t-54 23z" />
    <glyph glyph-name="ampersand" unicode="&#x26;" horiz-adv-x="690" vert-adv-y="1105" 
d="M314 726q89 0 139 -46.5t50 -114.5v-8q0 -108 -127 -178l121 -132q17 48 17 101q0 25 17 38.5t42 12.5t41 -14.5t16 -38.5q0 -98 -53 -187l60 -66q18 -23 15.5 -44t-21.5 -37q-17 -16 -41 -15.5t-41 19.5l-48 53q-87 -76 -207 -76q-112 0 -183 50.5t-71 144.5v14
q0 125 161 203l-23 27q-55 61 -55 126v12q0 69 51 112.5t140 43.5zM295 104q78 0 134 46l-157 176q-58 -32 -82.5 -61.5t-24.5 -64.5v-9q0 -39 37 -63t93 -24zM243 560q0 -35 55 -95l9 -10q78 40 78 102v4q0 25 -19.5 43t-51.5 18q-36 0 -53.5 -16.5t-17.5 -40.5v-5z" />
    <glyph glyph-name="quotesingle" unicode="'" horiz-adv-x="218" vert-adv-y="1105" 
d="M109 746q27 0 45.5 -14t17.5 -40l-8 -142q-3 -54 -55 -54t-55 54l-8 142q-1 26 17.5 40t45.5 14z" />
    <glyph glyph-name="parenleft" unicode="(" horiz-adv-x="361" vert-adv-y="1105" 
d="M268 795q19 -10 24 -28t-6 -38q-93 -162 -93 -377v-38q0 -215 93 -377q11 -20 6 -38t-24 -28q-42 -22 -74 19q-130 171 -130 429v28q0 258 130 429q32 41 74 19z" />
    <glyph glyph-name="parenright" unicode=")" horiz-adv-x="361" vert-adv-y="1105" 
d="M93 795q42 22 74 -19q130 -171 130 -429v-28q0 -258 -130 -429q-32 -41 -74 -19q-19 10 -24 28t6 38q93 162 93 377v38q0 215 -93 377q-11 20 -6 38t24 28z" />
    <glyph glyph-name="asterisk" unicode="*" horiz-adv-x="479" vert-adv-y="1105" 
d="M239 750q23 0 37.5 -11.5t11.5 -32.5l-14 -98l84 63q17 12 35.5 5t28.5 -27q11 -19 5.5 -39t-25.5 -27l-101 -36l101 -35q20 -7 25.5 -27t-5.5 -39q-10 -20 -28.5 -27t-35.5 5l-84 63l14 -97q3 -21 -11.5 -32.5t-37.5 -11.5q-22 0 -36.5 11.5t-11.5 32.5l14 97l-84 -63
q-17 -12 -35.5 -5t-28.5 27q-11 19 -5.5 39t25.5 27l101 35l-101 36q-20 7 -25.5 27t5.5 39q10 20 28.5 27t35.5 -5l84 -63l-14 98q-3 21 11.5 32.5t36.5 11.5z" />
    <glyph glyph-name="plus" unicode="+" horiz-adv-x="600" vert-adv-y="1105" 
d="M300 618q23 0 39.5 -12t16.5 -35v-162h163q21 0 32 -14.5t11 -36.5t-11 -37t-32 -15h-163v-177q0 -23 -16.5 -35t-39.5 -12t-39.5 12t-16.5 35v177h-163q-21 0 -32 15t-11 37t11 36.5t32 14.5h163v162q0 23 16.5 35t39.5 12z" />
    <glyph glyph-name="comma" unicode="," horiz-adv-x="268" vert-adv-y="1105" 
d="M154 110q29 -5 43 -26t4 -49l-51 -138q-17 -45 -64 -36t-39 51l25 152q5 28 29 40t53 6z" />
    <glyph glyph-name="hyphen" unicode="-" horiz-adv-x="428" vert-adv-y="1105" 
d="M81 410h266q21 0 32 -15t11 -38t-11 -38t-32 -15h-266q-21 0 -32 15t-11 38t11 38t32 15z" />
    <glyph glyph-name="period" unicode="." horiz-adv-x="268" vert-adv-y="1105" 
d="M134 112q34 0 56.5 -22.5t22.5 -56.5t-22.5 -56.5t-56.5 -22.5t-56.5 22.5t-22.5 56.5t22.5 56.5t56.5 22.5z" />
    <glyph glyph-name="slash" unicode="/" horiz-adv-x="433" vert-adv-y="1105" 
d="M377 798q23 -6 34 -24t4 -41l-284 -833q-17 -49 -75 -32q-23 6 -34 24t-3 41l283 833q17 49 75 32z" />
    <glyph glyph-name="zero" unicode="0" horiz-adv-x="620" vert-adv-y="1105" 
d="M310 726q266 0 266 -345v-43q0 -345 -266 -345t-266 345v43q0 345 266 345zM310 605q-77 0 -107 -53.5t-30 -179.5v-25q0 -126 30 -179.5t107 -53.5t107 53.5t30 179.5v25q0 126 -30 179.5t-107 53.5z" />
    <glyph glyph-name="one" unicode="1" horiz-adv-x="620" vert-adv-y="1105" 
d="M378 721q30 0 48.5 -14t18.5 -41v-613q0 -27 -18.5 -41t-45.5 -14t-45.5 14t-18.5 41v518l-129 -74q-25 -13 -46.5 -5.5t-34.5 30.5q-12 20 -7 43.5t27 35.5l169 94q48 26 82 26z" />
    <glyph glyph-name="two" unicode="2" horiz-adv-x="620" vert-adv-y="1105" 
d="M300 726q116 0 175 -52t59 -131v-11q0 -109 -104 -213l-211 -209h303q22 0 33.5 -15t11.5 -38t-11.5 -38t-33.5 -15h-381q-90 0 -90 69q0 26 33 61l232 234q53 53 71 87.5t18 75.5v5q0 34 -26.5 55t-76.5 21q-78 0 -131 -68q-14 -19 -35 -22t-41 11q-21 15 -26 35.5
t9 43.5q77 114 222 114z" />
    <glyph glyph-name="three" unicode="3" horiz-adv-x="620" vert-adv-y="1105" 
d="M286 726q116 0 177 -52t61 -130v-5q0 -56 -32 -103t-87 -64q63 -8 106 -48.5t43 -112.5v-10q0 -88 -69 -148t-193 -60q-118 0 -201 53q-22 14 -26.5 38.5t9.5 44.5q29 48 77 19q64 -41 132 -41q142 0 142 100v8q0 51 -34.5 75.5t-110.5 24.5h-53q-23 0 -34.5 15.5
t-11.5 39.5t11.5 39.5t34.5 15.5h42q130 0 130 103v3q0 83 -114 83q-61 0 -113 -47q-19 -16 -41 -14t-36 20q-15 18 -14 39t16 38q68 76 189 76z" />
    <glyph glyph-name="four" unicode="4" horiz-adv-x="620" vert-adv-y="1105" 
d="M419 711q22 -14 27 -34t-11 -46l-261 -377h207v164q0 26 18 40t45 14t45 -14t18 -40v-164h61q43 0 43 -52q0 -51 -43 -51h-61v-99q0 -26 -18 -40t-45 -14t-45 14t-18 40v99h-280q-79 0 -79 62q0 23 31 68l287 415q14 21 37 24.5t42 -9.5z" />
    <glyph glyph-name="five" unicode="5" horiz-adv-x="620" vert-adv-y="1105" 
d="M194 715h289q22 0 33.5 -15.5t11.5 -38.5q0 -24 -11.5 -39t-33.5 -15h-254l-8 -181q61 37 134 37q100 0 157.5 -64t57.5 -156v-10q0 -97 -65.5 -168.5t-192.5 -71.5q-134 0 -216 53q-22 14 -26.5 38.5t9.5 44.5q29 48 77 19q66 -39 155 -39q64 0 97 33.5t33 91.5v6
q0 57 -33.5 88.5t-93.5 31.5q-69 0 -118 -41q-28 -22 -53 -22q-24 0 -37.5 11.5t-12.5 31.5l16 288q3 53 19.5 70t65.5 17z" />
    <glyph glyph-name="six" unicode="6" horiz-adv-x="620" vert-adv-y="1105" 
d="M321 364q-65 0 -98 -34t-33 -87v-10q0 -59 32.5 -91.5t93.5 -32.5q65 0 99 32t34 93v6q0 63 -31 93.5t-97 30.5zM347 726q98 0 156 -33q44 -25 24 -75q-9 -23 -28.5 -31t-45.5 2q-52 21 -114 21q-136 0 -151 -197q26 30 70 46.5t92 16.5q104 0 164.5 -63t60.5 -169v-15
q0 -103 -69.5 -169.5t-186.5 -66.5q-258 0 -258 305v36q0 115 22 194.5t63 121.5t89.5 59t111.5 17z" />
    <glyph glyph-name="seven" unicode="7" horiz-adv-x="620" vert-adv-y="1105" 
d="M89 715h391q45 0 65 -16.5t20 -52.5q0 -19 -5 -34.5t-25 -61.5l-234 -519q-11 -25 -35.5 -31t-45.5 5q-54 24 -29 80l240 522h-342q-22 0 -33.5 15.5t-11.5 38.5t11.5 38.5t33.5 15.5z" />
    <glyph glyph-name="eight" unicode="8" horiz-adv-x="620" vert-adv-y="1105" 
d="M310 615q-44 0 -72 -24.5t-28 -69.5v-5q0 -45 30.5 -69t70.5 -24q41 0 70 24t29 69v5q0 45 -27 69.5t-73 24.5zM312 311q-52 0 -86 -25.5t-34 -77.5v-5q0 -46 32.5 -72t87.5 -26q54 0 85 26t31 72v5q0 51 -33 77t-83 26zM309 726q110 0 171 -57.5t61 -140.5v-7
q0 -39 -24.5 -81t-73.5 -70q48 -15 82.5 -60.5t34.5 -102.5v-12q0 -89 -65 -145.5t-182 -56.5q-121 0 -187 56t-66 146v12q0 57 35.5 103t82.5 60q-48 24 -73.5 67.5t-25.5 83.5v7q0 84 59 141t171 57z" />
    <glyph glyph-name="nine" unicode="9" horiz-adv-x="620" vert-adv-y="1105" 
d="M304 726q258 0 258 -305v-36q0 -116 -20 -195t-59.5 -121t-89 -59t-117.5 -17q-98 0 -156 33q-44 25 -24 75q9 23 28.5 31t45.5 -2q52 -21 114 -21q73 0 109 44.5t42 152.5q-26 -30 -70 -46.5t-92 -16.5q-104 0 -164.5 62.5t-60.5 168.5v15q0 103 69.5 170t186.5 67z
M307 610q-65 0 -99 -32t-34 -93v-6q0 -63 31 -93.5t97 -30.5q65 0 98 34t33 87v10q0 59 -32.5 91.5t-93.5 32.5z" />
    <glyph glyph-name="colon" unicode=":" horiz-adv-x="350" vert-adv-y="1105" 
d="M175 605q34 0 56.5 -22.5t22.5 -56.5t-22.5 -56.5t-56.5 -22.5t-56.5 22.5t-22.5 56.5t22.5 56.5t56.5 22.5zM175 215q34 0 56.5 -22.5t22.5 -56.5t-22.5 -56.5t-56.5 -22.5t-56.5 22.5t-22.5 56.5t22.5 56.5t56.5 22.5z" />
    <glyph glyph-name="semicolon" unicode=";" horiz-adv-x="350" vert-adv-y="1105" 
d="M195 213q29 -5 43 -26t4 -49l-51 -138q-17 -45 -64 -36t-39 51l25 152q5 28 29 40t53 6zM175 605q34 0 56.5 -22.5t22.5 -56.5t-22.5 -56.5t-56.5 -22.5t-56.5 22.5t-22.5 56.5t22.5 56.5t56.5 22.5z" />
    <glyph glyph-name="less" unicode="&#x3c;" horiz-adv-x="620" vert-adv-y="1105" 
d="M473 622q51 26 73 -23q23 -53 -21 -75l-322 -162v-6l322 -164q44 -22 21 -76q-10 -22 -29.5 -28.5t-44.5 5.5l-356 187q-35 19 -47 35.5t-12 41.5q0 26 12 42.5t47 35.5z" />
    <glyph glyph-name="equal" unicode="=" horiz-adv-x="620" vert-adv-y="1105" 
d="M111 515h398q21 0 32 -15t11 -37t-11 -37t-32 -15h-398q-21 0 -32 15t-11 37t11 37t32 15zM111 303h398q21 0 32 -15t11 -37t-11 -37t-32 -15h-398q-21 0 -32 15t-11 37t11 37t32 15z" />
    <glyph glyph-name="greater" unicode="&#x3e;" horiz-adv-x="620" vert-adv-y="1105" 
d="M147 622l357 -187q35 -19 47 -35.5t12 -42.5q0 -25 -12 -41.5t-47 -35.5l-356 -187q-25 -12 -44.5 -5.5t-29.5 28.5q-23 54 21 76l322 164v6l-322 162q-44 22 -21 75q22 49 73 23z" />
    <glyph glyph-name="question" unicode="?" horiz-adv-x="557" vert-adv-y="1105" 
d="M270 726q107 0 169.5 -51t62.5 -134v-11q0 -49 -25 -89.5t-95 -103.5q-42 -38 -54 -60t-12 -55q0 -22 -17 -35.5t-41 -13.5q-27 0 -44 13t-17 39q0 56 15.5 90.5t67.5 79.5q60 52 77 77.5t17 56.5v5q0 35 -26 57t-82 22q-65 0 -127 -43q-41 -28 -73 14q-15 18 -13.5 40.5
t20.5 37.5q83 64 197 64zM257 106q32 0 54 -22t22 -54t-22 -54t-54 -22t-54 22t-22 54t22 54t54 22z" />
    <glyph glyph-name="at" unicode="@" horiz-adv-x="1003" vert-adv-y="1105" 
d="M493 436q-47 0 -70 -29t-23 -93v-20q0 -117 93 -117q43 0 70 25.5t27 70.5v61q0 102 -97 102zM493 762q219 0 339.5 -117t120.5 -314v-3q0 -49 -9 -92t-29.5 -83.5t-59 -64t-92.5 -23.5q-98 0 -122 86h-1q-17 -43 -63.5 -63.5t-90.5 -20.5q-103 0 -156 59.5t-53 163.5v30
q0 103 50 163t144 60t127 -63v12q0 24 16.5 36.5t40.5 12.5t41 -12.5t17 -36.5v-254q0 -43 13.5 -63t44.5 -20q43 0 64 39t21 132v2q0 165 -95.5 255.5t-267.5 90.5q-152 0 -249 -96t-97 -264v-4q0 -181 97.5 -277t266.5 -96q136 0 246 48q18 8 34.5 3t23.5 -22
q19 -42 -21 -62q-120 -56 -280 -56q-218 0 -341 124t-123 337v6q0 196 121 321.5t322 125.5z" />
    <glyph glyph-name="A" unicode="A" horiz-adv-x="690" vert-adv-y="1105" 
d="M344 721q55 0 78 -59l225 -580q11 -28 0.5 -49.5t-36.5 -29.5q-66 -20 -85 36l-58 160h-252l-59 -164q-19 -53 -80 -32q-25 9 -35 28t0 46l225 585q22 59 77 59zM342 561q-14 -50 -35 -111l-53 -145h176l-52 145q-20 56 -36 111z" />
    <glyph glyph-name="B" unicode="B" horiz-adv-x="661" vert-adv-y="1105" 
d="M166 715h195q227 0 227 -178v-12q0 -119 -114 -147q147 -22 147 -166v-16q0 -92 -57.5 -142t-171.5 -50h-226q-48 0 -66.5 18t-18.5 65v545q0 47 18.5 65t66.5 18zM208 322v-212h116q92 0 129 19t37 81v13q0 53 -37.5 76t-137.5 23h-107zM208 609v-183h104q88 0 117 19.5
t29 75.5v9q0 46 -34 62.5t-118 16.5h-98z" />
    <glyph glyph-name="C" unicode="C" horiz-adv-x="658" vert-adv-y="1105" 
d="M359 726q128 0 206 -54q22 -15 25 -38.5t-12 -43.5q-13 -19 -34 -24.5t-42 6.5q-60 36 -146 36q-85 0 -129 -56.5t-44 -181.5v-21q0 -124 42.5 -180.5t131.5 -56.5q92 0 160 46q20 14 42 10.5t37 -24.5q16 -21 12 -46t-27 -42q-88 -63 -227 -63q-300 0 -300 346v41
q0 346 305 346z" />
    <glyph glyph-name="D" unicode="D" horiz-adv-x="700" vert-adv-y="1105" 
d="M166 715h165q159 0 237 -79.5t78 -257.5v-37q0 -178 -78 -257.5t-237 -79.5h-165q-48 0 -66.5 18t-18.5 65v545q0 47 18.5 65t66.5 18zM208 607v-495h106q111 0 157 53t46 186v17q0 133 -46 186t-157 53h-106z" />
    <glyph glyph-name="E" unicode="E" horiz-adv-x="608" vert-adv-y="1105" 
d="M166 715h341q21 0 32.5 -15t11.5 -38t-11.5 -38t-32.5 -15h-299v-189h279q21 0 32 -15t11 -37t-11 -37t-32 -15h-279v-206h306q21 0 32.5 -15t11.5 -38t-11.5 -38t-32.5 -15h-348q-48 0 -66.5 18t-18.5 65v545q0 47 18.5 65t66.5 18z" />
    <glyph glyph-name="F" unicode="F" horiz-adv-x="581" vert-adv-y="1105" 
d="M166 715h340q22 0 33.5 -15.5t11.5 -38.5t-11.5 -38.5t-33.5 -15.5h-297v-201h276q22 0 33.5 -15.5t11.5 -38.5t-11.5 -38.5t-33.5 -15.5h-276v-245q0 -27 -18.5 -41t-45.5 -14t-45.5 14t-18.5 41v579q0 47 18.5 65t66.5 18z" />
    <glyph glyph-name="G" unicode="G" horiz-adv-x="686" vert-adv-y="1105" 
d="M375 726q128 0 207 -54q22 -15 25 -38.5t-12 -43.5q-14 -20 -34.5 -25t-39.5 7q-60 38 -146 38q-103 0 -147.5 -52.5t-44.5 -187.5v-21q0 -136 44.5 -188t153.5 -52q68 0 120 21v167h-112q-22 0 -33.5 15.5t-11.5 38.5t11.5 38t33.5 15h154q48 0 66.5 -18t18.5 -65v-198
q0 -38 -13 -59.5t-45 -34.5q-87 -36 -193 -36q-162 0 -242.5 81t-80.5 265v41q0 184 80 265t241 81z" />
    <glyph glyph-name="H" unicode="H" horiz-adv-x="717" vert-adv-y="1105" 
d="M145 721q27 0 45.5 -14t18.5 -41v-238h299v238q0 27 18.5 41t45.5 14t45.5 -14t18.5 -41v-613q0 -27 -18.5 -41t-45.5 -14t-45.5 14t-18.5 41v269h-299v-269q0 -27 -18.5 -41t-45.5 -14t-45.5 14t-18.5 41v613q0 27 18.5 41t45.5 14z" />
    <glyph glyph-name="I" unicode="I" horiz-adv-x="290" vert-adv-y="1105" 
d="M145 721q27 0 45.5 -14t18.5 -41v-613q0 -27 -18.5 -41t-45.5 -14t-45.5 14t-18.5 41v613q0 27 18.5 41t45.5 14z" />
    <glyph glyph-name="J" unicode="J" horiz-adv-x="491" vert-adv-y="1105" 
d="M347 721q27 0 45.5 -14t18.5 -41v-457q0 -216 -224 -216q-83 0 -142 39q-19 12 -22 34t10 43q26 44 73 21q40 -20 81 -20q51 0 73.5 29.5t22.5 100.5v426q0 27 18.5 41t45.5 14z" />
    <glyph glyph-name="K" unicode="K" horiz-adv-x="666" vert-adv-y="1105" 
d="M145 721q27 0 45.5 -14t18.5 -41v-276l293 315q17 17 40.5 15.5t39.5 -18.5q17 -18 19 -39.5t-14 -39.5l-222 -231l245 -292q19 -23 16 -46t-25 -40q-19 -17 -44 -16.5t-42 22.5l-233 291l-73 -75v-183q0 -27 -18.5 -41t-45.5 -14t-45.5 14t-18.5 41v613q0 27 18.5 41
t45.5 14z" />
    <glyph glyph-name="L" unicode="L" horiz-adv-x="558" vert-adv-y="1105" 
d="M145 721q27 0 45.5 -14t18.5 -41v-554h290q22 0 33.5 -15.5t11.5 -38.5t-11.5 -38.5t-33.5 -15.5h-333q-48 0 -66.5 18t-18.5 65v579q0 27 18.5 41t45.5 14z" />
    <glyph glyph-name="M" unicode="M" horiz-adv-x="875" vert-adv-y="1105" 
d="M166 717h21q46 0 68 -18.5t48 -83.5l137 -342l131 341q24 63 47.5 83t69.5 20h21q48 0 66.5 -18t18.5 -65v-584q0 -26 -17 -39t-44 -13q-25 0 -42.5 13.5t-17.5 38.5v555q-14 -60 -33 -108l-132 -325q-12 -31 -27 -42t-41 -11q-31 0 -46.5 11.5t-28.5 44.5l-129 322
q-16 40 -35 108v-555q0 -26 -17.5 -39t-43.5 -13q-25 0 -42 13.5t-17 38.5v584q0 47 18.5 65t66.5 18z" />
    <glyph glyph-name="N" unicode="N" horiz-adv-x="721" vert-adv-y="1105" 
d="M581 721q25 0 42 -13.5t17 -38.5v-584q0 -47 -18.5 -65t-66.5 -18q-38 0 -60 17.5t-59 83.5l-189 338q-33 60 -48 115v-506q0 -25 -17 -38.5t-42 -13.5t-42 13.5t-17 38.5v584q0 47 18.5 65t66.5 18q38 0 60 -18t59 -83l189 -338q33 -60 48 -115v506q0 25 17 38.5
t42 13.5z" />
    <glyph glyph-name="O" unicode="O" horiz-adv-x="720" vert-adv-y="1105" 
d="M360 726q306 0 306 -346v-41q0 -346 -306 -346t-306 346v41q0 346 306 346zM360 609q-91 0 -134 -54t-43 -185v-21q0 -131 43 -185t134 -54t134 54t43 185v21q0 131 -43 185t-134 54z" />
    <glyph glyph-name="P" unicode="P" horiz-adv-x="636" vert-adv-y="1105" 
d="M166 715h187q124 0 185.5 -56t61.5 -150v-14q0 -93 -64 -155t-183 -62h-144v-225q0 -27 -18.5 -41t-45.5 -14t-45.5 14t-18.5 41v579q0 47 18.5 65t66.5 18zM209 608v-222h127q67 0 101 25.5t34 85.5v11q0 56 -32 78t-92 22h-138z" />
    <glyph glyph-name="Q" unicode="Q" horiz-adv-x="714" vert-adv-y="1105" 
d="M360 726q306 0 306 -346v-41q0 -161 -66 -247l58 -57q15 -17 12.5 -35t-18.5 -34q-36 -36 -68 -5l-65 64q-66 -32 -159 -32q-306 0 -306 346v41q0 346 306 346zM360 609q-91 0 -134 -54t-43 -185v-21q0 -131 43 -185t134 -54q38 0 65 8l-59 59q-15 17 -13 34.5t18 33.5
q37 37 69 6l67 -67q30 57 30 165v21q0 131 -43 185t-134 54z" />
    <glyph glyph-name="R" unicode="R" horiz-adv-x="660" vert-adv-y="1105" 
d="M166 715h188q110 0 172 -55t62 -150v-18q0 -134 -121 -183l126 -223q13 -25 5.5 -46.5t-31.5 -33.5q-22 -12 -47 -7.5t-37 28.5l-137 262q-7 -1 -22 -1h-115v-235q0 -27 -18.5 -41t-45.5 -14t-45.5 14t-18.5 41v579q0 47 18.5 65t66.5 18zM209 608v-213h117
q71 0 103 24.5t32 74.5v13q0 101 -124 101h-128z" />
    <glyph glyph-name="S" unicode="S" horiz-adv-x="626" vert-adv-y="1105" 
d="M321 726q108 0 181 -37q22 -11 28 -33t-6 -44q-24 -45 -71 -25q-58 25 -130 25q-61 0 -97 -26.5t-36 -60.5v-6q0 -38 30.5 -59t119.5 -39q123 -25 178 -75.5t55 -132.5v-9q0 -102 -67.5 -156.5t-197.5 -54.5q-129 0 -219 56q-23 14 -26.5 38.5t10.5 44.5q30 46 77 19
q75 -43 164 -43q66 0 98.5 23.5t32.5 62.5v7q0 41 -32 65t-105 38q-132 26 -188.5 71t-56.5 141v7q0 88 68 145.5t190 57.5z" />
    <glyph glyph-name="T" unicode="T" horiz-adv-x="571" vert-adv-y="1105" 
d="M49 715h473q22 0 33.5 -15.5t11.5 -38.5t-11.5 -38.5t-33.5 -15.5h-172v-554q0 -27 -18.5 -41t-45.5 -14t-45.5 14t-18.5 41v554h-173q-22 0 -33.5 15.5t-11.5 38.5t11.5 38.5t33.5 15.5z" />
    <glyph glyph-name="U" unicode="U" horiz-adv-x="696" vert-adv-y="1105" 
d="M132 721q27 0 45.5 -14t18.5 -41v-367q0 -104 36 -147t116 -43t116 43t36 147v367q0 27 18.5 41t45.5 14t45.5 -14t18.5 -41v-365q0 -170 -68.5 -239t-211.5 -69q-142 0 -211 69t-69 239v365q0 27 18.5 41t45.5 14z" />
    <glyph glyph-name="V" unicode="V" horiz-adv-x="707" vert-adv-y="1105" 
d="M619 716q25 -9 36 -29t0 -47l-226 -583q-23 -59 -79 -59q-55 0 -78 59l-220 582q-21 56 37 77q24 10 50 1.5t35 -34.5l179 -521l183 519q10 28 34 36.5t49 -1.5z" />
    <glyph glyph-name="W" unicode="W" horiz-adv-x="992" vert-adv-y="1105" 
d="M500 721q60 0 76 -60l130 -470l127 486q7 26 27 36.5t46 5.5t37.5 -24.5t3.5 -46.5l-165 -590q-16 -60 -76 -60t-76 62l-131 489l-137 -491q-8 -31 -29.5 -45.5t-47.5 -14.5q-61 0 -77 61l-161 583q-8 29 4 49t40 27q64 15 78 -39l123 -489l131 471q16 60 77 60z" />
    <glyph glyph-name="X" unicode="X" horiz-adv-x="669" vert-adv-y="1105" 
d="M576 712q25 -14 31 -36t-10 -47l-181 -263l186 -272q17 -24 12 -47.5t-30 -38.5q-21 -14 -47 -9.5t-40 26.5l-165 254l-166 -252q-14 -22 -38.5 -27.5t-46.5 7.5q-23 14 -29 36.5t9 45.5l195 279l-177 257q-16 24 -8 48.5t34 38.5q24 13 49 7.5t40 -29.5l148 -236
l151 237q15 23 38 28.5t45 -7.5z" />
    <glyph glyph-name="Y" unicode="Y" horiz-adv-x="648" vert-adv-y="1105" 
d="M567 714q25 -11 32.5 -31t-7.5 -49l-204 -350v-231q0 -27 -18.5 -41t-45.5 -14t-45.5 14t-18.5 41v231l-203 349q-14 24 -6.5 45.5t32.5 34.5q21 12 45.5 6t38.5 -31l160 -286l157 285q28 51 83 27z" />
    <glyph glyph-name="Z" unicode="Z" horiz-adv-x="629" vert-adv-y="1105" 
d="M89 715h406q45 0 65 -16.5t20 -52.5q0 -18 -7 -32.5t-34 -48.5l-357 -451h375q23 0 34.5 -15.5t11.5 -39.5t-11.5 -39.5t-34.5 -15.5h-443q-49 0 -70 17t-21 56q0 18 10 38t45 64l336 426h-325q-23 0 -34.5 15.5t-11.5 39.5t11.5 39.5t34.5 15.5z" />
    <glyph glyph-name="bracketleft" unicode="[" horiz-adv-x="422" vert-adv-y="1105" 
d="M172 796h169q22 0 33.5 -15.5t11.5 -38.5t-11.5 -38.5t-33.5 -15.5h-127v-710h127q22 0 33.5 -15.5t11.5 -38.5t-11.5 -38.5t-33.5 -15.5h-169q-48 0 -66.5 18t-18.5 65v760q0 47 18.5 65t66.5 18z" />
    <glyph glyph-name="backslash" unicode="\" horiz-adv-x="962" vert-adv-y="1105" 
d="M487 721q53 0 68 -60l56 -238h105l57 255q6 25 25.5 35.5t43.5 5.5q25 -5 37 -23.5t5 -45.5l-57 -227h80q29 0 29 -36q0 -35 -29 -35h-97l-73 -294q-15 -60 -68 -60t-68 62l-68 292h-96l-74 -294q-15 -60 -69 -60t-68 61l-73 293h-98q-29 0 -29 35q0 36 29 36h81l-56 227
q-7 27 5.5 45.5t37.5 23.5q57 13 70 -41l57 -255h109l60 238q15 60 68 60zM266 352l35 -158l40 158h-75zM628 352l37 -157l35 157h-72zM487 549l-32 -126h61z" />
    <glyph glyph-name="bracketright" unicode="]" horiz-adv-x="422" vert-adv-y="1105" 
d="M81 796h169q48 0 66.5 -18t18.5 -65v-760q0 -47 -18.5 -65t-66.5 -18h-169q-22 0 -33.5 15.5t-11.5 38.5t11.5 38.5t33.5 15.5h127v710h-127q-22 0 -33.5 15.5t-11.5 38.5t11.5 38.5t33.5 15.5z" />
    <glyph glyph-name="asciicircum" unicode="^" horiz-adv-x="524" vert-adv-y="1105" 
d="M262 740q56 0 89 -66l101 -197q11 -24 4.5 -41t-27.5 -26q-51 -21 -71 22l-96 203l-96 -203q-20 -43 -71 -22q-21 9 -27.5 26t4.5 41l102 197q34 66 88 66z" />
    <glyph glyph-name="underscore" unicode="_" horiz-adv-x="520" vert-adv-y="1105" 
d="M36 -32h448q17 0 26.5 -12.5t9.5 -32.5q0 -18 -9.5 -30.5t-26.5 -12.5h-448q-17 0 -26.5 12.5t-9.5 30.5q0 20 9.5 32.5t26.5 12.5z" />
    <glyph glyph-name="grave" unicode="`" horiz-adv-x="330" vert-adv-y="1105" 
d="M106 771q18 15 42.5 13.5t39.5 -24.5l61 -94q22 -36 -11 -62q-33 -27 -67 8l-77 81q-17 20 -12.5 41.5t24.5 36.5z" />
    <glyph glyph-name="a" unicode="a" horiz-adv-x="572" vert-adv-y="1105" 
d="M257 231q-89 0 -89 -70v-2q0 -58 75 -58q59 0 93 20q45 27 45 84v26h-124zM283 547q99 0 160.5 -47t61.5 -129v-325q0 -23 -16.5 -35.5t-40.5 -12.5t-40.5 12.5t-16.5 35.5v26h-1q-14 -31 -59 -54q-44 -22 -98 -22q-89 0 -138 41.5t-49 115.5v16q0 159 208 159h126v14
q0 51 -23.5 73.5t-74.5 22.5q-68 0 -128 -36q-20 -12 -39.5 -6.5t-31.5 25.5q-12 18 -8.5 39.5t22.5 33.5q79 53 186 53z" />
    <glyph glyph-name="b" unicode="b" horiz-adv-x="613" vert-adv-y="1105" 
d="M138 746q27 0 45 -13.5t18 -39.5v-212q24 35 67 50.5t84 15.5q215 0 215 -262v-26q0 -128 -59.5 -195.5t-161.5 -67.5q-105 0 -148 72h-3v-19q0 -25 -17.5 -38t-42.5 -13t-42.5 13t-17.5 38v644q0 25 18.5 39t44.5 14zM327 439q-61 0 -94.5 -36t-33.5 -94v-93
q0 -43 38 -78t93 -35q112 0 112 159v20q0 79 -27 118t-88 39z" />
    <glyph glyph-name="c" unicode="c" horiz-adv-x="527" vert-adv-y="1105" 
d="M296 547q103 0 171 -45q19 -13 22.5 -35.5t-10.5 -41.5q-29 -41 -69 -17q-49 29 -114 29q-123 0 -123 -153v-25q0 -74 32 -113t92 -39q70 0 122 29q20 12 40.5 7t31.5 -25q12 -20 8.5 -42.5t-23.5 -35.5q-69 -44 -180 -44q-120 0 -185 66.5t-65 196.5v25q0 130 65 196.5
t185 66.5z" />
    <glyph glyph-name="d" unicode="d" horiz-adv-x="612" vert-adv-y="1105" 
d="M287 439q-117 0 -117 -158v-20q0 -81 27 -119.5t85 -38.5q60 0 95.5 38.5t35.5 96.5v92q0 43 -32.5 76t-93.5 33zM474 746q27 0 45 -13.5t18 -39.5v-644q0 -25 -17.5 -38t-42.5 -13q-24 0 -41.5 13t-17.5 38v20h-3q-40 -73 -158 -73q-104 0 -158 67t-54 195v26
q0 128 59.5 195.5t161.5 67.5q106 0 145 -59v205q0 25 18.5 39t44.5 14z" />
    <glyph glyph-name="e" unicode="e" horiz-adv-x="582" vert-adv-y="1105" 
d="M295 443q-61 0 -93.5 -32t-32.5 -85v-7h248v10q0 52 -29.5 83t-92.5 31zM297 547q109 0 175 -63t66 -174v-2q0 -47 -18.5 -65t-66.5 -18h-284v-2q0 -55 34.5 -88.5t99.5 -33.5q76 0 138 28q20 9 39 2.5t28 -27.5t3.5 -40.5t-24.5 -29.5q-76 -38 -189 -38
q-121 0 -186.5 66.5t-65.5 195.5v26q0 128 66 195.5t185 67.5z" />
    <glyph glyph-name="f" unicode="f" horiz-adv-x="406" vert-adv-y="1105" 
d="M291 746q37 0 68 -10q42 -14 34 -59q-10 -49 -51 -42q-21 4 -39 4q-66 0 -66 -69v-35h102q21 0 32.5 -15t11.5 -37t-11.5 -37t-32.5 -15h-102v-380q0 -26 -18 -39.5t-45 -13.5q-26 0 -44.5 14t-18.5 39v380h-51q-21 0 -32.5 15t-11.5 37t11.5 37t32.5 15h51v38
q0 84 45 128.5t135 44.5z" />
    <glyph glyph-name="g" unicode="g" horiz-adv-x="612" vert-adv-y="1105" 
d="M266 547q58 0 95.5 -18.5t53.5 -41.5h1v3q0 25 17.5 38t43.5 13q25 0 42.5 -13t17.5 -38v-471q0 -115 -64 -171.5t-198 -56.5q-87 0 -156 39q-19 11 -22.5 34t7.5 41q26 45 69 24q56 -29 104 -29q68 0 102 28.5t34 91.5v62h-2q-39 -72 -154 -72q-104 0 -158 66t-54 192
v20q0 125 59.5 192t161.5 67zM287 439q-117 0 -117 -154v-14q0 -78 27 -116t85 -38q60 0 95.5 38.5t35.5 96.5v78q0 43 -32.5 76t-93.5 33z" />
    <glyph glyph-name="h" unicode="h" horiz-adv-x="621" vert-adv-y="1105" 
d="M135 746q25 0 42.5 -13t17.5 -38v-223h2q22 37 67 56t95 19q89 0 140.5 -52.5t51.5 -151.5v-292q0 -26 -18 -39.5t-45 -13.5q-26 0 -44.5 14t-18.5 39v265q0 67 -27.5 94t-77.5 27q-46 0 -82.5 -31t-36.5 -98v-257q0 -26 -18 -39.5t-45 -13.5q-26 0 -44.5 14t-18.5 39
v644q0 25 17.5 38t42.5 13z" />
    <glyph glyph-name="i" unicode="i" horiz-adv-x="282" vert-adv-y="1105" 
d="M141 541q27 0 45 -13.5t18 -39.5v-437q0 -26 -18 -39.5t-45 -13.5q-26 0 -44.5 14t-18.5 39v437q0 25 18.5 39t44.5 14zM141 748q33 0 56 -22t23 -54t-23 -54t-56 -22t-56 22t-23 54t23 54t56 22z" />
    <glyph glyph-name="j" unicode="j" horiz-adv-x="306" vert-adv-y="1105" 
d="M165 748q33 0 56 -22t23 -54t-23 -54t-56 -22t-56 22t-23 54t23 54t56 22zM165 541q27 0 45 -13.5t18 -39.5v-504q0 -183 -178 -183q-51 0 -88 17q-40 18 -25 65q7 23 23 31t33 2q23 -8 46 -8q34 0 48.5 17.5t14.5 57.5v505q0 25 18.5 39t44.5 14z" />
    <glyph glyph-name="k" unicode="k" horiz-adv-x="582" vert-adv-y="1105" 
d="M138 746q27 0 45 -13.5t18 -39.5v-382l215 212q19 18 44.5 17t42.5 -19q18 -19 17.5 -42.5t-19.5 -40.5l-148 -134l174 -205q17 -22 14 -45t-23 -39q-20 -18 -46 -17.5t-42 21.5l-167 207l-62 -56v-119q0 -26 -18 -39.5t-45 -13.5q-26 0 -44.5 14t-18.5 39v642
q0 25 18.5 39t44.5 14z" />
    <glyph glyph-name="l" unicode="l" horiz-adv-x="276" vert-adv-y="1105" 
d="M138 746q27 0 45 -14t18 -40v-640q0 -26 -18 -40t-45 -14t-45 14t-18 40v640q0 26 18 40t45 14z" />
    <glyph glyph-name="m" unicode="m" horiz-adv-x="925" vert-adv-y="1105" 
d="M347 547q51 0 91.5 -23t55.5 -61q30 43 70.5 63.5t100.5 20.5q81 0 135.5 -54.5t54.5 -153.5v-288q0 -26 -18 -39.5t-45 -13.5q-26 0 -44.5 14t-18.5 39v262q0 122 -100 122q-43 0 -72 -27.5t-29 -90.5v-266q0 -26 -18 -39.5t-45 -13.5q-26 0 -44.5 14t-18.5 39v264
q0 120 -100 120q-46 0 -73.5 -29t-27.5 -84v-271q0 -26 -18 -39.5t-45 -13.5q-26 0 -44.5 14t-18.5 39v439q0 25 17.5 38t41.5 13q25 0 42.5 -13t17.5 -38v-28q46 85 153 85z" />
    <glyph glyph-name="n" unicode="n" horiz-adv-x="621" vert-adv-y="1105" 
d="M359 547q89 0 140.5 -52.5t51.5 -151.5v-292q0 -26 -18 -39.5t-45 -13.5q-26 0 -44.5 14t-18.5 39v265q0 67 -27.5 94t-77.5 27q-46 0 -82.5 -31t-36.5 -98v-257q0 -26 -18 -39.5t-45 -13.5q-26 0 -44.5 14t-18.5 39v439q0 25 17.5 38t42.5 13t42.5 -13t17.5 -38v-18h2
q22 37 67 56t95 19z" />
    <glyph glyph-name="o" unicode="o" horiz-adv-x="608" vert-adv-y="1105" 
d="M304 547q123 0 190.5 -67.5t67.5 -195.5v-25q0 -128 -67.5 -195.5t-190.5 -67.5t-190.5 67.5t-67.5 195.5v25q0 128 67.5 195.5t190.5 67.5zM304 437q-68 0 -99.5 -37t-31.5 -118v-21q0 -81 31.5 -118t99.5 -37t99.5 37t31.5 118v21q0 81 -31.5 118t-99.5 37z" />
    <glyph glyph-name="p" unicode="p" horiz-adv-x="613" vert-adv-y="1105" 
d="M352 547q215 0 215 -262v-26q0 -128 -59.5 -195.5t-161.5 -67.5q-97 0 -145 64v-203q0 -26 -18 -39.5t-45 -13.5q-26 0 -44.5 14t-18.5 39v633q0 25 17.5 38t42.5 13q26 0 43.5 -13t17.5 -38v-15q49 72 156 72zM327 439q-61 0 -94.5 -36t-33.5 -94v-93q0 -43 38 -78
t93 -35q112 0 112 159v20q0 79 -27 118t-88 39z" />
    <glyph glyph-name="q" unicode="q" horiz-adv-x="612" vert-adv-y="1105" 
d="M266 547q103 0 147 -59h2v2q0 25 17.5 38t44.5 13q25 0 42.5 -13t17.5 -38v-634q0 -25 -18.5 -38.5t-43.5 -13.5q-26 0 -44 13.5t-18 38.5v212h-3q-39 -72 -153 -72q-104 0 -158 67t-54 195v26q0 128 59.5 195.5t161.5 67.5zM287 439q-117 0 -117 -158v-20
q0 -81 27 -119.5t85 -38.5q60 0 95.5 38.5t35.5 96.5v92q0 43 -32.5 76t-93.5 33z" />
    <glyph glyph-name="r" unicode="r" horiz-adv-x="442" vert-adv-y="1105" 
d="M342 547q35 0 54 -11q34 -18 26 -63q-5 -28 -23 -43t-40 -11q-45 8 -50 8q-46 0 -77 -33.5t-31 -83.5v-259q0 -26 -18 -39.5t-45 -13.5q-26 0 -44.5 14t-18.5 39v439q0 25 17.5 38t42.5 13q26 0 43.5 -13t17.5 -38v-35h2q21 42 59.5 67t84.5 25z" />
    <glyph glyph-name="s" unicode="s" horiz-adv-x="513" vert-adv-y="1105" 
d="M262 547q99 0 156 -31q49 -27 26 -75q-20 -42 -65 -22q-49 23 -103 23q-101 0 -101 -47v-2q0 -25 17.5 -36t84.5 -24q118 -23 160 -60t42 -114v-4q0 -69 -60 -114t-159 -45q-115 0 -197 45q-20 11 -25 32.5t6 41.5q11 21 30 28t41 -4q71 -37 144 -37q92 0 92 53v2
q0 26 -19.5 38t-95.5 26q-104 20 -145.5 58.5t-41.5 111.5v4q0 64 55 108t158 44z" />
    <glyph glyph-name="t" unicode="t" horiz-adv-x="413" vert-adv-y="1105" 
d="M173 682q27 0 45 -14t18 -40v-93h105q21 0 32.5 -15t11.5 -37t-11.5 -37t-32.5 -15h-105v-264q0 -64 49 -64q23 0 46 8q17 6 33 -2t23 -31q15 -47 -25 -65q-37 -17 -88 -17q-87 0 -125.5 43.5t-38.5 133.5v258h-50q-21 0 -32.5 15t-11.5 37t11.5 37t32.5 15h50v93
q0 26 18 40t45 14z" />
    <glyph glyph-name="u" unicode="u" horiz-adv-x="618" vert-adv-y="1105" 
d="M133 541q26 0 44.5 -14t18.5 -39v-262q0 -67 27.5 -94t76.5 -27q46 0 81.5 31t35.5 98v254q0 26 18 39.5t45 13.5q26 0 44.5 -14t18.5 -39v-439q0 -25 -17.5 -38t-42.5 -13t-42.5 13t-17.5 38v21h-2q-22 -37 -66.5 -56t-93.5 -19q-88 0 -139.5 52.5t-51.5 151.5v289
q0 26 18 39.5t45 13.5z" />
    <glyph glyph-name="v" unicode="v" horiz-adv-x="536" vert-adv-y="1105" 
d="M62 535q23 10 48 3t34 -34l126 -371h1l126 371q18 53 80 31q24 -9 34.5 -28.5t0.5 -45.5l-151 -396q-26 -67 -93 -67t-93 67l-151 396q-10 25 2 45t36 29z" />
    <glyph glyph-name="w" unicode="w" horiz-adv-x="786" vert-adv-y="1105" 
d="M397 541q57 0 72 -61l82 -352h4l79 366q6 30 26.5 40.5t47.5 4.5q58 -13 43 -74l-102 -399q-18 -68 -89 -68q-72 0 -89 67l-75 307h-4l-76 -307q-17 -67 -89 -67t-89 67l-102 397q-7 30 5.5 50.5t40.5 26.5q29 6 51 -5t28 -43l72 -363h4l86 350q15 63 74 63z" />
    <glyph glyph-name="x" unicode="x" horiz-adv-x="532" vert-adv-y="1105" 
d="M465 528q21 -15 25 -37t-12 -44l-135 -172l144 -178q36 -46 -11 -85q-18 -16 -44.5 -13.5t-42.5 24.5l-124 165l-124 -164q-17 -23 -41.5 -25.5t-42.5 12.5q-21 16 -25 37.5t12 43.5l147 183l-132 167q-36 46 11 85q18 16 44.5 13.5t42.5 -24.5l112 -154l112 153
q16 23 41 25.5t43 -12.5z" />
    <glyph glyph-name="y" unicode="y" horiz-adv-x="559" vert-adv-y="1105" 
d="M486 537q24 -7 35.5 -27.5t2.5 -45.5l-250 -635q-9 -24 -31.5 -30.5t-46.5 4.5q-52 21 -33 69l54 130l-182 458q-10 26 2 46t37 29q63 22 82 -32l125 -358h1l124 358q9 27 34 35t46 -1z" />
    <glyph glyph-name="z" unicode="z" horiz-adv-x="498" vert-adv-y="1105" 
d="M81 535h294q45 0 65 -16.5t20 -52.5q0 -19 -8 -35t-33 -46l-236 -272h252q22 0 33.5 -15.5t11.5 -39.5t-11.5 -39t-33.5 -15h-333q-82 0 -82 55q0 20 8 35.5t38 50.5l239 281h-224q-22 0 -33.5 15t-11.5 39t11.5 39.5t33.5 15.5z" />
    <glyph glyph-name="braceleft" unicode="{" horiz-adv-x="478" vert-adv-y="1105" 
d="M316 796h81q22 0 33.5 -15.5t11.5 -38.5t-11.5 -38.5t-33.5 -15.5h-60q-41 0 -51.5 -18.5t-10.5 -73.5v-131q0 -42 -20 -77t-68 -46q48 -11 68 -46t20 -77v-157q0 -52 11 -68t51 -16h60q22 0 33.5 -15.5t11.5 -38.5t-11.5 -38.5t-33.5 -15.5h-81q-79 0 -123.5 36
t-44.5 107v201q0 63 -67 72q-45 6 -45 56t45 56q67 9 67 72v175q0 72 45 111.5t123 39.5z" />
    <glyph glyph-name="bar" unicode="|" horiz-adv-x="307" vert-adv-y="1105" 
d="M153 802q27 0 45 -14t18 -40v-830q0 -26 -18 -40t-45 -14t-44.5 14t-17.5 40v830q0 26 17.5 40t44.5 14z" />
    <glyph glyph-name="braceright" unicode="}" horiz-adv-x="478" vert-adv-y="1105" 
d="M81 796h81q78 0 123 -39.5t45 -111.5v-175q0 -63 67 -72q45 -6 45 -56t-45 -56q-67 -9 -67 -72v-201q0 -71 -44.5 -107t-123.5 -36h-81q-22 0 -33.5 15.5t-11.5 38.5t11.5 38.5t33.5 15.5h60q40 0 51 16t11 68v157q0 42 20 77t68 46q-48 11 -68 46t-20 77v131
q0 55 -10.5 73.5t-51.5 18.5h-60q-22 0 -33.5 15.5t-11.5 38.5t11.5 38.5t33.5 15.5z" />
    <glyph glyph-name="asciitilde" unicode="~" horiz-adv-x="600" vert-adv-y="1105" 
d="M503 464q48 -11 39 -59q-14 -71 -54.5 -109t-96.5 -38q-40 0 -73 22.5t-59 45t-49 22.5q-36 0 -50 -64q-5 -22 -22.5 -30.5t-40.5 -3.5q-47 11 -38 59q10 56 50 101.5t98 45.5q33 0 61.5 -14t45.5 -31t37 -31t38 -14q38 0 51 64q5 22 22.5 30.5t40.5 3.5z" />
    <glyph glyph-name="exclamdown" unicode="&#xa1;" horiz-adv-x="320" vert-adv-y="1105" 
d="M160 605q32 0 54 -22t22 -54t-22 -54t-54 -22t-54 22t-22 54t22 54t54 22zM160 379q23 0 38 -13t16 -42l15 -430q1 -32 -17.5 -46.5t-51.5 -14.5t-51.5 14.5t-17.5 46.5l15 430q1 29 16 42t38 13z" />
    <glyph glyph-name="currency" unicode="&#xa4;" horiz-adv-x="600" vert-adv-y="1105" 
d="M463 589q16 14 33 12.5t33 -17.5q35 -36 5 -66l-62 -61q27 -46 27 -100t-27 -100l62 -61q30 -30 -5 -66q-16 -16 -33 -17.5t-33 12.5l-61 62q-47 -28 -102 -28t-103 28l-60 -62q-16 -14 -33 -12.5t-33 17.5q-35 36 -5 66l62 61q-27 46 -27 100q0 52 27 100l-62 61
q-30 30 5 66q36 35 66 5l60 -62q47 28 103 28q55 0 102 -28zM300 457q-41 0 -69.5 -29t-28.5 -71t28.5 -71t69.5 -29t69.5 29t28.5 71t-28.5 71t-69.5 29z" />
    <glyph glyph-name="section" unicode="&#xa7;" horiz-adv-x="580" vert-adv-y="1105" 
d="M306 726q91 0 148 -31q49 -28 27 -77q-22 -44 -67 -23q-48 23 -103 23q-54 0 -82.5 -18.5t-28.5 -49.5v-3q0 -36 31.5 -57t126.5 -43q97 -22 140.5 -64.5t43.5 -110.5v-9q0 -106 -100 -141q63 -44 63 -132v-10q0 -84 -58.5 -131.5t-172.5 -47.5q-99 0 -159 37
q-48 30 -26 78q11 20 29 26t40 -4q54 -28 112 -28q53 0 81.5 18.5t28.5 48.5v3q0 36 -31.5 57t-126.5 43q-97 22 -140.5 64.5t-43.5 110.5v9q0 106 100 141q-63 45 -63 132v10q0 84 58.5 131.5t172.5 47.5zM245 355q-81 -21 -81 -74v-4q0 -34 21 -53.5t82 -33.5
q42 -10 67 -18q82 21 82 74v4q0 34 -21 53.5t-82 33.5q-31 7 -68 18z" />
    <glyph glyph-name="dieresis" unicode="&#xa8;" horiz-adv-x="442" vert-adv-y="1105" 
d="M124 740q30 0 49.5 -20t19.5 -49t-19.5 -49t-49.5 -20q-29 0 -49 20t-20 49t20 49t49 20zM318 740q30 0 49.5 -20t19.5 -49t-19.5 -49t-49.5 -20q-29 0 -49 20t-20 49t20 49t49 20z" />
    <glyph glyph-name="copyright" unicode="&#xa9;" horiz-adv-x="850" vert-adv-y="1105" 
d="M423 642q-119 0 -196.5 -78.5t-77.5 -204.5q0 -123 78 -203t196 -80q123 0 200.5 79.5t77.5 203.5q0 126 -78.5 204.5t-199.5 78.5zM423 726q167 0 268 -104.5t101 -262.5q0 -156 -101.5 -261.5t-267.5 -105.5q-162 0 -263.5 105.5t-101.5 261.5q0 157 101 262t264 105z
M432 552q74 0 120 -31q13 -9 15.5 -25t-7.5 -29q-20 -29 -48 -13q-34 20 -80 20q-86 0 -86 -106v-17q0 -106 87 -106q49 0 85 21q14 8 28.5 4t21.5 -18q20 -35 -10 -55q-48 -30 -126 -30q-84 0 -129.5 46.5t-45.5 137.5v17q0 91 45.5 137.5t129.5 46.5z" />
    <glyph glyph-name="ordfeminine" unicode="&#xaa;" horiz-adv-x="471" vert-adv-y="1105" 
d="M219 490q-38 0 -51 -13.5t-13 -42.5v-3q0 -41 53 -41q40 0 64 12q37 18 37 68v20h-90zM235 753q82 0 133 -37.5t51 -107.5v-271q0 -19 -15.5 -29t-35.5 -10q-50 0 -51 39v23h-1q-12 -29 -42 -46q-31 -16 -82 -16q-144 0 -144 129v20q0 131 163 131h98v5q0 43 -16.5 59.5
t-58.5 16.5q-47 0 -106 -34q-35 -21 -58 20q-22 39 10 62q71 46 155 46z" />
    <glyph glyph-name="guillemotleft" unicode="&#xab;" vert-adv-y="1105" 
d="M776 700l39 -51l-434 -296l435 -284l-32 -53l-482 314v45zM567 703l37 -53l-431 -298l437 -286l-36 -54l-480 318v45z" />
    <glyph glyph-name="degree" unicode="&#xb0;" horiz-adv-x="322" vert-adv-y="1105" 
d="M161 761q59 0 95.5 -38.5t36.5 -93.5t-36.5 -93.5t-95.5 -38.5t-95.5 38.5t-36.5 93.5t36.5 93.5t95.5 38.5zM161 691q-27 0 -43.5 -18t-16.5 -44t16.5 -44t43.5 -18t43.5 18t16.5 44t-16.5 44t-43.5 18z" />
    <glyph glyph-name="plusminus" unicode="&#xb1;" horiz-adv-x="650" vert-adv-y="1105" 
d="M325 714q23 0 39.5 -12t16.5 -35v-146h163q21 0 32 -14.5t11 -36.5t-11 -37t-32 -15h-163v-149q0 -23 -16.5 -35t-39.5 -12t-39.5 12t-16.5 35v149h-163q-21 0 -32 15t-11 37t11 36.5t32 14.5h163v146q0 23 16.5 35t39.5 12zM103 162h444q21 0 32 -15t11 -38t-11 -38
t-32 -15h-444q-21 0 -32 15t-11 38t11 38t32 15z" />
    <glyph glyph-name="uni00B2" unicode="&#xb2;" horiz-adv-x="400" vert-adv-y="1105" 
d="M200 826q72 0 109 -33.5t37 -86.5v-7q0 -64 -73 -136l-101 -98h158q35 0 35 -40q0 -17 -9.5 -28.5t-25.5 -11.5h-223q-62 0 -62 49q0 19 23 42l135 137q30 31 40 48t10 38v2q0 40 -52 40q-39 0 -70 -37q-11 -14 -27 -15.5t-30 8.5q-33 24 -11 58q47 71 137 71z" />
    <glyph glyph-name="uni00B3" unicode="&#xb3;" horiz-adv-x="400" vert-adv-y="1105" 
d="M198 826q71 0 110 -31t39 -85v-3q0 -36 -20.5 -62t-48.5 -32q34 -4 60.5 -28.5t26.5 -68.5v-5q0 -58 -46 -93.5t-118 -35.5q-73 0 -121 32q-34 22 -13 58q22 36 58 14q37 -22 73 -22q73 0 73 50v4q0 53 -77 53h-31q-35 0 -35 40q0 39 35 39h25q68 0 68 51v2q0 42 -58 42
q-34 0 -62 -26t-55 5q-11 13 -10 28t11 27q42 47 116 47z" />
    <glyph glyph-name="acute" unicode="&#xb4;" horiz-adv-x="330" vert-adv-y="1105" 
d="M224 771q20 -15 24.5 -36.5t-12.5 -41.5l-77 -81q-34 -35 -67 -8q-33 26 -11 62l61 94q15 23 39.5 24.5t42.5 -13.5z" />
    <glyph glyph-name="paragraph" unicode="&#xb6;" horiz-adv-x="632" vert-adv-y="1105" 
d="M280 715h186q48 0 66.5 -18t18.5 -65v-737q0 -20 -14 -30.5t-35 -10.5q-20 0 -33.5 10.5t-13.5 30.5v714h-63v-714q0 -20 -14 -30.5t-35 -10.5q-20 0 -33.5 10.5t-13.5 30.5v438h-39q-93 0 -153.5 50.5t-60.5 138.5q0 87 58 140t179 53z" />
    <glyph glyph-name="cedilla" unicode="&#xb8;" horiz-adv-x="330" vert-adv-y="1105" 
d="M106 62h68v-55q100 -8 100 -78q0 -51 -44.5 -78.5t-122.5 -31.5q-32 -2 -34 31q-2 29 26 32q85 8 85 41q0 30 -78 30v109z" />
    <glyph glyph-name="uni00B9" unicode="&#xb9;" horiz-adv-x="400" vert-adv-y="1105" 
d="M228 822q48 0 48 -41v-357q0 -21 -13.5 -31.5t-32.5 -10.5t-32.5 10.5t-13.5 31.5v286l-63 -36q-18 -9 -34 -3t-24 21q-9 15 -4.5 33t19.5 26l99 56q27 15 51 15z" />
    <glyph glyph-name="ordmasculine" unicode="&#xba;" horiz-adv-x="499" vert-adv-y="1105" 
d="M249 748q101 0 156.5 -55t55.5 -160v-19q0 -105 -55.5 -160t-156.5 -55q-100 0 -155 55t-55 160v19q0 105 55 160t155 55zM249 650q-51 0 -74.5 -28.5t-23.5 -90.5v-15q0 -62 23.5 -90.5t74.5 -28.5q52 0 76 28.5t24 90.5v15q0 62 -24 90.5t-76 28.5z" />
    <glyph glyph-name="guillemotright" unicode="&#xbb;" vert-adv-y="1105" 
d="M136 700l474 -325v-45l-482 -314l-32 53l435 284l-434 296zM343 703l473 -328v-45l-480 -318l-36 54l437 286l-431 298z" />
    <glyph glyph-name="onequarter" unicode="&#xbc;" vert-adv-y="1105" 
d="M643 719q18 -9 24 -24t-2 -34l-325 -641q-10 -19 -28.5 -24.5t-35.5 3.5q-40 21 -22 59l325 641q10 20 28.5 25t35.5 -5zM218 722q48 0 48 -41v-357q0 -21 -13.5 -31.5t-32.5 -10.5t-32.5 10.5t-13.5 31.5v286l-63 -36q-18 -9 -34 -3t-24 21q-9 15 -4.5 33t19.5 26l99 56
q28 15 51 15zM770 427q36 -25 13 -58l-146 -209h98v89q0 19 13.5 29.5t32.5 10.5t32.5 -10.5t13.5 -29.5v-89h26q34 0 34 -38t-34 -38h-26v-50q0 -19 -13.5 -29.5t-32.5 -10.5t-32.5 10.5t-13.5 29.5v50h-155q-54 0 -54 45q0 20 18 45l167 243q24 33 59 10z" />
    <glyph glyph-name="onehalf" unicode="&#xbd;" vert-adv-y="1105" 
d="M218 722q48 0 48 -41v-357q0 -21 -13.5 -31.5t-32.5 -10.5t-32.5 10.5t-13.5 31.5v286l-63 -36q-18 -9 -34 -3t-24 21q-9 15 -4.5 33t19.5 26l99 56q28 15 51 15zM608 719q18 -9 24 -24t-2 -34l-325 -641q-10 -19 -28.5 -24.5t-35.5 3.5q-40 21 -22 59l325 641
q10 20 28.5 25t35.5 -5zM701 437q72 0 109 -33.5t37 -86.5v-7q0 -64 -73 -136l-101 -98h158q35 0 35 -40q0 -17 -9.5 -28.5t-25.5 -11.5h-223q-62 0 -62 49q0 19 23 42l135 137q30 31 40 48t10 38v2q0 40 -52 40q-39 0 -70 -37q-11 -14 -27 -15.5t-30 8.5q-33 24 -11 58
q47 71 137 71z" />
    <glyph glyph-name="threequarters" unicode="&#xbe;" vert-adv-y="1105" 
d="M188 726q71 0 110 -31t39 -85v-3q0 -36 -20.5 -62t-48.5 -32q34 -4 60.5 -28.5t26.5 -68.5v-5q0 -58 -46 -93.5t-118 -35.5q-73 0 -121 32q-34 22 -13 58q22 36 58 14q37 -22 73 -22q73 0 73 50v4q0 53 -77 53h-31q-35 0 -35 40q0 39 35 39h25q68 0 68 51v2q0 42 -58 42
q-34 0 -62 -26t-55 5q-11 13 -10 28t11 27q42 47 116 47zM668 719q18 -9 24 -24t-2 -34l-325 -641q-10 -19 -28.5 -24.5t-35.5 3.5q-40 21 -22 59l325 641q10 20 28.5 25t35.5 -5zM770 427q36 -25 13 -58l-146 -209h98v89q0 19 13.5 29.5t32.5 10.5t32.5 -10.5t13.5 -29.5
v-89h26q34 0 34 -38t-34 -38h-26v-50q0 -19 -13.5 -29.5t-32.5 -10.5t-32.5 10.5t-13.5 29.5v50h-155q-54 0 -54 45q0 20 18 45l167 243q24 33 59 10z" />
    <glyph glyph-name="questiondown" unicode="&#xbf;" horiz-adv-x="557" vert-adv-y="1105" 
d="M299 396q27 0 44 -13t17 -39q0 -58 -16 -97t-67 -83q-60 -52 -77 -74t-17 -51v-14q0 -35 26 -57t82 -22q65 0 127 43q41 28 73 -14q15 -18 13.5 -40.5t-20.5 -37.5q-83 -64 -197 -64q-107 0 -169.5 51t-62.5 134v20q0 47 25 84t95 100q41 36 53.5 63t12.5 62
q0 22 17 35.5t41 13.5zM300 605q32 0 54 -22t22 -54t-22 -54t-54 -22t-54 22t-22 54t22 54t54 22z" />
    <glyph glyph-name="AE" unicode="&#xc6;" horiz-adv-x="972" vert-adv-y="1105" 
d="M537 715h334q21 0 32.5 -15t11.5 -38t-11.5 -38t-32.5 -15h-282v-189h262q21 0 32 -15t11 -37t-11 -37t-32 -15h-262v-206h289q21 0 32.5 -15t11.5 -38t-11.5 -38t-32.5 -15h-331q-48 0 -66.5 18t-18.5 65v112h-224l-114 -175q-15 -24 -40.5 -27.5t-45.5 11.5
q-20 13 -25.5 36.5t9.5 47.5l387 570q21 32 44.5 42.5t83.5 10.5zM462 565q-22 -55 -58 -112l-96 -148h154v260z" />
    <glyph glyph-name="Eth" unicode="&#xd0;" horiz-adv-x="716" vert-adv-y="1105" 
d="M182 715h165q159 0 237 -79.5t78 -257.5v-37q0 -178 -78 -257.5t-237 -79.5h-165q-48 0 -66.5 18t-18.5 65v244h-59q-15 0 -23.5 11.5t-8.5 27.5q0 42 32 42h59v220q0 47 18.5 65t66.5 18zM224 607v-195h184q32 0 32 -42q0 -16 -8.5 -27.5t-23.5 -11.5h-184v-219h106
q111 0 157 53t46 186v17q0 133 -46 186t-157 53h-106z" />
    <glyph glyph-name="multiply" unicode="&#xd7;" horiz-adv-x="608" vert-adv-y="1105" 
d="M447 585q15 15 33 13.5t34 -17.5q16 -15 18.5 -32.5t-10.5 -34.5l-148 -159l148 -158q13 -17 10.5 -34.5t-18.5 -32.5q-16 -16 -33.5 -17.5t-33.5 13.5l-143 153l-143 -153q-16 -15 -33.5 -13.5t-33.5 17.5q-16 15 -18.5 32.5t10.5 34.5l147 158l-147 159
q-13 17 -10.5 34.5t18.5 32.5q16 16 34 17.5t33 -13.5l143 -154z" />
    <glyph glyph-name="Oslash" unicode="&#xd8;" horiz-adv-x="740" vert-adv-y="1105" 
d="M370 726q129 0 204 -62l38 45q27 31 59 7q32 -26 5 -59l-48 -57q48 -84 48 -220v-41q0 -346 -306 -346q-131 0 -205 61l-38 -45q-27 -30 -59 -7q-33 26 -5 60l48 57q-47 82 -47 220v41q0 346 306 346zM534 490l-287 -339q40 -41 123 -41q91 0 134 54t43 185v21
q0 74 -13 120zM370 609q-91 0 -134 -54t-43 -185v-21q0 -71 12 -119l287 338q-41 41 -122 41z" />
    <glyph glyph-name="Thorn" unicode="&#xde;" horiz-adv-x="641" vert-adv-y="1105" 
d="M145 721q27 0 45.5 -14t18.5 -41v-74h144q124 0 185.5 -57t61.5 -151v-21q0 -98 -64.5 -161.5t-182.5 -63.5h-144v-85q0 -27 -18.5 -41t-45.5 -14t-45.5 14t-18.5 41v613q0 27 18.5 41t45.5 14zM209 483v-236h127q136 0 136 118v18q0 49 -29 74.5t-96 25.5h-138z" />
    <glyph glyph-name="germandbls" unicode="&#xdf;" horiz-adv-x="609" vert-adv-y="1105" 
d="M307 756q105 0 155 -41.5t50 -99.5v-10q0 -32 -15.5 -60t-37 -47t-43.5 -35.5t-37.5 -34t-15.5 -34.5v-6q0 -24 17.5 -40t59.5 -36q69 -32 96 -67t27 -92v-6q0 -63 -51 -107t-137 -44q-75 0 -131 33q-18 11 -21 32.5t10 39.5q27 44 68 21t80 -23q29 0 45 13.5t16 36.5v3
q0 24 -12 39t-44 31q-69 33 -107 72t-38 92v9q0 30 15 55t36 43t42 35t36 37.5t15 43.5v3q0 40 -76 40q-52 0 -80 -30t-28 -102v-468q0 -26 -18 -40t-45 -14t-45 14t-18 40v501q0 98 66 150.5t166 52.5z" />
    <glyph glyph-name="ae" unicode="&#xe6;" horiz-adv-x="906" vert-adv-y="1105" 
d="M283 547q111 0 168 -59q61 59 170 59t175 -63t66 -174v-2q0 -47 -18.5 -65t-66.5 -18h-280v-37q0 -40 36.5 -63.5t93.5 -23.5q76 0 138 28q20 9 39 2.5t28 -27.5t3.5 -40.5t-24.5 -29.5q-76 -38 -189 -38q-143 0 -200 94q-9 -23 -37 -45.5t-55 -32.5q-45 -16 -101 -16
q-89 0 -136 41t-47 116v16q0 159 204 159h122v14q0 52 -20 74t-70 22q-68 0 -128 -36q-20 -12 -39.5 -6.5t-31.5 25.5q-12 18 -8.5 39.5t22.5 33.5q79 53 186 53zM619 443q-53 0 -87.5 -22.5t-34.5 -60.5v-41h244v10q0 52 -29.5 83t-92.5 31zM253 231q-47 0 -66 -17.5
t-19 -52.5v-2q0 -58 71 -58q55 0 89 20q45 27 45 84v26h-120z" />
    <glyph glyph-name="eth" unicode="&#xf0;" horiz-adv-x="622" vert-adv-y="1105" 
d="M304 418q-68 0 -99.5 -35t-31.5 -112v-19q0 -77 31.5 -112t99.5 -35t99.5 35t31.5 112v19q0 77 -31.5 112t-99.5 35zM227 759q49 -24 96 -58l97 41q32 14 46 -19q14 -35 -16 -48l-58 -24q82 -71 126 -161t44 -215v-25q0 -124 -67.5 -189t-190.5 -65t-190.5 65t-67.5 189
v23q0 124 67.5 189t190.5 65q44 0 75 -13q-21 51 -78 99l-126 -53q-32 -14 -46 19q-14 35 16 48l86 35q-23 15 -49 27q-33 17 -13 55q8 15 23.5 19.5t34.5 -4.5z" />
    <glyph glyph-name="divide" unicode="&#xf7;" horiz-adv-x="604" vert-adv-y="1105" 
d="M81 410h442q21 0 32 -15t11 -38t-11 -38t-32 -15h-442q-21 0 -32 15t-11 38t11 38t32 15zM301 231q31 0 52 -21t21 -52t-21 -52t-52 -21t-52 21t-21 52t21 52t52 21zM301 629q31 0 52 -21t21 -52t-21 -52t-52 -21t-52 21t-21 52t21 52t52 21z" />
    <glyph glyph-name="oslash" unicode="&#xf8;" horiz-adv-x="612" vert-adv-y="1105" 
d="M427 351l-210 -220q31 -25 87 -25q68 0 99.5 37t31.5 118v21q0 43 -8 69zM304 437q-68 0 -99.5 -37t-31.5 -118v-21q0 -38 8 -70l210 220q-30 26 -87 26zM304 547q105 0 169 -49l35 37q21 23 47 -3q10 -9 11.5 -21.5t-7.5 -23.5l-39 -40q42 -64 42 -163v-25
q0 -128 -67.5 -195.5t-190.5 -67.5q-105 0 -169 49l-35 -37q-21 -23 -47 3q-10 9 -11.5 21.5t7.5 23.5l38 40q-41 63 -41 163v25q0 128 67.5 195.5t190.5 67.5z" />
    <glyph glyph-name="thorn" unicode="&#xfe;" horiz-adv-x="613" vert-adv-y="1105" 
d="M138 746q27 0 45 -13.5t18 -39.5v-212q24 35 67 50.5t84 15.5q215 0 215 -262v-26q0 -128 -59.5 -195.5t-161.5 -67.5q-97 0 -145 64v-203q0 -26 -18 -39.5t-45 -13.5q-26 0 -44.5 14t-18.5 39v836q0 25 18.5 39t44.5 14zM327 439q-61 0 -94.5 -36t-33.5 -94v-93
q0 -43 38 -78t93 -35q112 0 112 159v20q0 79 -27 118t-88 39z" />
    <glyph glyph-name="dcroat" unicode="&#x111;" horiz-adv-x="628" vert-adv-y="1105" 
d="M474 746q27 0 45 -13.5t18 -39.5v-28h52q28 0 28 -36q0 -14 -7.5 -24t-20.5 -10h-52v-546q0 -25 -17.5 -38t-42.5 -13q-24 0 -41.5 13t-17.5 38v20h-3q-40 -73 -158 -73q-104 0 -158 67t-54 195v26q0 128 59.5 195.5t161.5 67.5q106 0 145 -59v107h-121q-13 0 -20.5 10
t-7.5 24q0 36 28 36h121v28q0 25 18.5 39t44.5 14zM287 439q-117 0 -117 -158v-20q0 -81 27 -119.5t85 -38.5q60 0 95.5 38.5t35.5 96.5v92q0 43 -32.5 76t-93.5 33z" />
    <glyph glyph-name="Hbar" unicode="&#x126;" horiz-adv-x="719" vert-adv-y="1105" 
d="M210 502v-100h299v100h-299zM146 721q27 0 45.5 -14.5t18.5 -40.5v-83h299v83q0 26 18.5 40.5t45.5 14.5t45.5 -14.5t18.5 -40.5v-83h43q16 0 24.5 -11.5t8.5 -29.5q0 -17 -8.5 -28.5t-24.5 -11.5h-43v-449q0 -26 -18.5 -40.5t-45.5 -14.5t-45.5 14.5t-18.5 40.5v245
h-299v-245q0 -26 -18.5 -40.5t-45.5 -14.5t-45.5 14.5t-18.5 40.5v449h-43q-16 0 -24.5 11.5t-8.5 28.5q0 18 8.5 29.5t24.5 11.5h43v83q0 26 18.5 40.5t45.5 14.5z" />
    <glyph glyph-name="hbar" unicode="&#x127;" horiz-adv-x="631" vert-adv-y="1105" 
d="M145 746q25 0 42.5 -13t17.5 -38v-30h133q28 0 28 -36q0 -14 -7.5 -24t-20.5 -10h-133v-123h2q22 37 67 56t95 19q89 0 140.5 -52.5t51.5 -151.5v-292q0 -26 -18 -39.5t-45 -13.5q-26 0 -44.5 14t-18.5 39v265q0 67 -27.5 94t-77.5 27q-46 0 -82.5 -31t-36.5 -98v-257
q0 -26 -18 -39.5t-45 -13.5q-26 0 -44.5 14t-18.5 39v544h-46q-13 0 -20.5 10t-7.5 24q0 36 28 36h46v30q0 25 17.5 38t42.5 13z" />
    <glyph glyph-name="dotlessi" unicode="&#x131;" horiz-adv-x="276" vert-adv-y="1105" 
d="M138 541q27 0 45 -13.5t18 -39.5v-437q0 -26 -18 -39.5t-45 -13.5q-26 0 -44.5 14t-18.5 39v437q0 25 18.5 39t44.5 14z" />
    <glyph glyph-name="IJ" unicode="&#x132;" horiz-adv-x="781" vert-adv-y="1105" 
d="M637 721q27 0 45.5 -14t18.5 -41v-456q0 -216 -224 -216q-83 0 -142 39q-19 12 -22 34t10 43q26 44 73 21q40 -20 81 -20q51 0 73.5 29.5t22.5 100.5v425q0 27 18.5 41t45.5 14zM145 721q27 0 45.5 -14t18.5 -41v-613q0 -27 -18.5 -41t-45.5 -14t-45.5 14t-18.5 41v613
q0 27 18.5 41t45.5 14z" />
    <glyph glyph-name="ij" unicode="&#x133;" horiz-adv-x="538" vert-adv-y="1105" 
d="M141 541q27 0 45 -13.5t18 -39.5v-437q0 -26 -18 -39.5t-45 -13.5q-26 0 -44.5 14t-18.5 39v437q0 25 18.5 39t44.5 14zM141 748q33 0 56 -22t23 -54t-23 -54t-56 -22t-56 22t-23 54t23 54t56 22zM397 748q33 0 56 -22t23 -54t-23 -54t-56 -22t-56 22t-23 54t23 54t56 22
zM397 541q27 0 45 -13.5t18 -39.5v-504q0 -183 -178 -183q-51 0 -88 17q-40 18 -25 65q7 23 23 31t33 2q23 -8 46 -8q34 0 48.5 17.5t14.5 57.5v505q0 25 18.5 39t44.5 14z" />
    <glyph glyph-name="kgreenlandic" unicode="&#x138;" horiz-adv-x="582" vert-adv-y="1105" 
d="M138 541q27 0 45 -13.5t18 -39.5v-177l215 212q19 18 44.5 17t42.5 -19q18 -19 17.5 -42.5t-19.5 -40.5l-148 -134l174 -205q17 -22 14 -45t-23 -39q-20 -18 -46 -17.5t-42 21.5l-167 207l-62 -56v-119q0 -26 -18 -39.5t-45 -13.5q-26 0 -44.5 14t-18.5 39v437
q0 25 18.5 39t44.5 14z" />
    <glyph glyph-name="Ldot" unicode="&#x13f;" horiz-adv-x="558" vert-adv-y="1105" 
d="M145 721q27 0 45.5 -14t18.5 -41v-554h290q22 0 33.5 -15.5t11.5 -38.5t-11.5 -38.5t-33.5 -15.5h-333q-48 0 -66.5 18t-18.5 65v579q0 27 18.5 41t45.5 14zM426 480q34 0 56.5 -22.5t22.5 -56.5t-22.5 -56.5t-56.5 -22.5t-56.5 22.5t-22.5 56.5t22.5 56.5t56.5 22.5z
" />
    <glyph glyph-name="ldot" unicode="&#x140;" horiz-adv-x="470" vert-adv-y="1105" 
d="M138 746q27 0 45 -14t18 -40v-640q0 -26 -18 -40t-45 -14t-45 14t-18 40v640q0 26 18 40t45 14zM356 451q34 0 56.5 -22.5t22.5 -56.5t-22.5 -56.5t-56.5 -22.5t-56.5 22.5t-22.5 56.5t22.5 56.5t56.5 22.5z" />
    <glyph glyph-name="Lslash" unicode="&#x141;" horiz-adv-x="611" vert-adv-y="1105" 
d="M198 721q27 0 45.5 -14t18.5 -41v-243l124 72q31 18 51 -17q8 -12 5.5 -28.5t-16.5 -24.5l-164 -95v-218h290q22 0 33.5 -15.5t11.5 -38.5t-11.5 -38.5t-33.5 -15.5h-333q-48 0 -66.5 18t-18.5 65v169l-62 -36q-31 -18 -51 17q-8 12 -5.5 28.5t16.5 24.5l102 59v317
q0 27 18.5 41t45.5 14z" />
    <glyph glyph-name="lslash" unicode="&#x142;" horiz-adv-x="368" vert-adv-y="1105" 
d="M184 746q27 0 45 -14t18 -40v-246l57 33q27 16 44 -15q16 -30 -9 -45l-92 -53v-314q0 -26 -18 -40t-45 -14t-45 14t-18 40v241l-57 -32q-27 -16 -44 15q-16 30 9 45l92 53v318q0 26 18 40t45 14z" />
    <glyph glyph-name="napostrophe" unicode="&#x149;" horiz-adv-x="733" vert-adv-y="1105" 
d="M471 547q89 0 140.5 -52.5t51.5 -151.5v-292q0 -26 -18 -39.5t-45 -13.5q-26 0 -44.5 14t-18.5 39v265q0 67 -27.5 94t-77.5 27q-46 0 -82.5 -31t-36.5 -98v-257q0 -26 -18 -39.5t-45 -13.5q-26 0 -44.5 14t-18.5 39v439q0 25 17.5 38t42.5 13t42.5 -13t17.5 -38v-18h2
q22 37 67 56t95 19zM122 734q27 -5 39.5 -24.5t3.5 -46.5l-47 -136q-15 -42 -62 -33q-19 3 -29.5 16.5t-6.5 33.5l25 144q5 28 27 39.5t50 6.5z" />
    <glyph glyph-name="Eng" unicode="&#x14a;" horiz-adv-x="721" vert-adv-y="1105" 
d="M581 721q25 0 42 -13.5t17 -38.5v-685q0 -183 -178 -183q-51 0 -88 17q-40 18 -25 65q7 23 23 31t33 2q23 -8 46 -8q71 0 71 59v11l-275 463q-31 52 -48 115v-506q0 -25 -17 -38.5t-42 -13.5t-42 13.5t-17 38.5v584q0 47 18.5 65t66.5 18q38 0 60 -18t59 -83l189 -328
q33 -59 48 -116v497q0 25 17 38.5t42 13.5z" />
    <glyph glyph-name="eng" unicode="&#x14b;" horiz-adv-x="582" vert-adv-y="1105" 
d="M359 547q89 0 140.5 -52.5t51.5 -151.5v-359q0 -183 -178 -183q-51 0 -88 17q-40 18 -25 65q7 23 23 31t33 2q23 -8 46 -8q34 0 48.5 17.5t14.5 57.5v333q0 67 -27.5 94t-77.5 27q-46 0 -82.5 -31t-36.5 -98v-257q0 -26 -18 -39.5t-45 -13.5q-26 0 -44.5 14t-18.5 39v439
q0 25 17.5 38t42.5 13t42.5 -13t17.5 -38v-18h2q22 37 67 56t95 19z" />
    <glyph glyph-name="OE" unicode="&#x152;" horiz-adv-x="992" vert-adv-y="1105" 
d="M360 715h531q21 0 32.5 -15t11.5 -38t-11.5 -38t-32.5 -15h-283v-189h263q21 0 32 -15t11 -37t-11 -37t-32 -15h-263v-206h290q21 0 32.5 -15t11.5 -38t-11.5 -38t-32.5 -15h-538q-150 0 -228 80.5t-78 254.5v41q0 174 78 254.5t228 80.5zM360 598q-92 0 -134.5 -50.5
t-42.5 -177.5v-21q0 -127 42.5 -177.5t134.5 -50.5h121v477h-121z" />
    <glyph glyph-name="oe" unicode="&#x153;" horiz-adv-x="942" vert-adv-y="1105" 
d="M289 547q119 0 184 -78q65 78 187 78q109 0 173.5 -62.5t64.5 -174.5v-2q0 -47 -18.5 -65t-66.5 -18h-278v-3q0 -55 33.5 -88t97.5 -33q73 0 135 28q20 9 39 2.5t28 -27.5t3.5 -40.5t-24.5 -29.5q-76 -38 -186 -38q-61 0 -111 21t-77 57q-65 -78 -184 -78
q-116 0 -179.5 67.5t-63.5 195.5v25q0 128 63.5 195.5t179.5 67.5zM289 437q-61 0 -88.5 -37t-27.5 -118v-21q0 -81 27.5 -118t88.5 -37t88.5 37t27.5 118v21q0 81 -27.5 118t-88.5 37zM658 443q-61 0 -92 -32t-31 -85v-7h242v10q0 114 -119 114z" />
    <glyph glyph-name="Tbar" unicode="&#x166;" horiz-adv-x="571" vert-adv-y="1105" 
d="M49 715h473q22 0 33.5 -15.5t11.5 -38.5t-11.5 -38.5t-33.5 -15.5h-172v-203h109q33 0 33 -41q0 -17 -8.5 -28.5t-24.5 -11.5h-109v-270q0 -27 -18.5 -41t-45.5 -14t-45.5 14t-18.5 41v270h-103q-16 0 -24.5 11.5t-8.5 28.5q0 41 33 41h103v203h-173q-22 0 -33.5 15.5
t-11.5 38.5t11.5 38.5t33.5 15.5z" />
    <glyph glyph-name="tbar" unicode="&#x167;" horiz-adv-x="413" vert-adv-y="1105" 
d="M173 682q27 0 45 -14t18 -40v-93h105q21 0 32.5 -15t11.5 -37t-11.5 -37t-32.5 -15h-105v-98h89q28 0 28 -36q0 -14 -7.5 -24t-20.5 -10h-89v-96q0 -64 49 -64q23 0 46 8q17 6 33 -2t23 -31q15 -47 -25 -65q-37 -17 -88 -17q-87 0 -125.5 43.5t-38.5 133.5v90h-50
q-13 0 -20.5 10t-7.5 24q0 36 28 36h50v98h-50q-21 0 -32.5 15t-11.5 37t11.5 37t32.5 15h50v93q0 26 18 40t45 14z" />
    <glyph glyph-name="afii57929" unicode="&#x2bc;" vert-adv-y="1105" 
 />
    <glyph glyph-name="caron" unicode="&#x2c7;" horiz-adv-x="600" vert-adv-y="1105" 
d="M185 763q28 20 52 -6l63 -65l63 65q24 26 52 6q13 -9 16 -23.5t-5 -24.5l-58 -79q-26 -35 -68 -35t-68 35l-58 79q-8 10 -5 24.5t16 23.5z" />
    <glyph glyph-name="breve" unicode="&#x2d8;" horiz-adv-x="600" vert-adv-y="1105" 
d="M407 756q37 -11 27 -46q-9 -34 -43.5 -62t-90.5 -28t-90.5 28t-43.5 62q-10 35 27 46q35 11 49 -20q18 -40 58 -40t58 40q14 31 49 20z" />
    <glyph glyph-name="dotaccent" unicode="&#x2d9;" horiz-adv-x="330" vert-adv-y="1105" 
d="M165 763q34 0 56.5 -22.5t22.5 -56.5t-22.5 -56.5t-56.5 -22.5t-56.5 22.5t-22.5 56.5t22.5 56.5t56.5 22.5z" />
    <glyph glyph-name="ring" unicode="&#x2da;" horiz-adv-x="330" vert-adv-y="1105" 
d="M164 732q-18 0 -31 -13.5t-13 -34.5q0 -20 12.5 -31.5t31.5 -11.5q21 0 34 11.5t13 31.5q0 21 -13.5 34.5t-33.5 13.5zM164 785q45 0 75 -29t30 -72q0 -40 -30.5 -69.5t-74.5 -29.5q-42 0 -72.5 29.5t-30.5 69.5q0 43 30 72t73 29z" />
    <glyph glyph-name="ogonek" unicode="&#x2db;" horiz-adv-x="330" vert-adv-y="1105" 
d="M157 44h84q-32 -26 -53.5 -56.5t-21.5 -53.5q0 -17 11 -27t27 -10q11 0 19 1q26 3 31 -29q6 -35 -21 -44q-24 -8 -57 -6q-48 2 -79.5 30.5t-31.5 71.5q0 39 29 73.5t63 49.5z" />
    <glyph glyph-name="tilde" unicode="&#x2dc;" horiz-adv-x="600" vert-adv-y="1105" 
d="M430 756q37 -8 24 -50q-12 -36 -39 -58.5t-63 -22.5q-22 0 -58 16.5t-46 16.5q-21 0 -29 -18q-13 -30 -49 -21q-37 8 -24 50q12 36 39 58.5t63 22.5q22 0 58 -16.5t46 -16.5q21 0 29 18q13 30 49 21z" />
    <glyph glyph-name="hungarumlaut" unicode="&#x2dd;" horiz-adv-x="600" vert-adv-y="1105" 
d="M237 768q28 -4 40 -20.5t0 -41.5l-35 -74q-19 -40 -64 -31q-19 4 -28 17.5t-4 30.5l23 78q14 48 68 41zM410 768q28 -4 40 -20.5t0 -41.5l-35 -74q-19 -40 -64 -31q-19 4 -28 17.5t-4 30.5l23 78q14 48 68 41z" />
    <glyph glyph-name="Alpha" unicode="&#x391;" horiz-adv-x="690" vert-adv-y="1105" 
d="M344 721q55 0 78 -59l225 -580q11 -28 0.5 -49.5t-36.5 -29.5q-66 -20 -85 36l-58 160h-252l-59 -164q-19 -53 -80 -32q-25 9 -35 28t0 46l225 585q22 59 77 59zM342 561q-14 -50 -35 -111l-53 -145h176l-52 145q-20 56 -36 111z" />
    <glyph glyph-name="Beta" unicode="&#x392;" horiz-adv-x="661" vert-adv-y="1105" 
d="M166 715h195q227 0 227 -178v-12q0 -119 -114 -147q147 -22 147 -166v-16q0 -92 -57.5 -142t-171.5 -50h-226q-48 0 -66.5 18t-18.5 65v545q0 47 18.5 65t66.5 18zM208 322v-212h116q92 0 129 19t37 81v13q0 53 -37.5 76t-137.5 23h-107zM208 609v-183h104q88 0 117 19.5
t29 75.5v9q0 46 -34 62.5t-118 16.5h-98z" />
    <glyph glyph-name="Gamma" unicode="&#x393;" horiz-adv-x="562" vert-adv-y="1105" 
d="M166 715h347q22 0 33.5 -15.5t11.5 -38.5t-11.5 -38.5t-33.5 -15.5h-304v-554q0 -27 -18.5 -41t-45.5 -14t-45.5 14t-18.5 41v579q0 47 18.5 65t66.5 18z" />
    <glyph glyph-name="uni0394" unicode="&#x394;" horiz-adv-x="692" vert-adv-y="1105" 
d="M346 565l-166 -451h327zM349 728q55 0 78 -59l217 -562q24 -62 -12 -89q-7 -5 -16.5 -8.5t-23.5 -4.5t-22 -1.5t-27.5 0t-23.5 0.5h-346q-4 0 -23.5 -0.5t-27.5 0t-22 1.5t-23.5 4.5t-16.5 8.5q-36 27 -12 89l224 562q23 59 77 59z" />
    <glyph glyph-name="Epsilon" unicode="&#x395;" horiz-adv-x="608" vert-adv-y="1105" 
d="M166 715h341q21 0 32.5 -15t11.5 -38t-11.5 -38t-32.5 -15h-299v-189h279q21 0 32 -15t11 -37t-11 -37t-32 -15h-279v-206h306q21 0 32.5 -15t11.5 -38t-11.5 -38t-32.5 -15h-348q-48 0 -66.5 18t-18.5 65v545q0 47 18.5 65t66.5 18z" />
    <glyph glyph-name="Zeta" unicode="&#x396;" horiz-adv-x="629" vert-adv-y="1105" 
d="M89 715h406q45 0 65 -16.5t20 -52.5q0 -18 -7 -32.5t-34 -48.5l-357 -451h375q23 0 34.5 -15.5t11.5 -39.5t-11.5 -39.5t-34.5 -15.5h-443q-49 0 -70 17t-21 56q0 18 10 38t45 64l336 426h-325q-23 0 -34.5 15.5t-11.5 39.5t11.5 39.5t34.5 15.5z" />
    <glyph glyph-name="Eta" unicode="&#x397;" horiz-adv-x="717" vert-adv-y="1105" 
d="M145 721q27 0 45.5 -14t18.5 -41v-238h299v238q0 27 18.5 41t45.5 14t45.5 -14t18.5 -41v-613q0 -27 -18.5 -41t-45.5 -14t-45.5 14t-18.5 41v269h-299v-269q0 -27 -18.5 -41t-45.5 -14t-45.5 14t-18.5 41v613q0 27 18.5 41t45.5 14z" />
    <glyph glyph-name="Theta" unicode="&#x398;" horiz-adv-x="720" vert-adv-y="1105" 
d="M360 726q306 0 306 -346v-41q0 -346 -306 -346t-306 346v41q0 346 306 346zM360 609q-91 0 -134 -54t-43 -185v-21q0 -131 43 -185t134 -54t134 54t43 185v21q0 131 -43 185t-134 54zM239 401h242q17 0 26.5 -13t9.5 -33q0 -18 -9.5 -31t-26.5 -13h-242q-17 0 -26.5 13
t-9.5 31q0 20 9.5 33t26.5 13z" />
    <glyph glyph-name="Iota" unicode="&#x399;" horiz-adv-x="290" vert-adv-y="1105" 
d="M145 721q27 0 45.5 -14t18.5 -41v-613q0 -27 -18.5 -41t-45.5 -14t-45.5 14t-18.5 41v613q0 27 18.5 41t45.5 14z" />
    <glyph glyph-name="Kappa" unicode="&#x39a;" horiz-adv-x="666" vert-adv-y="1105" 
d="M145 721q27 0 45.5 -14t18.5 -41v-276l293 315q17 17 40.5 15.5t39.5 -18.5q17 -18 19 -39.5t-14 -39.5l-222 -231l245 -292q19 -23 16 -46t-25 -40q-19 -17 -44 -16.5t-42 22.5l-233 291l-73 -75v-183q0 -27 -18.5 -41t-45.5 -14t-45.5 14t-18.5 41v613q0 27 18.5 41
t45.5 14z" />
    <glyph glyph-name="Lambda" unicode="&#x39b;" horiz-adv-x="695" vert-adv-y="1105" 
d="M349 721q55 0 78 -59l225 -580q11 -28 0.5 -49.5t-36.5 -29.5q-66 -20 -85 36l-148 411q-20 56 -36 111q-18 -64 -35 -111l-155 -415q-19 -53 -80 -32q-25 9 -35 28t0 46l230 585q23 59 77 59z" />
    <glyph glyph-name="Mu" unicode="&#x39c;" horiz-adv-x="875" vert-adv-y="1105" 
d="M166 717h21q46 0 68 -18.5t48 -83.5l137 -342l131 341q24 63 47.5 83t69.5 20h21q48 0 66.5 -18t18.5 -65v-584q0 -26 -17 -39t-44 -13q-25 0 -42.5 13.5t-17.5 38.5v555q-14 -60 -33 -108l-132 -325q-12 -31 -27 -42t-41 -11q-31 0 -46.5 11.5t-28.5 44.5l-129 322
q-16 40 -35 108v-555q0 -26 -17.5 -39t-43.5 -13q-25 0 -42 13.5t-17 38.5v584q0 47 18.5 65t66.5 18z" />
    <glyph glyph-name="Nu" unicode="&#x39d;" horiz-adv-x="721" vert-adv-y="1105" 
d="M580 721q26 0 43 -13t17 -39v-584q0 -47 -18.5 -65t-66.5 -18q-38 0 -60 17.5t-59 83.5l-190 337q-34 58 -45 108v-498q0 -26 -17 -39t-43 -13q-25 0 -42.5 13.5t-17.5 38.5v584q0 47 18.5 65t66.5 18q38 0 60 -18t59 -83l189 -336q33 -58 46 -111v500q0 25 17.5 38.5
t42.5 13.5z" />
    <glyph glyph-name="Xi" unicode="&#x39e;" horiz-adv-x="617" vert-adv-y="1105" 
d="M94 715h422q21 0 32.5 -15.5t11.5 -38.5t-11.5 -38.5t-32.5 -15.5h-422q-21 0 -32.5 15.5t-11.5 38.5t11.5 38.5t32.5 15.5zM134 422h343q21 0 32.5 -15.5t11.5 -38.5t-11.5 -38.5t-32.5 -15.5h-343q-21 0 -32.5 15.5t-11.5 38.5t11.5 38.5t32.5 15.5zM94 112h429
q21 0 32.5 -15.5t11.5 -38.5t-11.5 -38.5t-32.5 -15.5h-429q-21 0 -32.5 15.5t-11.5 38.5t11.5 38.5t32.5 15.5z" />
    <glyph glyph-name="Omicron" unicode="&#x39f;" horiz-adv-x="720" vert-adv-y="1105" 
d="M360 726q306 0 306 -346v-41q0 -346 -306 -346t-306 346v41q0 346 306 346zM360 609q-91 0 -134 -54t-43 -185v-21q0 -131 43 -185t134 -54t134 54t43 185v21q0 131 -43 185t-134 54z" />
    <glyph glyph-name="Pi" unicode="&#x3a0;" horiz-adv-x="693" vert-adv-y="1105" 
d="M166 715h361q48 0 66.5 -18t18.5 -65v-579q0 -27 -18.5 -41t-45.5 -14t-45.5 14t-18.5 41v556h-275v-556q0 -27 -18.5 -41t-45.5 -14t-45.5 14t-18.5 41v579q0 47 18.5 65t66.5 18z" />
    <glyph glyph-name="Rho" unicode="&#x3a1;" horiz-adv-x="636" vert-adv-y="1105" 
d="M166 715h187q124 0 185.5 -56t61.5 -150v-14q0 -93 -64 -155t-183 -62h-144v-225q0 -27 -18.5 -41t-45.5 -14t-45.5 14t-18.5 41v579q0 47 18.5 65t66.5 18zM209 608v-222h127q67 0 101 25.5t34 85.5v11q0 56 -32 78t-92 22h-138z" />
    <glyph glyph-name="Sigma" unicode="&#x3a3;" horiz-adv-x="560" vert-adv-y="1105" 
d="M125 715h357q22 0 33.5 -15.5t11.5 -38.5q0 -53 -45 -53h-282l143 -159q55 -62 55 -89q0 -28 -55 -90l-143 -159h289q22 0 33.5 -15.5t11.5 -38.5q0 -53 -45 -53h-364q-45 0 -65 16.5t-20 52.5q0 34 41 81l182 206l-182 205q-41 47 -41 81q0 36 20 52.5t65 16.5z" />
    <glyph glyph-name="Tau" unicode="&#x3a4;" horiz-adv-x="571" vert-adv-y="1105" 
d="M49 715h473q22 0 33.5 -15.5t11.5 -38.5t-11.5 -38.5t-33.5 -15.5h-172v-554q0 -27 -18.5 -41t-45.5 -14t-45.5 14t-18.5 41v554h-173q-22 0 -33.5 15.5t-11.5 38.5t11.5 38.5t33.5 15.5z" />
    <glyph glyph-name="Upsilon" unicode="&#x3a5;" horiz-adv-x="648" vert-adv-y="1105" 
d="M567 714q25 -11 32.5 -31t-7.5 -49l-204 -350v-231q0 -27 -18.5 -41t-45.5 -14t-45.5 14t-18.5 41v231l-203 349q-14 24 -6.5 45.5t32.5 34.5q21 12 45.5 6t38.5 -31l160 -286l157 285q28 51 83 27z" />
    <glyph glyph-name="Phi" unicode="&#x3a6;" horiz-adv-x="767" vert-adv-y="1105" 
d="M382 744q26 0 42.5 -14t16.5 -41v-42q126 -12 199 -79.5t73 -180.5v-33q0 -114 -73 -181t-199 -79v-41q0 -27 -16.5 -41t-42.5 -14t-43 14t-17 41v41q-126 12 -199 79.5t-73 180.5v33q0 113 72.5 180t199.5 80v42q0 27 17 41t43 14zM441 536v-331q145 21 145 151v29
q0 129 -145 151zM322 536q-145 -22 -145 -151v-29q0 -130 145 -151v331z" />
    <glyph glyph-name="Chi" unicode="&#x3a7;" horiz-adv-x="669" vert-adv-y="1105" 
d="M576 712q25 -14 31 -36t-10 -47l-181 -263l186 -272q17 -24 12 -47.5t-30 -38.5q-21 -14 -47 -9.5t-40 26.5l-165 254l-166 -252q-14 -22 -38.5 -27.5t-46.5 7.5q-23 14 -29 36.5t9 45.5l194 280l-176 256q-16 24 -8 48.5t34 38.5q24 13 49.5 7.5t39.5 -29.5l147 -238
l152 239q15 23 38 28.5t45 -7.5z" />
    <glyph glyph-name="Psi" unicode="&#x3a8;" horiz-adv-x="731" vert-adv-y="1105" 
d="M118 701q28 0 45.5 -14t17.5 -41v-135q0 -107 29.5 -158t91.5 -64v357q0 27 18 41t45 14t45 -14t18 -41v-357q62 13 92 64t30 158v135q0 27 17.5 41t45.5 14q29 0 46.5 -14t17.5 -41v-145q0 -157 -63 -235.5t-186 -93.5v-119q0 -27 -18 -41t-45 -14t-45 14t-18 41v119
q-123 15 -185.5 93t-62.5 236v145q0 27 17.5 41t46.5 14z" />
    <glyph glyph-name="uni03A9" unicode="&#x3a9;" horiz-adv-x="722" vert-adv-y="1105" 
d="M361 726q294 0 294 -346v-37q0 -176 -93 -232h111q22 0 33.5 -15.5t11.5 -38.5t-11.5 -38t-33.5 -15h-229q-22 0 -33.5 15t-11.5 38q0 40 35 61q46 28 69 82t23 149v21q0 129 -40 184t-125 55t-125 -55t-40 -184v-21q0 -95 23 -149t69 -82q35 -21 35 -61q0 -23 -11.5 -38
t-33.5 -15h-229q-22 0 -33.5 15t-11.5 38t11.5 38.5t33.5 15.5h111q-93 56 -93 232v37q0 346 294 346z" />
    <glyph glyph-name="alpha" unicode="&#x3b1;" horiz-adv-x="612" vert-adv-y="1105" 
d="M287 439q-117 0 -117 -158v-20q0 -81 27 -119.5t85 -38.5q60 0 95.5 38.5t35.5 96.5v92q0 43 -32.5 76t-93.5 33zM266 547q100 0 143 -64h2v5q0 25 18.5 39t44.5 14q27 0 45 -13.5t18 -39.5v-439q0 -25 -17.5 -38t-42.5 -13q-24 0 -41.5 13t-17.5 38v20h-3
q-40 -73 -158 -73q-104 0 -158 67t-54 195v26q0 128 59.5 195.5t161.5 67.5z" />
    <glyph glyph-name="beta" unicode="&#x3b2;" horiz-adv-x="604" vert-adv-y="1105" 
d="M295 756q99 0 155 -53.5t56 -127.5v-11q0 -136 -110 -173q71 -8 116.5 -50.5t45.5 -126.5v-19q0 -93 -58 -151t-145 -58q-106 0 -154 73v-200q0 -27 -18 -41t-45 -14t-45 14t-18 41v681q0 103 61.5 159.5t158.5 56.5zM294 652q-93 0 -93 -133v-297q0 -127 131 -127
q41 0 69.5 23.5t28.5 78.5v14q0 70 -32.5 98t-107.5 28q-41 0 -41 50t41 50q88 0 88 108v15q0 20 -5 38.5t-25.5 36t-53.5 17.5z" />
    <glyph glyph-name="gamma" unicode="&#x3b3;" horiz-adv-x="521" vert-adv-y="1105" 
d="M64 549q57 14 73 -39l123 -372l125 372q17 53 73 39q26 -6 37.5 -25.5t1.5 -45.5l-177 -468v-151q0 -27 -18 -41t-45 -14t-45 14t-18 41v151l-171 469q-9 26 3 45t38 25z" />
    <glyph glyph-name="delta" unicode="&#x3b4;" horiz-adv-x="578" vert-adv-y="1105" 
d="M302 756q79 0 140 -22q21 -8 29.5 -26.5t-0.5 -41.5t-27 -31t-39 2q-38 16 -88 16q-65 0 -65 -31q0 -48 153 -129q127 -67 127 -226v-23q0 -120 -63.5 -184t-179.5 -64t-179.5 64t-63.5 184v23q0 97 42 157.5t120 80.5q-81 61 -81 130v8q0 53 43 83t132 30zM289 405
q-61 0 -89.5 -33.5t-28.5 -106.5v-19q0 -73 28.5 -106.5t89.5 -33.5t89.5 33.5t28.5 106.5v19q0 73 -28.5 106.5t-89.5 33.5z" />
    <glyph glyph-name="epsilon" unicode="&#x3b5;" horiz-adv-x="512" vert-adv-y="1105" 
d="M275 557q88 0 150 -22q42 -16 26 -62q-7 -21 -24.5 -29t-37.5 -1q-51 17 -112 17q-44 0 -63.5 -17t-19.5 -38v-9q0 -37 21.5 -52t77.5 -15h33q40 0 40 -47t-40 -47h-33q-23 0 -36.5 -1t-29.5 -4.5t-24.5 -11t-14.5 -20.5t-6 -32v-5q0 -64 106 -64q63 0 116 27
q20 11 39.5 6t31.5 -26q12 -20 8 -39.5t-24 -29.5q-75 -39 -189 -39q-105 0 -164.5 40t-59.5 114v14q0 55 34.5 87t94.5 35q-57 8 -85.5 40.5t-28.5 76.5v14q0 66 53.5 103t160.5 37z" />
    <glyph glyph-name="zeta" unicode="&#x3b6;" horiz-adv-x="480" vert-adv-y="1105" 
d="M118 750h294q40 0 47 -32q8 -34 -26 -55q-103 -64 -185 -167t-82 -196v-9q0 -75 30.5 -104.5t110.5 -54.5q101 -31 129.5 -59t28.5 -80q0 -64 -97 -130q-20 -13 -42 -9t-35 23q-14 18 -11.5 38.5t21.5 32.5q34 21 34 40q0 10 -10 14.5t-44.5 12.5t-55.5 14
q-97 28 -141 81.5t-44 156.5v13q0 97 51.5 195t134.5 167h-108q-22 0 -33 15.5t-11 38.5t11 38.5t33 15.5z" />
    <glyph glyph-name="eta" unicode="&#x3b7;" horiz-adv-x="621" vert-adv-y="1105" 
d="M359 547q89 0 140.5 -52.5t51.5 -151.5v-486q0 -26 -18 -39.5t-45 -13.5q-26 0 -44.5 14t-18.5 39v459q0 67 -27.5 94t-77.5 27q-46 0 -82.5 -31t-36.5 -98v-257q0 -26 -18 -39.5t-45 -13.5q-26 0 -44.5 14t-18.5 39v439q0 25 17.5 38t42.5 13t42.5 -13t17.5 -38v-18h2
q22 37 67 56t95 19z" />
    <glyph glyph-name="theta" unicode="&#x3b8;" horiz-adv-x="588" vert-adv-y="1105" 
d="M294 756q124 0 186 -85.5t62 -265.5v-60q0 -180 -62 -265.5t-186 -85.5t-186 85.5t-62 265.5v60q0 180 62 265.5t186 85.5zM173 327v-4q0 -104 27.5 -159.5t93.5 -55.5t93.5 55.5t27.5 159.5v4h-242zM294 642q-60 0 -88.5 -46t-32.5 -156v-5h242v5q-4 110 -32.5 156
t-88.5 46z" />
    <glyph glyph-name="iota" unicode="&#x3b9;" horiz-adv-x="300" vert-adv-y="1105" 
d="M133 541q27 0 45 -13.5t18 -39.5v-334q0 -32 5.5 -43.5t27.5 -11.5q11 0 24 3q17 4 29.5 -7t17.5 -33q8 -46 -22 -63q-27 -15 -81 -13q-127 4 -127 128v374q0 25 18.5 39t44.5 14z" />
    <glyph glyph-name="kappa" unicode="&#x3ba;" horiz-adv-x="561" vert-adv-y="1105" 
d="M139 541q27 0 45.5 -14t18.5 -41v-161l185 200q17 17 40 15.5t39 -18.5q38 -40 4 -75l-139 -144l172 -203q19 -23 16 -46t-25 -40q-19 -17 -44 -16.5t-42 22.5l-160 203l-46 -47v-123q0 -27 -18.5 -41t-45.5 -14t-45.5 14t-18.5 41v433q0 27 18.5 41t45.5 14z" />
    <glyph glyph-name="lambda" unicode="&#x3bb;" horiz-adv-x="520" vert-adv-y="1105" 
d="M154 756q49 0 74.5 -17t42.5 -62l225 -606q9 -25 -3 -44.5t-38 -25.5q-56 -14 -73 39l-123 350h-1l-122 -350q-18 -52 -73 -39q-26 6 -37.5 25.5t-1.5 45.5l175 477l-24 70q-13 35 -31 35q-10 0 -19 -3q-43 -14 -62 23q-21 43 17 63q36 19 74 19z" />
    <glyph glyph-name="uni03BC" unicode="&#x3bc;" horiz-adv-x="623" vert-adv-y="1105" 
d="M138 541q26 0 44.5 -14t18.5 -39v-262q0 -67 27.5 -94t76.5 -27q46 0 81.5 31t35.5 98v254q0 26 18 39.5t45 13.5q26 0 44.5 -14t18.5 -39v-439q0 -25 -17.5 -38t-42.5 -13t-42.5 13t-17.5 38v21h-2q-48 -75 -143 -75q-25 0 -49 8.5t-33 20.5v-165q0 -27 -18 -41t-45 -14
t-45 14t-18 41v629q0 26 18 39.5t45 13.5z" />
    <glyph glyph-name="nu" unicode="&#x3bd;" horiz-adv-x="536" vert-adv-y="1105" 
d="M62 535q23 10 48 3t34 -34l126 -371h1l126 371q18 53 80 31q24 -9 34.5 -28.5t0.5 -45.5l-151 -396q-26 -67 -93 -67t-93 67l-151 396q-10 25 2 45t36 29z" />
    <glyph glyph-name="xi" unicode="&#x3be;" horiz-adv-x="471" vert-adv-y="1105" 
d="M293 756q94 0 150 -26q21 -10 27 -30t-4 -42q-10 -23 -29.5 -30t-40.5 3q-43 20 -102 20q-46 0 -71 -19.5t-25 -52.5v-12q0 -92 145 -92h14q23 0 35 -15.5t12 -39.5q0 -23 -12 -38.5t-35 -15.5h-17q-91 0 -128.5 -25.5t-37.5 -83.5v-11q0 -42 33.5 -67.5t114.5 -50.5
q93 -29 121 -54.5t28 -79.5q0 -72 -89 -130q-20 -13 -43.5 -9t-37.5 23q-14 18 -12 38.5t22 32.5q38 23 38 38q0 9 -16.5 16t-73.5 23q-106 29 -159.5 75.5t-53.5 142.5v12q0 76 46 117.5t116 48.5q-58 13 -97 48t-39 93v19q0 77 57.5 125.5t163.5 48.5z" />
    <glyph glyph-name="omicron" unicode="&#x3bf;" horiz-adv-x="608" vert-adv-y="1105" 
d="M304 547q123 0 190.5 -67.5t67.5 -195.5v-25q0 -128 -67.5 -195.5t-190.5 -67.5t-190.5 67.5t-67.5 195.5v25q0 128 67.5 195.5t190.5 67.5zM304 437q-68 0 -99.5 -37t-31.5 -118v-21q0 -81 31.5 -118t99.5 -37t99.5 37t31.5 118v21q0 81 -31.5 118t-99.5 37z" />
    <glyph glyph-name="pi" unicode="&#x3c0;" horiz-adv-x="608" vert-adv-y="1105" 
d="M64 549h480q22 0 33.5 -15.5t11.5 -38.5t-11.5 -38.5t-33.5 -15.5h-70v-283q0 -31 6.5 -43t28.5 -12q11 0 24 3q17 4 29.5 -7t17.5 -33q8 -46 -22 -63q-27 -15 -81 -13q-127 4 -127 128v323h-89v-388q0 -27 -18 -41t-45 -14t-45.5 14t-18.5 41v388h-70q-22 0 -33.5 15.5
t-11.5 38.5t11.5 38.5t33.5 15.5z" />
    <glyph glyph-name="rho" unicode="&#x3c1;" horiz-adv-x="608" vert-adv-y="1105" 
d="M316 547q118 0 182 -67.5t64 -195.5v-25q0 -128 -64 -195.5t-182 -67.5q-75 0 -118 43h-2v-182q0 -26 -18 -39.5t-45 -13.5q-26 0 -44.5 14t-18.5 39v427q0 128 64 195.5t182 67.5zM316 437q-63 0 -91 -37t-28 -118v-21q0 -81 28 -118t91 -37t91 37t28 118v21
q0 81 -28 118t-91 37z" />
    <glyph glyph-name="sigma" unicode="&#x3c3;" horiz-adv-x="615" vert-adv-y="1105" 
d="M304 547h248q22 0 33 -15t11 -38t-11 -38t-33 -15h-48q58 -44 58 -157v-25q0 -128 -67.5 -195.5t-190.5 -67.5t-190.5 67.5t-67.5 195.5v25q0 128 67.5 195.5t190.5 67.5zM304 437q-68 0 -99.5 -37t-31.5 -118v-21q0 -81 31.5 -118t99.5 -37t99.5 37t31.5 118v21
q0 81 -31.5 118t-99.5 37z" />
    <glyph glyph-name="tau" unicode="&#x3c4;" horiz-adv-x="608" vert-adv-y="1105" 
d="M64 549h480q22 0 33.5 -15.5t11.5 -38.5t-11.5 -38.5t-33.5 -15.5h-199v-283q0 -30 9 -42.5t32 -12.5q13 0 26 3q17 4 29.5 -7t17.5 -33q8 -46 -22 -63q-9 -5 -37.5 -9.5t-52.5 -3.5q-127 4 -127 128v323h-156q-22 0 -33.5 15.5t-11.5 38.5t11.5 38.5t33.5 15.5z" />
    <glyph glyph-name="upsilon" unicode="&#x3c5;" horiz-adv-x="613" vert-adv-y="1105" 
d="M133 541q26 0 44.5 -14t18.5 -39v-259q0 -68 29 -96t81 -28q111 0 111 124v259q0 25 18.5 39t44.5 14q27 0 45 -13.5t18 -39.5v-286q0 -98 -66 -152.5t-171 -54.5t-170.5 54.5t-65.5 152.5v286q0 26 18 39.5t45 13.5z" />
    <glyph glyph-name="phi" unicode="&#x3c6;" horiz-adv-x="694" vert-adv-y="1105" 
d="M347 547q140 0 220.5 -68t80.5 -195v-27q0 -113 -64 -179t-177 -80v-139q0 -27 -17.5 -41t-44.5 -14t-44.5 14t-17.5 41v139q-112 15 -174.5 81.5t-62.5 177.5v27q0 127 80.5 195t220.5 68zM407 433v-326q116 25 116 152v23q0 127 -116 151zM283 432q-112 -25 -112 -150
v-23q0 -125 112 -151v324z" />
    <glyph glyph-name="chi" unicode="&#x3c7;" horiz-adv-x="624" vert-adv-y="1105" 
d="M138 547q67 0 94 -65l87 -211l101 232q22 52 75 34q28 -9 38 -29t-2 -47l-136 -270l100 -240q17 -41 29 -41q6 0 17 3q37 11 50 -31t-18 -61q-33 -20 -86 -20q-70 0 -94 65l-92 245l-117 -270q-22 -50 -78 -37q-27 6 -36.5 27.5t3.5 49.5l152 308l-95 208
q-12 25 -17.5 33t-11.5 8q-7 0 -17 -3q-37 -11 -50 31t18 61q33 20 86 20z" />
    <glyph glyph-name="psi" unicode="&#x3c8;" horiz-adv-x="723" vert-adv-y="1105" 
d="M119 541q62 0 62 -55v-168q0 -106 28 -150t90 -53v371q0 27 17.5 41t44.5 14t44.5 -14t17.5 -41v-371q63 9 91 53t28 150v168q0 55 62 55q28 0 45.5 -14t17.5 -41v-178q0 -157 -60 -227t-184 -81v-141q0 -27 -17.5 -41t-44.5 -14t-44.5 14t-17.5 41v141
q-124 12 -183.5 82t-59.5 226v178q0 27 17.5 41t45.5 14z" />
    <glyph glyph-name="omega" unicode="&#x3c9;" horiz-adv-x="774" vert-adv-y="1105" 
d="M212 555q24 -12 35.5 -32t0.5 -42q-63 -126 -63 -210v-15q0 -54 18.5 -100t59.5 -46q35 0 48.5 28.5t13.5 82.5v140q0 25 18 38.5t44 13.5q27 0 44.5 -13t17.5 -39v-141q0 -54 13 -82t48 -28q29 0 48 26t26 57t7 63v15q0 84 -63 210q-11 23 -0.5 43t34.5 31q21 12 45.5 7
t36.5 -27q74 -142 74 -260v-15q0 -134 -54 -199t-144 -65q-46 0 -82.5 23t-48.5 64h-2q-12 -41 -49.5 -64t-84.5 -23q-90 0 -143.5 64.5t-53.5 199.5v15q0 118 74 260q12 22 36.5 27t45.5 -7z" />
    <glyph glyph-name="afii10023" unicode="&#x401;" horiz-adv-x="608" vert-adv-y="1105" 
d="M166 715h341q21 0 32.5 -15t11.5 -38t-11.5 -38t-32.5 -15h-299v-189h279q21 0 32 -15t11 -37t-11 -37t-32 -15h-279v-206h306q21 0 32.5 -15t11.5 -38t-11.5 -38t-32.5 -15h-348q-48 0 -66.5 18t-18.5 65v545q0 47 18.5 65t66.5 18zM222 889q27 0 46 -18.5t19 -44.5
t-19 -44t-46 -18t-46 18t-19 44t19 44.5t46 18.5zM416 889q27 0 46 -18.5t19 -44.5t-19 -44t-46 -18t-46 18t-19 44t19 44.5t46 18.5z" />
    <glyph glyph-name="afii10017" unicode="&#x410;" horiz-adv-x="690" vert-adv-y="1105" 
d="M344 721q55 0 78 -59l225 -580q11 -28 0.5 -49.5t-36.5 -29.5q-66 -20 -85 36l-58 160h-252l-59 -164q-19 -53 -80 -32q-25 9 -35 28t0 46l225 585q22 59 77 59zM342 561q-14 -50 -35 -111l-53 -145h176l-52 145q-20 56 -36 111z" />
    <glyph glyph-name="afii10018" unicode="&#x411;" horiz-adv-x="640" vert-adv-y="1105" 
d="M209 336v-225h138q60 0 92 22t32 78v14q0 60 -34 85.5t-101 25.5h-127zM166 715h340q22 0 33.5 -15.5t11.5 -38.5t-11.5 -38.5t-33.5 -15.5h-297v-165h144q119 0 183 -62t64 -155v-15q0 -94 -61.5 -150t-185.5 -56h-187q-48 0 -66.5 18t-18.5 65v545q0 47 18.5 65
t66.5 18z" />
    <glyph glyph-name="afii10019" unicode="&#x412;" horiz-adv-x="661" vert-adv-y="1105" 
d="M166 715h195q227 0 227 -178v-12q0 -119 -114 -147q147 -22 147 -166v-16q0 -92 -57.5 -142t-171.5 -50h-226q-48 0 -66.5 18t-18.5 65v545q0 47 18.5 65t66.5 18zM208 322v-212h116q92 0 129 19t37 81v13q0 53 -37.5 76t-137.5 23h-107zM208 609v-183h104q88 0 117 19.5
t29 75.5v9q0 46 -34 62.5t-118 16.5h-98z" />
    <glyph glyph-name="afii10020" unicode="&#x413;" horiz-adv-x="566" vert-adv-y="1105" 
d="M166 715h351q22 0 33.5 -15.5t11.5 -38.5t-11.5 -38.5t-33.5 -15.5h-308v-554q0 -27 -18.5 -41t-45.5 -14t-45.5 14t-18.5 41v579q0 47 18.5 65t66.5 18z" />
    <glyph glyph-name="afii10021" unicode="&#x414;" horiz-adv-x="680" vert-adv-y="1105" 
d="M281 611v-50q0 -152 -15.5 -246.5t-72.5 -207.5h281v504h-193zM248 715h251q48 0 66.5 -18t18.5 -65v-525q26 0 43 -12.5t17 -38.5v-171q0 -23 -15.5 -35t-39.5 -12t-39.5 12t-15.5 35v119h-422v-119q0 -23 -15.5 -35t-38.5 -12t-38.5 12t-15.5 35v171q0 26 17 38.5
t43 12.5q36 63 57 121.5t29.5 125t10.5 110.5t2 130v38q0 47 18.5 65t66.5 18z" />
    <glyph glyph-name="afii10022" unicode="&#x415;" horiz-adv-x="608" vert-adv-y="1105" 
d="M166 715h341q21 0 32.5 -15t11.5 -38t-11.5 -38t-32.5 -15h-299v-189h279q21 0 32 -15t11 -37t-11 -37t-32 -15h-279v-206h306q21 0 32.5 -15t11.5 -38t-11.5 -38t-32.5 -15h-348q-48 0 -66.5 18t-18.5 65v545q0 47 18.5 65t66.5 18z" />
    <glyph glyph-name="afii10024" unicode="&#x416;" horiz-adv-x="927" vert-adv-y="1105" 
d="M130 722q53 0 85 -23t60 -84l48 -100q42 -89 71 -89h6v241q0 26 18 40t45 14t45.5 -14t18.5 -40v-241h6q29 0 71 89l48 100q28 61 60 84t85 23q31 0 52 -6q22 -5 32 -23t3 -41q-13 -42 -57 -36q-6 1 -19 1q-19 0 -30.5 -12.5t-28.5 -51.5l-30 -65q-22 -49 -41.5 -73.5
t-48.5 -38.5q44 -17 90 -86l132 -203q14 -22 9.5 -43.5t-24.5 -34.5q-27 -15 -47.5 -10t-32.5 24l-154 240q-27 41 -38.5 51t-28.5 10h-8v-272q0 -26 -18.5 -40t-45.5 -14t-45 14t-18 40v272h-8q-17 0 -28.5 -10t-38.5 -51l-154 -240q-12 -19 -32.5 -24t-47.5 10
q-20 13 -24.5 34.5t9.5 43.5l132 203q46 69 90 86q-29 14 -48.5 38.5t-41.5 73.5l-30 65q-17 39 -28.5 51.5t-30.5 12.5q-13 0 -19 -1q-44 -6 -57 36q-7 23 3 41t32 23q21 6 52 6z" />
    <glyph glyph-name="afii10025" unicode="&#x417;" horiz-adv-x="599" vert-adv-y="1105" 
d="M277 726q120 0 184 -52.5t64 -129.5v-5q0 -56 -35 -103t-94 -64q68 -8 113.5 -48.5t45.5 -112.5v-10q0 -88 -72.5 -148t-199.5 -60q-128 0 -211 53q-22 14 -26.5 38.5t9.5 44.5q29 48 77 19q64 -41 142 -41q79 0 115.5 27.5t36.5 72.5v8q0 100 -155 100h-63
q-23 0 -34.5 15.5t-11.5 39.5t11.5 39.5t34.5 15.5h52q140 0 140 103v3q0 39 -31 61t-93 22q-71 0 -123 -47q-19 -16 -41 -14t-36 20q-15 18 -14 39t16 38q68 76 199 76z" />
    <glyph glyph-name="afii10026" unicode="&#x418;" horiz-adv-x="721" vert-adv-y="1105" 
d="M141 721q26 0 43 -13t17 -39v-498q11 50 45 108l190 337q37 66 59 83.5t60 17.5q48 0 66.5 -18t18.5 -65v-584q0 -26 -17 -39t-43 -13q-25 0 -42.5 13.5t-17.5 38.5v500q-13 -53 -46 -111l-189 -336q-37 -65 -59 -83t-60 -18q-48 0 -66.5 18t-18.5 65v584q0 25 17.5 38.5
t42.5 13.5z" />
    <glyph glyph-name="afii10027" unicode="&#x419;" horiz-adv-x="721" vert-adv-y="1105" 
d="M268 894q36 0 45 -31q10 -35 55 -35t55 35q9 31 45 31q18 0 29 -9.5t9 -26.5q-6 -42 -41.5 -71.5t-96.5 -29.5t-96.5 29.5t-41.5 71.5q-2 17 9 26.5t29 9.5zM141 721q26 0 43 -13t17 -39v-498q11 50 45 108l190 337q37 66 59 83.5t60 17.5q48 0 66.5 -18t18.5 -65v-584
q0 -26 -17 -39t-43 -13q-25 0 -42.5 13.5t-17.5 38.5v500q-13 -53 -46 -111l-189 -336q-37 -65 -59 -83t-60 -18q-48 0 -66.5 18t-18.5 65v584q0 25 17.5 38.5t42.5 13.5z" />
    <glyph glyph-name="afii10028" unicode="&#x41a;" horiz-adv-x="631" vert-adv-y="1105" 
d="M503 722q24 0 52 -6q22 -5 31.5 -23.5t2.5 -40.5q-12 -43 -57 -36q-14 2 -21 2q-20 0 -32.5 -13.5t-30.5 -55.5l-22 -53q-24 -56 -44.5 -81t-50.5 -39q41 -13 92 -86l143 -203q14 -22 9.5 -43.5t-24.5 -34.5q-27 -15 -47.5 -10t-32.5 24l-155 225q-33 47 -52.5 61.5
t-45.5 14.5h-11v-272q0 -26 -18 -40t-45 -14t-45 14t-18 40v615q0 26 18 40t45 14t45 -14t18 -40v-241h11q26 0 47 21.5t50 83.5l32 69q32 70 66 96t90 26z" />
    <glyph glyph-name="afii10029" unicode="&#x41b;" horiz-adv-x="712" vert-adv-y="1105" 
d="M275 715h271q48 0 66.5 -18t18.5 -65v-579q0 -27 -18.5 -41t-45.5 -14t-45.5 14t-18.5 41v555h-185v-213q0 -175 -53.5 -260t-181.5 -131q-27 -10 -46.5 2t-27.5 36q-19 53 27 74q50 22 76.5 40t46 52t25.5 82t6 130v212q0 47 18.5 65t66.5 18z" />
    <glyph glyph-name="afii10030" unicode="&#x41c;" horiz-adv-x="875" vert-adv-y="1105" 
d="M166 717h21q46 0 68 -18.5t48 -83.5l137 -342l131 341q24 63 47.5 83t69.5 20h21q48 0 66.5 -18t18.5 -65v-584q0 -26 -17 -39t-44 -13q-25 0 -42.5 13.5t-17.5 38.5v555q-14 -60 -33 -108l-132 -325q-12 -31 -27 -42t-41 -11q-31 0 -46.5 11.5t-28.5 44.5l-129 322
q-16 40 -35 108v-555q0 -26 -17.5 -39t-43.5 -13q-25 0 -42 13.5t-17 38.5v584q0 47 18.5 65t66.5 18z" />
    <glyph glyph-name="afii10031" unicode="&#x41d;" horiz-adv-x="717" vert-adv-y="1105" 
d="M145 721q27 0 45.5 -14t18.5 -41v-238h299v238q0 27 18.5 41t45.5 14t45.5 -14t18.5 -41v-613q0 -27 -18.5 -41t-45.5 -14t-45.5 14t-18.5 41v269h-299v-269q0 -27 -18.5 -41t-45.5 -14t-45.5 14t-18.5 41v613q0 27 18.5 41t45.5 14z" />
    <glyph glyph-name="afii10032" unicode="&#x41e;" horiz-adv-x="720" vert-adv-y="1105" 
d="M360 726q306 0 306 -346v-41q0 -346 -306 -346t-306 346v41q0 346 306 346zM360 609q-91 0 -134 -54t-43 -185v-21q0 -131 43 -185t134 -54t134 54t43 185v21q0 131 -43 185t-134 54z" />
    <glyph glyph-name="afii10033" unicode="&#x41f;" horiz-adv-x="693" vert-adv-y="1105" 
d="M166 715h361q48 0 66.5 -18t18.5 -65v-579q0 -27 -18.5 -41t-45.5 -14t-45.5 14t-18.5 41v555h-275v-555q0 -27 -18.5 -41t-45.5 -14t-45.5 14t-18.5 41v579q0 47 18.5 65t66.5 18z" />
    <glyph glyph-name="afii10034" unicode="&#x420;" horiz-adv-x="636" vert-adv-y="1105" 
d="M166 715h187q124 0 185.5 -56t61.5 -150v-14q0 -93 -64 -155t-183 -62h-144v-225q0 -27 -18.5 -41t-45.5 -14t-45.5 14t-18.5 41v579q0 47 18.5 65t66.5 18zM209 608v-222h127q67 0 101 25.5t34 85.5v11q0 56 -32 78t-92 22h-138z" />
    <glyph glyph-name="afii10035" unicode="&#x421;" horiz-adv-x="658" vert-adv-y="1105" 
d="M359 726q128 0 206 -54q22 -15 25 -38.5t-12 -43.5q-13 -19 -34 -24.5t-42 6.5q-60 36 -146 36q-85 0 -129 -56.5t-44 -181.5v-21q0 -123 42.5 -179.5t131.5 -56.5q92 0 160 46q20 14 42 10.5t37 -24.5q16 -21 12 -46t-27 -42q-88 -63 -227 -63q-300 0 -300 345v41
q0 346 305 346z" />
    <glyph glyph-name="afii10036" unicode="&#x422;" horiz-adv-x="571" vert-adv-y="1105" 
d="M49 715h473q22 0 33.5 -15.5t11.5 -38.5t-11.5 -38.5t-33.5 -15.5h-172v-554q0 -27 -18.5 -41t-45.5 -14t-45.5 14t-18.5 41v554h-173q-22 0 -33.5 15.5t-11.5 38.5t11.5 38.5t33.5 15.5z" />
    <glyph glyph-name="afii10037" unicode="&#x423;" horiz-adv-x="572" vert-adv-y="1105" 
d="M499 717q24 -7 35.5 -27.5t2.5 -45.5l-236 -614q-9 -24 -31.5 -30.5t-46.5 4.5q-52 21 -33 69l44 123l-198 444q-10 26 2 46t37 29q63 22 82 -32l141 -344h1l120 344q9 27 34 35t46 -1z" />
    <glyph glyph-name="afii10038" unicode="&#x424;" horiz-adv-x="762" vert-adv-y="1105" 
d="M381 734q27 0 44 -13.5t17 -40.5v-33q125 -13 197.5 -78.5t72.5 -171.5v-53q0 -107 -72.5 -172t-197.5 -78v-42q0 -27 -17 -40.5t-44 -13.5t-44 13.5t-17 40.5v42q-125 13 -197.5 78t-72.5 172v53q0 106 72.5 171.5t197.5 78.5v33q0 27 17 40.5t44 13.5zM442 536v-331
q68 10 105.5 45.5t37.5 95.5v49q0 59 -37.5 94.5t-105.5 46.5zM320 536q-143 -22 -143 -141v-49q0 -120 143 -141v331z" />
    <glyph glyph-name="afii10039" unicode="&#x425;" horiz-adv-x="669" vert-adv-y="1105" 
d="M576 712q25 -14 31 -36t-10 -47l-181 -263l186 -272q17 -24 12 -47.5t-30 -38.5q-21 -14 -47 -9.5t-40 26.5l-165 254l-166 -252q-14 -22 -38.5 -27.5t-46.5 7.5q-23 14 -29 36.5t9 45.5l194 280l-176 256q-16 24 -8 48.5t34 38.5q24 13 49.5 7.5t39.5 -29.5l147 -238
l152 239q15 23 38 28.5t45 -7.5z" />
    <glyph glyph-name="afii10040" unicode="&#x426;" horiz-adv-x="676" vert-adv-y="1105" 
d="M145 721q27 0 45.5 -14t18.5 -41v-555h265v555q0 27 18.5 41t46.5 14q27 0 45 -14t18 -41v-553q26 -1 43 -15t17 -40v-172q0 -27 -18.5 -41.5t-45.5 -14.5t-45.5 14.5t-18.5 41.5v118h-368q-48 0 -66.5 18t-18.5 65v579q0 27 18.5 41t45.5 14z" />
    <glyph glyph-name="afii10041" unicode="&#x427;" horiz-adv-x="645" vert-adv-y="1105" 
d="M134 720q26 0 45 -14t19 -39v-198q0 -66 32 -96t79 -30q15 0 33.5 3.5t41 12t37.5 26.5t15 42v238q0 27 18.5 41t45.5 14t45.5 -14t18.5 -41v-612q0 -27 -18.5 -41t-45.5 -14t-45.5 14t-18.5 41v232h-2q-20 -27 -70 -38.5t-94 -11.5q-86 0 -143 56t-57 153v223
q0 26 18.5 39.5t45.5 13.5z" />
    <glyph glyph-name="afii10042" unicode="&#x428;" horiz-adv-x="970" vert-adv-y="1105" 
d="M145 721q27 0 45.5 -14t18.5 -41v-554h212v554q0 27 18.5 41t45.5 14t45.5 -14t18.5 -41v-554h212v554q0 27 18.5 41t45.5 14t45.5 -14t18.5 -41v-579q0 -47 -18.5 -65t-66.5 -18h-638q-48 0 -66.5 18t-18.5 65v579q0 27 18.5 41t45.5 14z" />
    <glyph glyph-name="afii10043" unicode="&#x429;" horiz-adv-x="963" vert-adv-y="1105" 
d="M145 721q27 0 45.5 -14t18.5 -41v-554h212v554q0 27 18.5 41t45.5 14t45.5 -14t18.5 -41v-554h212v554q0 27 18.5 41t45.5 14t45.5 -14t18.5 -41v-553q26 -2 43 -15.5t17 -39.5v-173q0 -27 -18.5 -41t-45.5 -14t-45.5 14t-18.5 41v119h-655q-48 0 -66.5 18t-18.5 65v579
q0 27 18.5 41t45.5 14z" />
    <glyph glyph-name="afii10044" unicode="&#x42a;" horiz-adv-x="713" vert-adv-y="1105" 
d="M273 337v-232h149q60 0 92 22t32 78v21q0 60 -34 85.5t-101 25.5h-138zM48 715h140q48 0 66.5 -18t18.5 -65v-187h155q119 0 183 -62t64 -155v-24q0 -94 -61.5 -150t-185.5 -56h-198q-48 0 -66.5 18t-18.5 65v528h-97q-21 0 -32.5 15t-11.5 38t11.5 38t32.5 15z" />
    <glyph glyph-name="afii10045" unicode="&#x42b;" horiz-adv-x="869" vert-adv-y="1105" 
d="M145 721q27 0 45.5 -14t18.5 -41v-221h155q119 0 183 -62t64 -155v-24q0 -94 -61.5 -150t-185.5 -56h-198q-48 0 -66.5 18t-18.5 65v585q0 27 18.5 41t45.5 14zM209 337v-232h149q60 0 92 22t32 78v21q0 60 -34 85.5t-101 25.5h-138zM724 721q27 0 45.5 -14t18.5 -41
v-613q0 -27 -18.5 -41t-45.5 -14t-45.5 14t-18.5 41v613q0 27 18.5 41t45.5 14z" />
    <glyph glyph-name="afii10046" unicode="&#x42c;" horiz-adv-x="649" vert-adv-y="1105" 
d="M145 721q27 0 45.5 -14t18.5 -41v-221h155q119 0 183 -62t64 -155v-24q0 -94 -61.5 -150t-185.5 -56h-198q-48 0 -66.5 18t-18.5 65v585q0 27 18.5 41t45.5 14zM209 337v-232h149q60 0 92 22t32 78v21q0 60 -34 85.5t-101 25.5h-138z" />
    <glyph glyph-name="afii10047" unicode="&#x42d;" horiz-adv-x="658" vert-adv-y="1105" 
d="M298 726q305 0 305 -346v-41q0 -345 -300 -345q-139 0 -227 63q-23 17 -27 42t12 46q15 21 37 24.5t42 -10.5q68 -46 160 -46q81 0 123.5 46.5t49.5 147.5h-279q-22 0 -33.5 14.5t-11.5 37.5t11.5 37.5t33.5 14.5h278q-14 197 -171 197q-86 0 -146 -36q-21 -12 -42 -6.5
t-34 24.5q-15 20 -12 43.5t25 38.5q78 54 206 54z" />
    <glyph glyph-name="afii10048" unicode="&#x42e;" horiz-adv-x="930" vert-adv-y="1105" 
d="M584 726q292 0 292 -346v-41q0 -346 -292 -346q-275 0 -291 307h-86v-247q0 -27 -18 -41t-45 -14t-45 14t-18 41v613q0 27 18 41t45 14t45 -14t18 -41v-261h85q10 321 292 321zM584 609q-85 0 -124 -53.5t-39 -185.5v-21q0 -132 39 -185.5t124 -53.5t124 53.5t39 185.5
v21q0 132 -39 185.5t-124 53.5z" />
    <glyph glyph-name="afii10049" unicode="&#x42f;" horiz-adv-x="656" vert-adv-y="1105" 
d="M302 715h188q48 0 66.5 -18t18.5 -65v-579q0 -27 -18.5 -41t-45.5 -14t-45.5 14t-18.5 41v235h-115q-15 0 -22 1l-137 -262q-12 -24 -37 -28.5t-47 7.5q-24 12 -31.5 33.5t5.5 46.5l126 223q-121 49 -121 183v18q0 95 62 150t172 55zM319 608q-124 0 -124 -101v-13
q0 -50 32 -74.5t103 -24.5h117v213h-128z" />
    <glyph glyph-name="afii10065" unicode="&#x430;" horiz-adv-x="572" vert-adv-y="1105" 
d="M257 231q-89 0 -89 -70v-2q0 -58 75 -58q59 0 93 20q45 27 45 84v26h-124zM283 547q99 0 160.5 -47t61.5 -129v-325q0 -23 -16.5 -35.5t-40.5 -12.5t-40.5 12.5t-16.5 35.5v26h-1q-14 -31 -59 -54q-44 -22 -98 -22q-89 0 -138 41.5t-49 115.5v16q0 159 208 159h126v14
q0 51 -23.5 73.5t-74.5 22.5q-68 0 -128 -36q-20 -12 -39.5 -6.5t-31.5 25.5q-12 18 -8.5 39.5t22.5 33.5q79 53 186 53z" />
    <glyph glyph-name="afii10066" unicode="&#x431;" horiz-adv-x="598" vert-adv-y="1105" 
d="M299 411q-67 0 -96.5 -33t-29.5 -109v-21q0 -80 28.5 -111t97.5 -31t97.5 31t28.5 111v21q0 76 -29.5 109t-96.5 33zM460 758q23 3 38 -11t19 -38q3 -22 -7.5 -40t-32.5 -22q-55 -8 -90 -16.5t-75 -25t-69 -45.5t-50 -71q64 32 106 32q122 0 187.5 -63.5t65.5 -186.5v-25
q0 -123 -65.5 -186.5t-187.5 -63.5t-187.5 63.5t-65.5 186.5v42q0 118 26.5 203t80.5 139.5t128.5 84.5t178.5 43z" />
    <glyph glyph-name="afii10067" unicode="&#x432;" horiz-adv-x="564" vert-adv-y="1105" 
d="M146 535h181q175 0 175 -139v-8q0 -71 -63 -103q85 -28 85 -121v-11q0 -149 -175 -149h-203q-39 0 -55 15.5t-16 54.5v391q0 39 16 54.5t55 15.5zM202 221v-123h82q61 0 86 11t25 47v10q0 30 -25.5 42.5t-92.5 12.5h-75zM202 429v-103h73q58 0 77 10.5t19 42.5v8
q0 25 -22.5 33.5t-77.5 8.5h-69z" />
    <glyph glyph-name="afii10068" unicode="&#x433;" horiz-adv-x="428" vert-adv-y="1105" 
d="M160 535h223q22 0 33.5 -15.5t11.5 -38.5t-11.5 -38.5t-33.5 -15.5h-182v-374q0 -27 -18 -41t-45 -14t-45 14t-18 41v399q0 47 18.5 65t66.5 18z" />
    <glyph glyph-name="afii10069" unicode="&#x434;" horiz-adv-x="599" vert-adv-y="1105" 
d="M262 428v-52q0 -88 -14.5 -144t-57.5 -124h195v320h-123zM221 535h205q48 0 66.5 -18t18.5 -65v-344q21 0 34.5 -10.5t13.5 -31.5v-140q0 -27 -18 -41t-45 -14t-45 14t-18 41v78h-299v-78q0 -27 -18 -41t-45 -14t-45 14t-18 41v140q0 42 43 42q50 65 67.5 132.5
t17.5 177.5v34q0 47 18.5 65t66.5 18z" />
    <glyph glyph-name="afii10070" unicode="&#x435;" horiz-adv-x="582" vert-adv-y="1105" 
d="M295 443q-61 0 -93.5 -32t-32.5 -85v-7h248v10q0 52 -29.5 83t-92.5 31zM297 547q109 0 175 -63t66 -174v-2q0 -47 -18.5 -65t-66.5 -18h-284v-2q0 -55 34.5 -88.5t99.5 -33.5q76 0 138 28q20 9 39 2.5t28 -27.5t3.5 -40.5t-24.5 -29.5q-76 -38 -189 -38
q-121 0 -186.5 66.5t-65.5 195.5v26q0 128 66 195.5t185 67.5z" />
    <glyph glyph-name="afii10072" unicode="&#x436;" horiz-adv-x="772" vert-adv-y="1105" 
d="M386 541q27 0 45 -14t18 -41v-158h2q6 0 32 53l3 6t2.5 5.5t3.5 6.5l20 41q29 59 58.5 79.5t84.5 20.5q25 0 47 -5q47 -12 37 -64q-5 -27 -21 -39t-34 -9q-14 2 -23 2q-29 0 -45 -34l-26 -53q-27 -54 -61 -58q25 -5 43 -19t39 -45l81 -123q15 -25 10 -46.5t-26 -35.5
q-28 -16 -50 -11t-35 26l-94 153q-19 30 -27.5 39.5t-17.5 9.5h-3v-175q0 -27 -18 -41t-45 -14t-45 14t-18 41v175h-3q-9 0 -18 -9.5t-27 -39.5l-94 -153q-13 -21 -35 -26t-50 11q-21 14 -26 35.5t10 46.5l81 123q21 31 39 45t43 19q-34 4 -61 58l-26 53q-16 34 -45 34
q-9 0 -23 -2q-18 -3 -34 9t-21 39q-10 52 37 64q22 5 47 5q55 0 84.5 -20.5t58.5 -79.5l20 -41q33 -68 38 -70q2 -1 3 -1h2v158q0 27 18 41t45 14z" />
    <glyph glyph-name="afii10073" unicode="&#x437;" horiz-adv-x="492" vert-adv-y="1105" 
d="M232 543q94 0 146 -43.5t52 -104.5v-3q0 -36 -22 -68t-56 -49q100 -25 100 -118v-8q0 -68 -58.5 -117t-157.5 -49q-102 0 -169 42q-17 12 -20.5 31t6.5 37q11 21 32.5 27.5t38.5 -4.5q49 -30 106 -30q58 0 87 18.5t29 49.5v7q0 65 -118 65h-51q-44 0 -44 53t44 53h41
q56 0 82.5 12t26.5 42q0 23 -26 39.5t-70 16.5q-54 0 -92 -32q-15 -14 -34.5 -12t-35.5 21q-24 31 2 64q53 60 161 60z" />
    <glyph glyph-name="afii10074" unicode="&#x438;" horiz-adv-x="616" vert-adv-y="1105" 
d="M135 541q27 0 44 -13.5t17 -39.5v-304q9 38 34 71l158 208q44 58 55 66q12 9 34 9q36 0 50 -13.5t14 -49.5v-424q0 -26 -17 -39.5t-43 -13.5t-43 13.5t-17 39.5v292q-8 -36 -34 -71l-159 -211q-32 -44 -45.5 -52t-43.5 -8q-36 0 -50 13.5t-14 49.5v424q0 26 17 39.5
t43 13.5z" />
    <glyph glyph-name="afii10075" unicode="&#x439;" horiz-adv-x="616" vert-adv-y="1105" 
d="M135 541q27 0 44 -13.5t17 -39.5v-304q9 38 34 71l158 208q44 58 55 66q12 9 34 9q36 0 50 -13.5t14 -49.5v-424q0 -26 -17 -39.5t-43 -13.5t-43 13.5t-17 39.5v292q-8 -36 -34 -71l-159 -211q-32 -44 -45.5 -52t-43.5 -8q-36 0 -50 13.5t-14 49.5v424q0 26 17 39.5
t43 13.5zM416 732q37 -11 27 -46q-9 -34 -43.5 -62t-90.5 -28t-90.5 28t-43.5 62q-10 35 27 46q35 11 49 -20q18 -40 58 -40t58 40q14 31 49 20z" />
    <glyph glyph-name="afii10076" unicode="&#x43a;" horiz-adv-x="537" vert-adv-y="1105" 
d="M138 541q27 0 45 -14t18 -41v-156h5q9 0 17.5 12.5t24.5 48.5l25 56q21 47 50 69t75 22q42 0 65 -8q42 -15 32 -64q-5 -24 -20 -35.5t-33 -8.5q-14 3 -26 3q-21 0 -33 -25l-29 -61q-23 -49 -54 -59q23 -7 39 -21t36 -43l82 -123q15 -25 10 -46.5t-26 -35.5
q-28 -16 -50 -11.5t-35 25.5l-104 164q-15 23 -23 30t-21 7h-7v-173q0 -27 -18 -41t-45 -14t-45 14t-18 41v433q0 27 18 41t45 14z" />
    <glyph glyph-name="afii10077" unicode="&#x43b;" horiz-adv-x="604" vert-adv-y="1105" 
d="M212 535h232q48 0 66.5 -18t18.5 -65v-399q0 -27 -18 -41t-45 -14t-45 14t-18 41v375h-150v-134q0 -53 -7 -95t-24 -83t-50.5 -70.5t-82.5 -44.5q-53 -16 -73 38q-21 56 25 77q53 25 69.5 61.5t16.5 127.5v147q0 47 18.5 65t66.5 18z" />
    <glyph glyph-name="afii10078" unicode="&#x43c;" horiz-adv-x="714" vert-adv-y="1105" 
d="M147 541h15q38 0 57 -12.5t38 -57.5l100 -234l100 234q19 45 38 57.5t57 12.5h15q41 0 56.5 -15t15.5 -56v-420q0 -26 -17 -39t-43 -13t-43 13t-17 39v323q-9 -43 -23 -74l-76 -166q-13 -27 -25.5 -36.5t-37.5 -9.5t-37.5 9.5t-25.5 36.5l-76 166q-14 31 -23 74v-323
q0 -26 -17 -39t-43 -13t-43 13t-17 39v420q0 41 15.5 56t56.5 15z" />
    <glyph glyph-name="afii10079" unicode="&#x43d;" horiz-adv-x="622" vert-adv-y="1105" 
d="M138 541q27 0 45 -14t18 -41v-155h220v155q0 27 18 41t45 14t45 -14t18 -41v-433q0 -27 -18 -41t-45 -14t-45 14t-18 41v172h-220v-172q0 -27 -18 -41t-45 -14t-45 14t-18 41v433q0 27 18 41t45 14z" />
    <glyph glyph-name="afii10080" unicode="&#x43e;" horiz-adv-x="608" vert-adv-y="1105" 
d="M304 547q123 0 190.5 -67.5t67.5 -195.5v-25q0 -128 -67.5 -195.5t-190.5 -67.5t-190.5 67.5t-67.5 195.5v25q0 128 67.5 195.5t190.5 67.5zM304 437q-68 0 -99.5 -37t-31.5 -118v-21q0 -81 31.5 -118t99.5 -37t99.5 37t31.5 118v21q0 81 -31.5 118t-99.5 37z" />
    <glyph glyph-name="afii10081" unicode="&#x43f;" horiz-adv-x="599" vert-adv-y="1105" 
d="M160 535h279q48 0 66.5 -18t18.5 -65v-399q0 -27 -18 -41t-45 -14t-45 14t-18 41v375h-197v-375q0 -27 -18 -41t-45 -14t-45 14t-18 41v399q0 47 18.5 65t66.5 18z" />
    <glyph glyph-name="afii10082" unicode="&#x440;" horiz-adv-x="613" vert-adv-y="1105" 
d="M352 547q215 0 215 -262v-26q0 -128 -59.5 -195.5t-161.5 -67.5q-97 0 -145 64v-203q0 -26 -18 -39.5t-45 -13.5q-26 0 -44.5 14t-18.5 39v633q0 25 17.5 38t42.5 13q26 0 43.5 -13t17.5 -38v-15q49 72 156 72zM327 439q-61 0 -94.5 -36t-33.5 -94v-93q0 -43 38 -78
t93 -35q112 0 112 159v20q0 79 -27 118t-88 39z" />
    <glyph glyph-name="afii10083" unicode="&#x441;" horiz-adv-x="527" vert-adv-y="1105" 
d="M296 547q103 0 171 -45q19 -13 22.5 -35.5t-10.5 -41.5q-29 -41 -69 -17q-49 29 -114 29q-123 0 -123 -153v-25q0 -74 32 -113t92 -39q70 0 122 29q20 12 40.5 7t31.5 -25q12 -20 8.5 -42.5t-23.5 -35.5q-69 -44 -180 -44q-120 0 -185 66.5t-65 196.5v25q0 130 65 196.5
t185 66.5z" />
    <glyph glyph-name="afii10084" unicode="&#x442;" horiz-adv-x="489" vert-adv-y="1105" 
d="M64 535h361q22 0 33.5 -15.5t11.5 -38.5t-11.5 -38.5t-33.5 -15.5h-121v-374q0 -27 -18 -41t-45 -14t-45 14t-18 41v374h-114q-22 0 -33.5 15.5t-11.5 38.5t11.5 38.5t33.5 15.5z" />
    <glyph glyph-name="afii10085" unicode="&#x443;" horiz-adv-x="559" vert-adv-y="1105" 
d="M486 537q24 -7 35.5 -27.5t2.5 -45.5l-250 -635q-9 -24 -31.5 -30.5t-46.5 4.5q-52 21 -33 69l54 130l-182 458q-10 26 2 46t37 29q63 22 82 -32l125 -358h1l124 358q9 27 34 35t46 -1z" />
    <glyph glyph-name="afii10086" unicode="&#x444;" horiz-adv-x="690" vert-adv-y="1105" 
d="M345 721q27 0 44 -13.5t17 -40.5v-140q111 -14 174.5 -78.5t63.5 -170.5v-27q0 -106 -63.5 -171t-174.5 -79v-148q0 -27 -17 -40.5t-44 -13.5t-44 13.5t-17 40.5v148q-112 14 -175 79t-63 171v27q0 106 63 170.5t175 78.5v140q0 27 17 40.5t44 13.5zM406 415v-302
q111 25 111 140v23q0 116 -111 139zM284 415q-111 -23 -111 -139v-23q0 -115 111 -140v302z" />
    <glyph glyph-name="afii10087" unicode="&#x445;" horiz-adv-x="532" vert-adv-y="1105" 
d="M465 528q21 -15 25 -37t-12 -44l-135 -172l144 -178q36 -46 -11 -85q-18 -16 -44.5 -13.5t-42.5 24.5l-124 165l-124 -164q-17 -23 -41.5 -25.5t-42.5 12.5q-21 16 -25 37.5t12 43.5l147 183l-132 167q-36 46 11 85q18 16 44.5 13.5t42.5 -24.5l112 -154l112 153
q16 23 41 25.5t43 -12.5z" />
    <glyph glyph-name="afii10088" unicode="&#x446;" horiz-adv-x="584" vert-adv-y="1105" 
d="M138 541q27 0 45 -14t18 -41v-375h184v375q0 27 18 41t45 14t45 -14t18 -41v-373q48 -9 48 -54v-141q0 -27 -18 -41t-45 -14t-45 14t-18 41v86h-273q-48 0 -66.5 18t-18.5 65v399q0 27 18 41t45 14z" />
    <glyph glyph-name="afii10089" unicode="&#x447;" horiz-adv-x="554" vert-adv-y="1105" 
d="M103 541q26 0 44.5 -14t18.5 -39v-92q0 -66 24.5 -93.5t60.5 -27.5q34 0 68 19.5t34 64.5v127q0 27 18 41t45 14t45 -14t18 -41v-433q0 -27 -18 -41t-45 -14t-45 14t-18 41v164h-2q-38 -50 -139 -50q-75 0 -123.5 53.5t-48.5 150.5v117q0 26 18 39.5t45 13.5z" />
    <glyph glyph-name="afii10090" unicode="&#x448;" horiz-adv-x="822" vert-adv-y="1105" 
d="M138 541q27 0 45 -14t18 -41v-374h147v374q0 27 18 41t45 14t45 -14t18 -41v-374h147v374q0 27 18 41t45 14t45 -14t18 -41v-399q0 -47 -18.5 -65t-66.5 -18h-502q-48 0 -66.5 18t-18.5 65v399q0 27 18 41t45 14z" />
    <glyph glyph-name="afii10091" unicode="&#x449;" horiz-adv-x="820" vert-adv-y="1105" 
d="M138 541q27 0 45 -14t18 -41v-374h147v374q0 27 18 41t45 14t45 -14t18 -41v-374h147v374q0 27 18 41t45 14t45 -14t18 -41v-373q48 -9 48 -54v-141q0 -27 -18 -41t-45 -14t-45 14t-18 41v86h-509q-48 0 -66.5 18t-18.5 65v399q0 27 18 41t45 14z" />
    <glyph glyph-name="afii10092" unicode="&#x44a;" horiz-adv-x="593" vert-adv-y="1105" 
d="M53 533h105q48 0 66.5 -18t18.5 -65v-87h85q118 0 172.5 -48.5t54.5 -127.5v-23q0 -79 -52 -122.5t-175 -43.5h-128q-48 0 -66.5 18t-18.5 65v346h-62q-21 0 -32.5 15t-11.5 38t11.5 38t32.5 15zM243 255v-150h79q57 0 80.5 12.5t23.5 47.5v20q0 40 -25.5 55t-89.5 15
h-68z" />
    <glyph glyph-name="afii10093" unicode="&#x44b;" horiz-adv-x="773" vert-adv-y="1105" 
d="M635 541q27 0 45 -14.5t18 -41.5v-433q0 -27 -18 -40.5t-45 -13.5t-45 14t-18 41v433q0 27 18 41t45 14zM139 541q27 0 45.5 -14t18.5 -41v-123h85q118 0 172.5 -48.5t54.5 -127.5v-23q0 -79 -52 -122.5t-175 -43.5h-128q-48 0 -66.5 18t-18.5 65v405q0 27 18.5 41
t45.5 14zM203 255v-150h79q57 0 80.5 12.5t23.5 47.5v20q0 40 -25.5 55t-89.5 15h-68z" />
    <glyph glyph-name="afii10094" unicode="&#x44c;" horiz-adv-x="553" vert-adv-y="1105" 
d="M139 541q27 0 45.5 -14t18.5 -41v-123h85q118 0 172.5 -48.5t54.5 -127.5v-23q0 -79 -52 -122.5t-175 -43.5h-128q-48 0 -66.5 18t-18.5 65v405q0 27 18.5 41t45.5 14zM203 255v-150h79q57 0 80.5 12.5t23.5 47.5v20q0 40 -25.5 55t-89.5 15h-68z" />
    <glyph glyph-name="afii10095" unicode="&#x44d;" horiz-adv-x="546" vert-adv-y="1105" 
d="M251 547q120 0 185 -66.5t65 -196.5v-25q0 -130 -65 -196.5t-185 -66.5q-111 0 -180 44q-20 13 -23.5 35.5t8.5 42.5q11 20 31.5 25t40.5 -7q52 -29 122 -29q50 0 81 28t39 81h-176q-21 0 -32 14.5t-11 37.5t11 37.5t32 14.5h178q-13 117 -121 117q-65 0 -114 -29
q-40 -24 -69 17q-14 19 -10.5 41.5t22.5 35.5q68 45 171 45z" />
    <glyph glyph-name="afii10096" unicode="&#x44e;" horiz-adv-x="774" vert-adv-y="1105" 
d="M492 547q114 0 175 -67.5t61 -195.5v-25q0 -128 -61 -195.5t-175 -67.5q-102 0 -162.5 54.5t-71.5 159.5h-59v-157q0 -27 -17.5 -41t-44.5 -14t-44.5 14t-17.5 41v433q0 27 17.5 41t44.5 14t44.5 -14t17.5 -41v-164h58q9 110 69.5 167.5t165.5 57.5zM492 437
q-59 0 -84 -36.5t-25 -118.5v-21q0 -82 25 -118.5t84 -36.5t84 36.5t25 118.5v21q0 82 -25 118.5t-84 36.5z" />
    <glyph glyph-name="afii10097" unicode="&#x44f;" horiz-adv-x="558" vert-adv-y="1105" 
d="M285 428q-70 0 -91 -9t-21 -49v-13q0 -39 22.5 -48t100.5 -9h59v128h-70zM268 535h130q48 0 66.5 -18t18.5 -65v-399q0 -27 -18.5 -41t-45.5 -14t-45.5 14t-18.5 41v140h-77q-14 0 -21 1l-86 -167q-12 -24 -37 -28.5t-47 7.5q-24 12 -31.5 33.5t5.5 46.5l75 130
q-90 37 -90 139v18q0 85 54.5 123.5t167.5 38.5z" />
    <glyph glyph-name="afii10071" unicode="&#x451;" horiz-adv-x="582" vert-adv-y="1105" 
d="M186 718q27 0 46 -18.5t19 -44.5t-19 -44t-46 -18t-46 18t-19 44t19 44.5t46 18.5zM380 718q27 0 46 -18.5t19 -44.5t-19 -44t-46 -18t-46 18t-19 44t19 44.5t46 18.5zM295 443q-61 0 -93.5 -32t-32.5 -85v-7h248v10q0 52 -29.5 83t-92.5 31zM297 547q109 0 175 -63
t66 -174v-2q0 -47 -18.5 -65t-66.5 -18h-284v-2q0 -55 34.5 -88.5t99.5 -33.5q76 0 138 28q20 9 39 2.5t28 -27.5t3.5 -40.5t-24.5 -29.5q-76 -38 -189 -38q-121 0 -186.5 66.5t-65.5 195.5v26q0 128 66 195.5t185 67.5z" />
    <glyph glyph-name="uni2010" unicode="&#x2010;" horiz-adv-x="420" vert-adv-y="1105" 
d="M66 415h288q22 0 34 -16.5t12 -41.5q0 -24 -12 -40.5t-34 -16.5h-288q-22 0 -34 16.5t-12 40.5q0 25 12 41.5t34 16.5z" />
    <glyph glyph-name="endash" unicode="&#x2013;" horiz-adv-x="438" vert-adv-y="1105" 
d="M36 402h366q17 0 26.5 -12.5t9.5 -32.5q0 -18 -9.5 -30.5t-26.5 -12.5h-366q-17 0 -26.5 12.5t-9.5 30.5q0 20 9.5 32.5t26.5 12.5z" />
    <glyph glyph-name="emdash" unicode="&#x2014;" horiz-adv-x="876" vert-adv-y="1105" 
d="M36 402h804q17 0 26.5 -12.5t9.5 -32.5q0 -18 -9.5 -30.5t-26.5 -12.5h-804q-17 0 -26.5 12.5t-9.5 30.5q0 20 9.5 32.5t26.5 12.5z" />
    <glyph glyph-name="uni2016" unicode="&#x2016;" vert-adv-y="1105" 
d="M514 813h57v-960h-57v960zM339 813h56v-960h-56v960z" />
    <glyph glyph-name="quoteleft" unicode="&#x2018;" horiz-adv-x="200" vert-adv-y="1105" 
d="M144 779q19 -3 29.5 -16.5t6.5 -33.5l-25 -144q-5 -28 -27 -39.5t-50 -6.5q-27 5 -39.5 24.5t-3.5 46.5l47 136q15 42 62 33z" />
    <glyph glyph-name="quoteright" unicode="&#x2019;" horiz-adv-x="200" vert-adv-y="1105" 
d="M122 764q27 -5 39.5 -24.5t3.5 -46.5l-47 -136q-15 -42 -62 -33q-19 3 -29.5 16.5t-6.5 33.5l25 144q5 28 27 39.5t50 6.5z" />
    <glyph glyph-name="quotereversed" unicode="&#x201b;" vert-adv-y="1105" 
 />
    <glyph glyph-name="quotedblleft" unicode="&#x201c;" horiz-adv-x="350" vert-adv-y="1105" 
d="M297 780q17 -3 25.5 -16.5t5.5 -31.5l-27 -150q-4 -26 -24 -36.5t-45 -6.5q-25 5 -36.5 22.5t-2.5 42.5l50 145q14 38 54 31zM147 780q17 -3 25.5 -16.5t5.5 -31.5l-27 -150q-4 -26 -24 -36.5t-45 -6.5q-25 5 -36.5 22.5t-2.5 42.5l50 145q14 38 54 31z" />
    <glyph glyph-name="quotedblright" unicode="&#x201d;" horiz-adv-x="350" vert-adv-y="1105" 
d="M118 764q25 -5 36.5 -22.5t2.5 -42.5l-50 -145q-14 -38 -54 -31q-17 3 -25.5 16.5t-5.5 31.5l27 150q4 26 24 36.5t45 6.5zM268 764q25 -5 36.5 -22.5t2.5 -42.5l-50 -145q-14 -38 -54 -31q-17 3 -25.5 16.5t-5.5 31.5l27 150q4 26 24 36.5t45 6.5z" />
    <glyph glyph-name="uni201F" unicode="&#x201f;" vert-adv-y="1105" 
 />
    <glyph glyph-name="dagger" unicode="&#x2020;" horiz-adv-x="490" vert-adv-y="1105" 
d="M245 717q27 0 45 -14t18 -40v-148h118q21 0 32.5 -15t11.5 -37t-11.5 -37t-32.5 -15h-118v-426q0 -26 -18 -40t-45 -14t-45 14t-18 40v426h-118q-21 0 -32.5 15t-11.5 37t11.5 37t32.5 15h118v148q0 26 18 40t45 14z" />
    <glyph glyph-name="daggerdbl" unicode="&#x2021;" horiz-adv-x="490" vert-adv-y="1105" 
d="M245 717q27 0 45 -14t18 -40v-148h118q21 0 32.5 -15t11.5 -37t-11.5 -37t-32.5 -15h-118v-183h118q21 0 32.5 -15t11.5 -37t-11.5 -37t-32.5 -15h-118v-139q0 -26 -18 -40t-45 -14t-45 14t-18 40v139h-118q-21 0 -32.5 15t-11.5 37t11.5 37t32.5 15h118v183h-118
q-21 0 -32.5 15t-11.5 37t11.5 37t32.5 15h118v148q0 26 18 40t45 14z" />
    <glyph glyph-name="bullet" unicode="&#x2022;" vert-adv-y="1105" 
 />
    <glyph glyph-name="twodotenleader" unicode="&#x2025;" vert-adv-y="1105" 
d="M313 436q34 0 56.5 -22.5t22.5 -56.5t-22.5 -56.5t-56.5 -22.5t-56.5 22.5t-22.5 56.5t22.5 56.5t56.5 22.5zM597 436q34 0 56.5 -22.5t22.5 -56.5t-22.5 -56.5t-56.5 -22.5t-56.5 22.5t-22.5 56.5t22.5 56.5t56.5 22.5z" />
    <glyph glyph-name="uni22EF" unicode="&#x2026;" vert-adv-y="1105" 
d="M171 436q34 0 56.5 -22.5t22.5 -56.5t-22.5 -56.5t-56.5 -22.5t-56.5 22.5t-22.5 56.5t22.5 56.5t56.5 22.5zM455 436q34 0 56.5 -22.5t22.5 -56.5t-22.5 -56.5t-56.5 -22.5t-56.5 22.5t-22.5 56.5t22.5 56.5t56.5 22.5zM739 436q34 0 56.5 -22.5t22.5 -56.5t-22.5 -56.5
t-56.5 -22.5t-56.5 22.5t-22.5 56.5t22.5 56.5t56.5 22.5z" />
    <glyph glyph-name="uni22EF" unicode="&#x22ef;" vert-adv-y="1105" 
d="M171 436q34 0 56.5 -22.5t22.5 -56.5t-22.5 -56.5t-56.5 -22.5t-56.5 22.5t-22.5 56.5t22.5 56.5t56.5 22.5zM455 436q34 0 56.5 -22.5t22.5 -56.5t-22.5 -56.5t-56.5 -22.5t-56.5 22.5t-22.5 56.5t22.5 56.5t56.5 22.5zM739 436q34 0 56.5 -22.5t22.5 -56.5t-22.5 -56.5
t-56.5 -22.5t-56.5 22.5t-22.5 56.5t22.5 56.5t56.5 22.5z" />
    <glyph glyph-name="perthousand" unicode="&#x2030;" horiz-adv-x="1313" vert-adv-y="1105" 
d="M229 726q82 0 126.5 -47.5t44.5 -129.5v-21q0 -82 -44.5 -129.5t-126.5 -47.5t-126.5 47.5t-44.5 129.5v21q0 82 44.5 129.5t126.5 47.5zM229 638q-37 0 -54 -23t-17 -72v-10q0 -49 17 -71.5t54 -22.5t54 22.5t17 71.5v10q0 49 -17 72t-54 23zM678 714q18 -10 23.5 -26.5
t-5.5 -38.5l-381 -629q-11 -17 -30.5 -21t-36.5 6q-18 10 -23.5 26.5t5.5 38.5l381 629q11 17 30.5 21t36.5 -6zM696 368q82 0 126.5 -47.5t44.5 -129.5v-21q0 -82 -44.5 -129.5t-126.5 -47.5t-126.5 47.5t-44.5 129.5v21q0 82 44.5 129.5t126.5 47.5zM696 280
q-37 0 -54 -23t-17 -72v-10q0 -49 17 -71.5t54 -22.5t54 22.5t17 71.5v10q0 49 -17 72t-54 23zM1084 368q82 0 126.5 -47.5t44.5 -129.5v-21q0 -82 -44.5 -129.5t-126.5 -47.5t-126.5 47.5t-44.5 129.5v21q0 82 44.5 129.5t126.5 47.5zM1084 280q-37 0 -54 -23t-17 -72v-10
q0 -49 17 -71.5t54 -22.5t54 22.5t17 71.5v10q0 49 -17 72t-54 23z" />
    <glyph glyph-name="minute" unicode="&#x2032;" horiz-adv-x="399" vert-adv-y="1105" 
d="M230 765q24 -6 37 -26.5t1 -43.5l-99 -194q-12 -24 -41 -17t-21 35l54 211q13 49 69 35z" />
    <glyph glyph-name="second" unicode="&#x2033;" horiz-adv-x="599" vert-adv-y="1105" 
d="M230 765q24 -6 37 -26.5t1 -43.5l-99 -194q-12 -24 -41 -17t-21 35l54 211q13 49 69 35zM430 765q24 -6 37 -26.5t1 -43.5l-99 -194q-12 -24 -41 -17t-21 35l54 211q13 49 69 35z" />
    <glyph glyph-name="uni2034" unicode="&#x2034;" vert-adv-y="1105" 
 />
    <glyph glyph-name="uni2035" unicode="&#x2035;" vert-adv-y="1105" 
 />
    <glyph glyph-name="uni2036" unicode="&#x2036;" vert-adv-y="1105" 
 />
    <glyph glyph-name="guilsinglleft" unicode="&#x2039;" vert-adv-y="1105" 
 />
    <glyph glyph-name="guilsinglright" unicode="&#x203a;" vert-adv-y="1105" 
 />
    <glyph glyph-name="uni203B" unicode="&#x203b;" vert-adv-y="1105" 
d="M458 416l248 252q13 13 30 12t30 -15q33 -33 5 -59l-252 -250l253 -248q28 -27 -5 -60q-14 -14 -31.5 -14.5t-30.5 12.5l-245 251l-245 -251q-13 -13 -30.5 -12.5t-31.5 14.5q-32 34 -4 60l252 248l-252 250q-27 26 4 59q14 14 31 15t30 -12zM455 738q34 0 56.5 -22.5
t22.5 -56.5t-22.5 -56.5t-56.5 -22.5t-56.5 22.5t-22.5 56.5t22.5 56.5t56.5 22.5zM455 134q34 0 56.5 -22.5t22.5 -56.5t-22.5 -56.5t-56.5 -22.5t-56.5 22.5t-22.5 56.5t22.5 56.5t56.5 22.5zM836 357q0 -34 -22.5 -56.5t-56.5 -22.5t-56.5 22.5t-22.5 56.5t22.5 56.5
t56.5 22.5t56.5 -22.5t22.5 -56.5zM232 357q0 -34 -22.5 -56.5t-56.5 -22.5t-56.5 22.5t-22.5 56.5t22.5 56.5t56.5 22.5t56.5 -22.5t22.5 -56.5z" />
    <glyph glyph-name="exclamdbl" unicode="&#x203c;" vert-adv-y="1105" 
 />
    <glyph glyph-name="uni2042" unicode="&#x2042;" vert-adv-y="1105" 
 />
    <glyph glyph-name="uni2074" unicode="&#x2074;" horiz-adv-x="400" vert-adv-y="1105" 
d="M277 816q36 -25 13 -58l-146 -209h98v89q0 19 13.5 29.5t32.5 10.5t32.5 -10.5t13.5 -29.5v-89h26q34 0 34 -38t-34 -38h-26v-50q0 -19 -13.5 -29.5t-32.5 -10.5t-32.5 10.5t-13.5 29.5v50h-155q-54 0 -54 45q0 20 18 45l167 243q24 33 59 10z" />
    <glyph glyph-name="uni207A" unicode="&#x207a;" vert-adv-y="1105" 
 />
    <glyph glyph-name="uni207B" unicode="&#x207b;" vert-adv-y="1105" 
 />
    <glyph glyph-name="uni207C" unicode="&#x207c;" vert-adv-y="1105" 
 />
    <glyph glyph-name="uni207D" unicode="&#x207d;" vert-adv-y="1105" 
 />
    <glyph glyph-name="uni207E" unicode="&#x207e;" vert-adv-y="1105" 
 />
    <glyph glyph-name="uni207F" unicode="&#x207f;" horiz-adv-x="455" vert-adv-y="1105" 
d="M262 741q60 0 94.5 -35t34.5 -100v-183q0 -19 -13.5 -29t-32.5 -10t-32.5 10t-13.5 29v166q0 70 -61 70q-31 0 -50.5 -20t-19.5 -55v-161q0 -19 -13 -29t-33 -10q-19 0 -32.5 10t-13.5 29v276q0 38 44 38q18 0 30.5 -9.5t12.5 -28.5v-16q10 26 38 42t61 16z" />
    <glyph glyph-name="uni2081" unicode="&#x2081;" horiz-adv-x="400" vert-adv-y="1105" 
d="M228 333q48 0 48 -41v-357q0 -21 -13.5 -31.5t-32.5 -10.5t-32.5 10.5t-13.5 31.5v286l-63 -36q-18 -9 -34 -3t-24 21q-9 15 -4.5 33t19.5 26l99 56q27 15 51 15z" />
    <glyph glyph-name="uni2082" unicode="&#x2082;" horiz-adv-x="400" vert-adv-y="1105" 
d="M200 337q72 0 109 -33.5t37 -86.5v-7q0 -64 -73 -136l-101 -98h158q35 0 35 -40q0 -17 -9.5 -28.5t-25.5 -11.5h-223q-62 0 -62 49q0 19 23 42l135 137q30 31 40 48t10 38v2q0 40 -52 40q-39 0 -70 -37q-11 -14 -27 -15.5t-30 8.5q-33 24 -11 58q47 71 137 71z" />
    <glyph glyph-name="uni2083" unicode="&#x2083;" horiz-adv-x="400" vert-adv-y="1105" 
d="M198 337q71 0 110 -31t39 -85v-3q0 -36 -20.5 -62t-48.5 -32q34 -4 60.5 -28.5t26.5 -68.5v-5q0 -58 -46 -93.5t-118 -35.5q-73 0 -121 32q-34 22 -13 58q22 36 58 14q37 -22 73 -22q73 0 73 50v4q0 53 -77 53h-31q-35 0 -35 40q0 39 35 39h25q68 0 68 51v2q0 42 -58 42
q-34 0 -62 -26t-55 5q-11 13 -10 28t11 27q42 47 116 47z" />
    <glyph glyph-name="uni2084" unicode="&#x2084;" horiz-adv-x="400" vert-adv-y="1105" 
d="M277 327q36 -25 13 -58l-146 -209h98v89q0 19 13.5 29.5t32.5 10.5t32.5 -10.5t13.5 -29.5v-89h26q34 0 34 -38t-34 -38h-26v-50q0 -19 -13.5 -29.5t-32.5 -10.5t-32.5 10.5t-13.5 29.5v50h-155q-54 0 -54 45q0 20 18 45l167 243q24 33 59 10z" />
    <glyph glyph-name="uni20A9" unicode="&#x20a9;" horiz-adv-x="962" vert-adv-y="1105" 
d="M487 721q53 0 68 -60l56 -238h105l57 255q6 25 25.5 35.5t43.5 5.5q25 -5 37 -23.5t5 -45.5l-57 -227h80q29 0 29 -36q0 -35 -29 -35h-97l-73 -294q-15 -60 -68 -60t-68 62l-68 292h-96l-74 -294q-15 -60 -69 -60t-68 61l-73 293h-98q-29 0 -29 35q0 36 29 36h81l-56 227
q-7 27 5.5 45.5t37.5 23.5q57 13 70 -41l57 -255h109l60 238q15 60 68 60zM266 352l35 -158l40 158h-75zM628 352l37 -157l35 157h-72zM487 549l-32 -126h61z" />
    <glyph glyph-name="uni2103" unicode="&#x2103;" horiz-adv-x="846" vert-adv-y="1105" 
d="M547 726q128 0 206 -54q22 -15 25 -38.5t-12 -43.5q-13 -19 -34 -24.5t-42 6.5q-60 36 -146 36q-85 0 -129 -56.5t-44 -181.5v-21q0 -124 42.5 -180.5t131.5 -56.5q92 0 160 46q20 14 42 10.5t37 -24.5q16 -21 12 -46t-27 -42q-88 -63 -227 -63q-300 0 -300 346v41
q0 346 305 346zM148 744q44 0 72.5 -28t28.5 -68t-28.5 -68t-72.5 -28t-72.5 28t-28.5 68t28.5 68t72.5 28zM148 686q-17 0 -28 -11.5t-11 -26.5t11 -26.5t28 -11.5t28 11.5t11 26.5t-11 26.5t-28 11.5z" />
    <glyph glyph-name="uni2109" unicode="&#x2109;" horiz-adv-x="797" vert-adv-y="1105" 
d="M382 715h340q22 0 33.5 -15.5t11.5 -38.5t-11.5 -38.5t-33.5 -15.5h-297v-201h276q22 0 33.5 -15.5t11.5 -38.5t-11.5 -38.5t-33.5 -15.5h-276v-245q0 -27 -18.5 -41t-45.5 -14t-45.5 14t-18.5 41v579q0 47 18.5 65t66.5 18zM148 744q44 0 72.5 -28t28.5 -68t-28.5 -68
t-72.5 -28t-72.5 28t-28.5 68t28.5 68t72.5 28zM148 686q-17 0 -28 -11.5t-11 -26.5t11 -26.5t28 -11.5t28 11.5t11 26.5t-11 26.5t-28 11.5z" />
    <glyph glyph-name="afii61289" unicode="&#x2113;" vert-adv-y="1105" 
d="M480 726q147 0 147 -190v-90q0 -104 -47 -179.5t-123 -119.5v-9q0 -22 10 -31.5t32 -9.5q24 0 46 12q40 22 64 -16q12 -17 8 -37t-22 -32q-43 -28 -101 -28q-83 0 -121 35t-38 114v391q0 86 34 138t111 52zM480 616q-23 0 -23 -105v-245q48 87 48 182v63q0 105 -25 105z
" />
    <glyph glyph-name="afii61352" unicode="&#x2116;" horiz-adv-x="1124" vert-adv-y="1105" 
d="M893 726q82 0 126.5 -47.5t44.5 -129.5v-21q0 -82 -44.5 -129.5t-126.5 -47.5t-126.5 47.5t-44.5 129.5v21q0 82 44.5 129.5t126.5 47.5zM893 638q-37 0 -54 -23t-17 -72v-10q0 -49 17 -71.5t54 -22.5t54 22.5t17 71.5v10q0 49 -17 72t-54 23zM581 721q25 0 42 -13.5
t17 -38.5v-584q0 -47 -18.5 -65t-66.5 -18q-38 0 -60 17.5t-59 83.5l-189 338q-33 60 -48 115v-506q0 -25 -17 -38.5t-42 -13.5t-42 13.5t-17 38.5v584q0 47 18.5 65t66.5 18q38 0 60 -18t59 -83l189 -338q33 -60 48 -115v506q0 25 17 38.5t42 13.5zM759 286h268
q17 0 27 -13t10 -32q0 -20 -10 -33t-27 -13h-268q-18 0 -27.5 13t-9.5 33q0 19 9.5 32t27.5 13z" />
    <glyph glyph-name="uni2121" unicode="&#x2121;" horiz-adv-x="1066" vert-adv-y="1105" 
d="M458 528h215q21 0 32.5 -14.5t11.5 -36.5t-11.5 -36.5t-32.5 -14.5h-154v-101h135q21 0 32 -14t11 -36t-11 -36t-32 -14h-135v-119h162q21 0 32.5 -14.5t11.5 -36.5t-11.5 -36.5t-32.5 -14.5h-223q-35 0 -49 13.5t-14 48.5v400q0 35 14 48.5t49 13.5zM50 715h393
q46 0 46 -53t-46 -53h-133v-556q0 -27 -18.5 -41t-45.5 -14t-45 14t-18 41v556h-133q-46 0 -46 53t46 53zM817 532q27 0 44.5 -13.5t17.5 -39.5v-372h149q16 0 25 -16.5t9 -34.5t-9 -35t-25 -17h-209q-36 0 -50 13.5t-14 48.5v413q0 26 18 39.5t44 13.5z" />
    <glyph glyph-name="trademark" unicode="&#x2122;" horiz-adv-x="709" vert-adv-y="1105" 
d="M42 715h214q31 0 31 -36q0 -37 -31 -37h-64v-224q0 -18 -12.5 -27t-31.5 -9q-45 0 -45 36v224h-61q-31 0 -31 37q0 36 31 36zM362 715h8q27 0 40 -10.5t30 -46.5l56 -120l56 120q17 36 29.5 46.5t39.5 10.5h7q33 0 45 -10.5t12 -38.5v-253q0 -15 -12 -23.5t-30 -8.5
q-16 0 -28 8.5t-12 23.5v194q-6 -18 -21 -49l-43 -86q-17 -34 -43 -34q-27 0 -44 34l-42 86q-13 25 -21 49v-194q0 -15 -12 -23.5t-30 -8.5q-16 0 -28 8.5t-12 23.5v253q0 28 12 38.5t43 10.5z" />
    <glyph glyph-name="Omega" unicode="&#x2126;" vert-adv-y="1105" 
d="M455 726q314 0 314 -346v-37q0 -93 -21.5 -143t-56.5 -84h105q23 0 34.5 -16t11.5 -40t-11.5 -40t-34.5 -16h-233q-23 0 -34.5 16t-11.5 40q0 30 8.5 43t30.5 27q44 28 64 78.5t20 150.5v11q0 131 -45 185t-140 54t-140 -54t-45 -185v-11q0 -100 20 -150.5t64 -78.5
q22 -14 30.5 -27t8.5 -43q0 -24 -11.5 -40t-34.5 -16h-233q-23 0 -34.5 16t-11.5 40t11.5 40t34.5 16h113q-86 58 -86 227v37q0 176 77.5 261t236.5 85z" />
    <glyph glyph-name="uni212B" unicode="&#x212b;" horiz-adv-x="690" vert-adv-y="1105" 
d="M342 809q46 0 76 -29.5t30 -71.5q0 -32 -20 -60l219 -566q11 -28 0.5 -49.5t-36.5 -29.5q-66 -20 -85 36l-58 160h-252l-59 -164q-19 -53 -80 -32q-25 9 -35 28t0 46l218 566q-24 25 -24 65q0 42 30 71.5t76 29.5zM342 561q-14 -50 -35 -111l-53 -145h176l-52 145
q-20 56 -36 111zM342 749q-18 0 -30 -12.5t-12 -28.5t12 -28.5t30 -12.5t30 12.5t12 28.5t-12 28.5t-30 12.5z" />
    <glyph glyph-name="onethird" unicode="&#x2153;" vert-adv-y="1105" 
d="M218 722q48 0 48 -41v-357q0 -21 -13.5 -31.5t-32.5 -10.5t-32.5 10.5t-13.5 31.5v286l-63 -36q-18 -9 -34 -3t-24 21q-9 15 -4.5 33t19.5 26l99 56q28 15 51 15zM612 719q18 -9 24 -24t-2 -34l-325 -641q-10 -19 -28.5 -24.5t-35.5 3.5q-40 21 -22 59l325 641
q10 20 28.5 25t35.5 -5zM694 437q71 0 110 -31t39 -85v-3q0 -36 -20.5 -62t-48.5 -32q34 -4 60.5 -28.5t26.5 -68.5v-5q0 -58 -46 -93.5t-118 -35.5q-73 0 -121 32q-34 22 -13 58q22 36 58 14q37 -22 73 -22q73 0 73 50v4q0 53 -77 53h-31q-35 0 -35 40q0 39 35 39h25
q68 0 68 51v2q0 42 -58 42q-34 0 -62 -26t-55 5q-11 13 -10 28t11 27q42 47 116 47z" />
    <glyph glyph-name="twothirds" unicode="&#x2154;" vert-adv-y="1105" 
d="M649 719q18 -9 24 -24t-2 -34l-325 -641q-10 -19 -28.5 -24.5t-35.5 3.5q-40 21 -22 59l325 641q10 20 28.5 25t35.5 -5zM694 437q71 0 110 -31t39 -85v-3q0 -36 -20.5 -62t-48.5 -32q34 -4 60.5 -28.5t26.5 -68.5v-5q0 -58 -46 -93.5t-118 -35.5q-73 0 -121 32
q-34 22 -13 58q22 36 58 14q37 -22 73 -22q73 0 73 50v4q0 53 -77 53h-31q-35 0 -35 40q0 39 35 39h25q68 0 68 51v2q0 42 -58 42q-34 0 -62 -26t-55 5q-11 13 -10 28t11 27q42 47 116 47zM195 726q72 0 109 -33.5t37 -86.5v-7q0 -64 -73 -136l-101 -98h148q35 0 35 -40
q0 -17 -9.5 -28.5t-25.5 -11.5h-213q-62 0 -62 49q0 19 23 42l135 137q30 31 40 48t10 38v2q0 40 -52 40q-39 0 -70 -37q-11 -14 -27 -15.5t-30 8.5q-33 24 -11 58q47 71 137 71z" />
    <glyph glyph-name="oneeighth" unicode="&#x215b;" vert-adv-y="1105" 
d="M707 437q69 0 107.5 -35t38.5 -85v-5q0 -28 -18 -51.5t-46 -36.5q29 -7 52 -34.5t23 -65.5v-7q0 -54 -40.5 -89t-113.5 -35q-75 0 -116.5 34.5t-41.5 89.5v7q0 37 23.5 65t51.5 35q-27 11 -45.5 35t-18.5 53v5q0 50 37 85t107 35zM708 359q-22 0 -36.5 -12t-14.5 -35v-3
q0 -23 16 -36t36 -13t35 13.5t15 38.5v2q0 22 -14.5 33.5t-36.5 11.5zM709 180q-26 0 -44.5 -14t-18.5 -40v-3q0 -24 17 -37t46 -13q27 0 44 13t17 37v3q0 26 -17.5 40t-43.5 14zM218 722q48 0 48 -41v-357q0 -21 -13.5 -31.5t-32.5 -10.5t-32.5 10.5t-13.5 31.5v286
l-63 -36q-18 -9 -34 -3t-24 21q-9 15 -4.5 33t19.5 26l99 56q28 15 51 15zM608 719q18 -9 24 -24t-2 -34l-325 -641q-10 -19 -28.5 -24.5t-35.5 3.5q-40 21 -22 59l325 641q10 20 28.5 25t35.5 -5z" />
    <glyph glyph-name="threeeighths" unicode="&#x215c;" vert-adv-y="1105" 
d="M707 437q69 0 107.5 -35t38.5 -85v-5q0 -28 -18 -51.5t-46 -36.5q29 -7 52 -34.5t23 -65.5v-7q0 -54 -40.5 -89t-113.5 -35q-75 0 -116.5 34.5t-41.5 89.5v7q0 37 23.5 65t51.5 35q-27 11 -45.5 35t-18.5 53v5q0 50 37 85t107 35zM708 359q-22 0 -36.5 -12t-14.5 -35v-3
q0 -23 16 -36t36 -13t35 13.5t15 38.5v2q0 22 -14.5 33.5t-36.5 11.5zM709 180q-26 0 -44.5 -14t-18.5 -40v-3q0 -24 17 -37t46 -13q27 0 44 13t17 37v3q0 26 -17.5 40t-43.5 14zM643 719q18 -9 24 -24t-2 -34l-325 -641q-10 -19 -28.5 -24.5t-35.5 3.5q-40 21 -22 59
l325 641q10 20 28.5 25t35.5 -5zM188 726q71 0 110 -31t39 -85v-3q0 -36 -20.5 -62t-48.5 -32q34 -4 60.5 -28.5t26.5 -68.5v-5q0 -58 -46 -93.5t-118 -35.5q-73 0 -121 32q-34 22 -13 58q22 36 58 14q37 -22 73 -22q73 0 73 50v4q0 53 -77 53h-31q-35 0 -35 40q0 39 35 39
h25q68 0 68 51v2q0 42 -58 42q-34 0 -62 -26t-55 5q-11 13 -10 28t11 27q42 47 116 47z" />
    <glyph glyph-name="fiveeighths" unicode="&#x215d;" vert-adv-y="1105" 
d="M128 721h168q37 0 37 -41q0 -40 -37 -40h-138l-6 -90q29 20 74 20q60 0 96 -37t36 -99v-4q0 -64 -43 -106t-117 -42q-82 0 -133 35q-32 22 -11 57q23 36 57 15q36 -22 86 -22q32 0 50.5 17t18.5 47v2q0 30 -18 47t-49 17q-36 0 -64 -23q-19 -15 -40 -15q-17 0 -26.5 8.5
t-8.5 24.5l9 171q1 35 13 46.5t46 11.5zM707 437q69 0 107.5 -35t38.5 -85v-5q0 -28 -18 -51.5t-46 -36.5q29 -7 52 -34.5t23 -65.5v-7q0 -54 -40.5 -89t-113.5 -35q-75 0 -116.5 34.5t-41.5 89.5v7q0 37 23.5 65t51.5 35q-27 11 -45.5 35t-18.5 53v5q0 50 37 85t107 35z
M708 359q-22 0 -36.5 -12t-14.5 -35v-3q0 -23 16 -36t36 -13t35 13.5t15 38.5v2q0 22 -14.5 33.5t-36.5 11.5zM709 180q-26 0 -44.5 -14t-18.5 -40v-3q0 -24 17 -37t46 -13q27 0 44 13t17 37v3q0 26 -17.5 40t-43.5 14zM643 719q18 -9 24 -24t-2 -34l-325 -641
q-10 -19 -28.5 -24.5t-35.5 3.5q-40 21 -22 59l325 641q10 20 28.5 25t35.5 -5z" />
    <glyph glyph-name="seveneighths" unicode="&#x215e;" vert-adv-y="1105" 
d="M707 437q69 0 107.5 -35t38.5 -85v-5q0 -28 -18 -51.5t-46 -36.5q29 -7 52 -34.5t23 -65.5v-7q0 -54 -40.5 -89t-113.5 -35q-75 0 -116.5 34.5t-41.5 89.5v7q0 37 23.5 65t51.5 35q-27 11 -45.5 35t-18.5 53v5q0 50 37 85t107 35zM708 359q-22 0 -36.5 -12t-14.5 -35v-3
q0 -23 16 -36t36 -13t35 13.5t15 38.5v2q0 22 -14.5 33.5t-36.5 11.5zM709 180q-26 0 -44.5 -14t-18.5 -40v-3q0 -24 17 -37t46 -13q27 0 44 13t17 37v3q0 26 -17.5 40t-43.5 14zM608 719q18 -9 24 -24t-2 -34l-325 -641q-10 -19 -28.5 -24.5t-35.5 3.5q-40 21 -22 59
l325 641q10 20 28.5 25t35.5 -5zM83 721h229q31 0 44.5 -12t13.5 -38q0 -19 -18 -60l-137 -303q-9 -18 -26.5 -23t-32.5 3q-39 18 -21 59l134 293h-186q-17 0 -26 11.5t-9 28.5t9.5 29t25.5 12z" />
    <glyph glyph-name="uni2160" unicode="&#x2160;" vert-adv-y="1105" 
d="M455 721q27 0 45.5 -14t18.5 -41v-613q0 -27 -18.5 -41t-45.5 -14t-45.5 14t-18.5 41v613q0 27 18.5 41t45.5 14z" />
    <glyph glyph-name="uni2161" unicode="&#x2161;" vert-adv-y="1105" 
d="M333 721q27 0 45.5 -14t18.5 -41v-613q0 -27 -18.5 -41t-45.5 -14t-45.5 14t-18.5 41v613q0 27 18.5 41t45.5 14zM577 721q27 0 45.5 -14t18.5 -41v-613q0 -27 -18.5 -41t-45.5 -14t-45.5 14t-18.5 41v613q0 27 18.5 41t45.5 14z" />
    <glyph glyph-name="uni2162" unicode="&#x2162;" vert-adv-y="1105" 
d="M217 721q27 0 45.5 -14t18.5 -41v-613q0 -27 -18.5 -41t-45.5 -14t-45.5 14t-18.5 41v613q0 27 18.5 41t45.5 14zM456 721q27 0 45.5 -14t18.5 -41v-613q0 -27 -18.5 -41t-45.5 -14t-45.5 14t-18.5 41v613q0 27 18.5 41t45.5 14zM691 721q27 0 45.5 -14t18.5 -41v-613
q0 -27 -18.5 -41t-45.5 -14t-45.5 14t-18.5 41v613q0 27 18.5 41t45.5 14z" />
    <glyph glyph-name="uni2163" unicode="&#x2163;" vert-adv-y="1105" 
d="M219 721q27 0 45.5 -14t18.5 -41v-613q0 -27 -18.5 -41t-45.5 -14t-45.5 14t-18.5 41v613q0 27 18.5 41t45.5 14zM382 718q62 15 75 -40l128 -497l133 497q15 54 73 40q27 -6 38 -25.5t3 -46.5l-173 -589q-18 -59 -77 -59q-62 0 -78 59l-166 589q-7 27 5 46.5t39 25.5z
" />
    <glyph glyph-name="uni2164" unicode="&#x2164;" vert-adv-y="1105" 
d="M723 716q55 -19 33 -76l-227 -583q-23 -59 -77 -59q-55 0 -78 59l-220 582q-22 56 35 77q24 10 50 1.5t35 -34.5l181 -522l187 520q20 56 81 35z" />
    <glyph glyph-name="uni2165" unicode="&#x2165;" vert-adv-y="1105" 
d="M125 718q62 15 75 -40l128 -497l133 497q15 54 73 40q27 -6 38 -25.5t3 -46.5l-173 -589q-18 -59 -77 -59q-62 0 -78 59l-166 589q-7 27 5 46.5t39 25.5zM691 721q27 0 45.5 -14t18.5 -41v-613q0 -27 -18.5 -41t-45.5 -14t-45.5 14t-18.5 41v613q0 27 18.5 41t45.5 14z
" />
    <glyph glyph-name="uni2166" unicode="&#x2166;" vert-adv-y="1105" 
d="M600 721q57 0 57 -55v-613q0 -55 -57 -55t-57 55v613q0 55 57 55zM768 721q57 0 57 -55v-613q0 -55 -57 -55t-57 55v613q0 55 57 55zM82 718q61 14 74 -40l115 -487l120 487q13 54 72 40q54 -12 38 -72l-156 -589q-18 -59 -77 -59q-62 0 -78 59l-149 589q-7 28 4 47
t37 25z" />
    <glyph glyph-name="uni2167" unicode="&#x2167;" vert-adv-y="1105" 
d="M812 721q53 0 53 -55v-613q0 -55 -53 -55t-53 55v613q0 55 53 55zM85 720q58 8 65 -45l76 -484l80 485q7 51 63 44q55 -7 45 -61l-114 -602q-11 -59 -77 -59q-68 0 -78 59l-107 602q-8 53 47 61zM654 721q53 0 53 -55v-613q0 -55 -53 -55t-53 55v613q0 55 53 55zM501 721
q53 0 53 -55v-613q0 -55 -53 -55t-53 55v613q0 55 53 55z" />
    <glyph glyph-name="uni2168" unicode="&#x2168;" vert-adv-y="1105" 
d="M233 721q27 0 44.5 -14t17.5 -41v-613q0 -27 -17.5 -41t-44.5 -14t-44.5 14t-17.5 41v613q0 27 17.5 41t44.5 14zM796 713q50 -25 19 -81l-151 -263l164 -287q13 -23 7.5 -43.5t-28.5 -32.5q-25 -13 -46 -6.5t-34 29.5l-143 250l-135 -250q-13 -23 -34 -29.5t-46 6.5
q-23 12 -28.5 32.5t7.5 43.5l159 287l-142 263q-14 26 -7.5 47t32.5 34t49 5.5t36 -32.5l118 -234l118 234q13 25 36.5 32.5t48.5 -5.5z" />
    <glyph glyph-name="uni2169" unicode="&#x2169;" vert-adv-y="1105" 
d="M698 712q25 -14 31 -36t-10 -47l-181 -263l186 -272q17 -24 12 -47.5t-30 -38.5q-21 -14 -47 -9.5t-40 26.5l-165 254l-166 -252q-14 -22 -38.5 -27.5t-46.5 7.5q-23 14 -29 36.5t9 45.5l194 280l-176 256q-16 24 -8 48.5t34 38.5q24 13 49.5 7.5t39.5 -29.5l147 -238
l152 239q15 23 38 28.5t45 -7.5z" />
    <glyph glyph-name="uni2170" unicode="&#x2170;" vert-adv-y="1105" 
d="M455 541q27 0 45 -13.5t18 -39.5v-437q0 -26 -18 -39.5t-45 -13.5q-26 0 -44.5 14t-18.5 39v437q0 25 18.5 39t44.5 14zM455 748q33 0 56 -22t23 -54t-23 -54t-56 -22t-56 22t-23 54t23 54t56 22z" />
    <glyph glyph-name="uni2171" unicode="&#x2171;" vert-adv-y="1105" 
d="M330 541q27 0 45 -13.5t18 -39.5v-437q0 -26 -18 -39.5t-45 -13.5q-26 0 -44.5 14t-18.5 39v437q0 25 18.5 39t44.5 14zM330 748q33 0 56 -22t23 -54t-23 -54t-56 -22t-56 22t-23 54t23 54t56 22zM581 541q27 0 45 -13.5t18 -39.5v-437q0 -26 -18 -39.5t-45 -13.5
q-26 0 -44.5 14t-18.5 39v437q0 25 18.5 39t44.5 14zM581 748q33 0 56 -22t23 -54t-23 -54t-56 -22t-56 22t-23 54t23 54t56 22z" />
    <glyph glyph-name="uni2172" unicode="&#x2172;" vert-adv-y="1105" 
d="M227 541q27 0 45 -13.5t18 -39.5v-437q0 -26 -18 -39.5t-45 -13.5q-26 0 -44.5 14t-18.5 39v437q0 25 18.5 39t44.5 14zM227 748q33 0 56 -22t23 -54t-23 -54t-56 -22t-56 22t-23 54t23 54t56 22zM456 541q27 0 45 -13.5t18 -39.5v-437q0 -26 -18 -39.5t-45 -13.5
q-26 0 -44.5 14t-18.5 39v437q0 25 18.5 39t44.5 14zM456 748q33 0 56 -22t23 -54t-23 -54t-56 -22t-56 22t-23 54t23 54t56 22zM684 541q27 0 45 -13.5t18 -39.5v-437q0 -26 -18 -39.5t-45 -13.5q-26 0 -44.5 14t-18.5 39v437q0 25 18.5 39t44.5 14zM684 748q33 0 56 -22
t23 -54t-23 -54t-56 -22t-56 22t-23 54t23 54t56 22z" />
    <glyph glyph-name="uni2173" unicode="&#x2173;" vert-adv-y="1105" 
d="M262 541q27 0 45 -13.5t18 -39.5v-437q0 -26 -18 -39.5t-45 -13.5q-26 0 -44.5 14t-18.5 39v437q0 25 18.5 39t44.5 14zM262 748q33 0 56 -22t23 -54t-23 -54t-56 -22t-56 22t-23 54t23 54t56 22zM390 537q27 9 49 -0.5t30 -38.5l99 -359l95 359q8 29 30 38.5t49 0.5
q52 -17 36 -72l-120 -400q-20 -67 -92 -67t-92 67l-120 400q-16 55 36 72z" />
    <glyph glyph-name="uni2174" unicode="&#x2174;" vert-adv-y="1105" 
d="M249 535q22 11 47.5 4t34.5 -35l126 -372l127 372q18 53 80 31q24 -9 34.5 -28.5t0.5 -45.5l-151 -396q-26 -67 -93 -67t-93 67l-151 396q-10 25 2 45t36 29z" />
    <glyph glyph-name="uni2175" unicode="&#x2175;" vert-adv-y="1105" 
d="M648 541q27 0 45 -13.5t18 -39.5v-437q0 -26 -18 -39.5t-45 -13.5q-26 0 -44.5 14t-18.5 39v437q0 25 18.5 39t44.5 14zM648 748q33 0 56 -22t23 -54t-23 -54t-56 -22t-56 22t-23 54t23 54t56 22zM169 537q27 9 49 -0.5t30 -38.5l99 -358l95 358q8 29 30 38.5t49 0.5
q52 -17 36 -72l-120 -400q-20 -67 -92 -67t-92 67l-120 400q-16 55 36 72z" />
    <glyph glyph-name="uni2176" unicode="&#x2176;" vert-adv-y="1105" 
d="M575 541q27 0 44 -13.5t17 -39.5v-437q0 -26 -17 -39.5t-44 -13.5q-26 0 -43.5 13.5t-17.5 39.5v437q0 26 17.5 39.5t43.5 13.5zM575 748q33 0 55 -22t22 -54t-22 -54t-55 -22t-55 22t-22 54t22 54t55 22zM757 541q27 0 44 -13.5t17 -39.5v-437q0 -26 -17 -39.5
t-44 -13.5q-26 0 -43.5 13.5t-17.5 39.5v437q0 26 17.5 39.5t43.5 13.5zM757 748q33 0 55 -22t22 -54t-22 -54t-55 -22t-55 22t-22 54t22 54t55 22zM117 538q61 17 76 -40l93 -358l87 358q14 57 76 40q23 -6 33 -25.5t3 -46.5l-109 -401q-19 -67 -92 -67t-92 67l-111 402
q-7 27 3 46t33 25z" />
    <glyph glyph-name="uni2177" unicode="&#x2177;" vert-adv-y="1105" 
d="M90 539q58 14 72 -42l82 -337l76 337q12 57 73 42q23 -5 34.5 -24.5t4.5 -46.5l-102 -403q-18 -67 -88 -67t-88 67l-104 403q-7 27 4.5 46.5t35.5 24.5zM513 748q34 0 52.5 -21.5t18.5 -54.5t-18.5 -54.5t-52.5 -21.5t-52.5 21.5t-18.5 54.5t18.5 54.5t52.5 21.5z
M513 541q55 0 55 -53v-437q0 -53 -55 -53t-55 53v437q0 53 55 53zM667 748q34 0 52.5 -21.5t18.5 -54.5t-18.5 -54.5t-52.5 -21.5t-52.5 21.5t-18.5 54.5t18.5 54.5t52.5 21.5zM667 541q55 0 55 -53v-437q0 -53 -55 -53t-55 53v437q0 53 55 53zM821 748q34 0 52.5 -21.5
t18.5 -54.5t-18.5 -54.5t-52.5 -21.5t-52.5 21.5t-18.5 54.5t18.5 54.5t52.5 21.5zM821 541q55 0 55 -53v-437q0 -53 -55 -53t-55 53v437q0 53 55 53z" />
    <glyph glyph-name="uni2178" unicode="&#x2178;" vert-adv-y="1105" 
d="M253 541q27 0 45 -13.5t18 -39.5v-437q0 -26 -18 -39.5t-45 -13.5q-26 0 -44.5 14t-18.5 39v437q0 25 18.5 39t44.5 14zM253 748q33 0 56 -22t23 -54t-23 -54t-56 -22t-56 22t-23 54t23 54t56 22zM783 528q21 -16 24.5 -37.5t-12.5 -43.5l-135 -172l139 -184
q16 -23 13.5 -44.5t-22.5 -35.5q-19 -15 -42.5 -12t-40.5 26l-125 166l-121 -166q-17 -23 -40.5 -26t-42.5 12q-20 14 -22.5 35.5t13.5 44.5l139 184l-127 172q-16 22 -12.5 43.5t24.5 37.5q22 16 46 12.5t40 -26.5l107 -152l111 152q16 23 40 26.5t46 -12.5z" />
    <glyph glyph-name="uni2179" unicode="&#x2179;" vert-adv-y="1105" 
d="M259 527q18 16 44.5 13.5t42.5 -24.5l112 -154l112 153q16 23 41 25.5t43 -12.5q21 -15 25 -37t-12 -44l-135 -172l144 -178q36 -46 -11 -85q-18 -16 -44.5 -13.5t-42.5 24.5l-124 165l-124 -164q-17 -23 -41.5 -25.5t-42.5 12.5q-21 16 -25 37.5t12 43.5l147 183
l-132 167q-36 46 11 85z" />
    <glyph glyph-name="arrowleft" unicode="&#x2190;" horiz-adv-x="850" vert-adv-y="1105" 
d="M765 357q0 -17 -8.5 -28t-24.5 -11h-530q20 -13 36 -28l106 -102q21 -21 -4 -48q-10 -11 -23.5 -13t-25.5 8l-188 188q-21 21 -21 34t21 34l188 188q12 10 25.5 8t23.5 -13q25 -27 4 -48l-106 -102q-17 -15 -36 -28h530q16 0 24.5 -11t8.5 -28z" />
    <glyph glyph-name="arrowup" unicode="&#x2191;" horiz-adv-x="670" vert-adv-y="1105" 
d="M335 11q-17 0 -28 8.5t-11 24.5v530q-13 -20 -28 -36l-102 -106q-21 -21 -48 4q-11 10 -13 23.5t8 25.5l188 188q21 21 34 21t34 -21l188 -188q10 -12 8 -25.5t-13 -23.5q-27 -25 -48 -4l-102 106q-15 16 -28 36v-530q0 -16 -11 -24.5t-28 -8.5z" />
    <glyph glyph-name="arrowright" unicode="&#x2192;" horiz-adv-x="850" vert-adv-y="1105" 
d="M85 357q0 17 8.5 28t24.5 11h530q-20 13 -36 28l-106 102q-21 21 4 48q10 11 23.5 13t25.5 -8l188 -188q21 -21 21 -34t-21 -34l-188 -188q-12 -10 -25.5 -8t-23.5 13q-25 27 -4 48l106 102q16 15 36 28h-530q-16 0 -24.5 11t-8.5 28z" />
    <glyph glyph-name="arrowdown" unicode="&#x2193;" horiz-adv-x="670" vert-adv-y="1105" 
d="M335 713q17 0 28 -8.5t11 -24.5v-530q13 20 28 36l102 106q21 21 48 -4q11 -10 13 -23.5t-8 -25.5l-188 -188q-21 -21 -34 -21t-34 21l-188 188q-10 12 -8 25.5t13 23.5q27 25 48 4l102 -106q15 -16 28 -36v530q0 16 11 24.5t28 8.5z" />
    <glyph glyph-name="arrowboth" unicode="&#x2194;" vert-adv-y="1105" 
d="M702 396q-20 13 -36 28l-106 102q-21 21 4 48q10 11 23.5 13t25.5 -8l188 -188q21 -21 21 -34t-21 -34l-188 -188q-12 -10 -25.5 -8t-23.5 13q-25 27 -4 48l106 102q16 15 36 28h-494q20 -13 36 -28l106 -102q21 -21 -4 -48q-10 -11 -23.5 -13t-25.5 8l-188 188
q-21 21 -21 34t21 34l188 188q12 10 25.5 8t23.5 -13q25 -27 4 -48l-106 -102q-16 -15 -36 -28h494z" />
    <glyph glyph-name="arrowupdn" unicode="&#x2195;" horiz-adv-x="670" vert-adv-y="1105" 
d="M296 574q-13 -20 -28 -36l-102 -106q-21 -21 -48 4q-11 10 -13 23.5t8 25.5l188 188q21 21 34 21t34 -21l188 -188q10 -12 8 -25.5t-13 -23.5q-27 -25 -48 -4l-102 106q-15 16 -28 36v-424q13 20 28 36l102 106q21 21 48 -4q11 -10 13 -23.5t-8 -25.5l-188 -188
q-21 -21 -34 -21t-34 21l-188 188q-10 12 -8 25.5t13 23.5q27 25 48 4l102 -106q15 -16 28 -36v424z" />
    <glyph glyph-name="uni2196" unicode="&#x2196;" horiz-adv-x="691" vert-adv-y="1105" 
d="M174 404v-117q0 -31 -37 -31t-37 31v266q0 29 9 39q11 9 39 9h266q31 0 31 -37t-31 -37h-117q-48 0 -75 7l374 -374q24 -24 -4 -51t-51 -4l-374 374q7 -27 7 -75z" />
    <glyph glyph-name="uni2197" unicode="&#x2197;" horiz-adv-x="691" vert-adv-y="1105" 
d="M517 287v117q0 48 7 75l-374 -374q-24 -23 -51 4t-4 51l374 374q-27 -7 -75 -7h-117q-31 0 -31 37t31 37h266q29 0 39 -9q9 -11 9 -39v-266q0 -31 -37 -31t-37 31z" />
    <glyph glyph-name="uni2198" unicode="&#x2198;" horiz-adv-x="691" vert-adv-y="1105" 
d="M517 310v117q0 31 37 31t37 -31v-266q0 -29 -9 -39q-10 -9 -39 -9h-266q-31 0 -31 37t31 37h117q48 0 75 -7l-374 374q-23 24 4 51t51 4l374 -374q-7 27 -7 75z" />
    <glyph glyph-name="uni2199" unicode="&#x2199;" horiz-adv-x="691" vert-adv-y="1105" 
d="M174 427v-117q0 -48 -7 -75l374 374q23 23 51 -4t4 -51l-374 -374q27 7 75 7h117q31 0 31 -37t-31 -37h-266q-29 0 -39 9q-9 10 -9 39v266q0 31 37 31t37 -31z" />
    <glyph glyph-name="uni21B0" unicode="&#x21b0;" vert-adv-y="1105" 
 />
    <glyph glyph-name="uni21B1" unicode="&#x21b1;" vert-adv-y="1105" 
 />
    <glyph glyph-name="uni21B2" unicode="&#x21b2;" vert-adv-y="1105" 
 />
    <glyph glyph-name="uni21B3" unicode="&#x21b3;" vert-adv-y="1105" 
 />
    <glyph glyph-name="uni21B4" unicode="&#x21b4;" vert-adv-y="1105" 
 />
    <glyph glyph-name="uni21BC" unicode="&#x21bc;" vert-adv-y="1105" 
 />
    <glyph glyph-name="uni21C0" unicode="&#x21c0;" vert-adv-y="1105" 
d="M455 410q-313 0 -313 177t313 177t313 -177t-313 -177zM455 662q-186 0 -186 -75t186 -75t186 75t-186 75zM834 247h-758q-22 0 -33 15t-11 39q0 23 11.5 38t32.5 15h758q21 0 32.5 -15t11.5 -38q0 -24 -11 -39t-33 -15zM732 -146h-507q-48 0 -66.5 18t-18.5 65v155
q0 47 18.5 65t66.5 18h497q21 0 32.5 -15t11.5 -37q0 -23 -11.5 -38t-32.5 -15h-431q-13 0 -18 -5t-5 -18v-65q0 -13 5 -18t18 -5h441q21 0 32.5 -15t11.5 -37q0 -23 -11.5 -38t-32.5 -15z" />
    <glyph glyph-name="uni21C4" unicode="&#x21c4;" vert-adv-y="1105" 
 />
    <glyph glyph-name="uni21C5" unicode="&#x21c5;" vert-adv-y="1105" 
 />
    <glyph glyph-name="uni21CD" unicode="&#x21cd;" vert-adv-y="1105" 
 />
    <glyph glyph-name="uni21CF" unicode="&#x21cf;" vert-adv-y="1105" 
 />
    <glyph glyph-name="arrowdblleft" unicode="&#x21d0;" vert-adv-y="1105" 
d="M347 460q-119 0 -181.5 41.5t-62.5 114.5t62.5 114.5t181.5 41.5t181.5 -41.5t62.5 -114.5t-62.5 -114.5t-181.5 -41.5zM347 558q124 0 124 58t-124 58t-124 -58t124 -58zM689 185v14h-138q-19 0 -29.5 13.5t-10.5 34.5t10.5 34.5t29.5 13.5h138v434q0 26 18.5 40
t45.5 14q26 0 44.5 -14t18.5 -40v-544q0 -26 -18.5 -40t-44.5 -14q-27 0 -45.5 14t-18.5 40zM86 414q322 0 515 23q43 6 49 -45q5 -51 -39 -57q-90 -12 -236 -19v-126q0 -26 -18.5 -40t-44.5 -14q-27 0 -45.5 14t-18.5 40v122q-55 -2 -162 -2q-21 0 -32 15t-11 37t11 37
t32 15zM323 24q100 45 100 106v5q0 24 17.5 36.5t46.5 12.5t46.5 -12.5t17.5 -36.5v-5q0 -61 100 -106q64 -28 156 -65q18 -7 23.5 -28t-3.5 -42q-8 -20 -28 -29t-44 0q-67 26 -135 56q-117 52 -132 94h-1q-11 -43 -133 -97q-68 -30 -135 -56q-23 -9 -42.5 0.5t-28.5 30.5
q-9 18 -4.5 40.5t23.5 30.5q92 37 156 65z" />
    <glyph glyph-name="arrowdblup" unicode="&#x21d1;" vert-adv-y="1105" 
 />
    <glyph glyph-name="arrowdblright" unicode="&#x21d2;" vert-adv-y="1105" 
d="M618 631l272 -273l-272 -274l-43 44l109 108h-624v60h683l63 62l-63 63h-683v60h623l-108 108z" />
    <glyph glyph-name="arrowdbldown" unicode="&#x21d3;" vert-adv-y="1105" 
 />
    <glyph glyph-name="arrowdblboth" unicode="&#x21d4;" vert-adv-y="1105" 
d="M167 420l-63 -63l63 -62h576l63 62l-63 63h-576zM292 630l43 -42l-108 -108h456l-108 108l43 42l272 -273l-272 -274l-43 44l109 108h-458l109 -108l-43 -44l-272 274z" />
    <glyph glyph-name="uni21E0" unicode="&#x21e0;" vert-adv-y="1105" 
 />
    <glyph glyph-name="uni21E1" unicode="&#x21e1;" vert-adv-y="1105" 
 />
    <glyph glyph-name="uni21E2" unicode="&#x21e2;" vert-adv-y="1105" 
 />
    <glyph glyph-name="uni21E3" unicode="&#x21e3;" vert-adv-y="1105" 
 />
    <glyph glyph-name="uni21E6" unicode="&#x21e6;" vert-adv-y="1105" 
 />
    <glyph glyph-name="uni21E7" unicode="&#x21e7;" vert-adv-y="1105" 
 />
    <glyph glyph-name="uni21E8" unicode="&#x21e8;" vert-adv-y="1105" 
 />
    <glyph glyph-name="uni21E9" unicode="&#x21e9;" vert-adv-y="1105" 
 />
    <glyph glyph-name="universal" unicode="&#x2200;" horiz-adv-x="690" vert-adv-y="1105" 
d="M79 716q66 20 85 -36l57 -160h253l59 164q19 53 80 32q25 -9 35 -28t0 -46l-225 -585q-22 -59 -77 -59t-78 59l-225 580q-11 28 -0.5 49.5t36.5 29.5zM260 414l52 -145q20 -56 36 -111q14 50 35 111l52 145h-175z" />
    <glyph glyph-name="partialdiff" unicode="&#x2202;" horiz-adv-x="548" vert-adv-y="1105" 
d="M266 364q-54 0 -90.5 -45t-36.5 -111q0 -56 29.5 -89.5t74.5 -33.5q57 0 97 56.5t50 135.5q-12 35 -46 61t-78 26zM235 726q119 0 199 -94t80 -257q0 -181 -81.5 -281.5t-200.5 -100.5q-100 0 -154.5 64t-54.5 150q0 104 62.5 175.5t158.5 71.5q103 0 156 -83h1
q1 11 1 36q-1 93 -47.5 158.5t-129.5 65.5q-67 0 -137 -39l-35 79q94 55 182 55z" />
    <glyph glyph-name="existential" unicode="&#x2203;" horiz-adv-x="608" vert-adv-y="1105" 
d="M101 715h341q48 0 66.5 -18t18.5 -65v-545q0 -47 -18.5 -65t-66.5 -18h-348q-21 0 -32.5 15t-11.5 38t11.5 38t32.5 15h306v206h-279q-21 0 -32 15t-11 37t11 37t32 15h279v189h-299q-21 0 -32.5 15t-11.5 38t11.5 38t32.5 15z" />
    <glyph glyph-name="Delta" unicode="&#x2206;" vert-adv-y="1105" 
 />
    <glyph glyph-name="gradient" unicode="&#x2207;" vert-adv-y="1105" 
d="M57 622h796l-398 -630zM180 555l275 -439l273 439h-548z" />
    <glyph glyph-name="element" unicode="&#x2208;" vert-adv-y="1105" 
d="M397 608h400v-86h-400q-82 0 -128 -33t-56 -83h582v-86h-583q23 -128 185 -128h400v-86h-397q-142 0 -215 72t-73 185q0 108 71.5 176.5t213.5 68.5z" />
    <glyph glyph-name="notelement" unicode="&#x2209;" vert-adv-y="1105" 
 />
    <glyph glyph-name="suchthat" unicode="&#x220b;" vert-adv-y="1105" 
d="M112 608h400q142 0 213.5 -68.5t71.5 -176.5q0 -113 -73 -185t-215 -72h-397v86h400q162 0 185 128h-583v86h582q-10 50 -56 83t-128 33h-400v86z" />
    <glyph glyph-name="uni220C" unicode="&#x220c;" vert-adv-y="1105" 
 />
    <glyph glyph-name="product" unicode="&#x220f;" horiz-adv-x="669" vert-adv-y="1105" 
d="M57 715h555q22 0 33.5 -15.5t11.5 -38.5t-11.5 -38.5t-33.5 -15.5h-85v-586q0 -27 -18.5 -41t-45.5 -14t-45.5 14t-18.5 41v586h-129v-586q0 -27 -18.5 -41t-45.5 -14t-45.5 14t-18.5 41v586h-85q-22 0 -33.5 15.5t-11.5 38.5t11.5 38.5t33.5 15.5z" />
    <glyph glyph-name="summation" unicode="&#x2211;" horiz-adv-x="560" vert-adv-y="1105" 
d="M125 715h357q22 0 33.5 -15.5t11.5 -38.5q0 -53 -45 -53h-282l143 -159q55 -62 55 -89q0 -28 -55 -90l-143 -159h289q22 0 33.5 -15.5t11.5 -38.5q0 -53 -45 -53h-364q-45 0 -65 16.5t-20 52.5q0 34 41 81l182 206l-182 205q-41 47 -41 81q0 36 20 52.5t65 16.5z" />
    <glyph glyph-name="uni2213" unicode="&#x2213;" vert-adv-y="1105" 
d="M229 231h525q48 0 66.5 -18t18.5 -65v-72q0 -47 -18.5 -65t-66.5 -18h-425q-15 0 -15 -15v-17q0 -15 15 -15h489q20 0 30.5 -14.5t10.5 -34.5q0 -21 -10.5 -35t-30.5 -14h-543q-48 0 -66.5 18t-18.5 65v73q0 47 18.5 65t66.5 18h425q15 0 15 15v16q0 15 -15 15h-471
q-20 0 -30.5 14t-10.5 35q0 20 10.5 34.5t30.5 14.5zM63 382h141v61q-73 12 -111 52.5t-38 103.5q0 76 54 118t157 42t157 -42t54 -118q0 -63 -38 -103.5t-111 -52.5v-58q65 1 130 6q22 1 34 -12.5t13 -35.5q1 -21 -9.5 -36.5t-31.5 -16.5q-170 -11 -401 -11q-21 0 -32.5 15
t-11.5 36q0 22 11.5 37t32.5 15zM651 728v-151h70v156q0 24 17.5 37t41.5 13t41.5 -13t17.5 -37v-415q0 -24 -17.5 -37t-41.5 -13t-41.5 13t-17.5 37v151h-70v-146q0 -24 -17.5 -37t-41.5 -13t-41 13t-17 37v405q0 24 17 37t41 13t41.5 -13t17.5 -37zM363 599q0 62 -97 62
t-97 -62t97 -62t97 62z" />
    <glyph glyph-name="radical" unicode="&#x221a;" horiz-adv-x="574" vert-adv-y="1105" 
d="M511 820h81l-229 -921h-81l-157 421l-75 -31l-23 56l154 64l136 -396h3z" />
    <glyph glyph-name="proportional" unicode="&#x221d;" vert-adv-y="1105" 
d="M301 481q-54 0 -87 -34.5t-33 -88.5q0 -57 31.5 -90.5t88.5 -33.5q95 0 158 123q-65 124 -158 124zM299 545q68 0 112.5 -35.5t78.5 -92.5q74 128 190 128q56 0 115 -43l-34 -51q-48 32 -81 32q-51 0 -86.5 -30.5t-70.5 -95.5q34 -65 70 -95.5t87 -30.5q38 0 79 22
l21 -56q-50 -28 -100 -28q-112 0 -190 127q-34 -57 -77 -91.5t-113 -34.5q-74 0 -130 50t-56 138q0 86 55.5 136.5t129.5 50.5z" />
    <glyph glyph-name="infinity" unicode="&#x221e;" horiz-adv-x="620" vert-adv-y="1105" 
d="M156 504q38 0 69 -15t46 -30t39 -45q34 45 71.5 67.5t90.5 22.5q64 0 100.5 -40t36.5 -106t-38 -106.5t-107 -40.5q-38 0 -69 14.5t-46.5 30t-38.5 44.5q-34 -45 -71.5 -67t-90.5 -22q-64 0 -100.5 40t-36.5 106t38 106.5t107 40.5zM466 426q-30 0 -54 -18t-51 -51
q52 -69 104 -69q29 0 45 19t16 51q0 68 -60 68zM155 427q-29 0 -45 -19t-16 -51q0 -68 60 -68q51 0 105 66q-55 72 -104 72z" />
    <glyph glyph-name="orthogonal" unicode="&#x221f;" vert-adv-y="1105" 
 />
    <glyph glyph-name="angle" unicode="&#x2220;" vert-adv-y="1105" 
d="M618 605l61 -52l-410 -472h491v-77h-612v53z" />
    <glyph glyph-name="uni2222" unicode="&#x2222;" vert-adv-y="1105" 
 />
    <glyph glyph-name="uni2225" unicode="&#x2225;" vert-adv-y="1105" 
 />
    <glyph glyph-name="uni2226" unicode="&#x2226;" vert-adv-y="1105" 
 />
    <glyph glyph-name="logicaland" unicode="&#x2227;" vert-adv-y="1105" 
d="M426 631h56l294 -567l-60 -30l-261 506l-263 -506l-60 30z" />
    <glyph glyph-name="logicalor" unicode="&#x2228;" vert-adv-y="1105" 
d="M192 640l263 -507l261 507l60 -29l-294 -568h-56l-294 568z" />
    <glyph glyph-name="intersection" unicode="&#x2229;" vert-adv-y="1105" 
d="M455 677q111 0 179 -72.5t68 -215.5v-397h-92v402q0 99 -42 148t-113 49q-73 0 -115 -49t-42 -148v-402h-92v397q0 143 68.5 215.5t180.5 72.5z" />
    <glyph glyph-name="union" unicode="&#x222a;" vert-adv-y="1105" 
d="M205 677h92v-402q0 -98 43 -146t111 -48q72 0 116 48t44 146v402h92v-397q0 -142 -72 -215t-183 -73q-107 0 -175 70.5t-68 212.5v402z" />
    <glyph glyph-name="integral" unicode="&#x222b;" horiz-adv-x="349" vert-adv-y="1105" 
d="M283 822q35 0 53 -7l-12 -77q-22 4 -35 4q-41 0 -55.5 -46.5t-14.5 -131.5q0 -73 7 -228t7 -238q0 -42 -3.5 -76t-14 -68t-27 -57t-45 -37.5t-66.5 -14.5q-48 0 -64 12l13 80q22 -6 38 -6q29 0 45.5 25t21 58t4.5 81q0 83 -7 242.5t-7 236.5q0 51 6.5 90.5t22.5 77.5
t50 59t83 21z" />
    <glyph glyph-name="uni222C" unicode="&#x222c;" horiz-adv-x="595" vert-adv-y="1105" 
d="M283 822q35 0 53 -7l-12 -77q-22 4 -35 4q-41 0 -55.5 -46.5t-14.5 -131.5q0 -73 7 -228t7 -238q0 -42 -3.5 -76t-14 -68t-27 -57t-45 -37.5t-66.5 -14.5q-48 0 -64 12l13 80q22 -6 38 -6q29 0 45.5 25t21 58t4.5 81q0 83 -7 242.5t-7 236.5q0 51 6.5 90.5t22.5 77.5
t50 59t83 21zM529 822q35 0 53 -7l-12 -77q-22 4 -35 4q-41 0 -55.5 -46.5t-14.5 -131.5q0 -73 7 -228t7 -238q0 -42 -3.5 -76t-14 -68t-27 -57t-45 -37.5t-66.5 -14.5q-47 0 -64 12l13 80q22 -6 38 -6q29 0 45.5 25t21 58t4.5 81q0 83 -7 242.5t-7 236.5q0 51 6.5 90.5
t22.5 77.5t50 59t83 21z" />
    <glyph glyph-name="uni222E" unicode="&#x222e;" vert-adv-y="1105" 
d="M570 769q62 0 94 -63l-47 -21q-18 40 -50 40q-22 0 -42 -59.5t-32 -164.5q53 -6 87.5 -40.5t34.5 -90.5q0 -66 -41 -108t-100 -50q-32 -267 -136 -267q-61 0 -92 59l44 26q20 -41 51 -41q23 0 43.5 60t30.5 164q-49 8 -81 41.5t-32 86.5q0 63 37.5 104t93.5 53
q33 271 137 271zM490 471q-3 -29 -6 -110t-7 -119q37 9 61 39.5t28 74.5v12q0 39 -20.5 67.5t-55.5 35.5zM430 467q-35 -13 -57 -46.5t-22 -78.5q0 -38 18 -64t49 -35q3 33 6 111t6 113z" />
    <glyph glyph-name="therefore" unicode="&#x2234;" horiz-adv-x="620" vert-adv-y="1105" 
d="M132 259q32 0 54.5 -23t22.5 -53q0 -32 -22.5 -54.5t-54.5 -22.5q-30 0 -53.5 23t-23.5 54q0 29 23.5 52.5t53.5 23.5zM488 259q29 0 53 -23.5t24 -52.5q0 -31 -23.5 -54t-53.5 -23q-33 0 -55 22.5t-22 54.5q0 30 22.5 53t54.5 23zM300 608q30 0 53 -22.5t23 -53.5
q0 -30 -23 -54t-53 -24t-54 24t-24 54q0 31 23.5 53.5t54.5 22.5z" />
    <glyph glyph-name="uni2235" unicode="&#x2235;" horiz-adv-x="586" vert-adv-y="1105" 
d="M462 589q33 0 53 -21.5t20 -51.5q0 -31 -20 -52.5t-53 -21.5q-29 0 -52 22t-23 52q0 28 23 50.5t52 22.5zM112 589q33 0 54 -21.5t21 -51.5q0 -31 -21 -52.5t-54 -21.5q-29 0 -51 22t-22 52q0 28 22.5 50.5t50.5 22.5zM288 225q33 0 54 -20.5t21 -53.5q0 -29 -22 -51.5
t-53 -22.5q-29 0 -51 23t-22 51q0 33 21 53.5t52 20.5z" />
    <glyph glyph-name="uni2236" unicode="&#x2236;" vert-adv-y="1105" 
d="M358 598h194l-97 -95zM455 212l97 -95h-194z" />
    <glyph glyph-name="uni2237" unicode="&#x2237;" vert-adv-y="1105" 
 />
    <glyph glyph-name="uni223D" unicode="&#x223d;" vert-adv-y="1105" 
d="M261 546q60 0 125 -42l-33 -53q-48 29 -85 29q-54 0 -86.5 -33.5t-32.5 -87.5q0 -56 31.5 -89t86.5 -33q27 0 52.5 12t41.5 25.5t34.5 40t25 39t20.5 38.5q77 154 204 154q78 0 131 -56t53 -131q0 -78 -52.5 -134t-130.5 -56q-61 0 -122 45l32 52q44 -32 90 -32
q51 0 83.5 35.5t32.5 89.5q0 49 -32.5 86t-82.5 37q-51 0 -87.5 -32.5t-72.5 -100.5q-11 -22 -15.5 -30t-19 -31.5t-25 -35t-30 -30.5t-38 -28t-44 -16.5t-53.5 -7.5q-73 0 -127 50t-54 139q0 86 53.5 136.5t126.5 50.5z" />
    <glyph glyph-name="uni2243" unicode="&#x2243;" vert-adv-y="1105" 
 />
    <glyph glyph-name="congruent" unicode="&#x2245;" vert-adv-y="1105" 
 />
    <glyph glyph-name="approxequal" unicode="&#x2248;" vert-adv-y="1105" 
 />
    <glyph glyph-name="uni2250" unicode="&#x2250;" vert-adv-y="1105" 
d="M64 343h140v69q-75 13 -113 56t-38 110q0 80 54 125.5t158 45.5t158 -45.5t54 -125.5q0 -66 -38 -109.5t-111 -56.5v-66q65 1 130 6q22 1 34 -12.5t13 -36.5q2 -52 -41 -55q-170 -11 -400 -11q-22 0 -33.5 15t-11.5 38t11.5 38t33.5 15zM690 72h-465q-21 0 -32 14.5
t-11 37.5q0 24 11 38.5t32 14.5h529q48 0 66.5 -18t18.5 -65v-199q0 -26 -18.5 -40t-44.5 -14t-44.5 14t-18.5 40v34l-491 -11q-21 -1 -32.5 13.5t-12.5 37.5t10 38t33 15l493 4v23q0 13 -5 18t-18 5zM651 728v-177h70v182q0 24 17.5 37t41.5 13t41.5 -13t17.5 -37v-465
q0 -24 -17.5 -37t-41.5 -13t-41.5 13t-17.5 37v175h-70v-170q0 -24 -17.5 -37t-41.5 -13t-41 13t-17 37v455q0 24 17 37t41 13t41.5 -13t17.5 -37zM363 578q0 33 -25 53t-73 20t-73 -20t-25 -53t25 -53t73 -20t73 20t25 53z" />
    <glyph glyph-name="uni2251" unicode="&#x2251;" vert-adv-y="1105" 
 />
    <glyph glyph-name="uni2252" unicode="&#x2252;" horiz-adv-x="620" vert-adv-y="1105" 
d="M108 488h404q19 0 29.5 -13.5t10.5 -34.5t-10.5 -35t-29.5 -14h-404q-19 0 -29.5 14t-10.5 35t10.5 34.5t29.5 13.5zM191 679q29 0 49 -20t20 -49t-20 -49t-49 -20t-49 20t-20 49t20 49t49 20zM108 323h404q19 0 29.5 -14t10.5 -35t-10.5 -34.5t-29.5 -13.5h-404
q-19 0 -29.5 13.5t-10.5 34.5t10.5 35t29.5 14zM429 173q29 0 49 -20t20 -49t-20 -49t-49 -20t-49 20t-20 49t20 49t49 20z" />
    <glyph glyph-name="uni2253" unicode="&#x2253;" vert-adv-y="1105" 
 />
    <glyph glyph-name="uni225A" unicode="&#x225a;" vert-adv-y="1105" 
 />
    <glyph glyph-name="notequal" unicode="&#x2260;" horiz-adv-x="620" vert-adv-y="1105" 
d="M482 632q15 -10 20.5 -24.5t-3.5 -30.5l-40 -62h50q21 0 32 -15t11 -37t-11 -37t-32 -15h-120l-69 -108h189q21 0 32 -15t11 -37t-11 -37t-32 -15h-258l-64 -100q-24 -35 -63 -13q-15 9 -19.5 25t5.5 31l37 57h-36q-21 0 -32 15t-11 37t11 37t32 15h105l69 108h-174
q-21 0 -32 15t-11 37t11 37t32 15h244l68 105q21 34 59 12z" />
    <glyph glyph-name="equivalence" unicode="&#x2261;" horiz-adv-x="620" vert-adv-y="1105" 
d="M59 236h501q28 0 28 -36q0 -15 -7.5 -25t-20.5 -10h-501q-13 0 -20.5 10t-7.5 25q0 36 28 36zM59 393h501q28 0 28 -36q0 -15 -7.5 -25t-20.5 -10h-501q-13 0 -20.5 10t-7.5 25q0 36 28 36zM59 548h501q28 0 28 -36q0 -15 -7.5 -25t-20.5 -10h-501q-13 0 -20.5 10
t-7.5 25q0 36 28 36z" />
    <glyph glyph-name="uni2262" unicode="&#x2262;" vert-adv-y="1105" 
 />
    <glyph glyph-name="lessequal" unicode="&#x2264;" horiz-adv-x="618" vert-adv-y="1105" 
d="M476 702q51 21 71 -26q9 -20 2 -43t-29 -32l-320 -132v-3l320 -132q22 -9 29 -32t-2 -43q-20 -47 -71 -26l-356 150q-60 26 -60 84q0 59 60 85zM109 162h401q21 0 32 -15t11 -38t-11 -38t-32 -15h-401q-21 0 -32 15t-11 38t11 38t32 15z" />
    <glyph glyph-name="greaterequal" unicode="&#x2265;" horiz-adv-x="618" vert-adv-y="1105" 
d="M142 702l356 -150q60 -26 60 -85q0 -58 -60 -84l-356 -150q-51 -21 -71 26q-9 20 -2 43t29 32l320 132v3l-320 132q-22 9 -29 32t2 43q20 47 71 26zM108 162h401q21 0 32 -15t11 -38t-11 -38t-32 -15h-401q-21 0 -32 15t-11 38t11 38t32 15z" />
    <glyph glyph-name="uni2266" unicode="&#x2266;" vert-adv-y="1105" 
 />
    <glyph glyph-name="uni2267" unicode="&#x2267;" vert-adv-y="1105" 
 />
    <glyph glyph-name="uni226E" unicode="&#x226e;" vert-adv-y="1105" 
 />
    <glyph glyph-name="uni226F" unicode="&#x226f;" vert-adv-y="1105" 
 />
    <glyph glyph-name="uni2270" unicode="&#x2270;" vert-adv-y="1105" 
 />
    <glyph glyph-name="uni2271" unicode="&#x2271;" vert-adv-y="1105" 
 />
    <glyph glyph-name="uni2272" unicode="&#x2272;" vert-adv-y="1105" 
 />
    <glyph glyph-name="uni2273" unicode="&#x2273;" vert-adv-y="1105" 
 />
    <glyph glyph-name="uni2276" unicode="&#x2276;" vert-adv-y="1105" 
 />
    <glyph glyph-name="uni2277" unicode="&#x2277;" vert-adv-y="1105" 
 />
    <glyph glyph-name="uni2279" unicode="&#x2279;" vert-adv-y="1105" 
 />
    <glyph glyph-name="uni227A" unicode="&#x227a;" vert-adv-y="1105" 
 />
    <glyph glyph-name="uni227B" unicode="&#x227b;" vert-adv-y="1105" 
 />
    <glyph glyph-name="uni2280" unicode="&#x2280;" vert-adv-y="1105" 
 />
    <glyph glyph-name="uni2281" unicode="&#x2281;" vert-adv-y="1105" 
 />
    <glyph glyph-name="propersubset" unicode="&#x2282;" vert-adv-y="1105" 
d="M397 602h400v-88h-400q-99 0 -145.5 -43t-46.5 -111q0 -73 46.5 -116.5t145.5 -43.5h400v-88h-397q-142 0 -215 70t-73 181q0 106 71 172.5t214 66.5z" />
    <glyph glyph-name="propersuperset" unicode="&#x2283;" vert-adv-y="1105" 
d="M112 602h402q142 0 212.5 -66.5t70.5 -172.5q0 -111 -73 -181t-215 -70h-397v88h402q98 0 144 43.5t46 116.5q0 68 -45.5 111t-144.5 43h-402v88z" />
    <glyph glyph-name="notsubset" unicode="&#x2284;" vert-adv-y="1105" 
 />
    <glyph glyph-name="uni2285" unicode="&#x2285;" vert-adv-y="1105" 
 />
    <glyph glyph-name="reflexsubset" unicode="&#x2286;" vert-adv-y="1105" 
d="M147 104h648v-88h-648v88zM397 640h400v-88h-400q-100 0 -146 -38.5t-46 -101.5q0 -146 192 -146h400v-88h-397q-143 0 -215.5 65.5t-72.5 171.5q0 100 71 162.5t214 62.5z" />
    <glyph glyph-name="reflexsuperset" unicode="&#x2287;" vert-adv-y="1105" 
d="M112 640h402q143 0 213 -62.5t70 -162.5q0 -106 -72.5 -171.5t-215.5 -65.5h-397v88h402q190 0 190 146q0 64 -45 102t-145 38h-402v88zM114 104h648v-88h-648v88z" />
    <glyph glyph-name="uni228A" unicode="&#x228a;" vert-adv-y="1105" 
 />
    <glyph glyph-name="uni228B" unicode="&#x228b;" vert-adv-y="1105" 
 />
    <glyph glyph-name="circleplus" unicode="&#x2295;" vert-adv-y="1105" 
 />
    <glyph glyph-name="uni2296" unicode="&#x2296;" vert-adv-y="1105" 
 />
    <glyph glyph-name="circlemultiply" unicode="&#x2297;" vert-adv-y="1105" 
 />
    <glyph glyph-name="uni22A3" unicode="&#x22a3;" vert-adv-y="1105" 
 />
    <glyph glyph-name="uni22A4" unicode="&#x22a4;" vert-adv-y="1105" 
 />
    <glyph glyph-name="perpendicular" unicode="&#x22a5;" vert-adv-y="1105" 
d="M414 580h80v-499h280v-77h-638v77h278v499z" />
    <glyph glyph-name="uni22BB" unicode="&#x22bb;" vert-adv-y="1105" 
 />
    <glyph glyph-name="uni22BC" unicode="&#x22bc;" vert-adv-y="1105" 
 />
    <glyph glyph-name="uni22CE" unicode="&#x22ce;" vert-adv-y="1105" 
 />
    <glyph glyph-name="uni22CF" unicode="&#x22cf;" vert-adv-y="1105" 
 />
    <glyph glyph-name="uni22DA" unicode="&#x22da;" vert-adv-y="1105" 
 />
    <glyph glyph-name="uni22DB" unicode="&#x22db;" vert-adv-y="1105" 
 />
    <glyph glyph-name="uni22EE" unicode="&#x22ee;" vert-adv-y="1105" 
 />
    <glyph glyph-name="uni2306" unicode="&#x2306;" vert-adv-y="1105" 
 />
    <glyph glyph-name="uni2312" unicode="&#x2312;" vert-adv-y="1105" 
d="M454 756q179 0 267 -163h-78q-56 107 -187 107t-191 -107h-77q85 163 266 163z" />
    <glyph glyph-name="uni2314" unicode="&#x2314;" vert-adv-y="1105" 
 />
    <glyph glyph-name="uni2460" unicode="&#x2460;" vert-adv-y="1105" 
d="M455 705q-150 0 -247.5 -98.5t-97.5 -249.5t97.5 -249.5t247.5 -98.5t247.5 98.5t97.5 249.5t-97.5 249.5t-247.5 98.5zM455 777q183 0 301 -118.5t118 -301.5t-118 -301.5t-301 -118.5t-301 118.5t-118 301.5t118 301.5t301 118.5zM484 573q44 0 44 -37v-362
q0 -18 -12 -27.5t-30 -9.5t-30 9.5t-12 27.5v300l-71 -41q-17 -9 -31 -3.5t-22 20.5q-17 34 14 52l99 56q27 15 51 15z" />
    <glyph glyph-name="uni2461" unicode="&#x2461;" vert-adv-y="1105" 
d="M455 705q-150 0 -247.5 -98.5t-97.5 -249.5t97.5 -249.5t247.5 -98.5t247.5 98.5t97.5 249.5t-97.5 249.5t-247.5 98.5zM455 777q183 0 301 -118.5t118 -301.5t-118 -301.5t-301 -118.5t-301 118.5t-118 301.5t118 301.5t301 118.5zM457 587q70 0 107 -32.5t37 -80.5v-7
q0 -66 -63 -129l-118 -117h170q31 0 31 -36q0 -15 -8 -25t-23 -10h-227q-58 0 -58 45q0 18 21 39l137 139q54 55 54 95v2q0 19 -15 30t-43 11q-44 0 -75 -39q-22 -26 -50 -7q-30 21 -12 52q20 32 55.5 51t79.5 19z" />
    <glyph glyph-name="uni2462" unicode="&#x2462;" vert-adv-y="1105" 
d="M455 705q-150 0 -247.5 -98.5t-97.5 -249.5t97.5 -249.5t247.5 -98.5t247.5 98.5t97.5 249.5t-97.5 249.5t-247.5 98.5zM455 777q183 0 301 -118.5t118 -301.5t-118 -301.5t-301 -118.5t-301 118.5t-118 301.5t118 301.5t301 118.5zM452 587q69 0 107.5 -31t38.5 -78v-4
q0 -32 -18.5 -60t-53.5 -40q42 -6 66 -30.5t24 -65.5v-6q0 -53 -43 -90t-119 -37q-71 0 -120 32q-32 20 -11 54q19 31 50 13q39 -23 77 -23q80 0 80 55v5q0 55 -82 55h-32q-31 0 -31 37q0 36 31 36h26q73 0 73 58v2q0 44 -64 44q-35 0 -65 -27q-26 -21 -51 4t1 52
q42 45 116 45z" />
    <glyph glyph-name="uni2463" unicode="&#x2463;" vert-adv-y="1105" 
d="M455 705q-150 0 -247.5 -98.5t-97.5 -249.5t97.5 -249.5t247.5 -98.5t247.5 98.5t97.5 249.5t-97.5 249.5t-247.5 98.5zM455 777q183 0 301 -118.5t118 -301.5t-118 -301.5t-301 -118.5t-301 118.5t-118 301.5t118 301.5t301 118.5zM514 581q32 -20 11 -52l-153 -218h113
v93q0 18 12 27t30 9q17 0 29 -9t12 -27v-93h32q29 0 29 -35q0 -34 -29 -34h-32v-55q0 -18 -12 -27t-29 -9q-18 0 -30 9t-12 27v55h-162q-51 0 -51 41q0 17 18 42l171 247q20 29 53 9z" />
    <glyph glyph-name="uni2464" unicode="&#x2464;" vert-adv-y="1105" 
d="M390 582h172q30 0 30 -36t-30 -36h-147l-5 -101q31 23 75 23q62 0 97 -39t35 -95v-6q0 -60 -40.5 -103.5t-116.5 -43.5t-129 32q-32 20 -11 54q19 31 50 13q42 -23 88 -23q36 0 55.5 19.5t19.5 52.5v4q0 31 -19 49t-53 18q-38 0 -67 -24q-17 -14 -34 -14q-16 0 -25.5 7.5
t-8.5 22.5l10 170q1 34 12 45t42 11zM455 705q-150 0 -247.5 -98.5t-97.5 -249.5t97.5 -249.5t247.5 -98.5t247.5 98.5t97.5 249.5t-97.5 249.5t-247.5 98.5zM455 777q183 0 301 -118.5t118 -301.5t-118 -301.5t-301 -118.5t-301 118.5t-118 301.5t118 301.5t301 118.5z" />
    <glyph glyph-name="uni2465" unicode="&#x2465;" vert-adv-y="1105" 
d="M461 365q-36 0 -55 -19.5t-19 -48.5v-4q0 -33 19 -52.5t52 -19.5q37 0 56.5 19t19.5 53v2q0 70 -73 70zM476 587q59 0 96 -20q15 -8 18.5 -23.5t-4.5 -28.5q-17 -32 -50 -17q-29 13 -64 13q-76 0 -86 -111q31 39 92 39q63 0 100.5 -38.5t37.5 -102.5v-9q0 -62 -42 -103
t-114 -41q-157 0 -157 185v21q0 133 46 184.5t127 51.5zM455 705q-150 0 -247.5 -98.5t-97.5 -249.5t97.5 -249.5t247.5 -98.5t247.5 98.5t97.5 249.5t-97.5 249.5t-247.5 98.5zM455 777q183 0 301 -118.5t118 -301.5t-118 -301.5t-301 -118.5t-301 118.5t-118 301.5
t118 301.5t301 118.5z" />
    <glyph glyph-name="uni2466" unicode="&#x2466;" vert-adv-y="1105" 
d="M455 777q183 0 301 -118.5t118 -301.5t-118 -301.5t-301 -118.5t-301 118.5t-118 301.5t118 301.5t301 118.5zM455 705q-150 0 -247.5 -98.5t-97.5 -249.5t97.5 -249.5t247.5 -98.5t247.5 98.5t97.5 249.5t-97.5 249.5t-247.5 98.5zM332 564h232q29 0 42 -10.5t13 -34.5
q0 -18 -18 -59l-140 -307q-16 -35 -54 -18q-36 16 -19 53l140 304h-196q-15 0 -23 10.5t-8 25.5t8 25.5t23 10.5z" />
    <glyph glyph-name="uni2467" unicode="&#x2467;" vert-adv-y="1105" 
d="M457 587q68 0 105.5 -35t37.5 -85v-5q0 -56 -59 -88q32 -11 51 -37.5t19 -60.5v-7q0 -54 -40 -89t-111 -35q-73 0 -113.5 34.5t-40.5 89.5v7q0 32 20 59t49 39q-29 14 -43.5 39.5t-14.5 48.5v5q0 50 36.5 85t103.5 35zM458 514q-24 0 -39.5 -14t-15.5 -37v-3
q0 -25 17.5 -38.5t38.5 -13.5q22 0 38 13t17 39v3q0 24 -15.5 37.5t-40.5 13.5zM459 333q-28 0 -47.5 -14t-19.5 -42v-3q0 -26 18.5 -40.5t48.5 -14.5q31 0 48.5 14.5t17.5 39.5v4q0 27 -18.5 41.5t-47.5 14.5zM455 777q183 0 301 -118.5t118 -301.5t-118 -301.5
t-301 -118.5t-301 118.5t-118 301.5t118 301.5t301 118.5zM455 705q-150 0 -247.5 -98.5t-97.5 -249.5t97.5 -249.5t247.5 -98.5t247.5 98.5t97.5 249.5t-97.5 249.5t-247.5 98.5z" />
    <glyph glyph-name="uni2468" unicode="&#x2468;" vert-adv-y="1105" 
d="M455 777q183 0 301 -118.5t118 -301.5t-118 -301.5t-301 -118.5t-301 118.5t-118 301.5t118 301.5t301 118.5zM455 705q-150 0 -247.5 -98.5t-97.5 -249.5t97.5 -249.5t247.5 -98.5t247.5 98.5t97.5 249.5t-97.5 249.5t-247.5 98.5zM462 511q-36 0 -55.5 -18.5
t-19.5 -51.5v-4q0 -69 72 -69q37 0 56 18.5t19 48.5v6q0 33 -19 51.5t-53 18.5zM460 587q158 0 158 -185v-20q0 -135 -44 -186t-129 -51q-63 0 -95 20q-30 18 -16 50q15 34 48 19q30 -13 67 -13q43 0 62.5 25.5t24.5 84.5q-28 -37 -93 -37q-64 0 -101 38t-37 102v9
q0 63 42 103.5t113 40.5z" />
    <glyph glyph-name="uni2469" unicode="&#x2469;" vert-adv-y="1105" 
d="M580 579q146 0 146 -201v-24q0 -201 -146 -201q-145 0 -145 201v24q0 201 145 201zM580 499q-36 0 -50.5 -28.5t-14.5 -96.5v-15q0 -68 14.5 -96.5t50.5 -28.5q37 0 51.5 28.5t14.5 96.5v15q0 68 -14.5 96.5t-51.5 28.5zM332 576q42 0 42 -37v-346q0 -18 -11.5 -27.5
t-28.5 -9.5q-16 0 -27.5 9.5t-11.5 27.5v282l-59 -37q-15 -8 -28 -2.5t-21 19.5q-20 33 13 53l86 54q22 14 46 14zM455 777q183 0 301 -118.5t118 -301.5t-118 -301.5t-301 -118.5t-301 118.5t-118 301.5t118 301.5t301 118.5zM455 705q-150 0 -247.5 -98.5t-97.5 -249.5
t97.5 -249.5t247.5 -98.5t247.5 98.5t97.5 249.5t-97.5 249.5t-247.5 98.5z" />
    <glyph glyph-name="uni246A" unicode="&#x246a;" vert-adv-y="1105" 
d="M455 777q183 0 301 -118.5t118 -301.5t-118 -301.5t-301 -118.5t-301 118.5t-118 301.5t118 301.5t301 118.5zM455 705q-150 0 -247.5 -98.5t-97.5 -249.5t97.5 -249.5t247.5 -98.5t247.5 98.5t97.5 249.5t-97.5 249.5t-247.5 98.5zM361 576q42 0 42 -37v-346
q0 -18 -11.5 -27.5t-28.5 -9.5q-16 0 -27.5 9.5t-11.5 27.5v282l-59 -37q-15 -8 -28 -2.5t-21 19.5q-20 33 13 53l86 54q22 14 46 14zM609 576q42 0 42 -37v-346q0 -18 -11.5 -27.5t-28.5 -9.5q-16 0 -27.5 9.5t-11.5 27.5v282l-59 -37q-15 -8 -28 -2.5t-21 19.5
q-20 33 13 53l86 54q22 14 46 14z" />
    <glyph glyph-name="uni246B" unicode="&#x246b;" vert-adv-y="1105" 
d="M572 579q63 0 96 -31.5t33 -78.5v-7q0 -65 -56 -124l-101 -108h146q30 0 30 -37q0 -15 -8 -25t-22 -10h-199q-54 0 -54 45q0 14 20 38l120 133q48 54 48 89v2q0 17 -13.5 27t-37.5 10q-36 0 -63 -36q-20 -26 -48 -7q-28 20 -10 52q18 31 49.5 49.5t69.5 18.5zM455 777
q183 0 301 -118.5t118 -301.5t-118 -301.5t-301 -118.5t-301 118.5t-118 301.5t118 301.5t301 118.5zM455 705q-150 0 -247.5 -98.5t-97.5 -249.5t97.5 -249.5t247.5 -98.5t247.5 98.5t97.5 249.5t-97.5 249.5t-247.5 98.5zM332 576q42 0 42 -37v-346q0 -18 -11.5 -27.5
t-28.5 -9.5q-16 0 -27.5 9.5t-11.5 27.5v282l-59 -37q-15 -8 -28 -2.5t-21 19.5q-20 33 13 53l86 54q22 14 46 14z" />
    <glyph glyph-name="uni246C" unicode="&#x246c;" vert-adv-y="1105" 
d="M561 579q62 0 97 -30t35 -76v-4q0 -29 -15.5 -55t-43.5 -39q74 -17 74 -93v-6q0 -52 -38.5 -87.5t-106.5 -35.5q-62 0 -106 31q-13 9 -16 24t6 29q19 32 48 14q35 -21 66 -21q67 0 67 50v4q0 51 -70 51h-27q-30 0 -30 38q0 36 30 36h22q62 0 62 54v2q-2 39 -55 39
q-28 0 -54 -25q-23 -21 -48 4q-24 24 0 52q38 44 103 44zM455 777q183 0 301 -118.5t118 -301.5t-118 -301.5t-301 -118.5t-301 118.5t-118 301.5t118 301.5t301 118.5zM455 705q-150 0 -247.5 -98.5t-97.5 -249.5t97.5 -249.5t247.5 -98.5t247.5 98.5t97.5 249.5
t-97.5 249.5t-247.5 98.5zM332 576q42 0 42 -37v-346q0 -18 -11.5 -27.5t-28.5 -9.5q-16 0 -27.5 9.5t-11.5 27.5v282l-59 -37q-15 -8 -28 -2.5t-21 19.5q-20 33 13 53l86 54q22 14 46 14z" />
    <glyph glyph-name="uni246D" unicode="&#x246d;" vert-adv-y="1105" 
d="M626 572q28 -21 10 -51l-133 -207h93v89q0 35 39 35q38 0 38 -35v-89h27q27 0 27 -34t-27 -34h-27v-51q0 -18 -11 -27t-27 -9t-27.5 9t-11.5 27v51h-140q-47 0 -47 41q0 17 15 41l150 235q20 31 52 9zM455 777q183 0 301 -118.5t118 -301.5t-118 -301.5t-301 -118.5
t-301 118.5t-118 301.5t118 301.5t301 118.5zM455 705q-150 0 -247.5 -98.5t-97.5 -249.5t97.5 -249.5t247.5 -98.5t247.5 98.5t97.5 249.5t-97.5 249.5t-247.5 98.5zM332 576q42 0 42 -37v-346q0 -18 -11.5 -27.5t-28.5 -9.5q-16 0 -27.5 9.5t-11.5 27.5v282l-59 -37
q-15 -8 -28 -2.5t-21 19.5q-20 33 13 53l86 54q22 14 46 14z" />
    <glyph glyph-name="uni246E" unicode="&#x246e;" vert-adv-y="1105" 
d="M508 574h150q29 0 29 -35q0 -38 -29 -38h-126l-5 -92q25 22 63 22q56 0 87.5 -37.5t31.5 -92.5v-6q0 -58 -36.5 -100t-104.5 -42t-114 30q-30 20 -10 54q17 31 47 15q36 -22 75 -22q32 0 48.5 18t16.5 48v4q0 29 -16.5 45.5t-45.5 16.5q-32 0 -57 -23q-14 -14 -31 -14
q-15 0 -24 8t-8 23l9 162q1 32 12 44t38 12zM455 777q183 0 301 -118.5t118 -301.5t-118 -301.5t-301 -118.5t-301 118.5t-118 301.5t118 301.5t301 118.5zM455 705q-150 0 -247.5 -98.5t-97.5 -249.5t97.5 -249.5t247.5 -98.5t247.5 98.5t97.5 249.5t-97.5 249.5
t-247.5 98.5zM332 576q42 0 42 -37v-346q0 -18 -11.5 -27.5t-28.5 -9.5q-16 0 -27.5 9.5t-11.5 27.5v282l-59 -37q-15 -8 -28 -2.5t-21 19.5q-20 33 13 53l86 54q22 14 46 14z" />
    <glyph glyph-name="uni246F" unicode="&#x246f;" vert-adv-y="1105" 
 />
    <glyph glyph-name="uni2470" unicode="&#x2470;" vert-adv-y="1105" 
 />
    <glyph glyph-name="uni2471" unicode="&#x2471;" vert-adv-y="1105" 
 />
    <glyph glyph-name="uni2472" unicode="&#x2472;" vert-adv-y="1105" 
 />
    <glyph glyph-name="uni2473" unicode="&#x2473;" vert-adv-y="1105" 
 />
    <glyph glyph-name="uni2474" unicode="&#x2474;" vert-adv-y="1105" 
d="M484 573q44 0 44 -37v-362q0 -18 -12 -27.5t-30 -9.5t-30 9.5t-12 27.5v300l-71 -41q-17 -9 -31 -3.5t-22 20.5q-17 34 14 52l99 56q27 15 51 15zM193 735q29 -16 16 -41q-81 -154 -81 -337t81 -337q13 -25 -16 -41q-31 -16 -50 13q-103 148 -103 365t103 365
q19 29 50 13zM717 735q31 16 50 -13q103 -148 103 -365t-103 -365q-19 -29 -50 -13q-29 16 -16 41q81 154 81 337t-81 337q-13 25 16 41z" />
    <glyph glyph-name="uni2475" unicode="&#x2475;" vert-adv-y="1105" 
d="M457 587q70 0 107 -32.5t37 -80.5v-7q0 -66 -63 -129l-118 -117h170q31 0 31 -36q0 -15 -8 -25t-23 -10h-227q-58 0 -58 45q0 18 21 39l137 139q54 55 54 95v2q0 19 -15 30t-43 11q-44 0 -75 -39q-22 -26 -50 -7q-30 21 -12 52q20 32 55.5 51t79.5 19zM193 735
q29 -16 16 -41q-81 -154 -81 -337t81 -337q13 -25 -16 -41q-31 -16 -50 13q-103 148 -103 365t103 365q19 29 50 13zM717 735q31 16 50 -13q103 -148 103 -365t-103 -365q-19 -29 -50 -13q-29 16 -16 41q81 154 81 337t-81 337q-13 25 16 41z" />
    <glyph glyph-name="uni2476" unicode="&#x2476;" vert-adv-y="1105" 
d="M193 735q29 -16 16 -41q-81 -154 -81 -337t81 -337q13 -25 -16 -41q-31 -16 -50 13q-103 148 -103 365t103 365q19 29 50 13zM717 735q31 16 50 -13q103 -148 103 -365t-103 -365q-19 -29 -50 -13q-29 16 -16 41q81 154 81 337t-81 337q-13 25 16 41zM452 587
q69 0 107.5 -31t38.5 -78v-4q0 -32 -18.5 -60t-53.5 -40q42 -6 66 -30.5t24 -65.5v-6q0 -53 -43 -90t-119 -37q-71 0 -120 32q-32 20 -11 54q19 31 50 13q39 -23 77 -23q80 0 80 55v5q0 55 -82 55h-32q-31 0 -31 37q0 36 31 36h26q73 0 73 58v2q0 44 -64 44q-35 0 -65 -27
q-26 -21 -51 4t1 52q42 45 116 45z" />
    <glyph glyph-name="uni2477" unicode="&#x2477;" vert-adv-y="1105" 
d="M514 581q32 -20 11 -52l-153 -218h113v93q0 18 12 27t30 9q17 0 29 -9t12 -27v-93h32q29 0 29 -35q0 -34 -29 -34h-32v-55q0 -18 -12 -27t-29 -9q-18 0 -30 9t-12 27v55h-162q-51 0 -51 41q0 17 18 42l171 247q20 29 53 9zM193 735q29 -16 16 -41q-81 -154 -81 -337
t81 -337q13 -25 -16 -41q-31 -16 -50 13q-103 148 -103 365t103 365q19 29 50 13zM717 735q31 16 50 -13q103 -148 103 -365t-103 -365q-19 -29 -50 -13q-29 16 -16 41q81 154 81 337t-81 337q-13 25 16 41z" />
    <glyph glyph-name="uni2478" unicode="&#x2478;" vert-adv-y="1105" 
d="M193 735q29 -16 16 -41q-81 -154 -81 -337t81 -337q13 -25 -16 -41q-31 -16 -50 13q-103 148 -103 365t103 365q19 29 50 13zM717 735q31 16 50 -13q103 -148 103 -365t-103 -365q-19 -29 -50 -13q-29 16 -16 41q81 154 81 337t-81 337q-13 25 16 41zM390 582h172
q30 0 30 -36t-30 -36h-147l-5 -101q31 23 75 23q62 0 97 -39t35 -95v-6q0 -60 -40.5 -103.5t-116.5 -43.5t-129 32q-32 20 -11 54q19 31 50 13q42 -23 88 -23q36 0 55.5 19.5t19.5 52.5v4q0 31 -19 49t-53 18q-38 0 -67 -24q-17 -14 -34 -14q-16 0 -25.5 7.5t-8.5 22.5
l10 170q1 34 12 45t42 11z" />
    <glyph glyph-name="uni2479" unicode="&#x2479;" vert-adv-y="1105" 
d="M461 365q-36 0 -55 -19.5t-19 -48.5v-4q0 -33 19 -52.5t52 -19.5q37 0 56.5 19t19.5 53v2q0 70 -73 70zM476 587q59 0 96 -20q15 -8 18.5 -23.5t-4.5 -28.5q-17 -32 -50 -17q-29 13 -64 13q-76 0 -86 -111q31 39 92 39q63 0 100.5 -38.5t37.5 -102.5v-9q0 -62 -42 -103
t-114 -41q-157 0 -157 185v21q0 133 46 184.5t127 51.5zM193 735q29 -16 16 -41q-81 -154 -81 -337t81 -337q13 -25 -16 -41q-31 -16 -50 13q-103 148 -103 365t103 365q19 29 50 13zM717 735q31 16 50 -13q103 -148 103 -365t-103 -365q-19 -29 -50 -13q-29 16 -16 41
q81 154 81 337t-81 337q-13 25 16 41z" />
    <glyph glyph-name="uni247A" unicode="&#x247a;" vert-adv-y="1105" 
d="M332 564h232q29 0 42 -10.5t13 -34.5q0 -18 -18 -59l-140 -307q-16 -35 -54 -18q-36 16 -19 53l140 304h-196q-15 0 -23 10.5t-8 25.5t8 25.5t23 10.5zM193 735q29 -16 16 -41q-81 -154 -81 -337t81 -337q13 -25 -16 -41q-31 -16 -50 13q-103 148 -103 365t103 365
q19 29 50 13zM717 735q31 16 50 -13q103 -148 103 -365t-103 -365q-19 -29 -50 -13q-29 16 -16 41q81 154 81 337t-81 337q-13 25 16 41z" />
    <glyph glyph-name="uni247B" unicode="&#x247b;" vert-adv-y="1105" 
d="M457 587q68 0 105.5 -35t37.5 -85v-5q0 -56 -59 -88q32 -11 51 -37.5t19 -60.5v-7q0 -54 -40 -89t-111 -35q-73 0 -113.5 34.5t-40.5 89.5v7q0 32 20 59t49 39q-29 14 -43.5 39.5t-14.5 48.5v5q0 50 36.5 85t103.5 35zM458 514q-24 0 -39.5 -14t-15.5 -37v-3
q0 -25 17.5 -38.5t38.5 -13.5q22 0 38 13t17 39v3q0 24 -15.5 37.5t-40.5 13.5zM459 333q-28 0 -47.5 -14t-19.5 -42v-3q0 -26 18.5 -40.5t48.5 -14.5q31 0 48.5 14.5t17.5 39.5v4q0 27 -18.5 41.5t-47.5 14.5zM193 735q29 -16 16 -41q-81 -154 -81 -337t81 -337
q13 -25 -16 -41q-31 -16 -50 13q-103 148 -103 365t103 365q19 29 50 13zM717 735q31 16 50 -13q103 -148 103 -365t-103 -365q-19 -29 -50 -13q-29 16 -16 41q81 154 81 337t-81 337q-13 25 16 41z" />
    <glyph glyph-name="uni247C" unicode="&#x247c;" vert-adv-y="1105" 
d="M462 511q-36 0 -55.5 -18.5t-19.5 -51.5v-4q0 -69 72 -69q37 0 56 18.5t19 48.5v6q0 33 -19 51.5t-53 18.5zM460 587q158 0 158 -185v-20q0 -135 -44 -186t-129 -51q-63 0 -95 20q-30 18 -16 50q15 34 48 19q30 -13 67 -13q43 0 62.5 25t24.5 83q-27 -35 -93 -35
q-64 0 -101 38t-37 102v9q0 63 42 103.5t113 40.5zM193 735q29 -16 16 -41q-81 -154 -81 -337t81 -337q13 -25 -16 -41q-31 -16 -50 13q-103 148 -103 365t103 365q19 29 50 13zM717 735q31 16 50 -13q103 -148 103 -365t-103 -365q-19 -29 -50 -13q-29 16 -16 41
q81 154 81 337t-81 337q-13 25 16 41z" />
    <glyph glyph-name="uni247D" unicode="&#x247d;" vert-adv-y="1105" 
d="M580 579q146 0 146 -201v-24q0 -201 -146 -201q-145 0 -145 201v24q0 201 145 201zM580 499q-36 0 -50.5 -28.5t-14.5 -96.5v-15q0 -68 14.5 -96.5t50.5 -28.5q37 0 51.5 28.5t14.5 96.5v15q0 68 -14.5 96.5t-51.5 28.5zM332 576q42 0 42 -37v-346q0 -18 -11.5 -27.5
t-28.5 -9.5q-16 0 -27.5 9.5t-11.5 27.5v282l-59 -37q-15 -8 -28 -2.5t-21 19.5q-20 33 13 53l86 54q22 14 46 14zM193 735q29 -16 16 -41q-81 -154 -81 -337t81 -337q13 -25 -16 -41q-31 -16 -50 13q-103 148 -103 365t103 365q19 29 50 13zM717 735q31 16 50 -13
q103 -148 103 -365t-103 -365q-19 -29 -50 -13q-29 16 -16 41q81 154 81 337t-81 337q-13 25 16 41z" />
    <glyph glyph-name="uni247E" unicode="&#x247e;" vert-adv-y="1105" 
d="M361 576q42 0 42 -37v-346q0 -18 -11.5 -27.5t-28.5 -9.5q-16 0 -27.5 9.5t-11.5 27.5v282l-59 -37q-15 -8 -28 -2.5t-21 19.5q-20 33 13 53l86 54q22 14 46 14zM609 576q42 0 42 -37v-346q0 -18 -11.5 -27.5t-28.5 -9.5q-16 0 -27.5 9.5t-11.5 27.5v282l-59 -37
q-15 -8 -28 -2.5t-21 19.5q-20 33 13 53l86 54q22 14 46 14zM193 735q29 -16 16 -41q-81 -154 -81 -337t81 -337q13 -25 -16 -41q-31 -16 -50 13q-103 148 -103 365t103 365q19 29 50 13zM717 735q31 16 50 -13q103 -148 103 -365t-103 -365q-19 -29 -50 -13q-29 16 -16 41
q81 154 81 337t-81 337q-13 25 16 41z" />
    <glyph glyph-name="uni247F" unicode="&#x247f;" vert-adv-y="1105" 
d="M572 579q63 0 96 -31.5t33 -78.5v-7q0 -65 -56 -124l-101 -108h146q30 0 30 -37q0 -15 -8 -25t-22 -10h-199q-54 0 -54 45q0 14 20 38l120 133q48 54 48 89v2q0 17 -13.5 27t-37.5 10q-36 0 -63 -36q-20 -26 -48 -7q-28 20 -10 52q18 31 49.5 49.5t69.5 18.5zM332 576
q42 0 42 -37v-346q0 -18 -11.5 -27.5t-28.5 -9.5q-16 0 -27.5 9.5t-11.5 27.5v282l-59 -37q-15 -8 -28 -2.5t-21 19.5q-20 33 13 53l86 54q22 14 46 14zM193 735q29 -16 16 -41q-81 -154 -81 -337t81 -337q13 -25 -16 -41q-31 -16 -50 13q-103 148 -103 365t103 365
q19 29 50 13zM717 735q31 16 50 -13q103 -148 103 -365t-103 -365q-19 -29 -50 -13q-29 16 -16 41q81 154 81 337t-81 337q-13 25 16 41z" />
    <glyph glyph-name="uni2480" unicode="&#x2480;" vert-adv-y="1105" 
d="M561 579q62 0 97 -30t35 -76v-4q0 -29 -15.5 -55t-43.5 -39q74 -17 74 -93v-6q0 -52 -38.5 -87.5t-106.5 -35.5q-62 0 -106 31q-13 9 -16 24t6 29q19 32 48 14q35 -21 66 -21q67 0 67 50v4q0 51 -70 51h-27q-30 0 -30 38q0 36 30 36h22q62 0 62 54v2q-2 39 -55 39
q-28 0 -54 -25q-23 -21 -48 4q-24 24 0 52q38 44 103 44zM332 576q42 0 42 -37v-346q0 -18 -11.5 -27.5t-28.5 -9.5q-16 0 -27.5 9.5t-11.5 27.5v282l-59 -37q-15 -8 -28 -2.5t-21 19.5q-20 33 13 53l86 54q22 14 46 14zM193 735q29 -16 16 -41q-81 -154 -81 -337t81 -337
q13 -25 -16 -41q-31 -16 -50 13q-103 148 -103 365t103 365q19 29 50 13zM717 735q31 16 50 -13q103 -148 103 -365t-103 -365q-19 -29 -50 -13q-29 16 -16 41q81 154 81 337t-81 337q-13 25 16 41z" />
    <glyph glyph-name="uni2481" unicode="&#x2481;" vert-adv-y="1105" 
d="M626 572q28 -21 10 -51l-133 -207h93v89q0 35 39 35q38 0 38 -35v-89h27q27 0 27 -34t-27 -34h-27v-51q0 -18 -11 -27t-27 -9t-27.5 9t-11.5 27v51h-140q-47 0 -47 41q0 17 15 41l150 235q20 31 52 9zM332 576q42 0 42 -37v-346q0 -18 -11.5 -27.5t-28.5 -9.5
q-16 0 -27.5 9.5t-11.5 27.5v282l-59 -37q-15 -8 -28 -2.5t-21 19.5q-20 33 13 53l86 54q22 14 46 14zM193 735q29 -16 16 -41q-81 -154 -81 -337t81 -337q13 -25 -16 -41q-31 -16 -50 13q-103 148 -103 365t103 365q19 29 50 13zM717 735q31 16 50 -13q103 -148 103 -365
t-103 -365q-19 -29 -50 -13q-29 16 -16 41q81 154 81 337t-81 337q-13 25 16 41z" />
    <glyph glyph-name="uni2482" unicode="&#x2482;" vert-adv-y="1105" 
d="M508 574h150q29 0 29 -35q0 -38 -29 -38h-126l-5 -92q25 22 63 22q56 0 87.5 -37.5t31.5 -92.5v-6q0 -58 -36.5 -100t-104.5 -42t-114 30q-30 20 -10 54q17 31 47 15q36 -22 75 -22q32 0 48.5 18t16.5 48v4q0 29 -16.5 45.5t-45.5 16.5q-32 0 -57 -23q-14 -14 -31 -14
q-15 0 -24 8t-8 23l9 162q1 32 12 44t38 12zM332 576q42 0 42 -37v-346q0 -18 -11.5 -27.5t-28.5 -9.5q-16 0 -27.5 9.5t-11.5 27.5v282l-59 -37q-15 -8 -28 -2.5t-21 19.5q-20 33 13 53l86 54q22 14 46 14zM193 735q29 -16 16 -41q-81 -154 -81 -337t81 -337
q13 -25 -16 -41q-31 -16 -50 13q-103 148 -103 365t103 365q19 29 50 13zM717 735q31 16 50 -13q103 -148 103 -365t-103 -365q-19 -29 -50 -13q-29 16 -16 41q81 154 81 337t-81 337q-13 25 16 41z" />
    <glyph glyph-name="uni2483" unicode="&#x2483;" vert-adv-y="1105" 
 />
    <glyph glyph-name="uni2484" unicode="&#x2484;" vert-adv-y="1105" 
 />
    <glyph glyph-name="uni2485" unicode="&#x2485;" vert-adv-y="1105" 
 />
    <glyph glyph-name="uni2486" unicode="&#x2486;" vert-adv-y="1105" 
 />
    <glyph glyph-name="uni2487" unicode="&#x2487;" vert-adv-y="1105" 
 />
    <glyph glyph-name="uni249C" unicode="&#x249c;" vert-adv-y="1105" 
d="M445 331q-54 0 -56 -45v-2q0 -37 47 -37q38 0 61 13q28 16 28 54v17h-80zM462 537q65 0 105.5 -31t40.5 -84v-211q0 -15 -11.5 -23t-26.5 -8q-38 0 -38 31v16q-11 -20 -38 -34q-30 -15 -64 -15q-58 0 -90.5 27t-32.5 75v11q0 103 137 103h80v9q0 33 -15 48t-47 15
q-44 0 -83 -24q-28 -18 -48 13q-7 12 -5 25.5t14 21.5q53 35 122 35zM193 735q29 -16 16 -41q-81 -154 -81 -337t81 -337q13 -25 -16 -41q-31 -16 -50 13q-103 148 -103 365t103 365q19 29 50 13zM717 735q31 16 50 -13q103 -148 103 -365t-103 -365q-19 -29 -50 -13
q-29 16 -16 41q81 154 81 337t-81 337q-13 25 16 41z" />
    <glyph glyph-name="uni249D" unicode="&#x249d;" vert-adv-y="1105" 
d="M357 627q18 0 30 -9t12 -26v-138q30 43 97 43q141 0 141 -170v-17q0 -83 -39 -127t-106 -44q-69 0 -97 48v-13q0 -33 -40 -33t-40 33v418q0 17 12 26t30 9zM480 427q-39 0 -60.5 -23.5t-21.5 -60.5v-61q0 -28 24.5 -50.5t59.5 -22.5q72 0 72 103v13q0 102 -74 102z
M193 735q29 -16 16 -41q-81 -154 -81 -337t81 -337q13 -25 -16 -41q-31 -16 -50 13q-103 148 -103 365t103 365q19 29 50 13zM717 735q31 16 50 -13q103 -148 103 -365t-103 -365q-19 -29 -50 -13q-29 16 -16 41q81 154 81 337t-81 337q-13 25 16 41z" />
    <glyph glyph-name="uni249E" unicode="&#x249e;" vert-adv-y="1105" 
d="M464 537q65 0 112 -30q12 -8 14.5 -22.5t-6.5 -27.5q-18 -28 -47 -11q-32 19 -73 19q-79 0 -79 -99v-17q0 -48 21 -73t59 -25q47 0 78 18q13 8 27.5 5t21.5 -16q17 -33 -10 -51q-46 -29 -118 -29q-78 0 -121 43.5t-43 127.5v17q0 84 42.5 127.5t121.5 43.5zM193 735
q29 -16 16 -41q-81 -154 -81 -337t81 -337q13 -25 -16 -41q-31 -16 -50 13q-103 148 -103 365t103 365q19 29 50 13zM717 735q31 16 50 -13q103 -148 103 -365t-103 -365q-19 -29 -50 -13q-29 16 -16 41q81 154 81 337t-81 337q-13 25 16 41z" />
    <glyph glyph-name="uni249F" unicode="&#x249f;" vert-adv-y="1105" 
d="M431 427q-75 0 -75 -103v-13q0 -102 72 -102q39 0 61.5 25t22.5 63v59q0 28 -21.5 49.5t-59.5 21.5zM553 627q18 0 30 -9t12 -26v-418q0 -33 -40 -33q-39 0 -39 33v14q-25 -49 -104 -49q-68 0 -103.5 43.5t-35.5 127.5v16q0 84 38.5 127.5t106.5 43.5q69 0 93 -38v133
q0 17 12 26t30 9zM193 735q29 -16 16 -41q-81 -154 -81 -337t81 -337q13 -25 -16 -41q-31 -16 -50 13q-103 148 -103 365t103 365q19 29 50 13zM717 735q31 16 50 -13q103 -148 103 -365t-103 -365q-19 -29 -50 -13q-29 16 -16 41q81 154 81 337t-81 337q-13 25 16 41z" />
    <glyph glyph-name="uni24A0" unicode="&#x24a0;" vert-adv-y="1105" 
d="M457 469q-40 0 -60.5 -21t-20.5 -55v-5h159v7q0 74 -78 74zM458 537q71 0 114.5 -41t43.5 -113v-2q0 -31 -12 -42.5t-44 -11.5h-184v-2q0 -35 22.5 -56.5t63.5 -21.5q50 0 90 18q30 13 43 -15q15 -33 -13 -47q-52 -25 -123 -25q-78 0 -121.5 43.5t-43.5 127.5v17
q0 83 43 127t121 44zM193 735q29 -16 16 -41q-81 -154 -81 -337t81 -337q13 -25 -16 -41q-31 -16 -50 13q-103 148 -103 365t103 365q19 29 50 13zM717 735q31 16 50 -13q103 -148 103 -365t-103 -365q-19 -29 -50 -13q-29 16 -16 41q81 154 81 337t-81 337q-13 25 16 41z
" />
    <glyph glyph-name="uni24A1" unicode="&#x24a1;" vert-adv-y="1105" 
d="M511 593q23 0 44 -6q29 -9 23 -39q-7 -31 -34 -27q-15 3 -25 3q-42 0 -42 -45v-23h65q14 0 22 -10t8 -24t-8 -24t-22 -10h-65v-247q0 -16 -12 -25t-30 -9t-30 9t-12 25v247h-32q-30 0 -30 34t30 34h32v25q0 112 118 112zM193 735q29 -16 16 -41q-81 -154 -81 -337
t81 -337q13 -25 -16 -41q-31 -16 -50 13q-103 148 -103 365t103 365q19 29 50 13zM717 735q31 16 50 -13q103 -148 103 -365t-103 -365q-19 -29 -50 -13q-29 16 -16 41q81 154 81 337t-81 337q-13 25 16 41z" />
    <glyph glyph-name="uni24A2" unicode="&#x24a2;" vert-adv-y="1105" 
d="M453 510q-75 0 -75 -100v-9q0 -100 72 -100q39 0 61.5 25t22.5 63v51q0 28 -21 49t-60 21zM440 581q71 0 96 -41v6q0 31 41 31q17 0 28.5 -8.5t11.5 -24.5v-307q0 -75 -41.5 -111.5t-129.5 -36.5q-57 0 -103 26q-12 7 -14.5 21t4.5 27q17 31 46 16q38 -19 68 -19
q87 0 87 78v41q-24 -47 -100 -47q-68 0 -103.5 43t-35.5 124v13q0 82 39 125.5t106 43.5zM193 735q29 -16 16 -41q-81 -154 -81 -337t81 -337q13 -25 -16 -41q-31 -16 -50 13q-103 148 -103 365t103 365q19 29 50 13zM717 735q31 16 50 -13q103 -148 103 -365t-103 -365
q-19 -29 -50 -13q-29 16 -16 41q81 154 81 337t-81 337q-13 25 16 41z" />
    <glyph glyph-name="uni24A3" unicode="&#x24a3;" vert-adv-y="1105" 
d="M358 627q40 0 40 -33v-147q32 51 106 51q58 0 92 -34.5t34 -98.5v-190q0 -16 -12 -25t-30 -9t-30 9t-12 25v173q0 78 -67 78q-31 0 -54 -20t-23 -64v-167q0 -16 -12 -25t-30 -9t-30 9t-12 25v419q0 33 40 33zM193 735q29 -16 16 -41q-81 -154 -81 -337t81 -337
q13 -25 -16 -41q-31 -16 -50 13q-103 148 -103 365t103 365q19 29 50 13zM717 735q31 16 50 -13q103 -148 103 -365t-103 -365q-19 -29 -50 -13q-29 16 -16 41q81 154 81 337t-81 337q-13 25 16 41z" />
    <glyph glyph-name="uni24A4" unicode="&#x24a4;" vert-adv-y="1105" 
d="M455 595q22 0 37 -14.5t15 -35.5q0 -20 -15 -34.5t-37 -14.5t-37 14.5t-15 34.5q0 21 15 35.5t37 14.5zM455 460q18 0 30 -9t12 -25v-284q0 -17 -12 -26t-30 -9t-30 9t-12 26v284q0 16 12 25t30 9zM193 735q29 -16 16 -41q-81 -154 -81 -337t81 -337q13 -25 -16 -41
q-31 -16 -50 13q-103 148 -103 365t103 365q19 29 50 13zM717 735q31 16 50 -13q103 -148 103 -365t-103 -365q-19 -29 -50 -13q-29 16 -16 41q81 154 81 337t-81 337q-13 25 16 41z" />
    <glyph glyph-name="uni24A5" unicode="&#x24a5;" vert-adv-y="1105" 
d="M478 646q22 0 37.5 -14.5t15.5 -34.5t-15.5 -35t-37.5 -15t-37 15t-15 35t15 34.5t37 14.5zM478 512q42 0 42 -35v-281q0 -119 -116 -119q-33 0 -58 11q-26 11 -17 42q5 14 16 19.5t22 1.5q18 -5 29 -5q22 0 31 11.5t9 37.5v282q0 17 12.5 26t29.5 9zM193 735
q29 -16 16 -41q-81 -154 -81 -337t81 -337q13 -25 -16 -41q-31 -16 -50 13q-103 148 -103 365t103 365q19 29 50 13zM717 735q31 16 50 -13q103 -148 103 -365t-103 -365q-19 -29 -50 -13q-29 16 -16 41q81 154 81 337t-81 337q-13 25 16 41z" />
    <glyph glyph-name="uni24A6" unicode="&#x24a6;" vert-adv-y="1105" 
d="M365 627q42 0 42 -35v-246l138 136q12 12 29.5 12t28.5 -13q26 -30 -1 -54l-96 -87l113 -134q11 -14 8.5 -29t-14.5 -25q-14 -11 -30.5 -11.5t-28.5 13.5l-108 134l-39 -36v-77q0 -16 -12 -25t-30 -9t-30 9t-12 25v417q0 17 12 26t30 9zM193 735q29 -16 16 -41
q-81 -154 -81 -337t81 -337q13 -25 -16 -41q-31 -16 -50 13q-103 148 -103 365t103 365q19 29 50 13zM717 735q31 16 50 -13q103 -148 103 -365t-103 -365q-19 -29 -50 -13q-29 16 -16 41q81 154 81 337t-81 337q-13 25 16 41z" />
    <glyph glyph-name="uni24A7" unicode="&#x24a7;" vert-adv-y="1105" 
d="M455 600q18 0 30 -9t12 -26v-416q0 -17 -12 -26t-30 -9t-30 9t-12 26v416q0 17 12 26t30 9zM193 735q29 -16 16 -41q-81 -154 -81 -337t81 -337q13 -25 -16 -41q-31 -16 -50 13q-103 148 -103 365t103 365q19 29 50 13zM717 735q31 16 50 -13q103 -148 103 -365
t-103 -365q-19 -29 -50 -13q-29 16 -16 41q81 154 81 337t-81 337q-13 25 16 41z" />
    <glyph glyph-name="uni24A8" unicode="&#x24a8;" vert-adv-y="1105" 
d="M387 537q33 0 60 -15t36 -40q37 55 111 55q53 0 88.5 -35.5t35.5 -99.5v-187q0 -17 -11.5 -26t-29.5 -9t-30 9t-12 26v170q0 79 -64 79q-65 0 -65 -77v-172q0 -17 -12 -26t-30 -9t-30 9t-12 26v171q0 78 -64 78q-29 0 -47 -19t-18 -54v-176q0 -35 -42 -35q-17 0 -29.5 9
t-12.5 26v285q0 33 40 33t40 -33v-18q11 26 37.5 40.5t60.5 14.5zM193 735q29 -16 16 -41q-81 -154 -81 -337t81 -337q13 -25 -16 -41q-31 -16 -50 13q-103 148 -103 365t103 365q19 29 50 13zM717 735q31 16 50 -13q103 -148 103 -365t-103 -365q-19 -29 -50 -13
q-29 16 -16 41q81 154 81 337t-81 337q-13 25 16 41z" />
    <glyph glyph-name="uni24A9" unicode="&#x24a9;" vert-adv-y="1105" 
d="M491 537q58 0 92 -34.5t34 -98.5v-189q0 -17 -12 -26t-30 -9t-30 9t-12 26v172q0 78 -67 78q-31 0 -54 -19.5t-23 -63.5v-167q0 -35 -42 -35q-18 0 -30 9t-12 26v285q0 33 40 33t40 -33v-15q28 52 106 52zM193 735q29 -16 16 -41q-81 -154 -81 -337t81 -337
q13 -25 -16 -41q-31 -16 -50 13q-103 148 -103 365t103 365q19 29 50 13zM717 735q31 16 50 -13q103 -148 103 -365t-103 -365q-19 -29 -50 -13q-29 16 -16 41q81 154 81 337t-81 337q-13 25 16 41z" />
    <glyph glyph-name="uni24AA" unicode="&#x24aa;" vert-adv-y="1105" 
d="M455 537q80 0 124.5 -44t44.5 -127v-17q0 -83 -44.5 -127t-124.5 -44t-124.5 44t-44.5 127v17q0 83 44.5 127t124.5 44zM455 465q-44 0 -64 -24t-20 -77v-13q0 -53 20 -77t64 -24q43 0 63.5 24t20.5 77v13q0 53 -20.5 77t-63.5 24zM193 735q29 -16 16 -41
q-81 -154 -81 -337t81 -337q13 -25 -16 -41q-31 -16 -50 13q-103 148 -103 365t103 365q19 29 50 13zM717 735q31 16 50 -13q103 -148 103 -365t-103 -365q-19 -29 -50 -13q-29 16 -16 41q81 154 81 337t-81 337q-13 25 16 41z" />
    <glyph glyph-name="uni24AB" unicode="&#x24ab;" vert-adv-y="1105" 
d="M496 560q141 0 141 -170v-17q0 -83 -39 -127t-106 -44q-64 0 -93 41v-132q0 -16 -12 -25t-30 -9t-30 9t-12 25v412q0 33 40 33q41 0 41 -33v-10q28 47 100 47zM480 490q-39 0 -60.5 -23.5t-21.5 -61.5v-60q0 -28 24.5 -51t59.5 -23q72 0 72 104v13q0 102 -74 102z
M193 735q29 -16 16 -41q-81 -154 -81 -337t81 -337q13 -25 -16 -41q-31 -16 -50 13q-103 148 -103 365t103 365q19 29 50 13zM717 735q31 16 50 -13q103 -148 103 -365t-103 -365q-19 -29 -50 -13q-29 16 -16 41q81 154 81 337t-81 337q-13 25 16 41z" />
    <glyph glyph-name="uni24AC" unicode="&#x24ac;" vert-adv-y="1105" 
d="M431 490q-75 0 -75 -103v-13q0 -103 72 -103q39 0 61.5 25t22.5 63v60q0 28 -21 49.5t-60 21.5zM418 560q72 0 96 -42v7q1 31 41 31t40 -33v-412q0 -16 -12.5 -25t-28.5 -9q-18 0 -30 9t-12 25v139q-26 -48 -100 -48q-68 0 -103.5 43.5t-35.5 126.5v17q0 83 39 127
t106 44zM193 735q29 -16 16 -41q-81 -154 -81 -337t81 -337q13 -25 -16 -41q-31 -16 -50 13q-103 148 -103 365t103 365q19 29 50 13zM717 735q31 16 50 -13q103 -148 103 -365t-103 -365q-19 -29 -50 -13q-29 16 -16 41q81 154 81 337t-81 337q-13 25 16 41z" />
    <glyph glyph-name="uni24AD" unicode="&#x24ad;" vert-adv-y="1105" 
d="M540 518q21 0 35 -7q23 -11 18 -41q-3 -18 -15 -28.5t-27 -6.5q-25 5 -32 5q-29 0 -49.5 -22t-20.5 -54v-168q0 -17 -11.5 -26t-29.5 -9t-30 9t-12 26v285q0 33 40 33t40 -33v-25q12 27 37.5 44.5t56.5 17.5zM193 735q29 -16 16 -41q-81 -154 -81 -337t81 -337
q13 -25 -16 -41q-31 -16 -50 13q-103 148 -103 365t103 365q19 29 50 13zM717 735q31 16 50 -13q103 -148 103 -365t-103 -365q-19 -29 -50 -13q-29 16 -16 41q81 154 81 337t-81 337q-13 25 16 41z" />
    <glyph glyph-name="uni24AE" unicode="&#x24ae;" vert-adv-y="1105" 
d="M459 537q62 0 101 -21q33 -16 18 -48q-14 -27 -43 -15q-33 15 -67 15q-65 0 -65 -32q0 -16 11 -23t54 -16q77 -15 105 -39.5t28 -75.5q0 -45 -39.5 -74.5t-104.5 -29.5q-76 0 -128 30q-28 16 -13 48q15 31 47 15q46 -24 94 -24q58 0 58 35q0 18 -12.5 26t-60.5 17
q-69 13 -96 38t-27 75q0 42 36 70.5t104 28.5zM193 735q29 -16 16 -41q-81 -154 -81 -337t81 -337q13 -25 -16 -41q-31 -16 -50 13q-103 148 -103 365t103 365q19 29 50 13zM717 735q31 16 50 -13q103 -148 103 -365t-103 -365q-19 -29 -50 -13q-29 16 -16 41q81 154 81 337
t-81 337q-13 25 16 41z" />
    <glyph glyph-name="uni24AF" unicode="&#x24af;" vert-adv-y="1105" 
d="M435 581q18 0 29.5 -9t11.5 -26v-61h68q29 0 29 -33q0 -34 -29 -34h-68v-172q0 -41 31 -41q17 0 33 6q24 9 35 -20q12 -33 -18 -45q-24 -11 -57 -11q-57 0 -82 28t-25 87v168h-32q-30 0 -30 34q0 33 30 33h32v61q0 35 42 35zM193 735q29 -16 16 -41q-81 -154 -81 -337
t81 -337q13 -25 -16 -41q-31 -16 -50 13q-103 148 -103 365t103 365q19 29 50 13zM717 735q31 16 50 -13q103 -148 103 -365t-103 -365q-19 -29 -50 -13q-29 16 -16 41q81 154 81 337t-81 337q-13 25 16 41z" />
    <glyph glyph-name="uni24B0" unicode="&#x24b0;" vert-adv-y="1105" 
d="M337 533q18 0 30 -9t12 -25v-170q0 -79 66 -79q30 0 52.5 20t22.5 64v165q0 16 12 25t30 9t30 -9t12 -25v-285q0 -16 -11.5 -25t-28.5 -9t-28.5 9t-11.5 25v14q-12 -23 -41 -36t-63 -13q-58 0 -91.5 34t-33.5 98v188q0 16 12 25t30 9zM193 735q29 -16 16 -41
q-81 -154 -81 -337t81 -337q13 -25 -16 -41q-31 -16 -50 13q-103 148 -103 365t103 365q19 29 50 13zM717 735q31 16 50 -13q103 -148 103 -365t-103 -365q-19 -29 -50 -13q-29 16 -16 41q81 154 81 337t-81 337q-13 25 16 41z" />
    <glyph glyph-name="uni24B1" unicode="&#x24b1;" vert-adv-y="1105" 
d="M321 515q15 7 31.5 2t22.5 -22l81 -240h1l81 240q6 17 22 22t31 -2q15 -6 22.5 -19t1.5 -29l-99 -258q-17 -43 -61 -43t-61 43l-99 258q-12 33 26 48zM193 735q29 -16 16 -41q-81 -154 -81 -337t81 -337q13 -25 -16 -41q-31 -16 -50 13q-103 148 -103 365t103 365
q19 29 50 13zM717 735q31 16 50 -13q103 -148 103 -365t-103 -365q-19 -29 -50 -13q-29 16 -16 41q81 154 81 337t-81 337q-13 25 16 41z" />
    <glyph glyph-name="uni24B2" unicode="&#x24b2;" vert-adv-y="1105" 
d="M460 518q37 0 47 -40l53 -229h2l52 238q8 39 48 30q37 -8 28 -49l-66 -259q-11 -44 -58 -44t-58 43l-49 200h-2l-50 -200q-11 -43 -58 -43t-58 43l-66 258q-4 19 4 33t26 18t32.5 -3.5t18.5 -28.5l47 -236h3l56 228q10 41 48 41zM193 735q29 -16 16 -41
q-81 -154 -81 -337t81 -337q13 -25 -16 -41q-31 -16 -50 13q-103 148 -103 365t103 365q19 29 50 13zM717 735q31 16 50 -13q103 -148 103 -365t-103 -365q-19 -29 -50 -13q-29 16 -16 41q81 154 81 337t-81 337q-13 25 16 41z" />
    <glyph glyph-name="uni24B3" unicode="&#x24b3;" vert-adv-y="1105" 
d="M586 526q14 -10 16 -24.5t-8 -28.5l-87 -112l93 -116q11 -13 8.5 -29t-15.5 -26q-12 -11 -29.5 -9.5t-28.5 16.5l-80 107l-80 -106q-11 -15 -28 -17t-28 8q-31 25 -9 53l96 119l-86 109q-23 30 7 55q12 11 30 9.5t29 -16.5l72 -99l71 98q11 15 27.5 17t29.5 -8zM193 735
q29 -16 16 -41q-81 -154 -81 -337t81 -337q13 -25 -16 -41q-31 -16 -50 13q-103 148 -103 365t103 365q19 29 50 13zM717 735q31 16 50 -13q103 -148 103 -365t-103 -365q-19 -29 -50 -13q-29 16 -16 41q81 154 81 337t-81 337q-13 25 16 41z" />
    <glyph glyph-name="uni24B4" unicode="&#x24b4;" vert-adv-y="1105" 
d="M193 735q29 -16 16 -41q-81 -154 -81 -337t81 -337q13 -25 -16 -41q-31 -16 -50 13q-103 148 -103 365t103 365q19 29 50 13zM717 735q31 16 50 -13q103 -148 103 -365t-103 -365q-19 -29 -50 -13q-29 16 -16 41q81 154 81 337t-81 337q-13 25 16 41zM595 552
q17 -5 24 -18.5t1 -29.5l-162 -412q-13 -32 -52 -17q-15 6 -21.5 18.5t-0.5 26.5l35 84l-119 298q-6 16 2.5 29.5t24.5 19.5q42 16 54 -21l80 -232h1l80 232q12 35 53 22z" />
    <glyph glyph-name="uni24B5" unicode="&#x24b5;" vert-adv-y="1105" 
d="M347 530h191q30 0 43 -10.5t13 -34.5q0 -21 -26 -52l-154 -177h163q30 0 30 -36q0 -35 -30 -35h-216q-55 0 -55 36q0 21 30 56l156 182h-145q-30 0 -30 35q0 36 30 36zM193 735q29 -16 16 -41q-81 -154 -81 -337t81 -337q13 -25 -16 -41q-31 -16 -50 13
q-103 148 -103 365t103 365q19 29 50 13zM717 735q31 16 50 -13q103 -148 103 -365t-103 -365q-19 -29 -50 -13q-29 16 -16 41q81 154 81 337t-81 337q-13 25 16 41z" />
    <glyph glyph-name="uni24B6" unicode="&#x24b6;" vert-adv-y="1105" 
 />
    <glyph glyph-name="uni24B7" unicode="&#x24b7;" vert-adv-y="1105" 
 />
    <glyph glyph-name="uni24B8" unicode="&#x24b8;" vert-adv-y="1105" 
 />
    <glyph glyph-name="uni24B9" unicode="&#x24b9;" vert-adv-y="1105" 
 />
    <glyph glyph-name="uni24BA" unicode="&#x24ba;" vert-adv-y="1105" 
 />
    <glyph glyph-name="uni24BB" unicode="&#x24bb;" vert-adv-y="1105" 
 />
    <glyph glyph-name="uni24BC" unicode="&#x24bc;" vert-adv-y="1105" 
 />
    <glyph glyph-name="uni24BD" unicode="&#x24bd;" vert-adv-y="1105" 
 />
    <glyph glyph-name="uni24BE" unicode="&#x24be;" vert-adv-y="1105" 
 />
    <glyph glyph-name="uni24BF" unicode="&#x24bf;" vert-adv-y="1105" 
 />
    <glyph glyph-name="uni24C0" unicode="&#x24c0;" vert-adv-y="1105" 
 />
    <glyph glyph-name="uni24C1" unicode="&#x24c1;" vert-adv-y="1105" 
 />
    <glyph glyph-name="uni24C2" unicode="&#x24c2;" vert-adv-y="1105" 
 />
    <glyph glyph-name="uni24C3" unicode="&#x24c3;" vert-adv-y="1105" 
 />
    <glyph glyph-name="uni24C4" unicode="&#x24c4;" vert-adv-y="1105" 
 />
    <glyph glyph-name="uni24C5" unicode="&#x24c5;" vert-adv-y="1105" 
 />
    <glyph glyph-name="uni24C6" unicode="&#x24c6;" vert-adv-y="1105" 
 />
    <glyph glyph-name="uni24C7" unicode="&#x24c7;" vert-adv-y="1105" 
 />
    <glyph glyph-name="uni24C8" unicode="&#x24c8;" vert-adv-y="1105" 
 />
    <glyph glyph-name="uni24C9" unicode="&#x24c9;" vert-adv-y="1105" 
d="M439 708v-44q0 -52 33 -89l40 -43q13 -13 11 -32.5t-17 -33.5q-13 -13 -32.5 -14t-34.5 12q-13 11 -32 34q-20 22 -25 40h-1q-4 -18 -29 -44q-16 -17 -37 -35q-13 -12 -30 -12t-30 12q-21 18 -37 35q-25 26 -29 44h-1q-5 -20 -25 -42q-20 -23 -37 -38
q-15 -13 -34.5 -11.5t-32.5 14.5q-15 14 -17 34.5t11 32.5q16 15 45 47q33 37 33 89v44q0 23 17 36t41 13t41 -13t17 -36v-44q0 -56 10 -72q7 -12 18 -24q10 -11 20 0q11 12 18 24q10 16 10 72v44q0 23 17 36t41 13t41 -13t17 -36zM613 153q-44 0 -55 33h-102
q-19 0 -29.5 13.5t-10.5 34.5t10.5 34.5t29.5 13.5h100v447q0 23 17 36t40 13q24 0 41 -13t17 -36v-527q0 -23 -17 -36t-41 -13zM729 197v537q0 23 17 36t41 13t41 -13t17 -36v-537q0 -23 -17 -36t-41 -13t-41 13t-17 36zM63 406q273 0 415 16q45 4 49 -46q2 -22 -8 -38
t-31 -18q-58 -7 -148 -12v-94q0 -26 -18.5 -40t-43.5 -14t-43.5 14t-18.5 40v90q-96 -2 -153 -2q-21 0 -32.5 15.5t-11.5 36.5t11.5 36.5t32.5 15.5zM216 125h544q48 0 66.5 -18t18.5 -65v-145q0 -26 -18.5 -40t-45.5 -14t-45.5 14t-18.5 40v99q0 13 -5 18t-18 5h-478
q-21 0 -32.5 15t-11.5 38t11.5 38t32.5 15z" />
    <glyph glyph-name="uni24CA" unicode="&#x24ca;" vert-adv-y="1105" 
 />
    <glyph glyph-name="uni24CB" unicode="&#x24cb;" vert-adv-y="1105" 
 />
    <glyph glyph-name="uni24CC" unicode="&#x24cc;" vert-adv-y="1105" 
 />
    <glyph glyph-name="uni24CD" unicode="&#x24cd;" vert-adv-y="1105" 
 />
    <glyph glyph-name="uni24CE" unicode="&#x24ce;" vert-adv-y="1105" 
 />
    <glyph glyph-name="uni24CF" unicode="&#x24cf;" vert-adv-y="1105" 
 />
    <glyph glyph-name="uni24D0" unicode="&#x24d0;" vert-adv-y="1105" 
d="M455 705q-150 0 -247.5 -98.5t-97.5 -249.5t97.5 -249.5t247.5 -98.5t247.5 98.5t97.5 249.5t-97.5 249.5t-247.5 98.5zM455 777q183 0 301 -118.5t118 -301.5t-118 -301.5t-301 -118.5t-301 118.5t-118 301.5t118 301.5t301 118.5zM445 331q-54 0 -56 -45v-2
q0 -37 47 -37q38 0 61 13q28 16 28 54v17h-80zM462 537q65 0 105.5 -31t40.5 -84v-211q0 -15 -11.5 -23t-26.5 -8q-38 0 -38 31v16q-11 -20 -38 -34q-30 -15 -64 -15q-58 0 -90.5 27t-32.5 75v11q0 103 137 103h80v9q0 33 -15 48t-47 15q-44 0 -83 -24q-28 -18 -48 13
q-7 12 -5 25.5t14 21.5q53 35 122 35z" />
    <glyph glyph-name="uni24D1" unicode="&#x24d1;" vert-adv-y="1105" 
d="M357 627q18 0 30 -9t12 -26v-138q30 43 97 43q141 0 141 -170v-17q0 -83 -39 -127t-106 -44q-69 0 -97 48v-13q0 -33 -40 -33t-40 33v418q0 17 12 26t30 9zM480 427q-39 0 -60.5 -23.5t-21.5 -60.5v-61q0 -28 24.5 -50.5t59.5 -22.5q72 0 72 103v13q0 102 -74 102z
M455 705q-150 0 -247.5 -98.5t-97.5 -249.5t97.5 -249.5t247.5 -98.5t247.5 98.5t97.5 249.5t-97.5 249.5t-247.5 98.5zM455 777q183 0 301 -118.5t118 -301.5t-118 -301.5t-301 -118.5t-301 118.5t-118 301.5t118 301.5t301 118.5z" />
    <glyph glyph-name="uni24D2" unicode="&#x24d2;" vert-adv-y="1105" 
d="M464 537q65 0 112 -30q12 -8 14.5 -22.5t-6.5 -27.5q-18 -28 -47 -11q-32 19 -73 19q-79 0 -79 -99v-17q0 -48 21 -73t59 -25q47 0 78 18q13 8 27.5 5t21.5 -16q17 -33 -10 -51q-46 -29 -118 -29q-78 0 -121 43.5t-43 127.5v17q0 84 42.5 127.5t121.5 43.5zM455 705
q-150 0 -247.5 -98.5t-97.5 -249.5t97.5 -249.5t247.5 -98.5t247.5 98.5t97.5 249.5t-97.5 249.5t-247.5 98.5zM455 777q183 0 301 -118.5t118 -301.5t-118 -301.5t-301 -118.5t-301 118.5t-118 301.5t118 301.5t301 118.5z" />
    <glyph glyph-name="uni24D3" unicode="&#x24d3;" vert-adv-y="1105" 
d="M431 427q-75 0 -75 -103v-13q0 -102 72 -102q39 0 61.5 25t22.5 63v59q0 28 -21.5 49.5t-59.5 21.5zM553 627q18 0 30 -9t12 -26v-418q0 -33 -40 -33q-39 0 -39 33v14q-25 -49 -104 -49q-68 0 -103.5 43.5t-35.5 127.5v16q0 84 38.5 127.5t106.5 43.5q69 0 93 -38v133
q0 17 12 26t30 9zM455 705q-150 0 -247.5 -98.5t-97.5 -249.5t97.5 -249.5t247.5 -98.5t247.5 98.5t97.5 249.5t-97.5 249.5t-247.5 98.5zM455 777q183 0 301 -118.5t118 -301.5t-118 -301.5t-301 -118.5t-301 118.5t-118 301.5t118 301.5t301 118.5z" />
    <glyph glyph-name="uni24D4" unicode="&#x24d4;" vert-adv-y="1105" 
d="M457 469q-40 0 -60.5 -21t-20.5 -55v-5h159v7q0 74 -78 74zM458 537q71 0 114.5 -41t43.5 -113v-2q0 -31 -12 -42.5t-44 -11.5h-184v-2q0 -35 22.5 -56.5t63.5 -21.5q50 0 90 18q30 13 43 -15q15 -33 -13 -47q-52 -25 -123 -25q-78 0 -121.5 43.5t-43.5 127.5v17
q0 83 43 127t121 44zM455 705q-150 0 -247.5 -98.5t-97.5 -249.5t97.5 -249.5t247.5 -98.5t247.5 98.5t97.5 249.5t-97.5 249.5t-247.5 98.5zM455 777q183 0 301 -118.5t118 -301.5t-118 -301.5t-301 -118.5t-301 118.5t-118 301.5t118 301.5t301 118.5z" />
    <glyph glyph-name="uni24D5" unicode="&#x24d5;" vert-adv-y="1105" 
d="M511 593q23 0 44 -6q29 -9 23 -39q-7 -31 -34 -27q-15 3 -25 3q-42 0 -42 -45v-23h65q14 0 22 -10t8 -24t-8 -24t-22 -10h-65v-247q0 -16 -12 -25t-30 -9t-30 9t-12 25v247h-32q-30 0 -30 34t30 34h32v25q0 112 118 112zM455 705q-150 0 -247.5 -98.5t-97.5 -249.5
t97.5 -249.5t247.5 -98.5t247.5 98.5t97.5 249.5t-97.5 249.5t-247.5 98.5zM455 777q183 0 301 -118.5t118 -301.5t-118 -301.5t-301 -118.5t-301 118.5t-118 301.5t118 301.5t301 118.5z" />
    <glyph glyph-name="uni24D6" unicode="&#x24d6;" vert-adv-y="1105" 
d="M455 705q-150 0 -247.5 -98.5t-97.5 -249.5t97.5 -249.5t247.5 -98.5t247.5 98.5t97.5 249.5t-97.5 249.5t-247.5 98.5zM455 777q183 0 301 -118.5t118 -301.5t-118 -301.5t-301 -118.5t-301 118.5t-118 301.5t118 301.5t301 118.5zM453 510q-75 0 -75 -100v-9
q0 -100 72 -100q39 0 61.5 25t22.5 63v51q0 28 -21 49t-60 21zM440 581q71 0 96 -41v6q0 31 41 31q17 0 28.5 -8.5t11.5 -24.5v-307q0 -75 -41.5 -111.5t-129.5 -36.5q-57 0 -103 26q-12 7 -14.5 21t4.5 27q17 31 46 16q38 -19 68 -19q87 0 87 78v41q-24 -47 -100 -47
q-68 0 -103.5 43t-35.5 124v13q0 82 39 125.5t106 43.5z" />
    <glyph glyph-name="uni24D7" unicode="&#x24d7;" vert-adv-y="1105" 
d="M358 627q40 0 40 -33v-147q32 51 106 51q58 0 92 -34.5t34 -98.5v-190q0 -16 -12 -25t-30 -9t-30 9t-12 25v173q0 78 -67 78q-31 0 -54 -20t-23 -64v-167q0 -16 -12 -25t-30 -9t-30 9t-12 25v419q0 33 40 33zM455 705q-150 0 -247.5 -98.5t-97.5 -249.5t97.5 -249.5
t247.5 -98.5t247.5 98.5t97.5 249.5t-97.5 249.5t-247.5 98.5zM455 777q183 0 301 -118.5t118 -301.5t-118 -301.5t-301 -118.5t-301 118.5t-118 301.5t118 301.5t301 118.5z" />
    <glyph glyph-name="uni24D8" unicode="&#x24d8;" vert-adv-y="1105" 
d="M455 595q22 0 37 -14.5t15 -35.5q0 -20 -15 -34.5t-37 -14.5t-37 14.5t-15 34.5q0 21 15 35.5t37 14.5zM455 460q18 0 30 -9t12 -25v-284q0 -17 -12 -26t-30 -9t-30 9t-12 26v284q0 16 12 25t30 9zM455 705q-150 0 -247.5 -98.5t-97.5 -249.5t97.5 -249.5t247.5 -98.5
t247.5 98.5t97.5 249.5t-97.5 249.5t-247.5 98.5zM455 777q183 0 301 -118.5t118 -301.5t-118 -301.5t-301 -118.5t-301 118.5t-118 301.5t118 301.5t301 118.5z" />
    <glyph glyph-name="uni24D9" unicode="&#x24d9;" vert-adv-y="1105" 
d="M478 646q22 0 37.5 -14.5t15.5 -34.5t-15.5 -35t-37.5 -15t-37 15t-15 35t15 34.5t37 14.5zM478 512q42 0 42 -35v-281q0 -119 -116 -119q-33 0 -58 11q-26 11 -17 42q5 14 16 19.5t22 1.5q18 -5 29 -5q22 0 31 11.5t9 37.5v282q0 17 12.5 26t29.5 9zM455 705
q-150 0 -247.5 -98.5t-97.5 -249.5t97.5 -249.5t247.5 -98.5t247.5 98.5t97.5 249.5t-97.5 249.5t-247.5 98.5zM455 777q183 0 301 -118.5t118 -301.5t-118 -301.5t-301 -118.5t-301 118.5t-118 301.5t118 301.5t301 118.5z" />
    <glyph glyph-name="uni24DA" unicode="&#x24da;" vert-adv-y="1105" 
d="M365 627q42 0 42 -35v-246l138 136q12 12 29.5 12t28.5 -13q26 -30 -1 -54l-96 -87l113 -134q11 -14 8.5 -29t-14.5 -25q-14 -11 -30.5 -11.5t-28.5 13.5l-108 134l-39 -36v-77q0 -16 -12 -25t-30 -9t-30 9t-12 25v417q0 17 12 26t30 9zM455 705q-150 0 -247.5 -98.5
t-97.5 -249.5t97.5 -249.5t247.5 -98.5t247.5 98.5t97.5 249.5t-97.5 249.5t-247.5 98.5zM455 777q183 0 301 -118.5t118 -301.5t-118 -301.5t-301 -118.5t-301 118.5t-118 301.5t118 301.5t301 118.5z" />
    <glyph glyph-name="uni24DB" unicode="&#x24db;" vert-adv-y="1105" 
d="M455 600q18 0 30 -9t12 -26v-416q0 -17 -12 -26t-30 -9t-30 9t-12 26v416q0 17 12 26t30 9zM455 705q-150 0 -247.5 -98.5t-97.5 -249.5t97.5 -249.5t247.5 -98.5t247.5 98.5t97.5 249.5t-97.5 249.5t-247.5 98.5zM455 777q183 0 301 -118.5t118 -301.5t-118 -301.5
t-301 -118.5t-301 118.5t-118 301.5t118 301.5t301 118.5z" />
    <glyph glyph-name="uni24DC" unicode="&#x24dc;" vert-adv-y="1105" 
d="M387 537q33 0 60 -15t36 -40q37 55 111 55q53 0 88.5 -35.5t35.5 -99.5v-187q0 -17 -11.5 -26t-29.5 -9t-30 9t-12 26v170q0 79 -64 79q-65 0 -65 -77v-172q0 -17 -12 -26t-30 -9t-30 9t-12 26v171q0 78 -64 78q-29 0 -47 -19t-18 -54v-176q0 -35 -42 -35q-17 0 -29.5 9
t-12.5 26v285q0 33 40 33t40 -33v-18q11 26 37.5 40.5t60.5 14.5zM455 705q-150 0 -247.5 -98.5t-97.5 -249.5t97.5 -249.5t247.5 -98.5t247.5 98.5t97.5 249.5t-97.5 249.5t-247.5 98.5zM455 777q183 0 301 -118.5t118 -301.5t-118 -301.5t-301 -118.5t-301 118.5
t-118 301.5t118 301.5t301 118.5z" />
    <glyph glyph-name="uni24DD" unicode="&#x24dd;" vert-adv-y="1105" 
d="M491 537q58 0 92 -34.5t34 -98.5v-189q0 -17 -12 -26t-30 -9t-30 9t-12 26v172q0 78 -67 78q-31 0 -54 -19.5t-23 -63.5v-167q0 -35 -42 -35q-18 0 -30 9t-12 26v285q0 33 40 33t40 -33v-15q28 52 106 52zM455 705q-150 0 -247.5 -98.5t-97.5 -249.5t97.5 -249.5
t247.5 -98.5t247.5 98.5t97.5 249.5t-97.5 249.5t-247.5 98.5zM455 777q183 0 301 -118.5t118 -301.5t-118 -301.5t-301 -118.5t-301 118.5t-118 301.5t118 301.5t301 118.5z" />
    <glyph glyph-name="uni24DE" unicode="&#x24de;" vert-adv-y="1105" 
d="M455 537q80 0 124.5 -44t44.5 -127v-17q0 -83 -44.5 -127t-124.5 -44t-124.5 44t-44.5 127v17q0 83 44.5 127t124.5 44zM455 465q-44 0 -64 -24t-20 -77v-13q0 -53 20 -77t64 -24q43 0 63.5 24t20.5 77v13q0 53 -20.5 77t-63.5 24zM455 705q-150 0 -247.5 -98.5
t-97.5 -249.5t97.5 -249.5t247.5 -98.5t247.5 98.5t97.5 249.5t-97.5 249.5t-247.5 98.5zM455 777q183 0 301 -118.5t118 -301.5t-118 -301.5t-301 -118.5t-301 118.5t-118 301.5t118 301.5t301 118.5z" />
    <glyph glyph-name="uni24DF" unicode="&#x24df;" vert-adv-y="1105" 
d="M455 705q-150 0 -247.5 -98.5t-97.5 -249.5t97.5 -249.5t247.5 -98.5t247.5 98.5t97.5 249.5t-97.5 249.5t-247.5 98.5zM455 777q183 0 301 -118.5t118 -301.5t-118 -301.5t-301 -118.5t-301 118.5t-118 301.5t118 301.5t301 118.5zM496 560q141 0 141 -170v-17
q0 -83 -39 -127t-106 -44q-64 0 -93 41v-132q0 -16 -12 -25t-30 -9t-30 9t-12 25v412q0 33 40 33q41 0 41 -33v-10q28 47 100 47zM480 490q-39 0 -60.5 -23.5t-21.5 -61.5v-60q0 -28 24.5 -51t59.5 -23q72 0 72 104v13q0 102 -74 102z" />
    <glyph glyph-name="uni24E0" unicode="&#x24e0;" vert-adv-y="1105" 
d="M431 490q-75 0 -75 -103v-13q0 -103 72 -103q39 0 61.5 25t22.5 63v60q0 28 -21 49.5t-60 21.5zM418 560q72 0 96 -42v7q1 31 41 31t40 -33v-412q0 -16 -12.5 -25t-28.5 -9q-18 0 -30 9t-12 25v139q-26 -48 -100 -48q-68 0 -103.5 43.5t-35.5 126.5v17q0 83 39 127
t106 44zM455 705q-150 0 -247.5 -98.5t-97.5 -249.5t97.5 -249.5t247.5 -98.5t247.5 98.5t97.5 249.5t-97.5 249.5t-247.5 98.5zM455 777q183 0 301 -118.5t118 -301.5t-118 -301.5t-301 -118.5t-301 118.5t-118 301.5t118 301.5t301 118.5z" />
    <glyph glyph-name="uni24E1" unicode="&#x24e1;" vert-adv-y="1105" 
d="M455 705q-150 0 -247.5 -98.5t-97.5 -249.5t97.5 -249.5t247.5 -98.5t247.5 98.5t97.5 249.5t-97.5 249.5t-247.5 98.5zM455 777q183 0 301 -118.5t118 -301.5t-118 -301.5t-301 -118.5t-301 118.5t-118 301.5t118 301.5t301 118.5zM540 518q21 0 35 -7q23 -11 18 -41
q-3 -18 -15 -28.5t-27 -6.5q-25 5 -32 5q-29 0 -49.5 -22t-20.5 -54v-168q0 -17 -11.5 -26t-29.5 -9t-30 9t-12 26v285q0 33 40 33t40 -33v-25q12 27 37.5 44.5t56.5 17.5z" />
    <glyph glyph-name="uni24E2" unicode="&#x24e2;" vert-adv-y="1105" 
d="M459 537q62 0 101 -21q33 -16 18 -48q-14 -27 -43 -15q-33 15 -67 15q-65 0 -65 -32q0 -16 11 -23t54 -16q77 -15 105 -39.5t28 -75.5q0 -45 -39.5 -74.5t-104.5 -29.5q-76 0 -128 30q-28 16 -13 48q15 31 47 15q46 -24 94 -24q58 0 58 35q0 18 -12.5 26t-60.5 17
q-69 13 -96 38t-27 75q0 42 36 70.5t104 28.5zM455 705q-150 0 -247.5 -98.5t-97.5 -249.5t97.5 -249.5t247.5 -98.5t247.5 98.5t97.5 249.5t-97.5 249.5t-247.5 98.5zM455 777q183 0 301 -118.5t118 -301.5t-118 -301.5t-301 -118.5t-301 118.5t-118 301.5t118 301.5
t301 118.5z" />
    <glyph glyph-name="uni24E3" unicode="&#x24e3;" vert-adv-y="1105" 
d="M435 581q18 0 29.5 -9t11.5 -26v-61h68q29 0 29 -33q0 -34 -29 -34h-68v-172q0 -41 31 -41q17 0 33 6q24 9 35 -20q12 -33 -18 -45q-24 -11 -57 -11q-57 0 -82 28t-25 87v168h-32q-30 0 -30 34q0 33 30 33h32v61q0 35 42 35zM455 705q-150 0 -247.5 -98.5t-97.5 -249.5
t97.5 -249.5t247.5 -98.5t247.5 98.5t97.5 249.5t-97.5 249.5t-247.5 98.5zM455 777q183 0 301 -118.5t118 -301.5t-118 -301.5t-301 -118.5t-301 118.5t-118 301.5t118 301.5t301 118.5z" />
    <glyph glyph-name="uni24E4" unicode="&#x24e4;" vert-adv-y="1105" 
d="M337 533q18 0 30 -9t12 -25v-170q0 -79 66 -79q30 0 52.5 20t22.5 64v165q0 16 12 25t30 9t30 -9t12 -25v-285q0 -16 -11.5 -25t-28.5 -9t-28.5 9t-11.5 25v14q-12 -23 -41 -36t-63 -13q-58 0 -91.5 34t-33.5 98v188q0 16 12 25t30 9zM455 705q-150 0 -247.5 -98.5
t-97.5 -249.5t97.5 -249.5t247.5 -98.5t247.5 98.5t97.5 249.5t-97.5 249.5t-247.5 98.5zM455 777q183 0 301 -118.5t118 -301.5t-118 -301.5t-301 -118.5t-301 118.5t-118 301.5t118 301.5t301 118.5z" />
    <glyph glyph-name="uni24E5" unicode="&#x24e5;" vert-adv-y="1105" 
d="M321 515q15 7 31.5 2t22.5 -22l81 -240h1l81 240q6 17 22 22t31 -2q15 -6 22.5 -19t1.5 -29l-99 -258q-17 -43 -61 -43t-61 43l-99 258q-12 33 26 48zM455 705q-150 0 -247.5 -98.5t-97.5 -249.5t97.5 -249.5t247.5 -98.5t247.5 98.5t97.5 249.5t-97.5 249.5t-247.5 98.5
zM455 777q183 0 301 -118.5t118 -301.5t-118 -301.5t-301 -118.5t-301 118.5t-118 301.5t118 301.5t301 118.5z" />
    <glyph glyph-name="uni24E6" unicode="&#x24e6;" vert-adv-y="1105" 
d="M460 518q37 0 47 -40l53 -229h2l52 238q8 39 48 30q37 -8 28 -49l-66 -259q-11 -44 -58 -44t-58 43l-49 200h-2l-50 -200q-11 -43 -58 -43t-58 43l-66 258q-4 19 4 33t26 18t32.5 -3.5t18.5 -28.5l47 -236h3l56 228q10 41 48 41zM455 705q-150 0 -247.5 -98.5
t-97.5 -249.5t97.5 -249.5t247.5 -98.5t247.5 98.5t97.5 249.5t-97.5 249.5t-247.5 98.5zM455 777q183 0 301 -118.5t118 -301.5t-118 -301.5t-301 -118.5t-301 118.5t-118 301.5t118 301.5t301 118.5z" />
    <glyph glyph-name="uni24E7" unicode="&#x24e7;" vert-adv-y="1105" 
d="M586 526q14 -10 16 -24.5t-8 -28.5l-87 -112l93 -116q11 -13 8.5 -29t-15.5 -26q-12 -11 -29.5 -9.5t-28.5 16.5l-80 107l-80 -106q-11 -15 -28 -17t-28 8q-31 25 -9 53l96 119l-86 109q-23 30 7 55q12 11 30 9.5t29 -16.5l72 -99l71 98q11 15 27.5 17t29.5 -8zM455 705
q-150 0 -247.5 -98.5t-97.5 -249.5t97.5 -249.5t247.5 -98.5t247.5 98.5t97.5 249.5t-97.5 249.5t-247.5 98.5zM455 777q183 0 301 -118.5t118 -301.5t-118 -301.5t-301 -118.5t-301 118.5t-118 301.5t118 301.5t301 118.5z" />
    <glyph glyph-name="uni24E8" unicode="&#x24e8;" vert-adv-y="1105" 
d="M455 705q-150 0 -247.5 -98.5t-97.5 -249.5t97.5 -249.5t247.5 -98.5t247.5 98.5t97.5 249.5t-97.5 249.5t-247.5 98.5zM455 777q183 0 301 -118.5t118 -301.5t-118 -301.5t-301 -118.5t-301 118.5t-118 301.5t118 301.5t301 118.5zM595 552q17 -5 24 -18.5t1 -29.5
l-162 -412q-13 -32 -52 -17q-15 6 -21.5 18.5t-0.5 26.5l35 84l-119 298q-6 16 2.5 29.5t24.5 19.5q42 16 54 -21l80 -232h1l80 232q12 35 53 22z" />
    <glyph glyph-name="uni24E9" unicode="&#x24e9;" vert-adv-y="1105" 
d="M455 705q-150 0 -247.5 -98.5t-97.5 -249.5t97.5 -249.5t247.5 -98.5t247.5 98.5t97.5 249.5t-97.5 249.5t-247.5 98.5zM455 777q183 0 301 -118.5t118 -301.5t-118 -301.5t-301 -118.5t-301 118.5t-118 301.5t118 301.5t301 118.5zM347 530h191q30 0 43 -10.5t13 -34.5
q0 -21 -26 -52l-154 -177h163q30 0 30 -36q0 -35 -30 -35h-216q-55 0 -55 36q0 21 30 56l156 182h-145q-30 0 -30 35q0 36 30 36z" />
    <glyph glyph-name="SF100000" unicode="&#x2500;" vert-adv-y="1105" 
d="M910 312v-30h-910v30h910z" />
    <glyph glyph-name="uni2501" unicode="&#x2501;" vert-adv-y="1105" 
d="M910 333v-72h-910v72h910z" />
    <glyph glyph-name="SF110000" unicode="&#x2502;" vert-adv-y="1105" 
d="M470 850v-1105h-30v1105h30z" />
    <glyph glyph-name="uni2503" unicode="&#x2503;" vert-adv-y="1105" 
d="M493 850v-1105h-76v1105h76z" />
    <glyph glyph-name="SF010000" unicode="&#x250c;" vert-adv-y="1105" 
d="M910 312v-30h-440v-537h-30v567h470z" />
    <glyph glyph-name="uni250D" unicode="&#x250d;" vert-adv-y="1105" 
d="M440 -255v588h470v-72h-440v-516h-30z" />
    <glyph glyph-name="uni250E" unicode="&#x250e;" vert-adv-y="1105" 
d="M417 -255v567h493v-30h-417v-537h-76z" />
    <glyph glyph-name="uni250F" unicode="&#x250f;" vert-adv-y="1105" 
d="M910 333v-72h-417v-516h-76v588h493z" />
    <glyph glyph-name="SF030000" unicode="&#x2510;" vert-adv-y="1105" 
d="M470 312v-567h-30v537h-440v30h470z" />
    <glyph glyph-name="uni2511" unicode="&#x2511;" vert-adv-y="1105" 
d="M470 333v-588h-30v516h-440v72h470z" />
    <glyph glyph-name="uni2512" unicode="&#x2512;" vert-adv-y="1105" 
d="M493 312v-567h-76v537h-417v30h493z" />
    <glyph glyph-name="uni2513" unicode="&#x2513;" vert-adv-y="1105" 
d="M0 261v72h493v-588h-76v516h-417z" />
    <glyph glyph-name="SF020000" unicode="&#x2514;" vert-adv-y="1105" 
d="M910 312v-30h-470v568h30v-538h440z" />
    <glyph glyph-name="uni2515" unicode="&#x2515;" vert-adv-y="1105" 
d="M440 261v589h30v-517h440v-72h-470z" />
    <glyph glyph-name="uni2516" unicode="&#x2516;" vert-adv-y="1105" 
d="M417 282v568h76v-538h417v-30h-493z" />
    <glyph glyph-name="uni2517" unicode="&#x2517;" vert-adv-y="1105" 
d="M910 333v-72h-493v589h76v-517h417z" />
    <glyph glyph-name="SF040000" unicode="&#x2518;" vert-adv-y="1105" 
d="M470 850v-568h-470v30h440v538h30z" />
    <glyph glyph-name="uni2519" unicode="&#x2519;" vert-adv-y="1105" 
d="M470 850v-589h-470v72h440v517h30z" />
    <glyph glyph-name="uni251A" unicode="&#x251a;" vert-adv-y="1105" 
d="M493 850v-568h-493v30h417v538h76z" />
    <glyph glyph-name="uni251B" unicode="&#x251b;" vert-adv-y="1105" 
d="M0 261v72h417v517h76v-589h-493z" />
    <glyph glyph-name="SF080000" unicode="&#x251c;" vert-adv-y="1105" 
d="M910 312v-30h-440v-537h-30v1105h30v-538h440z" />
    <glyph glyph-name="uni251D" unicode="&#x251d;" vert-adv-y="1105" 
d="M470 850v-517h440v-72h-440v-516h-30v1105h30z" />
    <glyph glyph-name="uni251E" unicode="&#x251e;" vert-adv-y="1105" 
d="M493 850v-538h417v-30h-440v-537h-30v552h-23v553h76z" />
    <glyph glyph-name="uni251F" unicode="&#x251f;" vert-adv-y="1105" 
d="M493 282v-537h-76v552h23v553h30v-538h440v-30h-417z" />
    <glyph glyph-name="uni2520" unicode="&#x2520;" vert-adv-y="1105" 
d="M910 312v-30h-417v-537h-76v1105h76v-538h417z" />
    <glyph glyph-name="uni2521" unicode="&#x2521;" vert-adv-y="1105" 
d="M910 333v-72h-440v-516h-30v552h-23v553h76v-517h417z" />
    <glyph glyph-name="uni2522" unicode="&#x2522;" vert-adv-y="1105" 
d="M910 333v-72h-417v-516h-76v552h23v553h30v-517h440z" />
    <glyph glyph-name="uni2523" unicode="&#x2523;" vert-adv-y="1105" 
d="M910 333v-72h-417v-516h-76v1105h76v-517h417z" />
    <glyph glyph-name="SF090000" unicode="&#x2524;" vert-adv-y="1105" 
d="M0 282v30h440v538h30v-1105h-30v537h-440z" />
    <glyph glyph-name="uni2525" unicode="&#x2525;" vert-adv-y="1105" 
d="M470 850v-1105h-30v516h-440v72h440v517h30z" />
    <glyph glyph-name="uni2526" unicode="&#x2526;" vert-adv-y="1105" 
d="M417 312v538h76v-553h-23v-552h-30v537h-440v30h417z" />
    <glyph glyph-name="uni2527" unicode="&#x2527;" vert-adv-y="1105" 
d="M417 -255v537h-417v30h440v538h30v-553h23v-552h-76z" />
    <glyph glyph-name="uni2528" unicode="&#x2528;" vert-adv-y="1105" 
d="M0 282v30h417v538h76v-1105h-76v537h-417z" />
    <glyph glyph-name="uni2529" unicode="&#x2529;" vert-adv-y="1105" 
d="M0 261v72h417v517h76v-553h-23v-552h-30v516h-440z" />
    <glyph glyph-name="uni252A" unicode="&#x252a;" vert-adv-y="1105" 
d="M0 261v72h440v517h30v-553h23v-552h-76v516h-417z" />
    <glyph glyph-name="uni252B" unicode="&#x252b;" vert-adv-y="1105" 
d="M493 850v-1105h-76v516h-417v72h417v517h76z" />
    <glyph glyph-name="SF060000" unicode="&#x252c;" vert-adv-y="1105" 
d="M910 312v-30h-440v-537h-30v537h-440v30h910z" />
    <glyph glyph-name="uni252D" unicode="&#x252d;" vert-adv-y="1105" 
d="M910 312v-30h-440v-537h-30v516h-440v72h455v-21h455z" />
    <glyph glyph-name="uni252E" unicode="&#x252e;" vert-adv-y="1105" 
d="M910 333v-72h-440v-516h-30v537h-440v30h455v21h455z" />
    <glyph glyph-name="uni252F" unicode="&#x252f;" vert-adv-y="1105" 
d="M910 333v-72h-440v-516h-30v516h-440v72h910z" />
    <glyph glyph-name="uni2530" unicode="&#x2530;" vert-adv-y="1105" 
d="M910 312v-30h-417v-537h-76v537h-417v30h910z" />
    <glyph glyph-name="uni2531" unicode="&#x2531;" vert-adv-y="1105" 
d="M910 312v-30h-417v-537h-76v516h-417v72h455v-21h455z" />
    <glyph glyph-name="uni2532" unicode="&#x2532;" vert-adv-y="1105" 
d="M0 282v30h455v21h455v-72h-417v-516h-76v537h-417z" />
    <glyph glyph-name="uni2533" unicode="&#x2533;" vert-adv-y="1105" 
d="M910 333v-72h-417v-516h-76v516h-417v72h910z" />
    <glyph glyph-name="SF070000" unicode="&#x2534;" vert-adv-y="1105" 
d="M910 312v-30h-910v30h440v538h30v-538h440z" />
    <glyph glyph-name="uni2535" unicode="&#x2535;" vert-adv-y="1105" 
d="M910 312v-30h-455v-21h-455v72h440v517h30v-538h440z" />
    <glyph glyph-name="uni2536" unicode="&#x2536;" vert-adv-y="1105" 
d="M0 282v30h440v538h30v-517h440v-72h-455v21h-455z" />
    <glyph glyph-name="uni2537" unicode="&#x2537;" vert-adv-y="1105" 
d="M910 333v-72h-910v72h440v517h30v-517h440z" />
    <glyph glyph-name="uni2538" unicode="&#x2538;" vert-adv-y="1105" 
d="M910 312v-30h-910v30h417v538h76v-538h417z" />
    <glyph glyph-name="uni2539" unicode="&#x2539;" vert-adv-y="1105" 
d="M910 312v-30h-455v-21h-455v72h417v517h76v-538h417z" />
    <glyph glyph-name="uni253A" unicode="&#x253a;" vert-adv-y="1105" 
d="M0 282v30h417v538h76v-517h417v-72h-455v21h-455z" />
    <glyph glyph-name="uni253B" unicode="&#x253b;" vert-adv-y="1105" 
d="M910 333v-72h-910v72h417v517h76v-517h417z" />
    </font>
</defs>
</svg>
