<?xml version="1.0" standalone="no"?>
<!DOCTYPE svg PUBLIC "-//W3C//DTD SVG 1.1//EN" "http://www.w3.org/Graphics/SVG/1.1/DTD/svg11.dtd" >
<svg xmlns="http://www.w3.org/2000/svg" xmlns:xlink="http://www.w3.org/1999/xlink" version="1.1">
<metadata>
Created by FontForge 20170731 at Wed May 27 11:48:19 2020
 By Aleksey,,,
</metadata>
<defs>
<font id="NanumSquareRoundOTFB00" horiz-adv-x="910" vert-adv-y="1000" >
  <font-face 
    font-family="NanumSquareRoundOTFB00"
    font-weight="700"
    font-stretch="normal"
    units-per-em="1000"
    panose-1="2 0 8 3 0 0 0 0 0 0"
    ascent="800"
    descent="-200"
    x-height="529"
    cap-height="715"
    bbox="-68.6739 -255 1218 884.138"
    underline-thickness="50"
    underline-position="-200"
    unicode-range="U+0020-FFE6"
  />
<missing-glyph vert-adv-y="1105" 
d="M757 788q32 0 44 -12.5t12 -46.5v-782q0 -34 -12 -46.5t-44 -12.5h-604q-32 0 -44 12.5t-12 46.5v782q0 34 12 46.5t44 12.5h604zM455 368l299 385h-598zM135 -44l296 383l-296 383v-766zM479 339l296 -383v766zM154 -77h602l-301 386z" />
    <glyph glyph-name=".notdef" vert-adv-y="1105" 
d="M757 788q32 0 44 -12.5t12 -46.5v-782q0 -34 -12 -46.5t-44 -12.5h-604q-32 0 -44 12.5t-12 46.5v782q0 34 12 46.5t44 12.5h604zM455 368l299 385h-598zM135 -44l296 383l-296 383v-766zM479 339l296 -383v766zM154 -77h602l-301 386z" />
    <glyph glyph-name=".null" horiz-adv-x="0" vert-adv-y="0" 
 />
    <glyph glyph-name="nonmarkingreturn" horiz-adv-x="333" 
 />
    <glyph glyph-name="space" unicode=" " horiz-adv-x="250" vert-adv-y="1105" 
 />
    <glyph glyph-name="exclam" unicode="!" horiz-adv-x="302" vert-adv-y="1105" 
d="M151 740q26 0 41 -12t14 -36l-12 -472q-1 -43 -43 -43t-42 43l-13 472q0 48 55 48zM151 95q28 0 47 -18.5t19 -46.5t-19 -47t-47 -19t-47 19t-19 47t19 46.5t47 18.5z" />
    <glyph glyph-name="quotedbl" unicode="&#x22;" horiz-adv-x="388" vert-adv-y="1105" 
d="M113 740q22 0 36.5 -11t13.5 -32l-8 -163q-1 -42 -42 -42q-40 0 -43 42l-8 163q-1 21 14 32t37 11zM276 740q22 0 36.5 -11t13.5 -32l-8 -163q-2 -42 -42 -42t-43 42l-8 163q-1 21 14 32t37 11z" />
    <glyph glyph-name="numbersign" unicode="#" horiz-adv-x="619" vert-adv-y="1105" 
d="M250 720q39 -4 34 -40l-21 -153h134l22 160q2 16 14.5 25t31.5 8q18 -2 27.5 -12.5t6.5 -27.5l-21 -153h66q36 0 36 -42q0 -41 -36 -41h-78l-22 -164h68q36 0 36 -42q0 -41 -36 -41h-79l-23 -163q-1 -16 -13.5 -25.5t-32.5 -8.5q-39 4 -34 40l22 157h-135l-22 -163
q-2 -16 -14.5 -25.5t-31.5 -8.5q-18 2 -27.5 12t-7.5 28l22 157h-67q-17 0 -26 11.5t-9 29.5q0 42 35 42h78l23 164h-69q-36 0 -36 41q0 42 36 42h80l23 160q2 16 14.5 25t31.5 8zM228 280h135l23 164h-136z" />
    <glyph glyph-name="dollar" unicode="$" horiz-adv-x="613" vert-adv-y="1105" 
d="M308 776q30 0 30 -27v-38q97 -6 162 -44q16 -9 20 -26t-5 -32q-18 -35 -52 -17q-62 33 -125 36v-225q128 -33 173 -75.5t45 -119.5v-9q0 -91 -58.5 -137.5t-159.5 -52.5v-50q0 -27 -30 -27q-31 0 -31 27v50q-116 6 -199 58q-17 10 -20 28.5t7 33.5q24 35 59 14
q70 -43 153 -51v236q-103 24 -156.5 66t-53.5 127v14q0 68 52 117.5t158 57.5v39q0 27 31 27zM277 627q-56 -5 -85.5 -29t-29.5 -61v-12q0 -45 24 -66.5t91 -40.5v209zM338 92q60 6 90.5 33.5t30.5 67.5v8q0 44 -23 67.5t-98 44.5v-221z" />
    <glyph glyph-name="percent" unicode="%" horiz-adv-x="904" vert-adv-y="1105" 
d="M227 726q80 0 122 -47t42 -129v-21q0 -82 -42 -129t-122 -47t-122 47t-42 129v21q0 82 42 129t122 47zM669 714q14 -7 18.5 -20.5t-4.5 -30.5l-394 -646q-19 -30 -53 -12q-33 18 -14 51l394 646q18 30 53 12zM227 655q-43 0 -63.5 -26.5t-20.5 -82.5v-13q0 -57 20 -83
t64 -26t64.5 26t20.5 83v13q0 109 -85 109zM676 366q80 0 122 -46.5t42 -128.5v-22q0 -82 -42 -129t-122 -47t-122 47t-42 129v22q0 82 42 128.5t122 46.5zM676 296q-44 0 -64 -26.5t-20 -83.5v-13q0 -57 20 -83t64 -26t64.5 26t20.5 83v13q0 57 -20.5 83.5t-64.5 26.5z" />
    <glyph glyph-name="ampersand" unicode="&#x26;" horiz-adv-x="673" vert-adv-y="1105" 
d="M626 73q30 -34 -5 -63q-14 -12 -32 -12t-31 15l-57 64q-91 -84 -218 -84q-105 0 -174.5 49.5t-69.5 137.5v13q0 69 40.5 116t133.5 93l-23 26q-66 75 -66 138v11q0 66 49.5 107.5t133.5 41.5t132.5 -44.5t48.5 -106.5v-10q0 -106 -139 -183l149 -166q27 61 29 133
q0 20 13.5 30.5t32.5 9.5q44 -2 44 -42q-2 -107 -58 -199zM218 573v-5q0 -39 65 -113l11 -13q102 55 102 124v5q0 31 -24 52t-65 21q-43 0 -66 -20t-23 -51zM285 80q96 0 160 61l-176 198q-76 -40 -104 -73t-28 -75v-9q0 -45 42.5 -73.5t105.5 -28.5z" />
    <glyph glyph-name="quotesingle" unicode="'" horiz-adv-x="225" vert-adv-y="1105" 
d="M113 740q22 0 36.5 -11t13.5 -32l-8 -163q-1 -42 -42 -42q-40 0 -43 42l-8 163q-1 21 14 32t37 11z" />
    <glyph glyph-name="parenleft" unicode="(" horiz-adv-x="339" vert-adv-y="1105" 
d="M257 795q14 -8 18 -22t-5 -29q-103 -169 -103 -392v-35q0 -222 103 -392q9 -14 5 -28.5t-18 -22.5q-33 -17 -57 14q-135 171 -135 434v25q0 263 135 434q25 33 57 14z" />
    <glyph glyph-name="parenright" unicode=")" horiz-adv-x="339" vert-adv-y="1105" 
d="M82 795q33 18 57 -14q135 -171 135 -434v-25q0 -263 -135 -434q-23 -31 -57 -14q-14 8 -18 22.5t5 28.5q103 170 103 392v35q0 223 -103 392q-9 15 -5 29t18 22z" />
    <glyph glyph-name="asterisk" unicode="*" horiz-adv-x="470" vert-adv-y="1105" 
d="M235 747q19 0 30.5 -9.5t9.5 -26.5l-12 -116l99 69q14 9 29 4t23 -21t4 -31.5t-20 -21.5l-113 -48l113 -47q16 -7 20 -22t-4 -31q-8 -17 -23 -22.5t-29 4.5l-99 69l12 -115q2 -16 -10 -26t-30 -10q-19 0 -30.5 9.5t-9.5 26.5l12 115l-99 -69q-14 -10 -28.5 -4.5
t-22.5 22.5q-9 16 -5 31t20 22l113 47l-113 48q-16 6 -20 21.5t5 31.5q8 16 22.5 21t28.5 -4l99 -69l-12 116q-2 17 9.5 26.5t30.5 9.5z" />
    <glyph glyph-name="plus" unicode="+" horiz-adv-x="598" vert-adv-y="1105" 
d="M299 615q19 0 31.5 -10t12.5 -28v-178h177q34 0 34 -40q0 -41 -34 -41h-177v-193q0 -18 -12.5 -28t-31.5 -10t-32 10t-13 28v193h-177q-34 0 -34 41q0 40 34 40h177v178q0 18 13 28t32 10z" />
    <glyph glyph-name="comma" unicode="," horiz-adv-x="249" vert-adv-y="1105" 
d="M141 98q25 -5 36.5 -22t2.5 -41l-50 -150q-13 -37 -51 -30q-37 7 -31 42l26 161q4 24 23.5 34t43.5 6z" />
    <glyph glyph-name="hyphen" unicode="-" horiz-adv-x="423" vert-adv-y="1105" 
d="M345 400q34 0 34 -42q0 -18 -9 -30t-25 -12h-267q-35 0 -35 42t35 42h267z" />
    <glyph glyph-name="period" unicode="." horiz-adv-x="249" vert-adv-y="1105" 
d="M124 99q29 0 48.5 -19t19.5 -48t-19.5 -48.5t-48.5 -19.5t-48 19.5t-19 48.5q0 28 19.5 47.5t47.5 19.5z" />
    <glyph glyph-name="slash" unicode="/" horiz-adv-x="418" vert-adv-y="1105" 
d="M366 798q18 -6 27 -19.5t3 -31.5l-286 -851q-13 -38 -59 -25q-41 13 -29 51l286 851q13 38 58 25z" />
    <glyph glyph-name="zero" unicode="0" horiz-adv-x="610" vert-adv-y="1105" 
d="M305 726q132 0 194 -86t62 -256v-49q0 -170 -62 -256t-194 -86t-194 86t-62 256v49q0 170 62 256t194 86zM305 632q-87 0 -121 -59.5t-34 -196.5v-33q0 -137 34 -196.5t121 -59.5t121 59.5t34 196.5v33q0 137 -34 196.5t-121 59.5z" />
    <glyph glyph-name="one" unicode="1" horiz-adv-x="610" vert-adv-y="1105" 
d="M371 720q52 0 52 -43v-636q0 -21 -14 -31.5t-36 -10.5q-21 0 -35.5 10.5t-14.5 31.5v561l-150 -92q-19 -10 -36 -4t-27 24q-9 15 -5.5 33.5t20.5 27.5l179 107q40 22 67 22z" />
    <glyph glyph-name="two" unicode="2" horiz-adv-x="610" vert-adv-y="1105" 
d="M300 726q108 0 165.5 -50.5t57.5 -129.5v-10q0 -103 -99 -206l-230 -242h326q35 0 35 -42t-35 -42h-385q-39 0 -56 13t-17 41q0 21 30 54l244 258q52 54 69.5 89t17.5 76v5q0 45 -31 70.5t-90 25.5q-90 0 -145 -80q-11 -15 -27.5 -17.5t-32.5 8.5q-37 27 -14 62
q76 117 217 117z" />
    <glyph glyph-name="three" unicode="3" horiz-adv-x="610" vert-adv-y="1105" 
d="M287 726q110 0 169.5 -51t59.5 -130v-5q0 -55 -32 -101t-92 -65q68 -10 110.5 -52t42.5 -111v-10q0 -88 -65.5 -148t-186.5 -60q-120 0 -205 58q-18 12 -21.5 31t7.5 35q24 39 62 15q73 -49 152 -49q80 0 118 34t38 87v8q0 116 -158 116h-57q-36 0 -36 44q0 43 36 43h49
q64 0 102 29.5t38 88.5v3q0 47 -33.5 74.5t-97.5 27.5q-75 0 -129 -59q-14 -13 -31.5 -12t-29.5 15q-27 29 0 61q67 83 190 83z" />
    <glyph glyph-name="four" unicode="4" horiz-adv-x="610" vert-adv-y="1105" 
d="M421 712q39 -26 12 -64l-283 -409h242v183q0 20 14.5 31t34.5 11q21 0 35.5 -10.5t14.5 -31.5v-183h73q34 0 34 -41t-34 -41h-73v-116q0 -21 -14.5 -31.5t-35.5 -10.5q-20 0 -34.5 11t-14.5 31v116h-297q-65 0 -65 49q0 19 27 59l302 435q24 35 62 12z" />
    <glyph glyph-name="five" unicode="5" horiz-adv-x="610" vert-adv-y="1105" 
d="M481 715q35 0 35 -43t-35 -43h-271l-12 -221q63 46 144 46q101 0 158.5 -61.5t57.5 -156.5v-11q0 -94 -62.5 -163t-188.5 -69q-129 0 -216 58q-18 12 -21 30.5t8 34.5q24 38 61 15q75 -47 167 -47q76 0 114 40t38 102v7q0 68 -37.5 103.5t-107.5 35.5q-73 0 -127 -47
q-23 -19 -46 -19q-19 0 -31 9.5t-11 25.5l17 297q3 46 18.5 61.5t58.5 15.5h289z" />
    <glyph glyph-name="six" unicode="6" horiz-adv-x="610" vert-adv-y="1105" 
d="M342 726q96 0 159 -36q35 -21 18 -59q-16 -39 -59 -22q-55 26 -122 26q-159 0 -175 -248q24 38 72 60t102 22q103 0 163.5 -61.5t60.5 -166.5v-16q0 -104 -67.5 -168t-178.5 -64q-122 0 -186.5 78t-64.5 225v28q0 113 20.5 193.5t59 125t87 64t111.5 19.5zM317 381
q-71 0 -110.5 -39.5t-39.5 -99.5v-8q0 -69 39.5 -109.5t106.5 -40.5q71 0 110.5 37.5t39.5 107.5v7q0 145 -146 145z" />
    <glyph glyph-name="seven" unicode="7" horiz-adv-x="610" vert-adv-y="1105" 
d="M487 715q38 0 54 -13t16 -41q0 -21 -26 -80l-252 -556q-8 -20 -27.5 -24.5t-35.5 4.5q-42 18 -24 61l259 563h-365q-17 0 -26 12.5t-9 30.5t9 30.5t26 12.5h401z" />
    <glyph glyph-name="eight" unicode="8" horiz-adv-x="610" vert-adv-y="1105" 
d="M304 726q103 0 163 -55t60 -136v-9q0 -46 -27.5 -88.5t-78.5 -68.5q56 -16 91.5 -62t35.5 -104v-12q0 -88 -65 -143t-176 -55q-114 0 -179.5 55t-65.5 143v12q0 58 36.5 104.5t90.5 61.5q-50 24 -78.5 67t-28.5 90v9q0 81 59 136t163 55zM305 638q-55 0 -88.5 -29.5
t-33.5 -79.5v-6q0 -52 35.5 -82t87.5 -30q53 0 87 30t34 82v6q0 50 -33 79.5t-89 29.5zM306 323q-61 0 -101.5 -31.5t-40.5 -89.5v-6q0 -51 38.5 -83t103.5 -32t102.5 31.5t37.5 83.5v6q0 57 -39 89t-101 32z" />
    <glyph glyph-name="nine" unicode="9" horiz-adv-x="610" vert-adv-y="1105" 
d="M299 726q123 0 187 -77.5t64 -224.5v-29q0 -117 -19 -196.5t-57 -124t-86.5 -63t-115.5 -18.5q-97 0 -158 36q-36 20 -19 60q19 41 59 22q57 -27 124 -27q85 0 126.5 57t46.5 190q-24 -38 -72 -60t-102 -22q-103 0 -164 61.5t-61 165.5v17q0 104 68 168.5t179 64.5z
M301 635q-71 0 -110.5 -37.5t-39.5 -107.5v-8q0 -145 146 -145q71 0 110.5 39.5t39.5 99.5v8q0 71 -39 111t-107 40z" />
    <glyph glyph-name="colon" unicode=":" horiz-adv-x="321" vert-adv-y="1105" 
d="M160 593q29 0 48.5 -19t19.5 -48t-19.5 -48.5t-48.5 -19.5t-48 19.5t-19 48.5q0 28 19.5 47.5t47.5 19.5zM160 207q29 0 48.5 -19t19.5 -48t-19.5 -48.5t-48.5 -19.5q-28 0 -47.5 19.5t-19.5 48.5q0 28 19.5 47.5t47.5 19.5z" />
    <glyph glyph-name="semicolon" unicode=";" horiz-adv-x="321" vert-adv-y="1105" 
d="M160 593q29 0 48.5 -19t19.5 -48t-19.5 -48.5t-48.5 -19.5t-48 19.5t-19 48.5q0 28 19.5 47.5t47.5 19.5zM178 206q24 -4 35.5 -21.5t2.5 -41.5l-49 -150q-14 -37 -52 -30q-36 7 -30 42l26 161q4 24 23 34t44 6z" />
    <glyph glyph-name="less" unicode="&#x3c;" horiz-adv-x="622" vert-adv-y="1105" 
d="M487 621q19 9 34.5 4.5t23.5 -22.5q19 -41 -16 -60l-355 -181v-5l355 -183q35 -17 16 -60q-18 -38 -59 -18l-378 201q-28 15 -37 27.5t-9 33.5t9 34t37 28z" />
    <glyph glyph-name="equal" unicode="=" horiz-adv-x="613" vert-adv-y="1105" 
d="M508 505q16 0 25 -11.5t9 -29.5t-9 -30t-25 -12h-403q-35 0 -35 42q0 18 9 29.5t26 11.5h403zM508 294q16 0 25 -12t9 -30t-9 -29.5t-25 -11.5h-403q-17 0 -26 11.5t-9 29.5q0 42 35 42h403z" />
    <glyph glyph-name="greater" unicode="&#x3e;" horiz-adv-x="622" vert-adv-y="1105" 
d="M514 420q28 -15 37 -28t9 -34t-9 -33.5t-37 -27.5l-378 -201q-41 -20 -59 18q-19 43 16 60l355 183v5l-355 181q-35 19 -16 60q8 18 23.5 22.5t34.5 -4.5z" />
    <glyph glyph-name="question" unicode="?" horiz-adv-x="540" vert-adv-y="1105" 
d="M263 726q102 0 162 -50t60 -133v-10q0 -49 -24.5 -88t-87.5 -96q-50 -46 -64.5 -71.5t-14.5 -61.5q0 -18 -13.5 -28.5t-32.5 -10.5q-20 0 -34 10.5t-14 30.5q0 54 17 89.5t73 84.5q57 51 76 79t19 61v7q0 44 -32 71t-92 27q-75 0 -139 -52q-32 -24 -59 10q-12 13 -11 31
t16 30q81 70 195 70zM247 95q28 0 47 -18.5t19 -46.5t-19 -47t-47 -19t-46.5 19t-18.5 47t18.5 46.5t46.5 18.5z" />
    <glyph glyph-name="at" unicode="@" horiz-adv-x="996" vert-adv-y="1105" 
d="M489 759q217 0 335.5 -116t118.5 -312v-3q0 -48 -8.5 -90.5t-28 -82t-57.5 -63t-90 -23.5q-97 0 -122 87h-1q-18 -43 -64.5 -64t-90.5 -21q-98 0 -148 58t-50 158v37q0 100 50 157.5t139 57.5q49 0 83.5 -18t49.5 -47v23q0 19 13.5 29t32.5 10t32.5 -10t13.5 -29v-271
q0 -83 68 -83q100 0 100 182v3q0 170 -97.5 264.5t-278.5 94.5q-159 0 -258.5 -100t-99.5 -272v-5q0 -184 99.5 -285t276.5 -101q143 0 257 51q33 16 48 -15q16 -34 -17 -51q-123 -58 -285 -58q-214 0 -336 123t-122 335v7q0 195 119 319t318 124zM488 454q-109 0 -109 -136
v-27q0 -133 109 -133q51 0 82 30.5t31 81.5v80q0 46 -30 75t-83 29z" />
    <glyph glyph-name="A" unicode="A" horiz-adv-x="675" vert-adv-y="1105" 
d="M337 720q44 0 61 -45l237 -611q8 -21 -0.5 -38t-27.5 -23q-51 -15 -67 28l-66 179h-277l-68 -182q-14 -42 -63 -25q-43 16 -27 58l238 614q17 45 60 45zM336 597q-17 -57 -44 -130l-65 -173h217l-64 173q-30 83 -44 130z" />
    <glyph glyph-name="B" unicode="B" horiz-adv-x="650" vert-adv-y="1105" 
d="M348 715q114 0 169.5 -43.5t55.5 -133.5v-14q0 -118 -115 -146q148 -21 148 -165v-18q0 -92 -56 -141.5t-170 -49.5h-217q-44 0 -60.5 16t-16.5 58v563q0 42 16.5 58t60.5 16h185zM186 416h133q84 0 118.5 23.5t34.5 82.5v11q0 53 -36.5 75.5t-122.5 22.5h-127v-215z
M186 88h151q89 0 128 25t39 91v15q0 60 -41 87.5t-142 27.5h-135v-246z" />
    <glyph glyph-name="C" unicode="C" horiz-adv-x="652" vert-adv-y="1105" 
d="M355 726q126 0 205 -54q18 -12 20.5 -30t-9.5 -34q-11 -16 -27 -20t-33 6q-67 40 -158 40q-193 0 -193 -259v-31q0 -131 47.5 -194.5t146.5 -63.5q103 0 174 53q16 11 33.5 8t29.5 -19q12 -17 9.5 -37t-20.5 -33q-89 -65 -228 -65q-293 0 -293 343v47q0 343 296 343z" />
    <glyph glyph-name="D" unicode="D" horiz-adv-x="691" vert-adv-y="1105" 
d="M326 715q154 0 230.5 -80t76.5 -247v-57q0 -327 -307 -327h-163q-44 0 -60.5 16t-16.5 58v563q0 42 16.5 58t60.5 16h163zM186 90h127q113 0 166 59t53 189v41q0 133 -51 191.5t-168 58.5h-127v-539z" />
    <glyph glyph-name="E" unicode="E" horiz-adv-x="607" vert-adv-y="1105" 
d="M506 715q35 0 35 -42t-35 -42h-320v-221h300q16 0 25 -11.5t9 -29.5t-9 -30t-25 -12h-300v-239h327q35 0 35 -42t-35 -42h-350q-44 0 -60.5 16t-16.5 58v563q0 42 16.5 58t60.5 16h343z" />
    <glyph glyph-name="F" unicode="F" horiz-adv-x="578" vert-adv-y="1105" 
d="M502 715q36 0 36 -43t-36 -43h-315v-232h295q17 0 26 -12.5t9 -30.5q0 -42 -35 -42h-295v-271q0 -21 -14.5 -31.5t-36.5 -10.5q-21 0 -35.5 10.5t-14.5 31.5v600q0 42 16.5 58t60.5 16h339z" />
    <glyph glyph-name="G" unicode="G" horiz-adv-x="679" vert-adv-y="1105" 
d="M369 726q124 0 207 -54q36 -25 10 -64q-11 -16 -27 -20t-31 6q-66 41 -160 41q-109 0 -158.5 -60.5t-49.5 -199.5v-31q0 -140 49.5 -200t163.5 -60q86 0 144 29v196h-135q-36 0 -36 43q0 42 36 42h157q44 0 60.5 -16t16.5 -59v-205q0 -33 -11 -51.5t-39 -31.5
q-85 -38 -197 -38q-155 0 -232.5 83t-77.5 260v47q0 177 77.5 260t232.5 83z" />
    <glyph glyph-name="H" unicode="H" horiz-adv-x="708" vert-adv-y="1105" 
d="M136 720q22 0 36.5 -10.5t14.5 -31.5v-260h335v260q0 21 14 31.5t35 10.5q22 0 36.5 -10.5t14.5 -31.5v-637q0 -21 -14.5 -31.5t-36.5 -10.5q-21 0 -35 10.5t-14 31.5v293h-335v-293q0 -21 -14.5 -31.5t-36.5 -10.5q-21 0 -35.5 10.5t-14.5 31.5v637q0 21 14.5 31.5
t35.5 10.5z" />
    <glyph glyph-name="I" unicode="I" horiz-adv-x="273" vert-adv-y="1105" 
d="M136 720q22 0 36.5 -10.5t14.5 -31.5v-637q0 -21 -14.5 -31.5t-36.5 -10.5q-21 0 -35.5 10.5t-14.5 31.5v637q0 21 14.5 31.5t35.5 10.5z" />
    <glyph glyph-name="J" unicode="J" horiz-adv-x="480" vert-adv-y="1105" 
d="M344 720q22 0 36 -10.5t14 -31.5v-478q0 -207 -208 -207q-83 0 -144 40q-33 22 -10 62q22 36 58 16q47 -26 96 -26q56 0 82 32t26 105v456q0 21 14.5 31.5t35.5 10.5z" />
    <glyph glyph-name="K" unicode="K" horiz-adv-x="659" vert-adv-y="1105" 
d="M136 720q22 0 36.5 -10.5t14.5 -31.5v-310l322 339q13 14 32 13t31 -15q14 -13 15.5 -30t-11.5 -32l-237 -244l261 -321q14 -18 11.5 -36t-19.5 -31q-15 -13 -34.5 -12t-32.5 18l-252 318l-86 -88v-206q0 -21 -14.5 -31.5t-36.5 -10.5q-21 0 -35.5 10.5t-14.5 31.5v637
q0 21 14.5 31.5t35.5 10.5z" />
    <glyph glyph-name="L" unicode="L" horiz-adv-x="555" vert-adv-y="1105" 
d="M136 720q22 0 36.5 -10.5t14.5 -31.5v-588h313q17 0 26 -12.5t9 -30.5t-9 -30.5t-26 -12.5h-337q-44 0 -60.5 16t-16.5 58v600q0 21 14.5 31.5t35.5 10.5z" />
    <glyph glyph-name="M" unicode="M" horiz-adv-x="862" vert-adv-y="1105" 
d="M168 717q33 0 50 -14t37 -62l178 -402l173 401q18 47 36 62t52 15h15q37 0 51.5 -15.5t14.5 -55.5v-607q0 -20 -13.5 -30t-33.5 -10t-34 10t-14 30v580q-18 -61 -39 -111l-154 -348q-9 -23 -21.5 -32t-32.5 -9q-24 0 -36.5 9.5t-22.5 33.5l-152 346q-22 50 -41 111v-580
q0 -20 -14 -30t-34 -10t-33.5 10t-13.5 30v607q0 40 15 55.5t52 15.5h15z" />
    <glyph glyph-name="N" unicode="N" horiz-adv-x="710" vert-adv-y="1105" 
d="M577 720q20 0 33.5 -10t13.5 -30v-605q0 -41 -15.5 -57t-54.5 -16q-29 0 -46 13.5t-45 62.5l-242 419q-30 53 -41 96v-554q0 -20 -13.5 -30t-33.5 -10t-33.5 10t-13.5 30v605q0 41 15.5 57t54.5 16q29 0 46 -14t45 -62l242 -419q27 -47 42 -96v554q0 20 13 30t33 10z" />
    <glyph glyph-name="O" unicode="O" horiz-adv-x="712" vert-adv-y="1105" 
d="M356 726q297 0 297 -343v-47q0 -343 -297 -343t-297 343v47q0 343 297 343zM356 635q-100 0 -148 -61.5t-48 -198.5v-31q0 -137 47.5 -198t148.5 -61t148.5 61t47.5 198v31q0 137 -48 198.5t-148 61.5z" />
    <glyph glyph-name="P" unicode="P" horiz-adv-x="623" vert-adv-y="1105" 
d="M342 715q121 0 181.5 -54.5t60.5 -150.5v-15q0 -96 -62.5 -154.5t-180.5 -58.5h-154v-241q0 -21 -14.5 -31.5t-36.5 -10.5q-21 0 -35.5 10.5t-14.5 31.5v600q0 42 16.5 58t60.5 16h179zM187 367h142q79 0 117 31.5t38 97.5v12q0 122 -145 122h-152v-263z" />
    <glyph glyph-name="Q" unicode="Q" horiz-adv-x="708" vert-adv-y="1105" 
d="M356 726q297 0 297 -343v-47q0 -162 -68 -249l63 -63q12 -12 10.5 -27.5t-14.5 -27.5q-30 -29 -55 -4l-68 68q-65 -40 -165 -40q-297 0 -297 343v47q0 343 297 343zM356 635q-100 0 -148 -61.5t-48 -198.5v-31q0 -137 47.5 -198t148.5 -61q57 0 92 20l-72 73
q-12 13 -10.5 27.5t14.5 27.5q30 29 55 4l78 -78q39 64 39 185v31q0 137 -48 198.5t-148 61.5z" />
    <glyph glyph-name="R" unicode="R" horiz-adv-x="649" vert-adv-y="1105" 
d="M341 715q111 0 173 -52t62 -147v-17q0 -138 -127 -183l132 -248q10 -21 4.5 -37.5t-24.5 -25.5q-48 -20 -66 18l-142 277q-10 -2 -33 -2h-133v-257q0 -21 -14.5 -31.5t-36.5 -10.5q-21 0 -35.5 10.5t-14.5 31.5v600q0 42 16.5 58t60.5 16h178zM187 383h133q157 0 157 117
v14q0 116 -147 116h-143v-247z" />
    <glyph glyph-name="S" unicode="S" horiz-adv-x="617" vert-adv-y="1105" 
d="M315 726q114 0 187 -41q17 -9 22 -26.5t-5 -34.5q-20 -36 -57 -19q-62 31 -145 31q-67 0 -108 -29.5t-41 -72.5v-10q0 -45 33 -69t125 -44q130 -27 183 -74t53 -129v-14q0 -94 -67 -147.5t-189 -53.5q-131 0 -221 60q-18 11 -21.5 29.5t8.5 35.5q24 37 60 15
q82 -50 179 -50q72 0 111.5 29t39.5 76v11q0 50 -34.5 75.5t-127.5 45.5q-124 25 -177.5 68.5t-53.5 132.5v12q0 85 66 139t180 54z" />
    <glyph glyph-name="T" unicode="T" horiz-adv-x="578" vert-adv-y="1105" 
d="M531 715q17 0 26 -12.5t9 -30.5t-9 -30.5t-26 -12.5h-192v-588q0 -21 -14 -31.5t-36 -10.5q-21 0 -35.5 10.5t-14.5 31.5v588h-191q-36 0 -36 43t36 43h483z" />
    <glyph glyph-name="U" unicode="U" horiz-adv-x="692" vert-adv-y="1105" 
d="M126 720q21 0 35.5 -10.5t14.5 -31.5v-383q0 -112 40 -161t130 -49t130 49t40 161v383q0 21 14.5 31.5t35.5 10.5q22 0 36 -10.5t14 -31.5v-382q0 -163 -66 -233t-204 -70q-137 0 -203.5 70t-66.5 233v382q0 21 14 31.5t36 10.5z" />
    <glyph glyph-name="V" unicode="V" horiz-adv-x="682" vert-adv-y="1105" 
d="M607 716q45 -16 29 -59l-235 -613q-19 -45 -62 -45t-62 45l-231 612q-17 44 29 60q20 8 39.5 1.5t26.5 -27.5l200 -562l201 561q8 22 26.5 28.5t38.5 -1.5z" />
    <glyph glyph-name="W" unicode="W" horiz-adv-x="984" vert-adv-y="1105" 
d="M495 720q47 0 61 -48l147 -524l144 537q5 21 21 29.5t36 3.5q21 -4 30 -19t3 -36l-173 -616q-14 -48 -62 -48q-47 0 -61 49l-147 538l-151 -539q-14 -48 -62 -48t-62 49l-171 610q-12 48 35 60q51 11 61 -32l142 -539l147 525q12 48 62 48z" />
    <glyph glyph-name="X" unicode="X" horiz-adv-x="653" vert-adv-y="1105" 
d="M567 713q42 -26 16 -65l-191 -280l199 -294q27 -41 -14 -67q-17 -11 -37 -7.5t-32 21.5l-182 279l-186 -278q-11 -17 -30.5 -21.5t-35.5 5.5q-19 12 -23.5 29t7.5 36l208 298l-191 276q-13 20 -7.5 38t25.5 30q45 22 71 -18l170 -258l167 259q26 39 66 17z" />
    <glyph glyph-name="Y" unicode="Y" horiz-adv-x="632" vert-adv-y="1105" 
d="M560 714q44 -20 20 -62l-213 -363v-248q0 -21 -14 -31.5t-36 -10.5q-21 0 -35.5 10.5t-14.5 31.5v248l-213 362q-11 19 -5.5 35.5t24.5 26.5q17 10 36 6t30 -24l181 -314l175 313q22 40 65 20z" />
    <glyph glyph-name="Z" unicode="Z" horiz-adv-x="623" vert-adv-y="1105" 
d="M499 715q37 0 53 -13t16 -41q0 -23 -34 -67l-381 -503h401q36 0 36 -44q0 -43 -36 -43h-452q-40 0 -56.5 13t-16.5 43q0 26 43 82l368 486h-354q-36 0 -36 44q0 43 36 43h413z" />
    <glyph glyph-name="bracketleft" unicode="[" horiz-adv-x="391" vert-adv-y="1105" 
d="M319 796q17 0 26 -12.5t9 -30.5q0 -42 -35 -42h-134v-752h134q17 0 26 -12.5t9 -30.5t-9 -30.5t-26 -12.5h-157q-43 0 -59.5 16t-16.5 59v774q0 42 16.5 58t59.5 16h157z" />
    <glyph glyph-name="backslash" unicode="\" horiz-adv-x="956" vert-adv-y="1105" 
d="M484 720q43 0 55 -48l61 -253h129l62 267q5 21 20 28.5t34 3.5q20 -4 29.5 -18.5t4.5 -35.5l-63 -245h88q24 0 24 -30t-24 -30h-102l-78 -312q-13 -48 -55 -48q-44 0 -55 49l-75 311h-113l-78 -312q-13 -48 -56 -48q-44 0 -55 49l-79 311h-101q-24 0 -24 30t24 30h87
l-61 245q-6 21 3.5 35.5t30.5 18.5q19 5 34 -2.5t20 -29.5l62 -267h132l64 253q12 48 55 48zM441 419h83l-40 167zM297 150l53 209h-103zM666 150l49 209h-100z" />
    <glyph glyph-name="bracketright" unicode="]" horiz-adv-x="391" vert-adv-y="1105" 
d="M229 796q43 0 59.5 -16t16.5 -58v-774q0 -43 -16.5 -59t-59.5 -16h-157q-17 0 -26 12.5t-9 30.5t9 30.5t26 12.5h134v752h-134q-35 0 -35 43q0 18 9 30t26 12h157z" />
    <glyph glyph-name="asciicircum" unicode="^" horiz-adv-x="527" vert-adv-y="1105" 
d="M263 739q23 0 39 -11.5t31 -39.5l121 -224q19 -37 -17 -53q-39 -18 -57 16l-117 227l-117 -227q-16 -34 -56 -16q-37 16 -18 53l123 224q27 51 68 51z" />
    <glyph glyph-name="underscore" unicode="_" horiz-adv-x="502" vert-adv-y="1105" 
d="M471 -37q30 0 30 -37q0 -34 -30 -34h-440q-30 0 -30 34q0 37 30 37h440z" />
    <glyph glyph-name="grave" unicode="`" horiz-adv-x="330" vert-adv-y="1105" 
d="M109 765q14 13 34 12t32 -19l70 -102q17 -28 -9 -48q-26 -23 -52 5l-84 90q-13 16 -10 32.5t19 29.5z" />
    <glyph glyph-name="a" unicode="a" horiz-adv-x="562" vert-adv-y="1105" 
d="M279 541q95 0 152 -47t57 -128v-329q0 -18 -13 -28t-32 -10t-32 10t-13 28v38h-1q-14 -33 -58 -55q-46 -24 -104 -24q-86 0 -134.5 41t-48.5 115v13q0 71 47.5 112.5t151.5 41.5h139v25q0 58 -27 84.5t-86 26.5q-71 0 -134 -40q-33 -20 -56 15q-10 15 -7 31.5t18 26.5
q77 53 181 53zM254 242q-106 0 -106 -82v-4q0 -37 24.5 -57t70.5 -20q58 0 95 20q53 31 53 92v51h-137z" />
    <glyph glyph-name="b" unicode="b" horiz-adv-x="602" vert-adv-y="1105" 
d="M130 745q21 0 35.5 -10.5t14.5 -30.5v-240q23 38 67 57.5t90 19.5q212 0 212 -255v-34q0 -125 -58 -190.5t-160 -65.5q-53 0 -93 20t-60 54h-3v-31q0 -20 -13.5 -30t-33.5 -10t-33.5 10t-13.5 30v665q0 20 14.5 30.5t34.5 10.5zM320 455q-62 0 -102 -39t-40 -102v-115
q0 -47 41 -82.5t102 -35.5q63 0 97 43.5t34 130.5v27q0 88 -32 130.5t-100 42.5z" />
    <glyph glyph-name="c" unicode="c" horiz-adv-x="522" vert-adv-y="1105" 
d="M291 541q100 0 167 -44q16 -10 18.5 -27.5t-8.5 -33.5q-23 -33 -55 -13q-54 31 -122 31q-139 0 -139 -171v-30q0 -84 37 -127t104 -43q77 0 131 34q17 10 33 6t24 -20q10 -15 7.5 -33t-18.5 -28q-70 -46 -178 -46q-114 0 -176.5 65t-62.5 191v33q0 126 62.5 191t175.5 65
z" />
    <glyph glyph-name="d" unicode="d" horiz-adv-x="602" vert-adv-y="1105" 
d="M472 745q20 0 34.5 -10.5t14.5 -30.5v-665q0 -20 -13.5 -30t-33.5 -10t-33.5 10t-13.5 30v38h-2q-21 -39 -64.5 -60t-98.5 -21q-103 0 -156.5 65t-53.5 190v34q0 125 58.5 190.5t160.5 65.5q56 0 94.5 -19t56.5 -47v229q0 20 14.5 30.5t35.5 10.5zM284 455
q-134 0 -134 -174v-26q0 -89 31.5 -131.5t98.5 -42.5q61 0 102.5 40.5t41.5 103.5v115q0 46 -37.5 80.5t-102.5 34.5z" />
    <glyph glyph-name="e" unicode="e" horiz-adv-x="574" vert-adv-y="1105" 
d="M292 541q106 0 168.5 -63t62.5 -174v-2q0 -38 -16 -53.5t-55 -15.5h-302v-4q0 -72 38 -111t110 -39q81 0 144 33q16 8 31.5 3t22.5 -21q17 -38 -15 -56q-75 -42 -187 -42q-114 0 -177.5 65t-63.5 190v34q0 125 63.5 190.5t175.5 65.5zM290 458q-67 0 -103.5 -38.5
t-36.5 -105.5v-6h278v9q0 66 -35 103.5t-103 37.5z" />
    <glyph glyph-name="f" unicode="f" horiz-adv-x="389" vert-adv-y="1105" 
d="M280 746q37 0 66 -10q34 -11 27 -47q-8 -38 -41 -32q-21 5 -43 5q-75 0 -75 -83v-50h114q16 0 25 -11.5t9 -29.5q0 -40 -34 -40h-114v-408q0 -20 -14.5 -30.5t-35.5 -10.5q-20 0 -34.5 10.5t-14.5 30.5v408h-61q-34 0 -34 40q0 18 9 29.5t25 11.5h61v52q0 165 165 165z
" />
    <glyph glyph-name="g" unicode="g" horiz-adv-x="602" vert-adv-y="1105" 
d="M271 541q55 0 95.5 -19.5t58.5 -47.5h1v20q0 20 14 30t34 10t33.5 -10t13.5 -30v-475q0 -224 -241 -224q-91 0 -159 41q-16 9 -18.5 27t6.5 33q21 36 56 18q57 -33 115 -33q144 0 144 139v71h-2q-42 -81 -160 -81q-103 0 -156.5 64.5t-53.5 186.5v28q0 122 58.5 187
t160.5 65zM284 455q-134 0 -134 -170v-20q0 -87 31.5 -128.5t98.5 -41.5q61 0 102.5 40.5t41.5 103.5v101q0 46 -37.5 80.5t-102.5 34.5z" />
    <glyph glyph-name="h" unicode="h" horiz-adv-x="609" vert-adv-y="1105" 
d="M128 745q20 0 34 -10t14 -30v-246h1q20 36 65.5 59t100.5 23q90 0 140 -51t50 -144v-306q0 -20 -14.5 -30.5t-34.5 -10.5t-34.5 10.5t-14.5 30.5v283q0 70 -30.5 100.5t-89.5 30.5q-57 0 -96 -36.5t-39 -96.5v-281q0 -20 -14.5 -30.5t-35.5 -10.5q-20 0 -34.5 10.5
t-14.5 30.5v665q0 20 13.5 30t33.5 10z" />
    <glyph glyph-name="i" unicode="i" horiz-adv-x="266" vert-adv-y="1105" 
d="M133 732q28 0 47 -18.5t19 -44.5q0 -27 -19 -45.5t-47 -18.5t-47 18.5t-19 45.5q0 26 19 44.5t47 18.5zM133 534q21 0 35 -10.5t14 -30.5v-453q0 -20 -14 -30.5t-35 -10.5q-20 0 -34.5 10.5t-14.5 30.5v453q0 20 14.5 30.5t34.5 10.5z" />
    <glyph glyph-name="j" unicode="j" horiz-adv-x="281" vert-adv-y="1105" 
d="M148 732q28 0 46.5 -18.5t18.5 -44.5q0 -27 -18.5 -45.5t-46.5 -18.5t-47 18.5t-19 45.5q0 26 19 44.5t47 18.5zM148 534q21 0 35 -10.5t14 -30.5v-518q0 -92 -40.5 -132t-119.5 -40q-48 0 -82 16q-33 14 -20 52q12 36 45 25q25 -9 49 -9q38 0 54 19.5t16 67.5v519
q0 20 14.5 30.5t34.5 10.5z" />
    <glyph glyph-name="k" unicode="k" horiz-adv-x="564" vert-adv-y="1105" 
d="M130 745q21 0 35.5 -10.5t14.5 -30.5v-413l237 229q15 15 35 14t33 -15q14 -16 14 -34t-16 -31l-159 -145l188 -232q13 -17 10.5 -34.5t-17.5 -30.5q-16 -14 -35.5 -13t-32.5 17l-182 232l-75 -68v-140q0 -20 -14.5 -30.5t-35.5 -10.5q-20 0 -34.5 10.5t-14.5 30.5v664
q0 20 14.5 30.5t34.5 10.5z" />
    <glyph glyph-name="l" unicode="l" horiz-adv-x="261" vert-adv-y="1105" 
d="M130 745q21 0 35.5 -10.5t14.5 -31.5v-662q0 -21 -14.5 -31.5t-35.5 -10.5q-20 0 -34.5 11t-14.5 31v662q0 20 14.5 31t34.5 11z" />
    <glyph glyph-name="m" unicode="m" horiz-adv-x="913" vert-adv-y="1105" 
d="M330 541q56 0 96 -25t55 -66q58 91 172 91q84 0 134 -53.5t50 -144.5v-303q0 -20 -14.5 -30.5t-34.5 -10.5t-34.5 10.5t-14.5 30.5v282q0 131 -112 131q-53 0 -86 -34t-33 -92v-287q0 -20 -14 -30.5t-35 -10.5q-20 0 -34.5 10.5t-14.5 30.5v283q0 130 -112 130
q-55 0 -86.5 -35t-31.5 -88v-290q0 -20 -14.5 -30.5t-35.5 -10.5q-20 0 -34.5 10.5t-14.5 30.5v454q0 20 13.5 30t33.5 10t33.5 -10t13.5 -30v-41q46 88 155 88z" />
    <glyph glyph-name="n" unicode="n" horiz-adv-x="609" vert-adv-y="1105" 
d="M343 541q90 0 140 -51t50 -144v-306q0 -20 -14.5 -30.5t-34.5 -10.5t-34.5 10.5t-14.5 30.5v283q0 70 -30.5 100.5t-89.5 30.5q-57 0 -96 -36.5t-39 -96.5v-281q0 -20 -14.5 -30.5t-35.5 -10.5q-20 0 -34.5 10.5t-14.5 30.5v454q0 20 13.5 30t33.5 10t33.5 -10t13.5 -30
v-35h2q19 35 65 58.5t101 23.5z" />
    <glyph glyph-name="o" unicode="o" horiz-adv-x="598" vert-adv-y="1105" 
d="M299 541q116 0 181 -66t65 -190v-33q0 -124 -65 -190t-181 -66t-181 66t-65 190v33q0 124 65 190t181 66zM299 454q-147 0 -147 -172v-27q0 -172 147 -172q74 0 110.5 41.5t36.5 130.5v27q0 172 -147 172z" />
    <glyph glyph-name="p" unicode="p" horiz-adv-x="602" vert-adv-y="1105" 
d="M337 541q212 0 212 -255v-34q0 -125 -58 -190.5t-160 -65.5q-104 0 -151 69v-219q0 -20 -14.5 -30.5t-35.5 -10.5q-20 0 -34.5 10.5t-14.5 30.5v648q0 20 13.5 30t33.5 10t34 -10t14 -30v-35q24 40 68 61t93 21zM320 455q-62 0 -102 -39t-40 -102v-115q0 -47 41 -82.5
t102 -35.5q63 0 97 43.5t34 130.5v27q0 88 -32 130.5t-100 42.5z" />
    <glyph glyph-name="q" unicode="q" horiz-adv-x="602" vert-adv-y="1105" 
d="M271 541q55 0 95 -19t58 -47h1v19q0 20 14 30t35 10q20 0 33.5 -10t13.5 -30v-649q0 -19 -14.5 -29.5t-34.5 -10.5t-34 10.5t-14 29.5v232h-3q-42 -81 -159 -81q-103 0 -156.5 65t-53.5 190v34q0 125 58.5 190.5t160.5 65.5zM284 455q-134 0 -134 -174v-26
q0 -89 31.5 -131.5t98.5 -42.5q61 0 102.5 40.5t41.5 103.5v115q0 46 -37.5 80.5t-102.5 34.5z" />
    <glyph glyph-name="r" unicode="r" horiz-adv-x="423" vert-adv-y="1105" 
d="M325 541q34 0 56 -11q29 -14 21 -51q-5 -21 -18.5 -32.5t-31.5 -7.5q-37 7 -50 7q-55 0 -88.5 -41t-33.5 -103v-262q0 -20 -14.5 -30.5t-35.5 -10.5q-20 0 -34.5 10.5t-14.5 30.5v454q0 20 13.5 30t33.5 10t34 -10t14 -30v-53h2q19 43 57.5 71.5t89.5 28.5z" />
    <glyph glyph-name="s" unicode="s" horiz-adv-x="511" vert-adv-y="1105" 
d="M261 541q96 0 158 -35q38 -21 20 -59q-17 -34 -53 -17q-53 28 -117 28q-58 0 -86 -17.5t-28 -45.5v-2q0 -31 22.5 -45.5t95.5 -28.5q114 -22 155 -57t41 -108v-6q0 -66 -57 -109t-153 -43q-112 0 -193 48q-16 9 -19.5 26t5.5 32q8 17 24 22.5t33 -4.5q70 -40 150 -40
q56 0 83.5 18.5t27.5 50.5v2q0 34 -23 49.5t-108 31.5q-99 19 -140.5 55t-41.5 103v5q0 62 52.5 104t151.5 42z" />
    <glyph glyph-name="t" unicode="t" horiz-adv-x="401" vert-adv-y="1105" 
d="M163 674q21 0 35.5 -10.5t14.5 -31.5v-103h116q16 0 25 -11.5t9 -29.5q0 -40 -34 -40h-116v-286q0 -45 14 -63.5t47 -18.5q25 0 49 9q34 11 46 -25q13 -37 -20 -52q-35 -16 -82 -16q-81 0 -117 39.5t-36 126.5v286h-60q-34 0 -34 40q0 18 9 29.5t25 11.5h60v103
q0 20 14.5 31t34.5 11z" />
    <glyph glyph-name="u" unicode="u" horiz-adv-x="606" vert-adv-y="1105" 
d="M125 534q20 0 34.5 -10.5t14.5 -30.5v-281q0 -69 29.5 -99.5t86.5 -30.5t97 36.5t40 94.5v280q0 20 14 30.5t35 10.5q20 0 34.5 -10.5t14.5 -30.5v-454q0 -20 -13.5 -30t-33.5 -10t-33.5 10t-13.5 30v37h-2q-19 -35 -65 -58t-99 -23q-90 0 -139.5 51t-49.5 144v303
q0 20 14 30.5t35 10.5z" />
    <glyph glyph-name="v" unicode="v" horiz-adv-x="524" vert-adv-y="1105" 
d="M57 529q17 8 36.5 2.5t26.5 -26.5l144 -397h1l142 397q7 21 26 26.5t36 -2.5q19 -6 27.5 -21.5t0.5 -36.5l-164 -421q-20 -51 -71 -51q-50 0 -70 50l-165 422q-8 21 1.5 36.5t28.5 21.5z" />
    <glyph glyph-name="w" unicode="w" horiz-adv-x="777" vert-adv-y="1105" 
d="M391 534q46 0 58 -48l104 -382h3l94 393q11 46 58 35q46 -10 34 -57l-114 -423q-14 -53 -69 -53t-69 52l-99 352h-3l-99 -352q-13 -52 -69 -52q-55 0 -69 52l-115 422q-6 23 4 38.5t31 20.5q53 11 62 -37l91 -391h3l106 381q11 49 58 49z" />
    <glyph glyph-name="x" unicode="x" horiz-adv-x="521" vert-adv-y="1105" 
d="M69 523q15 13 35 11t33 -20l126 -175l126 174q13 19 32.5 21t33.5 -10q37 -28 10 -64l-143 -187l153 -197q28 -36 -9 -66q-14 -13 -35 -11t-33 20l-138 186l-139 -185q-14 -19 -33 -21t-33 10q-36 29 -10 64l156 199l-142 185q-27 37 10 66z" />
    <glyph glyph-name="y" unicode="y" horiz-adv-x="538" vert-adv-y="1105" 
d="M473 531q19 -6 28 -22t2 -35l-255 -649q-15 -39 -61 -21q-42 17 -26 55l60 146l-186 466q-8 20 1.5 36t28.5 22q49 18 63 -24l142 -388h1l140 388q7 20 26.5 26.5t35.5 -0.5z" />
    <glyph glyph-name="z" unicode="z" horiz-adv-x="500" vert-adv-y="1105" 
d="M387 529q36 0 51.5 -12.5t15.5 -39.5q0 -15 -6.5 -27.5t-27.5 -38.5l-265 -322h282q17 0 26 -12.5t9 -30.5q0 -42 -35 -42h-343q-65 0 -65 43q0 15 6.5 28t30.5 41l267 328h-253q-35 0 -35 42q0 43 35 43h307z" />
    <glyph glyph-name="braceleft" unicode="{" horiz-adv-x="451" vert-adv-y="1105" 
d="M379 796q17 0 26 -12.5t9 -30.5q0 -42 -35 -42h-62q-43 0 -57 -19.5t-14 -68.5v-157q0 -101 -89 -121q89 -20 89 -121v-183q0 -48 14 -65t57 -17h62q17 0 26 -12.5t9 -30.5t-9 -30.5t-26 -12.5h-76q-74 0 -115 34.5t-41 102.5v213q0 69 -77 77q-36 4 -36 45q0 40 36 45
q77 8 77 76v188q0 69 41 105.5t115 36.5h76z" />
    <glyph glyph-name="bar" unicode="|" horiz-adv-x="296" vert-adv-y="1105" 
d="M148 801q21 0 35 -10.5t14 -31.5v-849q0 -21 -14 -31.5t-35 -10.5t-34.5 10.5t-13.5 31.5v849q0 21 13.5 31.5t34.5 10.5z" />
    <glyph glyph-name="braceright" unicode="}" horiz-adv-x="451" vert-adv-y="1105" 
d="M148 796q74 0 114.5 -36t40.5 -106v-188q0 -68 78 -76q36 -5 36 -45q0 -41 -36 -45q-78 -8 -78 -77v-213q0 -68 -40.5 -102.5t-114.5 -34.5h-76q-17 0 -26 12.5t-9 30.5t9 30.5t26 12.5h62q43 0 57 17t14 65v183q0 101 89 121q-89 20 -89 121v157q0 49 -14 68.5t-57 19.5
h-62q-35 0 -35 42q0 18 9 30.5t26 12.5h76z" />
    <glyph glyph-name="asciitilde" unicode="~" horiz-adv-x="603" vert-adv-y="1105" 
d="M509 456q38 -9 31 -48q-12 -65 -50 -103t-95 -38q-32 0 -60 15t-45 33.5t-39 33.5t-43 15q-48 0 -63 -76q-9 -36 -50 -27q-38 7 -31 47q11 57 49 99.5t94 42.5q33 0 61.5 -15.5t45.5 -33.5t38 -33.5t41 -15.5q51 0 65 75q8 36 51 29z" />
    <glyph glyph-name="exclamdown" unicode="&#xa1;" horiz-adv-x="302" vert-adv-y="1105" 
d="M151 593q28 0 47 -18.5t19 -46.5t-19 -47t-47 -19t-47 19t-19 47t19 46.5t47 18.5zM151 376q18 0 30 -10.5t13 -32.5l11 -454q1 -24 -14 -36t-40 -12t-40 12t-14 36l12 454q0 22 12 32.5t30 10.5z" />
    <glyph glyph-name="currency" unicode="&#xa4;" horiz-adv-x="600" vert-adv-y="1105" 
d="M474 587q24 24 54 -4q28 -30 4 -54l-68 -67q32 -46 32 -105q0 -57 -32 -105l68 -67q24 -24 -4 -54q-30 -28 -54 -4l-67 68q-47 -33 -107 -33q-58 0 -108 33l-66 -68q-24 -24 -54 4q-28 30 -4 54l68 67q-32 48 -32 105t32 105l-68 67q-23 23 4 54q31 27 54 4l66 -68
q49 33 108 33q60 0 107 -33zM300 474q-48 0 -81 -34t-33 -83t33 -83t81 -34t81 34t33 83t-33 83t-81 34z" />
    <glyph glyph-name="section" unicode="&#xa7;" horiz-adv-x="556" vert-adv-y="1105" 
d="M294 726q92 0 152 -35q38 -21 19 -60q-17 -35 -53 -18q-54 28 -116 28q-57 0 -87 -23t-30 -61v-5q0 -41 32.5 -65.5t129.5 -48.5q95 -23 138 -64.5t43 -106.5v-11q0 -52 -28.5 -88.5t-76.5 -52.5q65 -42 65 -130v-11q0 -78 -55 -124.5t-158 -46.5q-101 0 -163 41
q-36 23 -19 61q9 16 23 20.5t32 -3.5q59 -33 125 -33q56 0 86 22.5t30 60.5v5q0 41 -32.5 66t-129.5 48q-95 23 -137.5 64.5t-42.5 106.5v11q0 52 28.5 88t75.5 53q-64 44 -64 130v12q0 78 54.5 124t158.5 46zM230 374q-43 -11 -66.5 -35t-23.5 -55v-6q0 -37 25.5 -61
t93.5 -41q46 -11 72 -21q92 25 92 90v6q0 37 -26 61t-94 41q-23 5 -73 21z" />
    <glyph glyph-name="dieresis" unicode="&#xa8;" horiz-adv-x="408" vert-adv-y="1105" 
d="M114 725q25 0 41.5 -16.5t16.5 -41.5t-16.5 -41.5t-41.5 -16.5t-42 16.5t-17 41.5t17 41.5t42 16.5zM294 725q25 0 41.5 -16.5t16.5 -41.5t-16.5 -41.5t-41.5 -16.5t-42 16.5t-17 41.5t17 41.5t42 16.5z" />
    <glyph glyph-name="copyright" unicode="&#xa9;" horiz-adv-x="850" vert-adv-y="1105" 
d="M424 724q165 0 265.5 -104t100.5 -261q0 -156 -101 -260.5t-265 -104.5q-163 0 -263.5 104.5t-100.5 260.5t100.5 260.5t263.5 104.5zM424 654q-127 0 -208 -82.5t-81 -212.5q0 -128 81.5 -211.5t207.5 -83.5q129 0 210 83.5t81 211.5q0 130 -81.5 212.5t-209.5 82.5z
M431 551q72 0 117 -31q11 -7 13.5 -20.5t-5.5 -24.5q-17 -24 -41 -11q-35 22 -84 22q-94 0 -94 -116v-21q0 -116 96 -116q53 0 89 24q28 15 43 -11q17 -29 -9 -46q-47 -31 -124 -31q-80 0 -124 45.5t-44 133.5v23q0 89 44 134.5t123 45.5z" />
    <glyph glyph-name="ordfeminine" unicode="&#xaa;" horiz-adv-x="458" vert-adv-y="1105" 
d="M231 750q79 0 126.5 -37.5t47.5 -105.5v-275q0 -15 -13 -23.5t-28 -8.5q-41 0 -41 32v28h-1q-13 -28 -46 -45q-34 -17 -84 -17q-67 0 -104.5 33.5t-37.5 95.5v17q0 60 39.5 93.5t119.5 33.5h108v17q0 46 -20.5 66t-66.5 20q-52 0 -109 -35q-30 -17 -47 16q-19 32 8 50
q67 45 149 45zM215 500q-44 0 -61.5 -16.5t-17.5 -48.5v-5q0 -28 19 -43t50 -15q42 0 72 16q40 21 40 69v43h-102z" />
    <glyph glyph-name="guillemotleft" unicode="&#xab;" vert-adv-y="1105" 
d="M603 653l-434 -300l439 -288l-34 -52l-480 318v45l473 328zM814 651l-436 -297l438 -286l-31 -51l-482 314v45l474 324z" />
    <glyph glyph-name="degree" unicode="&#xb0;" horiz-adv-x="312" vert-adv-y="1105" 
d="M156 746q55 0 89.5 -36t34.5 -88t-34.5 -88t-89.5 -36t-89.5 36t-34.5 88t34.5 88t89.5 36zM156 688q-28 0 -45.5 -19t-17.5 -47t17 -46.5t46 -18.5t46 18.5t17 46.5t-17.5 47t-45.5 19z" />
    <glyph glyph-name="plusminus" unicode="&#xb1;" horiz-adv-x="638" vert-adv-y="1105" 
d="M319 704q19 0 32 -9.5t13 -27.5v-161h177q33 0 33 -41q0 -17 -8.5 -29t-24.5 -12h-177v-168q0 -18 -13 -27.5t-32 -9.5q-18 0 -31.5 9.5t-13.5 27.5v168h-176q-16 0 -25 11.5t-9 29.5q0 41 34 41h176v161q0 18 13.5 27.5t31.5 9.5zM541 156q16 0 25 -12t9 -30t-9 -30
t-25 -12h-443q-16 0 -25 12t-9 30t9 30t25 12h443z" />
    <glyph glyph-name="uni00B2" unicode="&#xb2;" horiz-adv-x="400" vert-adv-y="1105" 
d="M201 826q68 0 103 -32.5t35 -83.5v-6q0 -61 -66 -130l-118 -123h174q29 0 29 -32q0 -14 -7.5 -23.5t-21.5 -9.5h-226q-50 0 -50 39q0 17 20 37l143 152q29 31 39 49.5t10 40.5v2q0 24 -16.5 37.5t-46.5 13.5q-46 0 -79 -44q-20 -25 -47 -6t-9 46q45 73 134 73z" />
    <glyph glyph-name="uni00B3" unicode="&#xb3;" horiz-adv-x="400" vert-adv-y="1105" 
d="M197 826q67 0 104.5 -31t37.5 -83v-4q0 -35 -20 -60.5t-51 -33.5q36 -5 62.5 -30.5t26.5 -67.5v-5q0 -58 -43.5 -93.5t-113.5 -35.5q-74 0 -124 35q-27 19 -10 48q19 28 47 11q41 -27 85 -27q40 0 62 17t22 46v5q0 62 -86 62h-34q-28 0 -28 33q0 32 28 32h29q75 0 75 62
v2q0 52 -69 52q-41 0 -71 -32q-21 -22 -45 2q-20 20 -1 44q42 52 117 52z" />
    <glyph glyph-name="acute" unicode="&#xb4;" horiz-adv-x="330" vert-adv-y="1105" 
d="M226 765q16 -13 19 -29.5t-10 -32.5l-84 -90q-26 -28 -52 -5q-26 21 -8 48l69 102q12 18 32 19t34 -12z" />
    <glyph glyph-name="paragraph" unicode="&#xb6;" horiz-adv-x="617" vert-adv-y="1105" 
d="M454 715q44 0 60.5 -16t16.5 -58v-747q0 -33 -41 -33q-16 0 -27 8.5t-11 24.5v737h-74v-737q0 -33 -40 -33q-16 0 -27 8.5t-11 24.5v446h-46q-90 0 -149 49t-59 137q0 85 55 137t173 52h180z" />
    <glyph glyph-name="cedilla" unicode="&#xb8;" horiz-adv-x="330" vert-adv-y="1105" 
d="M166 43v-52q99 -6 99 -73q0 -94 -159 -103q-13 -1 -20.5 6.5t-7.5 19.5q-2 25 22 28q90 8 90 43q0 18 -19.5 25t-62.5 7v99h58z" />
    <glyph glyph-name="uni00B9" unicode="&#xb9;" horiz-adv-x="400" vert-adv-y="1105" 
d="M228 822q38 0 38 -33v-372q0 -16 -10.5 -24.5t-26.5 -8.5t-26.5 8.5t-10.5 24.5v314l-76 -47q-14 -7 -27 -2.5t-20 16.5t-4 27t16 21l105 63q23 13 42 13z" />
    <glyph glyph-name="ordmasculine" unicode="&#xba;" horiz-adv-x="482" vert-adv-y="1105" 
d="M241 747q95 0 148 -54t53 -155v-29q0 -101 -53 -155.5t-148 -54.5t-147.5 54.5t-52.5 155.5v29q0 101 52.5 155t147.5 54zM241 669q-111 0 -111 -134v-24q0 -134 111 -134q112 0 112 134v24q0 134 -112 134z" />
    <glyph glyph-name="guillemotright" unicode="&#xbb;" vert-adv-y="1105" 
d="M816 376v-45l-480 -318l-34 52l439 288l-434 300l36 51zM608 376v-45l-482 -314l-31 51l438 286l-436 297l37 49z" />
    <glyph glyph-name="onequarter" unicode="&#xbc;" vert-adv-y="1105" 
d="M642 720q33 -16 18 -46l-334 -660q-8 -15 -23 -19t-29 3q-32 17 -17 47l334 660q8 15 23 19t28 -4zM218 722q38 0 38 -33v-372q0 -16 -10.5 -24.5t-26.5 -8.5t-26.5 8.5t-10.5 24.5v314l-76 -47q-14 -7 -27 -2.5t-20 16.5t-4 27t16 21l105 63q23 13 42 13zM771 427
q30 -20 11 -47l-160 -230h122v101q0 16 10.5 24.5t25.5 8.5q16 0 26.5 -8.5t10.5 -24.5v-101h35q28 0 28 -31t-28 -31h-35v-61q0 -32 -37 -32q-36 0 -36 32v61h-167q-46 0 -46 36q0 16 16 39l177 256q19 27 47 8z" />
    <glyph glyph-name="onehalf" unicode="&#xbd;" vert-adv-y="1105" 
d="M609 720q33 -16 18 -46l-335 -660q-8 -15 -23 -19t-28 3q-33 17 -18 47l335 660q17 33 51 15zM218 722q38 0 38 -33v-372q0 -16 -10.5 -24.5t-26.5 -8.5t-26.5 8.5t-10.5 24.5v314l-76 -47q-14 -7 -27 -2.5t-20 16.5t-4 27t16 21l105 63q23 13 42 13zM703 437
q68 0 103.5 -32.5t35.5 -83.5v-7q0 -61 -67 -129l-117 -123h174q29 0 29 -33q0 -14 -7.5 -23.5t-21.5 -9.5h-226q-50 0 -50 40q0 16 20 37l143 152q29 32 39 50t10 40v2q-2 51 -64 51q-46 0 -79 -44q-19 -26 -46 -6q-28 17 -10 46q46 73 134 73z" />
    <glyph glyph-name="threequarters" unicode="&#xbe;" vert-adv-y="1105" 
d="M667 720q33 -16 18 -46l-334 -660q-8 -15 -23 -19t-29 3q-32 17 -17 47l334 660q8 15 23 19t28 -4zM189 726q67 0 105 -31t38 -83v-4q0 -34 -20.5 -60t-50.5 -34q35 -5 61.5 -30.5t26.5 -67.5v-5q0 -58 -43 -93.5t-114 -35.5q-74 0 -124 35q-27 20 -9 48q19 28 46 11
q43 -27 86 -27q39 0 61 17t22 46v5q0 62 -86 62h-33q-29 0 -29 33q0 32 29 32h29q34 0 54.5 15.5t20.5 46.5v2q-2 52 -70 52q-41 0 -70 -32q-22 -22 -46 2q-20 20 -1 44q42 52 117 52zM771 427q30 -20 11 -47l-160 -230h122v101q0 16 10.5 24.5t25.5 8.5q16 0 26.5 -8.5
t10.5 -24.5v-101h35q28 0 28 -31t-28 -31h-35v-61q0 -32 -37 -32q-36 0 -36 32v61h-167q-46 0 -46 36q0 16 16 39l177 256q19 27 47 8z" />
    <glyph glyph-name="questiondown" unicode="&#xbf;" horiz-adv-x="540" vert-adv-y="1105" 
d="M292 593q28 0 47 -18.5t19 -46.5t-19 -47t-47 -19t-47 19t-19 47t19 46.5t47 18.5zM292 387q20 0 34 -10.5t14 -30.5q0 -56 -17 -94t-73 -87q-57 -50 -76 -76t-19 -58v-12q0 -44 31.5 -71.5t92.5 -27.5q73 0 139 52q32 24 58 -9q12 -14 11.5 -32t-15.5 -30
q-81 -70 -195 -70q-102 0 -162 50t-60 133v17q0 47 25 84.5t87 93.5q49 44 63.5 72.5t14.5 66.5q0 18 13.5 28.5t33.5 10.5z" />
    <glyph glyph-name="AE" unicode="&#xc6;" horiz-adv-x="976" vert-adv-y="1105" 
d="M876 715q35 0 35 -42t-35 -42h-309v-221h289q16 0 25 -11.5t9 -29.5t-9 -30t-25 -12h-289v-239h316q35 0 35 -42t-35 -42h-340q-43 0 -59.5 16t-16.5 58v132h-242l-123 -191q-12 -18 -31 -20.5t-36 8.5q-16 11 -20 29t7 36l395 595q19 29 38.5 38.5t67.5 9.5h353z
M467 604q-30 -65 -74 -134l-113 -176h187v310z" />
    <glyph glyph-name="Eth" unicode="&#xd0;" horiz-adv-x="706" vert-adv-y="1105" 
d="M341 715q154 0 230.5 -80t76.5 -247v-57q0 -327 -307 -327h-163q-43 0 -59.5 16t-16.5 58v260h-64q-27 0 -27 33q0 35 27 35h64v235q0 42 16.5 58t59.5 16h163zM201 406h187q27 0 27 -35q0 -13 -7 -23t-20 -10h-187v-248h128q113 0 165.5 59t52.5 189v41q0 133 -51 191.5
t-168 58.5h-127v-223z" />
    <glyph glyph-name="multiply" unicode="&#xd7;" horiz-adv-x="605" vert-adv-y="1105" 
d="M457 581q12 12 26 11t27 -14q13 -12 15.5 -26.5t-8.5 -26.5l-159 -168l158 -167q22 -26 -6 -54q-13 -12 -27 -13t-26 10l-154 164l-154 -164q-24 -24 -53 3q-30 28 -7 54l157 167l-157 168q-24 24 6 53q13 13 27 14t26 -11l155 -164z" />
    <glyph glyph-name="Oslash" unicode="&#xd8;" horiz-adv-x="725" vert-adv-y="1105" 
d="M363 726q129 0 203 -68l43 52q21 25 49 6q27 -22 5 -48l-53 -64q49 -84 49 -221v-47q0 -343 -296 -343q-132 0 -205 67l-43 -52q-21 -25 -48 -5q-28 22 -5 48l52 64q-48 81 -48 221v47q0 343 297 343zM363 635q-101 0 -149 -61.5t-48 -198.5v-31q0 -86 21 -143l315 381
q-47 53 -139 53zM222 136q45 -51 141 -51q101 0 148.5 61t47.5 198v31q0 86 -21 143z" />
    <glyph glyph-name="Thorn" unicode="&#xde;" horiz-adv-x="626" vert-adv-y="1105" 
d="M136 720q22 0 36.5 -10.5t14.5 -31.5v-90h157q120 0 179.5 -56t59.5 -151v-21q0 -95 -63.5 -156t-175.5 -61h-157v-102q0 -21 -14.5 -31.5t-36.5 -10.5q-21 0 -35.5 10.5t-14.5 31.5v637q0 21 14.5 31.5t35.5 10.5zM187 229h140q156 0 156 133v18q0 122 -145 122h-151
v-273z" />
    <glyph glyph-name="germandbls" unicode="&#xdf;" horiz-adv-x="605" vert-adv-y="1105" 
d="M302 756q100 0 148 -39t48 -96v-11q0 -33 -15 -61t-37 -47t-44 -35.5t-37 -35t-15 -37.5v-6q0 -25 17.5 -42.5t63.5 -39.5q65 -30 93.5 -63t28.5 -87v-11q0 -64 -47.5 -106.5t-128.5 -42.5q-77 0 -136 37q-15 10 -17 26.5t8 31.5q21 35 55 16q44 -29 92 -29q79 0 79 69v7
q0 27 -15.5 44.5t-53.5 35.5q-68 32 -101.5 66.5t-33.5 85.5v9q0 29 15 54t36 43t42.5 35t36.5 38t15 45v7q0 56 -96 56q-123 0 -123 -139v-493q0 -21 -14.5 -31.5t-35.5 -10.5q-20 0 -34.5 11t-14.5 31v512q0 100 62 151.5t159 51.5z" />
    <glyph glyph-name="ae" unicode="&#xe6;" horiz-adv-x="902" vert-adv-y="1105" 
d="M278 541q117 0 169 -75q59 75 173 75q106 0 168.5 -63.5t62.5 -173.5v-2q0 -38 -15.5 -53.5t-55.5 -15.5h-299v-27q0 -61 40 -94t106 -33q79 0 144 33q16 8 31.5 3t22.5 -21q17 -38 -16 -56q-75 -42 -185 -42q-144 0 -199 100q-10 -23 -35.5 -45.5t-53.5 -34.5
q-47 -20 -104 -20q-85 0 -132.5 41t-47.5 115v13q0 154 197 154h134v27q0 57 -25 83t-82 26q-67 0 -133 -40q-33 -20 -56 15q-10 15 -7 31.5t18 26.5q79 53 180 53zM619 458q-61 0 -99.5 -32t-38.5 -89v-29h275v9q0 67 -34.5 104t-102.5 37zM251 242q-102 0 -102 -82v-4
q0 -77 91 -77q53 0 91 20q53 30 53 90v53h-133z" />
    <glyph glyph-name="eth" unicode="&#xf0;" horiz-adv-x="608" vert-adv-y="1105" 
d="M221 755q60 -30 108 -65l97 41q28 11 38 -16q12 -30 -12 -41l-66 -27q78 -69 118.5 -155t40.5 -217v-32q0 -121 -65 -184t-181 -63t-181 63t-65 184v31q0 120 65 183.5t181 63.5q68 0 105 -32q-22 71 -92 127l-125 -52q-25 -13 -38 16q-12 29 13 40l91 38q-27 17 -68 38
q-26 13 -11 45q15 28 47 14zM299 435q-147 0 -147 -164v-25q0 -164 147 -164t147 164v25q0 164 -147 164z" />
    <glyph glyph-name="divide" unicode="&#xf7;" horiz-adv-x="599" vert-adv-y="1105" 
d="M301 615q27 0 45 -18.5t18 -44.5q0 -27 -18 -45.5t-45 -18.5t-45.5 18.5t-18.5 45.5q0 26 18.5 44.5t45.5 18.5zM524 400q34 0 34 -42q0 -18 -9 -30t-25 -12h-445q-35 0 -35 42t35 42h445zM301 228q27 0 45 -18.5t18 -44.5q0 -27 -18 -45.5t-45 -18.5t-45.5 18.5
t-18.5 45.5q0 26 18.5 44.5t45.5 18.5z" />
    <glyph glyph-name="oslash" unicode="&#xf8;" horiz-adv-x="605" vert-adv-y="1105" 
d="M301 541q102 0 163 -50l38 42q18 18 40 -2q20 -20 4 -39l-42 -45q43 -61 43 -162v-33q0 -124 -65 -190t-181 -66q-103 0 -165 51l-36 -40q-18 -20 -40 2q-21 19 -4 38l40 44q-41 63 -41 161v33q0 124 65 190t181 66zM301 454q-147 0 -147 -172v-27q0 -52 14 -89l233 256
q-36 32 -100 32zM200 115q35 -32 101 -32q147 0 147 172v27q0 55 -16 90z" />
    <glyph glyph-name="thorn" unicode="&#xfe;" horiz-adv-x="602" vert-adv-y="1105" 
d="M130 745q21 0 35.5 -10.5t14.5 -30.5v-240q23 38 67 57.5t90 19.5q212 0 212 -255v-34q0 -125 -58 -190.5t-160 -65.5q-104 0 -151 69v-219q0 -20 -14.5 -30.5t-35.5 -10.5q-20 0 -34.5 10.5t-14.5 30.5v858q0 20 14.5 30.5t34.5 10.5zM320 455q-62 0 -102 -39t-40 -102
v-115q0 -47 41 -82.5t102 -35.5q63 0 97 43.5t34 130.5v27q0 88 -32 130.5t-100 42.5z" />
    <glyph glyph-name="dcroat" unicode="&#x111;" horiz-adv-x="613" vert-adv-y="1105" 
d="M472 745q20 0 34.5 -10.5t14.5 -30.5v-41h52q24 0 24 -30q0 -29 -24 -29h-52v-565q0 -20 -13.5 -30t-33.5 -10t-33.5 10t-13.5 30v38h-2q-21 -39 -64.5 -60t-98.5 -21q-103 0 -156.5 65t-53.5 190v34q0 125 58.5 190.5t160.5 65.5q56 0 94.5 -19t56.5 -47v129h-130
q-24 0 -24 29q0 30 24 30h130v41q0 20 14.5 30.5t35.5 10.5zM284 455q-134 0 -134 -174v-26q0 -89 31.5 -131.5t98.5 -42.5q61 0 102.5 40.5t41.5 103.5v115q0 46 -37.5 80.5t-102.5 34.5z" />
    <glyph glyph-name="Hbar" unicode="&#x126;" horiz-adv-x="709" vert-adv-y="1105" 
d="M138 720q21 0 35.5 -11t14.5 -31v-102h335v102q0 20 14.5 31t35.5 11t35.5 -11t14.5 -31v-102h48q27 0 27 -34q0 -33 -27 -33h-48v-468q0 -20 -14.5 -31t-35.5 -11t-35.5 11t-14.5 31v270h-335v-270q0 -20 -14.5 -31t-35.5 -11t-35.5 11t-14.5 31v468h-50q-27 0 -27 33
q0 34 27 34h50v102q0 20 14.5 31t35.5 11zM188 394h335v115h-335v-115z" />
    <glyph glyph-name="hbar" unicode="&#x127;" horiz-adv-x="619" vert-adv-y="1105" 
d="M138 745q20 0 34 -10t14 -30v-42h135q24 0 24 -30q0 -29 -24 -29h-135v-145h1q20 36 65.5 59t100.5 23q90 0 140 -51t50 -144v-306q0 -20 -14.5 -30.5t-34.5 -10.5t-34.5 10.5t-14.5 30.5v283q0 70 -30.5 100.5t-89.5 30.5q-57 0 -96 -36.5t-39 -96.5v-281
q0 -20 -14.5 -30.5t-35.5 -10.5q-20 0 -34.5 10.5t-14.5 30.5v564h-52q-24 0 -24 29q0 30 24 30h52v42q0 20 13.5 30t33.5 10z" />
    <glyph glyph-name="dotlessi" unicode="&#x131;" horiz-adv-x="261" vert-adv-y="1105" 
d="M130 534q21 0 35.5 -10.5t14.5 -30.5v-453q0 -20 -14.5 -30.5t-35.5 -10.5q-20 0 -34.5 10.5t-14.5 30.5v453q0 20 14.5 30.5t34.5 10.5z" />
    <glyph glyph-name="IJ" unicode="&#x132;" horiz-adv-x="745" vert-adv-y="1105" 
d="M136 720q22 0 36.5 -10.5t14.5 -31.5v-637q0 -21 -14.5 -31.5t-36.5 -10.5q-21 0 -35.5 10.5t-14.5 31.5v637q0 21 14.5 31.5t35.5 10.5zM609 720q22 0 36 -10.5t14 -31.5v-477q0 -207 -208 -207q-86 0 -144 40q-15 9 -17.5 27t7.5 34q21 36 58 17q46 -27 95 -27
q56 0 82.5 32.5t26.5 105.5v455q0 21 14.5 31.5t35.5 10.5z" />
    <glyph glyph-name="ij" unicode="&#x133;" horiz-adv-x="506" vert-adv-y="1105" 
d="M133 732q28 0 47 -18.5t19 -44.5q0 -27 -19 -45.5t-47 -18.5t-47 18.5t-19 45.5q0 26 19 44.5t47 18.5zM373 732q28 0 47 -18.5t19 -44.5q0 -27 -19 -45.5t-47 -18.5t-47 18.5t-19 45.5q0 26 19 44.5t47 18.5zM133 534q21 0 35 -10.5t14 -30.5v-453q0 -20 -14 -30.5
t-35 -10.5q-20 0 -34.5 10.5t-14.5 30.5v453q0 20 14.5 30.5t34.5 10.5zM373 534q21 0 35 -10.5t14 -30.5v-518q0 -92 -40.5 -132t-119.5 -40q-47 0 -82 16q-33 14 -20 52q12 36 46 25q24 -9 48 -9q38 0 54 19.5t16 67.5v519q0 20 14.5 30.5t34.5 10.5z" />
    <glyph glyph-name="kgreenlandic" unicode="&#x138;" horiz-adv-x="564" vert-adv-y="1105" 
d="M130 534q21 0 35.5 -10.5t14.5 -30.5v-202l237 229q15 15 35 14t33 -15q14 -16 14 -34t-16 -31l-159 -145l188 -232q13 -17 10.5 -34.5t-17.5 -30.5q-16 -14 -35.5 -13t-32.5 17l-182 232l-75 -68v-140q0 -20 -14.5 -30.5t-35.5 -10.5q-20 0 -34.5 10.5t-14.5 30.5v453
q0 20 14.5 30.5t34.5 10.5z" />
    <glyph glyph-name="Ldot" unicode="&#x13f;" horiz-adv-x="555" vert-adv-y="1105" 
d="M136 720q22 0 36.5 -10.5t14.5 -31.5v-588h313q17 0 26 -12.5t9 -30.5t-9 -30.5t-26 -12.5h-337q-44 0 -60.5 16t-16.5 58v600q0 21 14.5 31.5t35.5 10.5zM422 463q28 0 47.5 -19.5t19.5 -48.5t-19.5 -48t-47.5 -19q-29 0 -48.5 19t-19.5 48t19.5 48.5t48.5 19.5z" />
    <glyph glyph-name="ldot" unicode="&#x140;" horiz-adv-x="447" vert-adv-y="1105" 
d="M130 745q21 0 35.5 -10.5t14.5 -31.5v-662q0 -21 -14.5 -31.5t-35.5 -10.5q-20 0 -34.5 11t-14.5 31v662q0 20 14.5 31t34.5 11zM334 443q29 0 48.5 -19.5t19.5 -48.5q0 -28 -19.5 -47.5t-48.5 -19.5t-48.5 19t-19.5 48t19.5 48.5t48.5 19.5z" />
    <glyph glyph-name="Lslash" unicode="&#x141;" horiz-adv-x="599" vert-adv-y="1105" 
d="M181 720q22 0 36 -10.5t14 -31.5v-277l151 87q25 15 42 -14q7 -11 4.5 -24.5t-13.5 -19.5l-184 -106v-234h314q17 0 26 -12.5t9 -30.5t-9 -30.5t-26 -12.5h-338q-43 0 -59.5 16t-16.5 58v189l-69 -40q-25 -16 -42 14q-7 11 -4.5 24.5t13.5 19.5l102 59v334
q0 21 14.5 31.5t35.5 10.5z" />
    <glyph glyph-name="lslash" unicode="&#x142;" horiz-adv-x="352" vert-adv-y="1105" 
d="M176 745q21 0 35.5 -10.5t14.5 -31.5v-263l63 37q23 12 38 -14q14 -26 -8 -39l-93 -53v-330q0 -21 -14.5 -31.5t-35.5 -10.5q-20 0 -34.5 11t-14.5 31v273l-65 -36q-23 -15 -37 13q-14 26 7 39l95 54v319q0 20 14.5 31t34.5 11z" />
    <glyph glyph-name="napostrophe" unicode="&#x149;" horiz-adv-x="705" vert-adv-y="1105" 
d="M118 732q22 -4 32 -19t3 -37l-50 -153q-11 -33 -48 -26q-34 7 -28 40l29 159q4 22 21.5 31t40.5 5zM439 541q90 0 140 -51t50 -144v-306q0 -20 -14 -30.5t-35 -10.5q-20 0 -34.5 10.5t-14.5 30.5v283q0 70 -30.5 100.5t-89.5 30.5q-56 0 -95.5 -36.5t-39.5 -96.5v-281
q0 -20 -14.5 -30.5t-34.5 -10.5t-35 10.5t-15 30.5v454q0 20 14 30t34 10t33.5 -10t13.5 -30v-35h1q20 35 65.5 58.5t100.5 23.5z" />
    <glyph glyph-name="Eng" unicode="&#x14a;" horiz-adv-x="703" vert-adv-y="1105" 
d="M577 720q20 0 33.5 -10t13.5 -30v-705q0 -92 -41 -132t-120 -40q-47 0 -82 16q-32 14 -20 52q13 36 46 25q24 -9 49 -9q39 0 57 17t18 59v16l-310 518q-28 48 -41 96v-554q0 -20 -13.5 -30t-33.5 -10t-33.5 10t-13.5 30v605q0 41 15.5 57t54.5 16q29 0 46 -14t45 -62
l242 -411q26 -45 42 -96v546q0 20 13 30t33 10z" />
    <glyph glyph-name="eng" unicode="&#x14b;" horiz-adv-x="583" vert-adv-y="1105" 
d="M343 541q90 0 140 -51t50 -144v-371q0 -92 -40.5 -132t-119.5 -40q-48 0 -82 16q-33 14 -20 52q12 36 45 25q26 -9 49 -9q38 0 54 19.5t16 67.5v349q0 70 -30.5 100.5t-89.5 30.5q-57 0 -96 -36.5t-39 -96.5v-281q0 -20 -14.5 -30.5t-35.5 -10.5q-20 0 -34.5 10.5
t-14.5 30.5v454q0 20 13.5 30t33.5 10t33.5 -10t13.5 -30v-35h2q19 35 65 58.5t101 23.5z" />
    <glyph glyph-name="OE" unicode="&#x152;" horiz-adv-x="990" vert-adv-y="1105" 
d="M890 715q35 0 35 -42t-35 -42h-310v-221h290q16 0 25 -11.5t9 -29.5t-9 -30t-25 -12h-290v-239h317q35 0 35 -42t-35 -42h-541q-297 0 -297 332v47q0 332 297 332h534zM356 624q-101 0 -148.5 -58t-47.5 -191v-31q0 -133 47.5 -191t148.5 -58h125v529h-125z" />
    <glyph glyph-name="oe" unicode="&#x153;" horiz-adv-x="942" vert-adv-y="1105" 
d="M288 541q130 0 187 -93q27 43 76 68t111 25q105 0 166.5 -62.5t61.5 -174.5v-2q0 -38 -15.5 -53.5t-55.5 -15.5h-295v-4q0 -72 37.5 -111t107.5 -39q77 0 141 33q16 8 31.5 3t22.5 -21q17 -38 -16 -56q-75 -42 -183 -42q-66 0 -116 25t-74 68q-26 -43 -75 -68t-112 -25
q-112 0 -173.5 65.5t-61.5 190.5v33q0 125 61.5 190.5t173.5 65.5zM661 458q-66 0 -101.5 -38t-35.5 -106v-6h271v9q0 67 -33.5 104t-100.5 37zM288 454q-69 0 -102.5 -41.5t-33.5 -130.5v-27q0 -89 33.5 -130.5t102.5 -41.5q68 0 101.5 41.5t33.5 130.5v27q0 88 -33.5 130
t-101.5 42z" />
    <glyph glyph-name="Tbar" unicode="&#x166;" horiz-adv-x="570" vert-adv-y="1105" 
d="M531 715q17 0 26 -12.5t9 -30.5t-9 -30.5t-26 -12.5h-192v-230h121q28 0 28 -35q0 -14 -7.5 -23.5t-20.5 -9.5h-121v-290q0 -21 -14 -31.5t-36 -10.5q-21 0 -35.5 10.5t-14.5 31.5v290h-117q-13 0 -20 9.5t-7 23.5q0 35 27 35h117v230h-191q-36 0 -36 43t36 43h483z" />
    <glyph glyph-name="tbar" unicode="&#x167;" horiz-adv-x="401" vert-adv-y="1105" 
d="M163 674q21 0 35.5 -10.5t14.5 -31.5v-103h116q16 0 25 -11.5t9 -29.5q0 -40 -34 -40h-116v-107h106q23 0 23 -30q0 -12 -6 -20.5t-17 -8.5h-106v-120q0 -45 14 -63.5t47 -18.5q25 0 49 9q34 11 46 -25q13 -37 -20 -52q-35 -16 -82 -16q-81 0 -117 39.5t-36 126.5v120
h-60q-23 0 -23 29q0 30 23 30h60v107h-60q-34 0 -34 40q0 18 9 29.5t25 11.5h60v103q0 20 14.5 31t34.5 11z" />
    <glyph glyph-name="afii57929" unicode="&#x2bc;" vert-adv-y="1105" 
 />
    <glyph glyph-name="caron" unicode="&#x2c7;" horiz-adv-x="600" vert-adv-y="1105" 
d="M190 756q23 17 42 -4l68 -75l68 75q18 20 42 4q10 -7 12.5 -19t-3.5 -21l-62 -81q-22 -31 -57 -31t-57 31l-62 82q-6 9 -3.5 20.5t12.5 18.5z" />
    <glyph glyph-name="breve" unicode="&#x2d8;" horiz-adv-x="600" vert-adv-y="1105" 
d="M407 750q31 -8 23 -37q-8 -38 -42 -66t-88 -28t-88 28t-42 66q-8 29 23 37q29 9 39 -17q16 -50 68 -50t68 50q10 26 39 17z" />
    <glyph glyph-name="dotaccent" unicode="&#x2d9;" horiz-adv-x="330" vert-adv-y="1105" 
d="M165 753q29 0 48.5 -19t19.5 -48t-19.5 -48.5t-48.5 -19.5q-28 0 -47.5 19.5t-19.5 48.5q0 28 19 47.5t48 19.5z" />
    <glyph glyph-name="ring" unicode="&#x2da;" horiz-adv-x="330" vert-adv-y="1105" 
d="M164 781q44 0 71.5 -27.5t27.5 -68.5q0 -39 -28 -66.5t-71 -27.5q-41 0 -69 27.5t-28 66.5q0 41 27.5 68.5t69.5 27.5zM164 734q-20 0 -33 -14t-13 -35t13 -33.5t33 -12.5q21 0 34.5 12.5t13.5 33.5t-13.5 35t-34.5 14z" />
    <glyph glyph-name="ogonek" unicode="&#x2db;" horiz-adv-x="330" vert-adv-y="1105" 
d="M235 24q-78 -60 -78 -108q0 -39 45 -39q16 0 24 2q22 3 27 -22q5 -27 -18 -36q-26 -7 -51 -6q-48 2 -78 26.5t-30 64.5q0 38 27.5 69.5t62.5 48.5h69z" />
    <glyph glyph-name="tilde" unicode="&#x2dc;" horiz-adv-x="600" vert-adv-y="1105" 
d="M427 745q28 -7 20 -40q-10 -33 -34.5 -54t-57.5 -21q-24 0 -60 18t-49 18q-23 0 -33 -23q-10 -24 -40 -18q-29 7 -19 40q9 33 34 54t58 21q24 0 60 -18t49 -18q22 0 32 24q11 23 40 17z" />
    <glyph glyph-name="hungarumlaut" unicode="&#x2dd;" horiz-adv-x="600" vert-adv-y="1105" 
d="M249 764q21 -5 30 -18.5t0 -32.5l-40 -82q-14 -30 -51 -23q-15 4 -22 15t-2 25l29 86q11 37 56 30zM403 764q21 -5 30 -18.5t0 -32.5l-40 -82q-14 -30 -51 -23q-15 4 -22 15t-2 25l29 86q11 37 56 30z" />
    <glyph glyph-name="Alpha" unicode="&#x391;" horiz-adv-x="675" vert-adv-y="1105" 
d="M337 720q44 0 61 -45l237 -611q8 -21 -0.5 -38t-27.5 -23q-51 -15 -67 28l-66 179h-277l-68 -182q-14 -42 -63 -25q-43 16 -27 58l238 614q17 45 60 45zM336 597q-17 -57 -44 -130l-65 -173h217l-64 173q-30 83 -44 130z" />
    <glyph glyph-name="Beta" unicode="&#x392;" horiz-adv-x="650" vert-adv-y="1105" 
d="M348 715q114 0 169.5 -43.5t55.5 -133.5v-14q0 -118 -115 -146q148 -21 148 -165v-18q0 -92 -56 -141.5t-170 -49.5h-217q-44 0 -60.5 16t-16.5 58v563q0 42 16.5 58t60.5 16h185zM186 416h133q84 0 118.5 23.5t34.5 82.5v11q0 53 -36.5 75.5t-122.5 22.5h-127v-215z
M186 88h151q89 0 128 25t39 91v15q0 60 -41 87.5t-142 27.5h-135v-246z" />
    <glyph glyph-name="Gamma" unicode="&#x393;" horiz-adv-x="555" vert-adv-y="1105" 
d="M507 715q17 0 26 -12.5t9 -30.5t-9 -30.5t-26 -12.5h-320v-588q0 -21 -14.5 -31.5t-36.5 -10.5q-21 0 -35.5 10.5t-14.5 31.5v600q0 42 16.5 58t60.5 16h344z" />
    <glyph glyph-name="uni0394" unicode="&#x394;" horiz-adv-x="671" vert-adv-y="1105" 
d="M338 725q44 0 61 -46l226 -594q19 -48 -10 -70q-5 -4 -12.5 -6.5t-19 -3.5t-18 -1h-22h-18.5h-379h-18.5h-22t-18 1t-19 3.5t-12.5 6.5q-29 22 -10 70l231 594q17 46 61 46zM150 91h368l-182 509z" />
    <glyph glyph-name="Epsilon" unicode="&#x395;" horiz-adv-x="607" vert-adv-y="1105" 
d="M506 715q35 0 35 -42t-35 -42h-320v-221h300q16 0 25 -11.5t9 -29.5t-9 -30t-25 -12h-300v-239h327q35 0 35 -42t-35 -42h-350q-44 0 -60.5 16t-16.5 58v563q0 42 16.5 58t60.5 16h343z" />
    <glyph glyph-name="Zeta" unicode="&#x396;" horiz-adv-x="623" vert-adv-y="1105" 
d="M499 715q37 0 53 -13t16 -41q0 -23 -34 -67l-381 -503h401q36 0 36 -44q0 -43 -36 -43h-452q-40 0 -56.5 13t-16.5 43q0 26 43 82l368 486h-354q-36 0 -36 44q0 43 36 43h413z" />
    <glyph glyph-name="Eta" unicode="&#x397;" horiz-adv-x="708" vert-adv-y="1105" 
d="M136 720q22 0 36.5 -10.5t14.5 -31.5v-260h335v260q0 21 14 31.5t35 10.5q22 0 36.5 -10.5t14.5 -31.5v-637q0 -21 -14.5 -31.5t-36.5 -10.5q-21 0 -35 10.5t-14 31.5v293h-335v-293q0 -21 -14.5 -31.5t-36.5 -10.5q-21 0 -35.5 10.5t-14.5 31.5v637q0 21 14.5 31.5
t35.5 10.5z" />
    <glyph glyph-name="Theta" unicode="&#x398;" horiz-adv-x="712" vert-adv-y="1105" 
d="M356 726q297 0 297 -343v-47q0 -343 -297 -343t-297 343v47q0 343 297 343zM356 635q-100 0 -148 -61.5t-48 -198.5v-31q0 -137 47.5 -198t148.5 -61t148.5 61t47.5 198v31q0 137 -48 198.5t-148 61.5zM492 397q30 0 30 -38q0 -16 -8 -26.5t-22 -10.5h-269
q-14 0 -22 10.5t-8 26.5q0 38 30 38h269z" />
    <glyph glyph-name="Iota" unicode="&#x399;" horiz-adv-x="273" vert-adv-y="1105" 
d="M136 720q22 0 36.5 -10.5t14.5 -31.5v-637q0 -21 -14.5 -31.5t-36.5 -10.5q-21 0 -35.5 10.5t-14.5 31.5v637q0 21 14.5 31.5t35.5 10.5z" />
    <glyph glyph-name="Kappa" unicode="&#x39a;" horiz-adv-x="659" vert-adv-y="1105" 
d="M136 720q22 0 36.5 -10.5t14.5 -31.5v-310l322 339q13 14 32 13t31 -15q14 -13 15.5 -30t-11.5 -32l-237 -244l261 -321q14 -18 11.5 -36t-19.5 -31q-15 -13 -34.5 -12t-32.5 18l-252 318l-86 -88v-206q0 -21 -14.5 -31.5t-36.5 -10.5q-21 0 -35.5 10.5t-14.5 31.5v637
q0 21 14.5 31.5t35.5 10.5z" />
    <glyph glyph-name="Lambda" unicode="&#x39b;" horiz-adv-x="670" vert-adv-y="1105" 
d="M336 720q43 0 62 -45l232 -611q8 -23 0 -39t-28 -22q-52 -15 -66 28l-157 436q-30 82 -44 130q-21 -70 -43 -130l-162 -439q-15 -42 -63 -25q-44 16 -28 58l236 614q19 45 61 45z" />
    <glyph glyph-name="Mu" unicode="&#x39c;" horiz-adv-x="862" vert-adv-y="1105" 
d="M168 717q33 0 50 -14t37 -62l178 -402l173 401q18 47 36 62t52 15h15q37 0 51.5 -15.5t14.5 -55.5v-607q0 -20 -13.5 -30t-33.5 -10t-34 10t-14 30v580q-18 -61 -39 -111l-154 -348q-9 -23 -21.5 -32t-32.5 -9q-24 0 -36.5 9.5t-22.5 33.5l-152 346q-22 50 -41 111v-580
q0 -20 -14 -30t-34 -10t-33.5 10t-13.5 30v607q0 40 15 55.5t52 15.5h15z" />
    <glyph glyph-name="Nu" unicode="&#x39d;" horiz-adv-x="710" vert-adv-y="1105" 
d="M576 720q20 0 34 -10t14 -30v-605q0 -41 -15.5 -57t-54.5 -16q-29 0 -46 13.5t-45 62.5l-243 419q-27 44 -39 90v-548q0 -20 -13.5 -30t-33.5 -10t-34 10t-14 30v605q0 41 15.5 57t54.5 16q29 0 46 -14t45 -62l242 -418q27 -46 40 -93v550q0 20 13.5 30t33.5 10z" />
    <glyph glyph-name="Xi" unicode="&#x39e;" horiz-adv-x="607" vert-adv-y="1105" 
d="M508 715q16 0 25 -12.5t9 -30.5t-9 -30.5t-25 -12.5h-413q-17 0 -26 12.5t-9 30.5t9 30.5t26 12.5h413zM474 411q35 0 35 -42q0 -18 -9 -30.5t-26 -12.5h-345q-17 0 -26 12.5t-9 30.5q0 42 35 42h345zM513 90q17 0 26 -12.5t9 -30.5t-9 -30.5t-26 -12.5h-420
q-34 0 -34 43t34 43h420z" />
    <glyph glyph-name="Omicron" unicode="&#x39f;" horiz-adv-x="712" vert-adv-y="1105" 
d="M356 726q297 0 297 -343v-47q0 -343 -297 -343t-297 343v47q0 343 297 343zM356 635q-100 0 -148 -61.5t-48 -198.5v-31q0 -137 47.5 -198t148.5 -61t148.5 61t47.5 198v31q0 137 -48 198.5t-148 61.5z" />
    <glyph glyph-name="Pi" unicode="&#x3a0;" horiz-adv-x="686" vert-adv-y="1105" 
d="M524 715q43 0 59.5 -16t16.5 -58v-600q0 -21 -14.5 -31.5t-35.5 -10.5q-22 0 -36 10.5t-14 31.5v590h-313v-590q0 -21 -14.5 -31.5t-36.5 -10.5q-21 0 -35.5 10.5t-14.5 31.5v600q0 42 16.5 58t60.5 16h361z" />
    <glyph glyph-name="Rho" unicode="&#x3a1;" horiz-adv-x="623" vert-adv-y="1105" 
d="M342 715q121 0 181.5 -54.5t60.5 -150.5v-15q0 -96 -62.5 -154.5t-180.5 -58.5h-154v-241q0 -21 -14.5 -31.5t-36.5 -10.5q-21 0 -35.5 10.5t-14.5 31.5v600q0 42 16.5 58t60.5 16h179zM187 367h142q79 0 117 31.5t38 97.5v12q0 122 -145 122h-152v-263z" />
    <glyph glyph-name="Sigma" unicode="&#x3a3;" horiz-adv-x="573" vert-adv-y="1105" 
d="M493 715q36 0 36 -43q0 -42 -36 -42h-315l164 -191q49 -57 49 -79q0 -23 -49 -80l-164 -191h320q17 0 26 -12.5t9 -30.5q0 -42 -35 -42h-375q-37 0 -53 13t-16 41q0 27 34 67l199 235l-199 234q-34 40 -34 67q0 28 16 41t53 13h370z" />
    <glyph glyph-name="Tau" unicode="&#x3a4;" horiz-adv-x="578" vert-adv-y="1105" 
d="M531 715q17 0 26 -12.5t9 -30.5t-9 -30.5t-26 -12.5h-192v-588q0 -21 -14 -31.5t-36 -10.5q-21 0 -35.5 10.5t-14.5 31.5v588h-191q-36 0 -36 43t36 43h483z" />
    <glyph glyph-name="Upsilon" unicode="&#x3a5;" horiz-adv-x="632" vert-adv-y="1105" 
d="M560 714q44 -20 20 -62l-213 -363v-248q0 -21 -14 -31.5t-36 -10.5q-21 0 -35.5 10.5t-14.5 31.5v248l-213 362q-11 19 -5.5 35.5t24.5 26.5q17 10 36 6t30 -24l181 -314l175 313q22 40 65 20z" />
    <glyph glyph-name="Phi" unicode="&#x3a6;" horiz-adv-x="759" vert-adv-y="1105" 
d="M378 743q20 0 33.5 -10.5t13.5 -31.5v-53q129 -10 202 -76.5t73 -181.5v-39q0 -116 -73 -182.5t-202 -75.5v-52q0 -21 -13.5 -31.5t-33.5 -10.5t-33 10.5t-13 31.5v52q-130 10 -203 76t-73 182v39q0 115 73 181t203 77v53q0 21 13 31.5t33 10.5zM332 560
q-176 -17 -176 -174v-32q0 -157 176 -174v380zM425 180q176 17 176 174v32q0 157 -176 174v-380z" />
    <glyph glyph-name="Chi" unicode="&#x3a7;" horiz-adv-x="653" vert-adv-y="1105" 
d="M567 713q42 -26 16 -65l-191 -280l199 -294q27 -41 -14 -67q-17 -11 -37 -7.5t-32 21.5l-182 279l-186 -278q-11 -17 -30.5 -21.5t-35.5 5.5q-41 26 -16 65l208 299l-191 275q-13 20 -7.5 38t25.5 30q19 10 39 5.5t32 -23.5l169 -260l168 261q26 39 66 17z" />
    <glyph glyph-name="Psi" unicode="&#x3a8;" horiz-adv-x="719" vert-adv-y="1105" 
d="M109 700q49 0 49 -42v-150q0 -115 36.5 -170.5t115.5 -66.5v387q0 21 14 31.5t35 10.5q22 0 35.5 -10.5t13.5 -31.5v-387q79 11 116 66.5t37 170.5v150q0 42 49 42q50 0 50 -42v-154q0 -157 -63 -235.5t-189 -89.5v-138q0 -21 -13.5 -31.5t-35.5 -10.5q-21 0 -35 10.5
t-14 31.5v138q-126 11 -188.5 89.5t-62.5 235.5v154q0 42 50 42z" />
    <glyph glyph-name="uni03A9" unicode="&#x3a9;" horiz-adv-x="729" vert-adv-y="1105" 
d="M364 726q141 0 213.5 -86t72.5 -257v-41q0 -194 -106 -254h136q35 0 35 -42q0 -18 -9 -30t-26 -12h-222q-41 0 -41 43q0 33 30 52q53 31 77.5 90.5t24.5 158.5v27q0 135 -44.5 197.5t-140.5 62.5q-95 0 -139.5 -62.5t-44.5 -197.5v-27q0 -99 24.5 -158.5t77.5 -90.5
q29 -18 29 -52q0 -19 -10 -31t-30 -12h-222q-17 0 -26 12t-9 30q0 42 35 42h135q-105 60 -105 254v41q0 171 72.5 257t212.5 86z" />
    <glyph glyph-name="alpha" unicode="&#x3b1;" horiz-adv-x="602" vert-adv-y="1105" 
d="M271 541q55 0 93.5 -20t56.5 -49h2v21q0 20 14.5 30.5t34.5 10.5t34.5 -10.5t14.5 -30.5v-454q0 -20 -13.5 -30t-33.5 -10t-33.5 10t-13.5 30v38h-2q-20 -39 -63.5 -60t-99.5 -21q-103 0 -156.5 65t-53.5 190v34q0 125 58.5 190.5t160.5 65.5zM284 455q-134 0 -134 -174
v-26q0 -89 31.5 -131.5t98.5 -42.5q61 0 102.5 40.5t41.5 103.5v115q0 46 -37.5 80.5t-102.5 34.5z" />
    <glyph glyph-name="beta" unicode="&#x3b2;" horiz-adv-x="598" vert-adv-y="1105" 
d="M291 756q97 0 149.5 -51.5t52.5 -125.5v-16q0 -136 -111 -172q73 -7 118 -50t45 -125v-27q0 -91 -57.5 -147t-144.5 -56q-114 0 -164 76v-215q0 -21 -14 -31.5t-35 -10.5t-35 10.5t-14 31.5v701q0 101 59 154.5t151 53.5zM291 673q-53 0 -82.5 -35.5t-29.5 -105.5v-334
q0 -51 35.5 -88.5t113.5 -37.5q55 0 86.5 33t31.5 86v22q0 74 -38.5 104t-119.5 30q-33 0 -33 40t33 40q106 0 106 124v16q0 43 -25.5 74.5t-77.5 31.5z" />
    <glyph glyph-name="gamma" unicode="&#x3b3;" horiz-adv-x="514" vert-adv-y="1105" 
d="M58 538q45 13 58 -29l141 -399l142 399q13 41 57 29q20 -5 29 -20t1 -36l-181 -471v-164q0 -21 -14 -31.5t-36 -10.5q-21 0 -35 10.5t-14 31.5v163l-180 473q-7 20 2.5 35t29.5 20z" />
    <glyph glyph-name="delta" unicode="&#x3b4;" horiz-adv-x="579" vert-adv-y="1105" 
d="M304 756q77 0 137 -24q38 -16 22 -54q-7 -17 -21 -23.5t-31 1.5q-42 19 -96 19q-81 0 -81 -44q0 -26 36.5 -55.5t128.5 -82.5q127 -73 127 -225v-26q0 -119 -62.5 -182.5t-174.5 -63.5t-174 63.5t-62 182.5v26q0 104 49 166t137 71q-102 64 -102 133v9q0 49 41.5 79
t125.5 30zM289 427q-138 0 -138 -162v-20q0 -162 138 -162q139 0 139 162v20q0 162 -139 162z" />
    <glyph glyph-name="epsilon" unicode="&#x3b5;" horiz-adv-x="501" vert-adv-y="1105" 
d="M271 550q86 0 147 -24q33 -13 20 -49q-14 -35 -49 -23q-52 18 -116 18q-52 0 -78 -18t-26 -46v-8q0 -42 27.5 -60.5t85.5 -18.5h40q32 0 32 -38t-32 -38h-43q-60 0 -91 -17.5t-31 -64.5v-7q0 -40 33 -59.5t85 -19.5q72 0 135 32q35 18 55 -16q9 -16 5.5 -31t-18.5 -23
q-81 -43 -186 -43q-101 0 -157.5 39.5t-56.5 113.5v13q0 55 34 87t95 37q-57 9 -86 40.5t-29 76.5v13q0 65 53 99.5t152 34.5z" />
    <glyph glyph-name="zeta" unicode="&#x3b6;" horiz-adv-x="464" vert-adv-y="1105" 
d="M393 750q37 0 43 -29q5 -29 -25 -49q-113 -78 -189.5 -180t-76.5 -208v-7q0 -76 38 -109t126 -61q90 -28 117.5 -53t27.5 -71q0 -61 -84 -118q-16 -11 -33 -8t-27 19q-11 14 -9.5 30.5t17.5 25.5q37 24 37 47q0 7 -4.5 12.5t-16 10.5t-20.5 7.5t-30 8t-32 8.5
q-102 28 -153.5 81.5t-51.5 153.5v11q0 108 60 211.5t159 181.5h-141q-34 0 -34 43q0 42 34 42h268z" />
    <glyph glyph-name="eta" unicode="&#x3b7;" horiz-adv-x="609" vert-adv-y="1105" 
d="M343 541q90 0 140 -51t50 -144v-500q0 -20 -14.5 -30.5t-34.5 -10.5t-34.5 10.5t-14.5 30.5v477q0 70 -30.5 100.5t-89.5 30.5q-57 0 -96 -36.5t-39 -96.5v-281q0 -20 -14.5 -30.5t-35.5 -10.5q-20 0 -34.5 10.5t-14.5 30.5v454q0 20 13.5 30t33.5 10t33.5 -10t13.5 -30
v-35h2q19 35 65 58.5t101 23.5z" />
    <glyph glyph-name="theta" unicode="&#x3b8;" horiz-adv-x="574" vert-adv-y="1105" 
d="M287 756q119 0 176.5 -84.5t57.5 -261.5v-70q0 -177 -57.5 -261.5t-176.5 -84.5t-176.5 84.5t-57.5 261.5v70q0 177 57.5 261.5t176.5 84.5zM287 666q-69 0 -100.5 -55t-34.5 -180v-8h269v8q-3 125 -34 180t-100 55zM152 327q0 -121 31 -182.5t104 -61.5t103.5 61.5
t30.5 182.5v12h-269v-12z" />
    <glyph glyph-name="iota" unicode="&#x3b9;" horiz-adv-x="279" vert-adv-y="1105" 
d="M125 534q21 0 35 -10.5t14 -30.5v-361q0 -31 7.5 -42.5t30.5 -11.5q12 0 26 3q30 6 38 -32q7 -36 -19 -49q-24 -11 -67 -11q-114 3 -114 116v388q0 20 14.5 30.5t34.5 10.5z" />
    <glyph glyph-name="kappa" unicode="&#x3ba;" horiz-adv-x="542" vert-adv-y="1105" 
d="M131 534q21 0 35.5 -11t14.5 -32v-196l214 226q14 14 32.5 13t31.5 -15q29 -31 2 -60l-154 -158l181 -222q32 -36 -7 -68q-14 -13 -33.5 -12.5t-33.5 17.5l-173 222l-60 -61v-136q0 -21 -14.5 -31.5t-35.5 -10.5t-35.5 10.5t-14.5 31.5v450q0 21 14.5 32t35.5 11z" />
    <glyph glyph-name="lambda" unicode="&#x3bb;" horiz-adv-x="511" vert-adv-y="1105" 
d="M146 756q42 0 64.5 -15.5t37.5 -55.5l236 -628q7 -20 -2 -35t-29 -20q-43 -12 -58 29l-139 382h-1l-140 -383q-14 -41 -58 -28q-20 5 -28.5 20t-1.5 35l182 479l-37 104q-13 35 -33 35q-11 0 -18 -3q-36 -11 -49 20q-16 34 14 49q28 15 60 15z" />
    <glyph glyph-name="uni03BC" unicode="&#x3bc;" horiz-adv-x="611" vert-adv-y="1105" 
d="M131 534q20 0 34.5 -10.5t14.5 -30.5v-281q0 -69 29.5 -99.5t86.5 -30.5t96.5 36.5t39.5 94.5v280q0 20 14 30.5t35 10.5q20 0 34.5 -10.5t14.5 -30.5v-454q0 -20 -13.5 -30t-33.5 -10t-33.5 10t-13.5 30v37h-1q-48 -81 -153 -81q-34 0 -62 11.5t-40 30.5v-190
q0 -21 -14 -31.5t-36 -10.5q-21 0 -35 10.5t-14 31.5v646q0 20 14.5 30.5t35.5 10.5z" />
    <glyph glyph-name="nu" unicode="&#x3bd;" horiz-adv-x="524" vert-adv-y="1105" 
d="M57 529q17 8 36.5 2.5t26.5 -26.5l144 -397h1l142 397q7 21 26 26.5t36 -2.5q19 -6 27.5 -21.5t0.5 -36.5l-164 -421q-20 -51 -71 -51q-50 0 -70 50l-165 422q-8 21 1.5 36.5t28.5 21.5z" />
    <glyph glyph-name="xi" unicode="&#x3be;" horiz-adv-x="458" vert-adv-y="1105" 
d="M286 756q92 0 149 -28q16 -8 20.5 -23.5t-3.5 -32.5q-8 -18 -23 -23t-31 3q-43 22 -111 22q-51 0 -82 -23t-31 -66v-12q0 -51 38.5 -80.5t113.5 -29.5h28q36 0 36 -43q0 -42 -36 -42h-31q-89 0 -131 -30t-42 -93v-11q0 -55 39 -83t130 -56q86 -27 112.5 -50t26.5 -71
q0 -64 -78 -117q-17 -11 -34.5 -8t-29.5 18q-11 14 -9 30.5t18 25.5q39 24 39 45q0 14 -19 23t-70 23q-54 14 -90 29.5t-69 40t-49 61.5t-16 87v14q0 76 45.5 117t116.5 49q-59 12 -97.5 48.5t-38.5 99.5v16q0 75 54.5 122.5t154.5 47.5z" />
    <glyph glyph-name="omicron" unicode="&#x3bf;" horiz-adv-x="598" vert-adv-y="1105" 
d="M299 541q116 0 181 -66t65 -190v-33q0 -124 -65 -190t-181 -66t-181 66t-65 190v33q0 124 65 190t181 66zM299 454q-147 0 -147 -172v-27q0 -172 147 -172q74 0 110.5 41.5t36.5 130.5v27q0 172 -147 172z" />
    <glyph glyph-name="pi" unicode="&#x3c0;" horiz-adv-x="593" vert-adv-y="1105" 
d="M539 542q17 0 26 -12.5t9 -30.5t-9 -30.5t-26 -12.5h-84v-321q0 -31 8 -43t31 -12q8 0 26 4q14 3 24.5 -6t13.5 -26q7 -37 -18 -49q-25 -13 -68 -11q-114 3 -114 116v348h-122v-415q0 -21 -13.5 -31.5t-35.5 -10.5q-21 0 -35.5 10.5t-14.5 31.5v415h-83q-17 0 -26 12.5
t-9 30.5t9 30.5t26 12.5h485z" />
    <glyph glyph-name="rho" unicode="&#x3c1;" horiz-adv-x="605" vert-adv-y="1105" 
d="M314 541q113 0 175.5 -65.5t62.5 -190.5v-33q0 -125 -62.5 -190.5t-175.5 -65.5q-42 0 -80.5 16t-57.5 43h-2v-209q0 -20 -14 -30.5t-35 -10.5q-20 0 -34.5 10.5t-14.5 30.5v439q0 125 62.5 190.5t175.5 65.5zM314 454q-70 0 -104.5 -41.5t-34.5 -130.5v-27
q0 -89 34 -130.5t105 -41.5q70 0 104.5 41.5t34.5 130.5v27q0 172 -139 172z" />
    <glyph glyph-name="sigma" unicode="&#x3c3;" horiz-adv-x="600" vert-adv-y="1105" 
d="M546 541q17 0 26 -12t9 -30t-9 -30t-26 -12h-70q69 -48 69 -172v-33q0 -124 -65 -190t-181 -66t-181 66t-65 190v33q0 124 65 190t181 66h247zM299 454q-147 0 -147 -172v-27q0 -172 147 -172q74 0 110.5 41.5t36.5 130.5v27q0 172 -147 172z" />
    <glyph glyph-name="tau" unicode="&#x3c4;" horiz-adv-x="586" vert-adv-y="1105" 
d="M531 542q36 0 36 -43t-36 -43h-206v-321q0 -30 9 -42.5t33 -12.5q10 0 28 4q30 6 38 -32q7 -36 -19 -49q-24 -13 -73 -11q-114 3 -114 116v348h-172q-36 0 -36 43t36 43h476z" />
    <glyph glyph-name="upsilon" unicode="&#x3c5;" horiz-adv-x="603" vert-adv-y="1105" 
d="M125 534q20 0 34.5 -10.5t14.5 -30.5v-279q0 -68 34 -100t93 -32t93.5 32t34.5 100v279q0 20 14.5 30.5t34.5 10.5t34.5 -10.5t14.5 -30.5v-301q0 -92 -63.5 -144.5t-162.5 -52.5t-162 52.5t-63 144.5v301q0 20 14 30.5t35 10.5z" />
    <glyph glyph-name="phi" unicode="&#x3c6;" horiz-adv-x="690" vert-adv-y="1105" 
d="M345 541q134 0 213 -66.5t79 -189.5v-35q0 -112 -65.5 -176.5t-180.5 -75.5v-151q0 -21 -13.5 -31.5t-33.5 -10.5q-21 0 -34.5 10.5t-13.5 31.5v151q-113 11 -178 76t-65 176v35q0 124 78.5 190t213.5 66zM391 83q148 21 148 170v29q0 149 -148 169v-368zM296 450
q-69 -9 -107 -51t-38 -117v-29q0 -148 145 -169v366z" />
    <glyph glyph-name="chi" unicode="&#x3c7;" horiz-adv-x="596" vert-adv-y="1105" 
d="M123 541q60 0 85 -63l95 -229l113 256q17 39 58 26q48 -18 28 -60l-141 -286l111 -258q10 -24 15.5 -31.5t13.5 -7.5t19 3q30 9 40 -24q11 -33 -15 -48q-27 -16 -69 -16q-32 0 -52.5 14t-34.5 49l-101 255l-127 -285q-17 -38 -60 -28q-21 5 -28.5 21.5t2.5 38.5l154 315
l-103 234q-11 23 -17 31t-13 8q-6 0 -18 -4q-31 -9 -41 25q-11 33 15 48q30 16 71 16z" />
    <glyph glyph-name="psi" unicode="&#x3c8;" horiz-adv-x="708" vert-adv-y="1105" 
d="M108 534q49 0 49 -43v-173q0 -118 35 -169.5t113 -59.5v402q0 21 13.5 32t34.5 11q49 0 49 -43v-402q78 8 113.5 60t35.5 169v173q0 43 49 43t49 -43v-182q0 -156 -60.5 -228.5t-186.5 -81.5v-152q0 -21 -13.5 -31.5t-35.5 -10.5q-21 0 -34.5 10.5t-13.5 31.5v152
q-125 9 -185.5 81.5t-60.5 228.5v182q0 43 49 43z" />
    <glyph glyph-name="omega" unicode="&#x3c9;" horiz-adv-x="760" vert-adv-y="1105" 
d="M196 545q43 -22 26 -57q-32 -62 -48 -111t-16 -108v-15q0 -77 26.5 -123t70.5 -46q38 0 57.5 31t19.5 82v169q0 20 14 30.5t34 10.5t34 -10.5t14 -30.5v-170q0 -52 19 -82t57 -30q45 0 72 46t27 123v15q0 59 -15.5 106t-48.5 113q-17 36 24 57q16 10 35 6.5t28 -20.5
q75 -136 75 -258v-19q0 -134 -52 -196t-136 -62q-46 0 -81 23t-50 64h-2q-15 -41 -51.5 -64t-82.5 -23q-84 0 -135.5 62t-51.5 196v19q0 122 75 258q9 17 28 20.5t34 -6.5z" />
    <glyph glyph-name="afii10023" unicode="&#x401;" horiz-adv-x="607" vert-adv-y="1105" 
d="M231 883q23 0 39 -16t16 -38t-16 -37.5t-39 -15.5t-39.5 15.5t-16.5 37.5t16.5 38t39.5 16zM405 883q23 0 39.5 -16t16.5 -38t-16.5 -37.5t-39.5 -15.5t-39 15.5t-16 37.5t16 38t39 16zM506 715q35 0 35 -42t-35 -42h-320v-221h300q16 0 25 -11.5t9 -29.5t-9 -30t-25 -12
h-300v-239h327q35 0 35 -42t-35 -42h-350q-44 0 -60.5 16t-16.5 58v563q0 42 16.5 58t60.5 16h343z" />
    <glyph glyph-name="afii10017" unicode="&#x410;" horiz-adv-x="675" vert-adv-y="1105" 
d="M337 720q44 0 61 -45l237 -611q8 -21 -0.5 -38t-27.5 -23q-51 -15 -67 28l-66 179h-277l-68 -182q-14 -42 -63 -25q-43 16 -27 58l238 614q17 45 60 45zM336 597q-17 -57 -44 -130l-65 -173h217l-64 173q-30 83 -44 130z" />
    <glyph glyph-name="afii10018" unicode="&#x411;" horiz-adv-x="628" vert-adv-y="1105" 
d="M502 715q17 0 26 -12.5t9 -30.5t-9 -30.5t-26 -12.5h-316v-197h155q118 0 180.5 -57.5t62.5 -152.5v-14q0 -96 -60.5 -150.5t-181.5 -54.5h-179q-44 0 -60.5 16t-16.5 58v564q0 42 16.5 58t60.5 16h339zM186 88h153q145 0 145 122v11q0 67 -38 97t-117 30h-143v-260z" />
    <glyph glyph-name="afii10019" unicode="&#x412;" horiz-adv-x="650" vert-adv-y="1105" 
d="M348 715q114 0 169.5 -43.5t55.5 -133.5v-14q0 -118 -115 -146q148 -21 148 -165v-18q0 -92 -56 -141.5t-170 -49.5h-217q-44 0 -60.5 16t-16.5 58v563q0 42 16.5 58t60.5 16h185zM186 416h133q84 0 118.5 23.5t34.5 82.5v11q0 53 -36.5 75.5t-122.5 22.5h-127v-215z
M186 88h151q89 0 128 25t39 91v15q0 60 -41 87.5t-142 27.5h-135v-246z" />
    <glyph glyph-name="afii10020" unicode="&#x413;" horiz-adv-x="557" vert-adv-y="1105" 
d="M510 715q17 0 26 -12.5t9 -30.5t-9 -30.5t-26 -12.5h-323v-588q0 -21 -14.5 -31.5t-36.5 -10.5q-21 0 -35.5 10.5t-14.5 31.5v600q0 42 16.5 58t60.5 16h347z" />
    <glyph glyph-name="afii10021" unicode="&#x414;" horiz-adv-x="677" vert-adv-y="1105" 
d="M496 715q43 0 59.5 -16t16.5 -58v-559q60 0 60 -53v-156q0 -18 -12.5 -27.5t-31.5 -9.5t-31.5 9.5t-12.5 27.5v128h-446v-128q0 -37 -43 -37t-43 37v156q0 53 58 53q30 51 50 106.5t30 98t15 104.5t5.5 96t0.5 104v50q0 42 16.5 58t59.5 16h249zM264 569
q0 -161 -16.5 -266t-75.5 -221h313v550h-221v-63z" />
    <glyph glyph-name="afii10022" unicode="&#x415;" horiz-adv-x="607" vert-adv-y="1105" 
d="M506 715q35 0 35 -42t-35 -42h-320v-221h300q16 0 25 -11.5t9 -29.5t-9 -30t-25 -12h-300v-239h327q35 0 35 -42t-35 -42h-350q-44 0 -60.5 16t-16.5 58v563q0 42 16.5 58t60.5 16h343z" />
    <glyph glyph-name="afii10024" unicode="&#x416;" horiz-adv-x="914" vert-adv-y="1105" 
d="M109 722q53 0 84 -23t59 -84l45 -95q28 -59 46.5 -81t47.5 -22h16v262q0 20 14.5 30.5t34.5 10.5q21 0 35.5 -10.5t14.5 -30.5v-262h16q29 0 48 22t47 81l45 95q28 62 59 84.5t84 22.5q23 0 43 -5q17 -5 25 -19.5t2 -32.5q-12 -35 -47 -29q-5 1 -20 1q-25 0 -38.5 -15.5
t-33.5 -60.5l-32 -70q-38 -89 -92 -115q44 -17 90 -86l146 -220q24 -38 -12 -62q-19 -12 -36 -8t-27 19l-156 239q-31 47 -49 62t-45 15h-17v-295q0 -20 -14.5 -30.5t-35.5 -10.5q-20 0 -34.5 10.5t-14.5 30.5v295h-16q-28 0 -45.5 -15t-49.5 -62l-155 -239
q-11 -15 -27.5 -19t-36.5 8q-35 23 -11 62l145 220q48 70 90 86q-52 25 -92 115l-31 70q-20 45 -33.5 60.5t-39.5 15.5q-14 0 -20 -1q-34 -6 -46 29q-6 18 2 32.5t25 19.5q20 5 43 5z" />
    <glyph glyph-name="afii10025" unicode="&#x417;" horiz-adv-x="586" vert-adv-y="1105" 
d="M275 726q112 0 173.5 -51t61.5 -130v-5q0 -54 -33.5 -100.5t-96.5 -65.5q70 -10 114.5 -52t44.5 -111v-10q0 -88 -67.5 -148t-190.5 -60q-125 0 -212 58q-18 12 -21 31t8 35q23 39 61 15q73 -49 159 -49q82 0 122.5 34.5t40.5 86.5v8q0 116 -165 116h-64q-36 0 -36 44
q0 43 36 43h56q65 0 105.5 29.5t40.5 88.5v3q0 47 -35 74.5t-102 27.5q-82 0 -136 -59q-14 -13 -31 -12t-29 15q-13 13 -13 30t12 31q69 83 197 83z" />
    <glyph glyph-name="afii10026" unicode="&#x418;" horiz-adv-x="710" vert-adv-y="1105" 
d="M134 720q20 0 33.5 -10t13.5 -30v-548q13 46 39 90l243 419q28 49 45 62.5t46 13.5q39 0 54.5 -16t15.5 -57v-605q0 -20 -14 -30t-34 -10t-33.5 10t-13.5 30v550q-13 -47 -40 -93l-242 -418q-28 -48 -45 -62t-46 -14q-39 0 -54.5 16t-15.5 57v605q0 20 14 30t34 10z" />
    <glyph glyph-name="afii10027" unicode="&#x419;" horiz-adv-x="710" vert-adv-y="1105" 
d="M257 884q30 2 37 -25q9 -46 66 -46q56 0 65 46q7 27 37 25q15 -1 23.5 -8.5t6.5 -21.5q-6 -43 -41 -72.5t-91 -29.5q-57 0 -92 29.5t-41 72.5q-2 14 6.5 21.5t23.5 8.5zM134 720q20 0 33.5 -10t13.5 -30v-548q13 46 39 90l243 419q28 49 45 62.5t46 13.5q39 0 54.5 -16
t15.5 -57v-605q0 -20 -14 -30t-34 -10t-33.5 10t-13.5 30v550q-13 -47 -40 -93l-242 -418q-28 -48 -45 -62t-46 -14q-39 0 -54.5 16t-15.5 57v605q0 20 14 30t34 10z" />
    <glyph glyph-name="afii10028" unicode="&#x41a;" horiz-adv-x="627" vert-adv-y="1105" 
d="M509 722q13 0 43 -5q17 -4 24.5 -19.5t1.5 -32.5q-11 -35 -46 -29q-14 2 -22 2q-26 0 -39.5 -16t-35.5 -64l-26 -62q-40 -94 -95 -120q41 -13 91 -86l153 -220q24 -38 -12 -62q-20 -12 -36.5 -8t-26.5 19l-156 229q-35 51 -58.5 69t-56.5 18h-27v-295q0 -20 -14.5 -30.5
t-35.5 -10.5q-20 0 -34.5 10.5t-14.5 30.5v639q0 20 14.5 30.5t34.5 10.5q21 0 35.5 -10.5t14.5 -30.5v-262h28q36 0 58.5 24.5t52.5 89.5l35 74q31 68 63 92.5t87 24.5z" />
    <glyph glyph-name="afii10029" unicode="&#x41b;" horiz-adv-x="701" vert-adv-y="1105" 
d="M538 715q43 0 59.5 -16t16.5 -58v-600q0 -21 -14 -31.5t-35 -10.5q-22 0 -36.5 10.5t-14.5 31.5v589h-220v-227q0 -183 -46.5 -267.5t-172.5 -131.5q-43 -15 -59 30q-14 43 23 58q68 27 99 61t43 92.5t12 175.5v220q0 42 16.5 58t60.5 16h268z" />
    <glyph glyph-name="afii10030" unicode="&#x41c;" horiz-adv-x="862" vert-adv-y="1105" 
d="M168 717q33 0 50 -14t37 -62l178 -402l173 401q18 47 36 62t52 15h15q37 0 51.5 -15.5t14.5 -55.5v-607q0 -20 -13.5 -30t-33.5 -10t-34 10t-14 30v580q-18 -61 -39 -111l-154 -348q-9 -23 -21.5 -32t-32.5 -9q-24 0 -36.5 9.5t-22.5 33.5l-152 346q-22 50 -41 111v-580
q0 -20 -14 -30t-34 -10t-33.5 10t-13.5 30v607q0 40 15 55.5t52 15.5h15z" />
    <glyph glyph-name="afii10031" unicode="&#x41d;" horiz-adv-x="708" vert-adv-y="1105" 
d="M136 720q22 0 36.5 -10.5t14.5 -31.5v-260h335v260q0 21 14 31.5t35 10.5q22 0 36.5 -10.5t14.5 -31.5v-637q0 -21 -14.5 -31.5t-36.5 -10.5q-21 0 -35 10.5t-14 31.5v293h-335v-293q0 -21 -14.5 -31.5t-36.5 -10.5q-21 0 -35.5 10.5t-14.5 31.5v637q0 21 14.5 31.5
t35.5 10.5z" />
    <glyph glyph-name="afii10032" unicode="&#x41e;" horiz-adv-x="712" vert-adv-y="1105" 
d="M356 726q297 0 297 -343v-47q0 -343 -297 -343t-297 343v47q0 343 297 343zM356 635q-100 0 -148 -61.5t-48 -198.5v-31q0 -137 47.5 -198t148.5 -61t148.5 61t47.5 198v31q0 137 -48 198.5t-148 61.5z" />
    <glyph glyph-name="afii10033" unicode="&#x41f;" horiz-adv-x="686" vert-adv-y="1105" 
d="M524 715q43 0 59.5 -16t16.5 -58v-600q0 -21 -14.5 -31.5t-35.5 -10.5q-22 0 -36 10.5t-14 31.5v589h-313v-589q0 -21 -14.5 -31.5t-36.5 -10.5q-21 0 -35.5 10.5t-14.5 31.5v600q0 42 16.5 58t60.5 16h361z" />
    <glyph glyph-name="afii10034" unicode="&#x420;" horiz-adv-x="623" vert-adv-y="1105" 
d="M342 715q121 0 181.5 -54.5t60.5 -150.5v-15q0 -96 -62.5 -154.5t-180.5 -58.5h-154v-241q0 -21 -14.5 -31.5t-36.5 -10.5q-21 0 -35.5 10.5t-14.5 31.5v600q0 42 16.5 58t60.5 16h179zM187 367h142q79 0 117 31.5t38 97.5v12q0 122 -145 122h-152v-263z" />
    <glyph glyph-name="afii10035" unicode="&#x421;" horiz-adv-x="652" vert-adv-y="1105" 
d="M355 726q126 0 205 -54q18 -12 20.5 -30t-9.5 -34q-11 -16 -27 -20t-33 6q-67 40 -158 40q-193 0 -193 -259v-31q0 -131 47.5 -194t146.5 -63q102 0 174 52q16 11 33.5 8t29.5 -19q13 -16 10 -36t-21 -33q-89 -65 -228 -65q-293 0 -293 342v47q0 343 296 343z" />
    <glyph glyph-name="afii10036" unicode="&#x422;" horiz-adv-x="578" vert-adv-y="1105" 
d="M531 715q17 0 26 -12.5t9 -30.5t-9 -30.5t-26 -12.5h-192v-588q0 -21 -14 -31.5t-36 -10.5q-21 0 -35.5 10.5t-14.5 31.5v588h-191q-36 0 -36 43t36 43h483z" />
    <glyph glyph-name="afii10037" unicode="&#x423;" horiz-adv-x="571" vert-adv-y="1105" 
d="M504 717q19 -6 28 -22t1 -35l-251 -641q-7 -18 -25 -23t-36 3q-42 17 -26 54l53 142l-209 462q-8 20 1.5 36t28.5 22q49 18 64 -24l165 -384h1l143 384q7 20 26 26.5t36 -0.5z" />
    <glyph glyph-name="afii10038" unicode="&#x424;" horiz-adv-x="755" vert-adv-y="1105" 
d="M377 734q48 0 48 -42v-46q128 -11 200.5 -76t72.5 -176v-49q0 -112 -72.5 -177t-200.5 -75v-52q0 -42 -48 -42q-47 0 -47 42v52q-129 10 -201.5 75t-72.5 177v49q0 112 72.5 176.5t201.5 75.5v46q0 21 13 31.5t34 10.5zM330 558q-174 -17 -174 -168v-42q0 -151 174 -168
v378zM425 180q174 18 174 168v42q0 150 -174 168v-378z" />
    <glyph glyph-name="afii10039" unicode="&#x425;" horiz-adv-x="653" vert-adv-y="1105" 
d="M567 713q42 -26 16 -65l-191 -280l199 -294q27 -41 -14 -67q-17 -11 -37 -7.5t-32 21.5l-182 279l-186 -278q-11 -17 -30.5 -21.5t-35.5 5.5q-41 26 -16 65l208 299l-191 275q-13 20 -7.5 38t25.5 30q19 10 39 5.5t32 -23.5l169 -260l168 261q26 39 66 17z" />
    <glyph glyph-name="afii10040" unicode="&#x426;" horiz-adv-x="677" vert-adv-y="1105" 
d="M136 720q22 0 36.5 -10.5t14.5 -31.5v-589h302v589q0 21 14.5 31.5t36.5 10.5q21 0 35 -10.5t14 -31.5v-588q61 0 61 -55v-162q0 -21 -14 -32t-35 -11q-22 0 -36 11t-14 32v131h-388q-44 0 -60.5 16t-16.5 58v600q0 21 14.5 31.5t35.5 10.5z" />
    <glyph glyph-name="afii10041" unicode="&#x427;" horiz-adv-x="633" vert-adv-y="1105" 
d="M120 719q20 0 34.5 -10.5t14.5 -30.5v-213q0 -69 35.5 -101.5t95.5 -32.5q52 0 99.5 29.5t47.5 73.5v243q0 21 14.5 31.5t35.5 10.5t35.5 -10.5t14.5 -31.5v-636q0 -21 -14.5 -31.5t-35.5 -10.5t-35.5 10.5t-14.5 31.5v269h-1q-19 -28 -71 -46t-103 -18q-91 0 -146.5 53
t-55.5 145v234q0 20 14.5 30.5t35.5 10.5z" />
    <glyph glyph-name="afii10042" unicode="&#x428;" horiz-adv-x="965" vert-adv-y="1105" 
d="M136 720q22 0 36.5 -10.5t14.5 -31.5v-588h245v588q0 21 14.5 31.5t35.5 10.5q22 0 36 -10.5t14 -31.5v-588h246v588q0 21 14.5 31.5t35.5 10.5q22 0 36 -10.5t14 -31.5v-600q0 -42 -16.5 -58t-59.5 -16h-639q-44 0 -60.5 16t-16.5 58v600q0 21 14.5 31.5t35.5 10.5z" />
    <glyph glyph-name="afii10043" unicode="&#x429;" horiz-adv-x="966" vert-adv-y="1105" 
d="M136 720q22 0 36.5 -10.5t14.5 -31.5v-588h245v588q0 21 14.5 31.5t35.5 10.5q22 0 36 -10.5t14 -31.5v-588h246v588q0 21 14.5 31.5t35.5 10.5q22 0 36 -10.5t14 -31.5v-588q61 -2 61 -55v-162q0 -21 -14 -32t-35 -11q-22 0 -36 11t-14 32v131h-677q-44 0 -60.5 16
t-16.5 58v600q0 21 14.5 31.5t35.5 10.5z" />
    <glyph glyph-name="afii10044" unicode="&#x42a;" horiz-adv-x="698" vert-adv-y="1105" 
d="M167 715q43 0 59.5 -16t16.5 -58v-204h170q118 0 180.5 -57.5t62.5 -153.5v-21q0 -96 -60.5 -150.5t-181.5 -54.5h-194q-43 0 -59.5 16t-16.5 58v557h-103q-35 0 -35 42t35 42h126zM243 85h167q145 0 145 122v17q0 67 -38 97.5t-117 30.5h-157v-267z" />
    <glyph glyph-name="afii10045" unicode="&#x42b;" horiz-adv-x="852" vert-adv-y="1105" 
d="M136 720q22 0 36 -10.5t14 -31.5v-241h170q117 0 179.5 -57.5t62.5 -153.5v-21q0 -96 -60.5 -150.5t-180.5 -54.5h-194q-44 0 -60.5 16t-16.5 58v604q0 21 14.5 31.5t35.5 10.5zM716 720q22 0 36 -10.5t14 -31.5v-637q0 -21 -14 -31.5t-36 -10.5q-21 0 -35.5 10.5
t-14.5 31.5v637q0 21 14.5 31.5t35.5 10.5zM186 85h167q145 0 145 122v17q0 67 -38 97.5t-117 30.5h-157v-267z" />
    <glyph glyph-name="afii10046" unicode="&#x42c;" horiz-adv-x="641" vert-adv-y="1105" 
d="M136 720q22 0 36 -10.5t14 -31.5v-241h170q117 0 179.5 -57.5t62.5 -153.5v-21q0 -96 -60.5 -150.5t-180.5 -54.5h-194q-44 0 -60.5 16t-16.5 58v604q0 21 14.5 31.5t35.5 10.5zM186 85h167q145 0 145 122v17q0 67 -38 97.5t-117 30.5h-157v-267z" />
    <glyph glyph-name="afii10047" unicode="&#x42d;" horiz-adv-x="652" vert-adv-y="1105" 
d="M296 726q296 0 296 -343v-47q0 -342 -293 -342q-139 0 -228 65q-18 13 -21 33t10 36q12 16 29.5 19t33.5 -8q72 -52 174 -52q94 0 141.5 56.5t51.5 174.5h-297q-36 0 -36 41t36 41h297q-10 234 -192 234q-93 0 -158 -40q-35 -21 -60 14q-12 16 -9.5 34t20.5 30
q79 54 205 54z" />
    <glyph glyph-name="afii10048" unicode="&#x42e;" horiz-adv-x="922" vert-adv-y="1105" 
d="M579 726q284 0 284 -343v-47q0 -343 -284 -343q-273 0 -283 320h-111v-272q0 -21 -14 -31.5t-36 -10.5q-21 0 -35 10.5t-14 31.5v637q0 21 14 31.5t35 10.5q22 0 36 -10.5t14 -31.5v-282h110q7 330 284 330zM579 635q-95 0 -139 -61t-44 -199v-31q0 -137 44 -198t139 -61
t139 61t44 198v31q0 138 -44 199t-139 61z" />
    <glyph glyph-name="afii10049" unicode="&#x42f;" horiz-adv-x="647" vert-adv-y="1105" 
d="M484 715q43 0 59.5 -16t16.5 -58v-600q0 -21 -14 -31.5t-35 -10.5q-22 0 -36.5 10.5t-14.5 31.5v257h-133q-23 0 -33 2l-142 -277q-18 -38 -66 -18q-19 9 -24.5 25.5t4.5 37.5l132 248q-127 44 -127 183v17q0 95 62 147t173 52h178zM317 630q-147 0 -147 -116v-14
q0 -117 157 -117h133v247h-143z" />
    <glyph glyph-name="afii10065" unicode="&#x430;" horiz-adv-x="562" vert-adv-y="1105" 
d="M279 541q95 0 152 -47t57 -128v-329q0 -18 -13 -28t-32 -10t-32 10t-13 28v38h-1q-14 -33 -58 -55q-46 -24 -104 -24q-86 0 -134.5 41t-48.5 115v13q0 71 47.5 112.5t151.5 41.5h139v25q0 58 -27 84.5t-86 26.5q-71 0 -134 -40q-33 -20 -56 15q-10 15 -7 31.5t18 26.5
q77 53 181 53zM254 242q-106 0 -106 -82v-4q0 -37 24.5 -57t70.5 -20q58 0 95 20q53 31 53 92v51h-137z" />
    <glyph glyph-name="afii10066" unicode="&#x431;" horiz-adv-x="588" vert-adv-y="1105" 
d="M452 756q17 3 29 -8t15 -30q2 -18 -5.5 -31.5t-25.5 -16.5q-51 -8 -84.5 -16t-70.5 -23t-61 -35.5t-46 -53t-36 -76.5q55 48 127 48q116 0 178.5 -63t62.5 -184v-24q0 -121 -62.5 -184t-178.5 -63q-115 0 -178 63t-63 184v40q0 162 43.5 259.5t127.5 145t228 68.5z
M294 428q-73 0 -107.5 -39.5t-34.5 -124.5v-18q0 -88 34 -125.5t108 -37.5t108 37.5t34 125.5v18q0 85 -34.5 124.5t-107.5 39.5z" />
    <glyph glyph-name="afii10067" unicode="&#x432;" horiz-adv-x="558" vert-adv-y="1105" 
d="M320 529q169 0 169 -136v-10q0 -70 -63 -101q86 -28 86 -120v-12q0 -146 -170 -146h-198q-35 0 -49 13.5t-14 48.5v401q0 34 14 48t49 14h176zM180 314h108q56 0 78 14t22 50v9q0 31 -24 44.5t-80 13.5h-104v-131zM180 80h120q59 0 85.5 15.5t26.5 56.5v10
q0 37 -27.5 53.5t-95.5 16.5h-109v-152z" />
    <glyph glyph-name="afii10068" unicode="&#x433;" horiz-adv-x="425" vert-adv-y="1105" 
d="M384 529q17 0 26 -12.5t9 -30.5t-9 -30.5t-26 -12.5h-205v-402q0 -21 -13.5 -31.5t-35.5 -10.5q-21 0 -35 10.5t-14 31.5v414q0 42 16.5 58t59.5 16h227z" />
    <glyph glyph-name="afii10069" unicode="&#x434;" horiz-adv-x="590" vert-adv-y="1105" 
d="M421 529q43 0 59.5 -16t16.5 -58v-373q48 -2 48 -47v-124q0 -21 -13.5 -31.5t-34.5 -10.5q-22 0 -35.5 10.5t-13.5 31.5v90h-339v-90q0 -21 -13.5 -31.5t-35.5 -10.5q-21 0 -35 10.5t-14 31.5v124q0 44 43 47q53 76 69 145.5t16 183.5v44q0 42 16.5 58t60.5 16h205z
M237 383q0 -99 -14.5 -161t-59.5 -140h237v362h-163v-61z" />
    <glyph glyph-name="afii10070" unicode="&#x435;" horiz-adv-x="574" vert-adv-y="1105" 
d="M292 541q106 0 168.5 -63t62.5 -174v-2q0 -38 -16 -53.5t-55 -15.5h-302v-4q0 -72 38 -111t110 -39q81 0 144 33q16 8 31.5 3t22.5 -21q17 -38 -15 -56q-75 -42 -187 -42q-114 0 -177.5 65t-63.5 190v34q0 125 63.5 190.5t175.5 65.5zM290 458q-67 0 -103.5 -38.5
t-36.5 -105.5v-6h278v9q0 66 -35 103.5t-103 37.5z" />
    <glyph glyph-name="afii10072" unicode="&#x436;" horiz-adv-x="760" vert-adv-y="1105" 
d="M380 534q21 0 34.5 -10.5t13.5 -31.5v-173h14q18 0 30.5 15.5t34.5 60.5l24 52q25 54 52 71.5t75 17.5q18 0 40 -4q37 -9 28 -50q-4 -20 -16 -29t-27 -7q-12 2 -20 2q-18 0 -30.5 -9.5t-24.5 -36.5l-26 -57q-25 -55 -66 -64q25 -6 42.5 -20t37.5 -45l96 -143
q12 -19 8 -36t-20 -28q-41 -26 -65 12l-105 164q-20 32 -35 43.5t-33 11.5h-14v-199q0 -21 -13.5 -31.5t-34.5 -10.5t-34.5 10.5t-13.5 31.5v199h-14q-18 0 -33 -11.5t-35 -43.5l-105 -164q-24 -38 -65 -12q-16 11 -20 28t8 36l96 143q20 31 37.5 45t42.5 20q-39 9 -66 64
l-26 57q-12 27 -24.5 36.5t-30.5 9.5q-8 0 -20 -2q-15 -2 -27 7t-16 29q-9 41 28 50q22 4 40 4q49 0 75 -17.5t52 -71.5l24 -52q21 -44 34 -60t31 -16h14v173q0 21 13.5 31.5t34.5 10.5z" />
    <glyph glyph-name="afii10073" unicode="&#x437;" horiz-adv-x="490" vert-adv-y="1105" 
d="M236 543q87 0 138.5 -41.5t51.5 -103.5v-3q0 -35 -23 -68.5t-59 -50.5q46 -11 74.5 -41t28.5 -78v-8q0 -66 -56 -114.5t-151 -48.5q-100 0 -171 45q-30 22 -11 56q10 17 26.5 22t32.5 -5q53 -35 119 -35q60 0 93 24t33 59v7q0 77 -127 77h-55q-35 0 -35 42t35 42h48
q114 0 114 73q0 29 -29.5 49t-77.5 20q-65 0 -103 -40q-27 -27 -57 4q-21 24 0 52q24 29 67 47t94 18z" />
    <glyph glyph-name="afii10074" unicode="&#x438;" horiz-adv-x="610" vert-adv-y="1105" 
d="M128 534q48 0 48 -41v-354q11 35 32 64l193 270q22 29 29.5 38t18 15t24.5 6q30 0 42.5 -13.5t12.5 -46.5v-432q0 -41 -47 -41t-47 41v347q-9 -32 -32 -64l-194 -273q-24 -34 -36 -41.5t-35 -7.5q-30 0 -43 13.5t-13 46.5v432q0 41 47 41z" />
    <glyph glyph-name="afii10075" unicode="&#x439;" horiz-adv-x="610" vert-adv-y="1105" 
d="M128 534q48 0 48 -41v-354q11 35 32 64l193 270q22 29 29.5 38t18 15t24.5 6q30 0 42.5 -13.5t12.5 -46.5v-432q0 -41 -47 -41t-47 41v347q-9 -32 -32 -64l-194 -273q-24 -34 -36 -41.5t-35 -7.5q-30 0 -43 13.5t-13 46.5v432q0 41 47 41zM415 724q31 -8 23 -37
q-8 -38 -42 -66t-88 -28t-88 28t-42 66q-8 29 23 37q29 9 39 -17q16 -50 68 -50t68 50q10 26 39 17z" />
    <glyph glyph-name="afii10076" unicode="&#x43a;" horiz-adv-x="524" vert-adv-y="1105" 
d="M129 534q21 0 35 -10.5t14 -31.5v-172h24q21 0 34.5 15.5t30.5 53.5l27 62q20 46 46.5 65t69.5 19q32 0 51 -6q33 -11 25 -50q-4 -18 -15.5 -27t-25.5 -7q-12 3 -23 3q-16 0 -26 -8t-20 -33l-28 -61q-24 -51 -62 -65q41 -13 76 -65l96 -143q13 -19 9 -36t-21 -28
q-20 -12 -37 -9t-28 20l-112 171q-18 28 -32 38t-35 10h-24v-198q0 -21 -14 -31.5t-35 -10.5t-34.5 10.5t-13.5 31.5v451q0 21 13.5 31.5t34.5 10.5z" />
    <glyph glyph-name="afii10077" unicode="&#x43b;" horiz-adv-x="603" vert-adv-y="1105" 
d="M445 529q44 0 60.5 -16t16.5 -58v-414q0 -21 -14 -31.5t-35 -10.5q-22 0 -36 10.5t-14 31.5v403h-186v-147q0 -57 -6 -99t-22 -83t-48.5 -69.5t-81.5 -43.5q-43 -14 -58 30q-14 43 21 59q61 25 79 67.5t18 148.5v148q0 42 16.5 58t59.5 16h230z" />
    <glyph glyph-name="afii10078" unicode="&#x43c;" horiz-adv-x="705" vert-adv-y="1105" 
d="M150 534q28 0 43 -10t30 -44l130 -275l129 275q15 34 30 44t43 10h11q32 0 45 -13.5t13 -49.5v-432q0 -20 -13.5 -30t-33.5 -10t-33.5 10t-13.5 30v361q-15 -51 -33 -85l-93 -191q-10 -21 -20.5 -28.5t-30.5 -7.5t-30.5 7.5t-20.5 28.5l-94 191q-18 34 -33 85v-361
q0 -20 -13.5 -30t-33.5 -10t-33.5 10t-13.5 30v432q0 36 13 49.5t45 13.5h11z" />
    <glyph glyph-name="afii10079" unicode="&#x43d;" horiz-adv-x="615" vert-adv-y="1105" 
d="M130 534q49 0 49 -43v-172h256v172q0 21 14 32t35 11q49 0 49 -43v-450q0 -21 -13.5 -31.5t-35.5 -10.5q-21 0 -35 10.5t-14 31.5v195h-256v-195q0 -21 -13.5 -31.5t-35.5 -10.5q-21 0 -35 10.5t-14 31.5v450q0 21 14 32t35 11z" />
    <glyph glyph-name="afii10080" unicode="&#x43e;" horiz-adv-x="598" vert-adv-y="1105" 
d="M299 541q116 0 181 -66t65 -190v-33q0 -124 -65 -190t-181 -66t-181 66t-65 190v33q0 124 65 190t181 66zM299 454q-147 0 -147 -172v-27q0 -172 147 -172q74 0 110.5 41.5t36.5 130.5v27q0 172 -147 172z" />
    <glyph glyph-name="afii10081" unicode="&#x43f;" horiz-adv-x="593" vert-adv-y="1105" 
d="M436 529q43 0 59.5 -16t16.5 -58v-414q0 -21 -13.5 -31.5t-35.5 -10.5q-21 0 -35 10.5t-14 31.5v403h-235v-403q0 -21 -13.5 -31.5t-35.5 -10.5q-21 0 -35 10.5t-14 31.5v414q0 42 16.5 58t59.5 16h279z" />
    <glyph glyph-name="afii10082" unicode="&#x440;" horiz-adv-x="602" vert-adv-y="1105" 
d="M337 541q212 0 212 -255v-34q0 -125 -58 -190.5t-160 -65.5q-104 0 -151 69v-219q0 -20 -14.5 -30.5t-35.5 -10.5q-20 0 -34.5 10.5t-14.5 30.5v648q0 20 13.5 30t33.5 10t34 -10t14 -30v-35q24 40 68 61t93 21zM320 455q-62 0 -102 -39t-40 -102v-115q0 -47 41 -82.5
t102 -35.5q63 0 97 43.5t34 130.5v27q0 88 -32 130.5t-100 42.5z" />
    <glyph glyph-name="afii10083" unicode="&#x441;" horiz-adv-x="522" vert-adv-y="1105" 
d="M291 541q100 0 167 -44q16 -10 18.5 -27.5t-8.5 -33.5q-23 -33 -55 -13q-54 31 -122 31q-139 0 -139 -171v-30q0 -84 37 -127t104 -43q77 0 131 34q17 10 33 6t24 -20q10 -15 7.5 -33t-18.5 -28q-70 -46 -178 -46q-114 0 -176.5 65t-62.5 191v33q0 126 62.5 191t175.5 65
z" />
    <glyph glyph-name="afii10084" unicode="&#x442;" horiz-adv-x="474" vert-adv-y="1105" 
d="M416 529q36 0 36 -43t-36 -43h-132v-402q0 -21 -14 -31.5t-35 -10.5q-22 0 -35.5 10.5t-13.5 31.5v402h-128q-36 0 -36 43t36 43h358z" />
    <glyph glyph-name="afii10085" unicode="&#x443;" horiz-adv-x="538" vert-adv-y="1105" 
d="M473 531q19 -6 28 -22t2 -35l-255 -649q-15 -39 -61 -21q-42 17 -26 55l60 146l-186 466q-8 20 1.5 36t28.5 22q49 18 63 -24l142 -388h1l140 388q7 20 26.5 26.5t35.5 -0.5z" />
    <glyph glyph-name="afii10086" unicode="&#x444;" horiz-adv-x="684" vert-adv-y="1105" 
d="M342 720q47 0 47 -41v-152q112 -11 177 -75t65 -171v-35q0 -107 -65 -171t-177 -75v-158q0 -40 -47 -40t-47 40v158q-112 11 -177 74.5t-65 171.5v35q0 108 65 171.5t177 74.5v152q0 41 47 41zM295 439q-68 -8 -105.5 -49t-37.5 -112v-29q0 -71 37.5 -111.5t105.5 -50.5
v352zM389 87q68 10 105.5 50.5t37.5 111.5v29q0 71 -37.5 112t-105.5 49v-352z" />
    <glyph glyph-name="afii10087" unicode="&#x445;" horiz-adv-x="521" vert-adv-y="1105" 
d="M69 523q15 13 35 11t33 -20l126 -175l126 174q13 19 32.5 21t33.5 -10q37 -28 10 -64l-143 -187l153 -197q28 -36 -9 -66q-14 -13 -35 -11t-33 20l-138 186l-139 -185q-14 -19 -33 -21t-33 10q-36 29 -10 64l156 199l-142 185q-27 37 10 66z" />
    <glyph glyph-name="afii10088" unicode="&#x446;" horiz-adv-x="573" vert-adv-y="1105" 
d="M130 534q49 0 49 -43v-402h220v402q0 43 49 43t49 -43v-401q49 -6 49 -55v-129q0 -43 -49 -43q-21 0 -35 11t-14 32v98h-291q-43 0 -59.5 16t-16.5 58v413q0 21 14 32t35 11z" />
    <glyph glyph-name="afii10089" unicode="&#x447;" horiz-adv-x="548" vert-adv-y="1105" 
d="M96 534q20 0 34.5 -10.5t14.5 -30.5v-101q0 -130 104 -130q46 0 83.5 29.5t37.5 73.5v127q0 21 14 31.5t34 10.5q21 0 35 -10.5t14 -31.5v-451q0 -21 -14 -31.5t-35 -10.5q-20 0 -34 10.5t-14 31.5v200h-1q-19 -29 -60.5 -46.5t-87.5 -17.5q-79 0 -126 51.5t-47 142.5
v122q0 20 14 30.5t34 10.5z" />
    <glyph glyph-name="afii10090" unicode="&#x448;" horiz-adv-x="813" vert-adv-y="1105" 
d="M130 534q49 0 49 -43v-401h178v401q0 21 14 32t35 11q49 0 49 -43v-401h179v401q0 43 49 43q21 0 35 -11t14 -32v-413q0 -42 -16.5 -58t-59.5 -16h-499q-43 0 -59.5 16t-16.5 58v413q0 21 14 32t35 11z" />
    <glyph glyph-name="afii10091" unicode="&#x449;" horiz-adv-x="811" vert-adv-y="1105" 
d="M130 534q49 0 49 -43v-401h178v401q0 21 14 32t35 11q49 0 49 -43v-401h179v401q0 43 49 43q21 0 35 -11t14 -32v-401q52 -5 52 -55v-129q0 -21 -14 -32t-35 -11q-49 0 -49 43v98h-529q-43 0 -59.5 16t-16.5 58v413q0 21 14 32t35 11z" />
    <glyph glyph-name="afii10092" unicode="&#x44a;" horiz-adv-x="581" vert-adv-y="1105" 
d="M142 533q42 0 58.5 -16t16.5 -57v-110h97q223 0 223 -167v-21q0 -80 -51.5 -121t-170.5 -41h-121q-44 0 -60.5 16t-16.5 58v376h-71q-35 0 -35 42q0 18 9 29.5t26 11.5h96zM217 85h94q71 0 98.5 17.5t27.5 60.5v18q0 46 -29 64.5t-107 18.5h-84v-179z" />
    <glyph glyph-name="afii10093" unicode="&#x44b;" horiz-adv-x="741" vert-adv-y="1105" 
d="M131 534q21 0 35.5 -11t14.5 -32v-141h97q223 0 223 -167v-21q0 -80 -51.5 -121t-170.5 -41h-122q-43 0 -59.5 16t-16.5 58v417q0 21 14 32t36 11zM611 534q21 0 35 -11t14 -32v-450q0 -42 -49 -42q-22 0 -35.5 10.5t-13.5 31.5v450q0 43 49 43zM181 85h94
q70 0 97.5 17.5t27.5 60.5v18q0 46 -29 64.5t-106 18.5h-84v-179z" />
    <glyph glyph-name="afii10094" unicode="&#x44c;" horiz-adv-x="545" vert-adv-y="1105" 
d="M131 534q21 0 35.5 -11t14.5 -32v-141h97q223 0 223 -167v-21q0 -80 -51.5 -121t-170.5 -41h-122q-43 0 -59.5 16t-16.5 58v417q0 21 14 32t36 11zM181 85h94q70 0 97.5 17.5t27.5 60.5v18q0 46 -29 64.5t-106 18.5h-84v-179z" />
    <glyph glyph-name="afii10095" unicode="&#x44d;" horiz-adv-x="541" vert-adv-y="1105" 
d="M250 541q113 0 175.5 -65t62.5 -191v-33q0 -126 -62.5 -191t-175.5 -65q-108 0 -178 46q-17 10 -19.5 28t7.5 33q9 16 24.5 20t32.5 -6q56 -34 132 -34q126 0 138 144h-196q-34 0 -34 40q0 41 34 41h197q-10 146 -138 146q-68 0 -121 -31q-34 -20 -55 13
q-11 16 -8.5 33.5t18.5 27.5q67 44 166 44z" />
    <glyph glyph-name="afii10096" unicode="&#x44e;" horiz-adv-x="764" vert-adv-y="1105" 
d="M483 541q109 0 168.5 -65.5t59.5 -190.5v-33q0 -125 -59.5 -190.5t-168.5 -65.5q-102 0 -160.5 58t-65.5 171h-79v-184q0 -21 -13.5 -31.5t-35.5 -10.5q-21 0 -34.5 10.5t-13.5 31.5v450q0 21 13.5 32t34.5 11q49 0 49 -43v-180h78q6 112 65 171t162 59zM483 454
q-66 0 -97.5 -41.5t-31.5 -130.5v-27q0 -89 31.5 -130.5t97.5 -41.5t97.5 41.5t31.5 130.5v27q0 89 -31.5 130.5t-97.5 41.5z" />
    <glyph glyph-name="afii10097" unicode="&#x44f;" horiz-adv-x="553" vert-adv-y="1105" 
d="M400 529q41 0 56.5 -15t15.5 -55v-417q0 -21 -14 -32t-36 -11t-36 11t-14 32v162h-105q-16 0 -25 1l-94 -182q-19 -38 -65 -18q-19 9 -25 25.5t5 36.5l84 155q-93 36 -93 138v15q0 81 51 117.5t154 36.5h141zM270 445q-67 0 -92 -14.5t-25 -57.5v-12q0 -43 26.5 -57.5
t100.5 -14.5h92v156h-102z" />
    <glyph glyph-name="afii10071" unicode="&#x451;" horiz-adv-x="574" vert-adv-y="1105" 
d="M192 710q23 0 39.5 -16t16.5 -38t-16.5 -37.5t-39.5 -15.5t-39 15.5t-16 37.5t16 38t39 16zM367 710q23 0 39.5 -16t16.5 -38t-16.5 -37.5t-39.5 -15.5t-39 15.5t-16 37.5t16 38t39 16zM292 541q106 0 168.5 -63t62.5 -174v-2q0 -38 -16 -53.5t-55 -15.5h-302v-4
q0 -72 38 -111t110 -39q81 0 144 33q16 8 31.5 3t22.5 -21q17 -38 -15 -56q-75 -42 -187 -42q-114 0 -177.5 65t-63.5 190v34q0 125 63.5 190.5t175.5 65.5zM290 458q-67 0 -103.5 -38.5t-36.5 -105.5v-6h278v9q0 66 -35 103.5t-103 37.5z" />
    <glyph glyph-name="uni2010" unicode="&#x2010;" horiz-adv-x="419" vert-adv-y="1105" 
d="M357 405q18 0 27.5 -13t9.5 -34q0 -20 -9.5 -33t-27.5 -13h-295q-18 0 -27.5 13t-9.5 33q0 21 9.5 34t27.5 13h295z" />
    <glyph glyph-name="endash" unicode="&#x2013;" horiz-adv-x="425" vert-adv-y="1105" 
d="M395 396q30 0 30 -38q0 -36 -30 -36h-365q-30 0 -30 36q0 38 30 38h365z" />
    <glyph glyph-name="emdash" unicode="&#x2014;" horiz-adv-x="849" vert-adv-y="1105" 
d="M819 396q30 0 30 -38q0 -36 -30 -36h-789q-30 0 -30 36q0 38 30 38h789z" />
    <glyph glyph-name="uni2016" unicode="&#x2016;" vert-adv-y="1105" 
d="M395 815v-960h-56v960h56zM571 815v-960h-57v960h57z" />
    <glyph glyph-name="quoteleft" unicode="&#x2018;" horiz-adv-x="200" vert-adv-y="1105" 
d="M145 776q15 -2 23 -12.5t5 -26.5l-29 -159q-4 -22 -21.5 -31t-40.5 -6q-22 5 -32 20t-3 37l50 152q11 33 48 26z" />
    <glyph glyph-name="quoteright" unicode="&#x2019;" horiz-adv-x="200" vert-adv-y="1105" 
d="M118 762q22 -4 32 -19t3 -37l-50 -153q-11 -33 -48 -26q-34 7 -28 40l29 159q4 22 21.5 31t40.5 5z" />
    <glyph glyph-name="quotereversed" unicode="&#x201b;" vert-adv-y="1105" 
 />
    <glyph glyph-name="quotedblleft" unicode="&#x201c;" horiz-adv-x="350" vert-adv-y="1105" 
d="M148 777q31 -5 26 -38l-30 -163q-4 -21 -20 -29.5t-37 -5.5q-20 4 -30 18t-3 33l52 160q10 30 42 25zM294 777q30 -5 25 -38l-30 -163q-4 -21 -20 -29.5t-37 -5.5q-20 4 -30 17.5t-3 33.5l52 160q10 30 43 25z" />
    <glyph glyph-name="quotedblright" unicode="&#x201d;" horiz-adv-x="350" vert-adv-y="1105" 
d="M118 762q20 -3 30 -17t3 -34l-52 -160q-10 -30 -43 -25q-30 5 -25 39l30 163q4 21 20 29t37 5zM263 762q20 -3 30 -17t3 -34l-52 -160q-10 -30 -42 -25q-31 5 -26 39l30 163q4 21 20 29t37 5z" />
    <glyph glyph-name="uni201F" unicode="&#x201f;" vert-adv-y="1105" 
 />
    <glyph glyph-name="dagger" unicode="&#x2020;" horiz-adv-x="472" vert-adv-y="1105" 
d="M235 717q21 0 35.5 -10.5t14.5 -31.5v-163h128q34 0 34 -40q0 -18 -9 -29.5t-25 -11.5h-128v-460q0 -20 -14.5 -30.5t-35.5 -10.5q-20 0 -34.5 10.5t-14.5 30.5v460h-127q-16 0 -25 11.5t-9 29.5q0 40 34 40h127v163q0 20 14.5 31t34.5 11z" />
    <glyph glyph-name="daggerdbl" unicode="&#x2021;" horiz-adv-x="472" vert-adv-y="1105" 
d="M235 717q21 0 35.5 -10.5t14.5 -31.5v-163h128q34 0 34 -40q0 -18 -9 -29.5t-25 -11.5h-128v-222h128q34 0 34 -40q0 -18 -9 -29.5t-25 -11.5h-128v-157q0 -20 -14.5 -30.5t-35.5 -10.5q-20 0 -34.5 10.5t-14.5 30.5v157h-127q-16 0 -25 11.5t-9 29.5q0 40 34 40h127v222
h-127q-16 0 -25 11.5t-9 29.5q0 40 34 40h127v163q0 20 14.5 31t34.5 11z" />
    <glyph glyph-name="bullet" unicode="&#x2022;" vert-adv-y="1105" 
 />
    <glyph glyph-name="twodotenleader" unicode="&#x2025;" vert-adv-y="1105" 
d="M312 425q28 0 47.5 -19.5t19.5 -47.5t-19.5 -47.5t-47.5 -19.5q-29 0 -48.5 19t-19.5 48t19.5 48t48.5 19zM598 425q29 0 48.5 -19t19.5 -48t-19.5 -48t-48.5 -19t-48.5 19t-19.5 48t19.5 48t48.5 19z" />
    <glyph glyph-name="uni22EF" unicode="&#x2026;" vert-adv-y="1105" 
d="M172 425q29 0 48.5 -19t19.5 -48t-19.5 -48t-48.5 -19t-48.5 19t-19.5 48t19.5 48t48.5 19zM455 425q29 0 48.5 -19t19.5 -48t-19.5 -48t-48.5 -19t-48.5 19t-19.5 48t19.5 48t48.5 19zM738 425q29 0 48.5 -19t19.5 -48t-19.5 -48t-48.5 -19t-48.5 19t-19.5 48t19.5 48
t48.5 19z" />
    <glyph glyph-name="uni22EF" unicode="&#x22ef;" vert-adv-y="1105" 
d="M172 425q29 0 48.5 -19t19.5 -48t-19.5 -48t-48.5 -19t-48.5 19t-19.5 48t19.5 48t48.5 19zM455 425q29 0 48.5 -19t19.5 -48t-19.5 -48t-48.5 -19t-48.5 19t-19.5 48t19.5 48t48.5 19zM738 425q29 0 48.5 -19t19.5 -48t-19.5 -48t-48.5 -19t-48.5 19t-19.5 48t19.5 48
t48.5 19z" />
    <glyph glyph-name="perthousand" unicode="&#x2030;" horiz-adv-x="1281" vert-adv-y="1105" 
d="M227 726q80 0 122 -47t42 -129v-21q0 -82 -42 -129t-122 -47t-122 47t-42 129v21q0 82 42 129t122 47zM669 714q14 -7 18.5 -20.5t-4.5 -30.5l-394 -646q-19 -30 -53 -12q-33 18 -14 51l394 646q18 30 53 12zM227 655q-84 0 -84 -109v-13q0 -57 20.5 -83t63.5 -26
q44 0 64 26t20 83v13q0 56 -20.5 82.5t-63.5 26.5zM676 366q80 0 122 -46.5t42 -128.5v-22q0 -82 -42 -129t-122 -47t-122 47t-42 129v22q0 82 42 128.5t122 46.5zM1054 366q80 0 122 -46.5t42 -128.5v-22q0 -82 -42 -129t-122 -47t-122 47t-42 129v22q0 82 42 128.5
t122 46.5zM676 295q-84 0 -84 -109v-13q0 -109 84 -109q43 0 63.5 26.5t20.5 82.5v13q0 56 -20.5 82.5t-63.5 26.5zM1054 295q-43 0 -63.5 -26.5t-20.5 -82.5v-13q0 -56 20.5 -82.5t63.5 -26.5q84 0 84 109v13q0 109 -84 109z" />
    <glyph glyph-name="minute" unicode="&#x2032;" horiz-adv-x="429" vert-adv-y="1105" 
d="M252 752q20 -6 30 -22t0 -35l-103 -196q-11 -20 -34 -13q-25 5 -17 30l66 210q12 39 58 26z" />
    <glyph glyph-name="second" unicode="&#x2033;" horiz-adv-x="610" vert-adv-y="1105" 
d="M252 752q20 -6 30 -22t0 -35l-103 -196q-11 -20 -34 -13q-25 5 -17 30l66 210q12 39 58 26zM433 752q20 -6 30 -22t0 -35l-103 -196q-11 -20 -34 -13q-25 5 -17 30l66 210q12 39 58 26z" />
    <glyph glyph-name="uni2034" unicode="&#x2034;" vert-adv-y="1105" 
 />
    <glyph glyph-name="uni2035" unicode="&#x2035;" vert-adv-y="1105" 
 />
    <glyph glyph-name="uni2036" unicode="&#x2036;" vert-adv-y="1105" 
 />
    <glyph glyph-name="guilsinglleft" unicode="&#x2039;" vert-adv-y="1105" 
 />
    <glyph glyph-name="guilsinglright" unicode="&#x203a;" vert-adv-y="1105" 
 />
    <glyph glyph-name="uni203B" unicode="&#x203b;" vert-adv-y="1105" 
d="M457 407l248 252q23 23 49 -2q27 -26 5 -48l-252 -252l252 -250q24 -23 -4 -49q-12 -11 -25.5 -12t-24.5 10l-246 252l-246 -252q-12 -11 -25.5 -10t-25.5 12q-27 27 -3 49l250 250l-250 252q-23 22 3 48q12 11 25.5 12t24.5 -10zM455 725q29 0 48.5 -19.5t19.5 -48.5
t-19.5 -48t-48.5 -19t-48.5 19t-19.5 48t19.5 48.5t48.5 19.5zM455 125q29 0 48.5 -19t19.5 -48t-19.5 -48t-48.5 -19t-48.5 19t-19.5 48t19.5 48t48.5 19zM822 358q0 -29 -19 -48.5t-48 -19.5t-48.5 19.5t-19.5 48.5t19.5 48t48.5 19t48 -19.5t19 -47.5zM223 358
q0 -29 -19.5 -48.5t-48.5 -19.5t-48 19.5t-19 48.5q0 28 19 47.5t48 19.5t48.5 -19t19.5 -48z" />
    <glyph glyph-name="exclamdbl" unicode="&#x203c;" vert-adv-y="1105" 
 />
    <glyph glyph-name="uni2042" unicode="&#x2042;" vert-adv-y="1105" 
 />
    <glyph glyph-name="uni2074" unicode="&#x2074;" horiz-adv-x="400" vert-adv-y="1105" 
d="M278 816q30 -20 11 -47l-161 -229h122v101q0 16 11 24t26 8t26 -8t11 -24v-101h35q28 0 28 -31q0 -32 -28 -32h-35v-61q0 -16 -11 -24t-26 -8t-26 8t-11 24v61h-167q-45 0 -45 37q0 17 16 39l176 255q20 28 48 8z" />
    <glyph glyph-name="uni207A" unicode="&#x207a;" vert-adv-y="1105" 
 />
    <glyph glyph-name="uni207B" unicode="&#x207b;" vert-adv-y="1105" 
 />
    <glyph glyph-name="uni207C" unicode="&#x207c;" vert-adv-y="1105" 
 />
    <glyph glyph-name="uni207D" unicode="&#x207d;" vert-adv-y="1105" 
 />
    <glyph glyph-name="uni207E" unicode="&#x207e;" vert-adv-y="1105" 
 />
    <glyph glyph-name="uni207F" unicode="&#x207f;" horiz-adv-x="455" vert-adv-y="1105" 
d="M255 739q60 0 93.5 -34t33.5 -96v-192q0 -32 -37 -32q-36 0 -36 32v178q0 77 -71 77q-37 0 -59 -23t-22 -55v-177q0 -32 -37 -32t-37 32v287q0 31 36 31q34 0 34 -31v-23q12 26 40 42t62 16z" />
    <glyph glyph-name="uni2081" unicode="&#x2081;" horiz-adv-x="400" vert-adv-y="1105" 
d="M228 333q38 0 38 -34v-371q0 -34 -37 -34t-37 34v313l-76 -46q-14 -8 -27 -3.5t-20 17.5q-7 12 -4 26.5t16 21.5l105 63q23 13 42 13z" />
    <glyph glyph-name="uni2082" unicode="&#x2082;" horiz-adv-x="400" vert-adv-y="1105" 
d="M201 337q68 0 103 -32.5t35 -83.5v-7q0 -60 -66 -129l-118 -123h174q29 0 29 -33q0 -14 -7.5 -23.5t-21.5 -9.5h-226q-50 0 -50 40q0 16 20 37l143 152q29 32 39 50t10 40v2q0 24 -16.5 37.5t-46.5 13.5q-46 0 -79 -44q-21 -26 -47 -6q-28 18 -9 46q45 73 134 73z" />
    <glyph glyph-name="uni2083" unicode="&#x2083;" horiz-adv-x="400" vert-adv-y="1105" 
d="M197 337q67 0 104.5 -31t37.5 -84v-3q0 -35 -20 -60.5t-51 -34.5q36 -4 62.5 -29.5t26.5 -67.5v-6q0 -58 -43 -93t-114 -35q-74 0 -124 35q-27 18 -10 48q19 29 47 10q41 -27 85 -27q40 0 62 17t22 47v4q0 63 -86 63h-34q-28 0 -28 33q0 31 28 31h29q34 0 54.5 15.5
t20.5 46.5v2q0 53 -69 53q-39 0 -71 -32q-21 -23 -45 1q-19 21 -1 45q42 52 117 52z" />
    <glyph glyph-name="uni2084" unicode="&#x2084;" horiz-adv-x="400" vert-adv-y="1105" 
d="M278 327q30 -20 11 -47l-161 -230h122v101q0 16 11 24.5t26 8.5t26 -8.5t11 -24.5v-101h35q28 0 28 -31t-28 -31h-35v-61q0 -16 -11 -24t-26 -8t-26 8t-11 24v61h-167q-45 0 -45 36q0 17 16 39l176 256q20 28 48 8z" />
    <glyph glyph-name="uni20A9" unicode="&#x20a9;" horiz-adv-x="956" vert-adv-y="1105" 
d="M484 720q43 0 55 -48l61 -253h129l62 267q5 21 20 28.5t34 3.5q20 -4 29.5 -18.5t4.5 -35.5l-63 -245h88q24 0 24 -30t-24 -30h-102l-78 -312q-13 -48 -55 -48q-44 0 -55 49l-75 311h-113l-78 -312q-13 -48 -56 -48q-44 0 -55 49l-79 311h-101q-24 0 -24 30t24 30h87
l-61 245q-6 21 3.5 35.5t30.5 18.5q19 5 34 -2.5t20 -29.5l62 -267h132l64 253q12 48 55 48zM441 419h83l-40 167zM297 150l53 209h-103zM666 150l49 209h-100z" />
    <glyph glyph-name="uni2103" unicode="&#x2103;" horiz-adv-x="837" vert-adv-y="1105" 
d="M147 739q43 0 70 -27t27 -66t-27 -66t-70 -27t-70 27t-27 66t27 66t70 27zM541 726q124 0 205 -54q36 -25 10 -64q-10 -15 -26 -19.5t-33 5.5q-67 40 -159 40q-193 0 -193 -259v-31q0 -131 48 -194.5t147 -63.5q101 0 174 53q36 24 62 -11q12 -17 9.5 -37t-20.5 -33
q-87 -65 -227 -65q-293 0 -293 343v47q0 343 296 343zM147 689q-19 0 -31 -12.5t-12 -30.5t12 -30.5t31 -12.5t31 12.5t12 30.5t-12 30.5t-31 12.5z" />
    <glyph glyph-name="uni2109" unicode="&#x2109;" horiz-adv-x="795" vert-adv-y="1105" 
d="M147 739q43 0 70 -27t27 -66t-27 -66t-70 -27t-70 27t-27 66t27 66t70 27zM719 715q36 0 36 -43t-36 -43h-315v-232h295q17 0 26 -12.5t9 -30.5q0 -42 -35 -42h-295v-271q0 -21 -14.5 -31.5t-36.5 -10.5q-21 0 -35.5 10.5t-14.5 31.5v600q0 42 16.5 58t60.5 16h339z
M147 689q-19 0 -31 -12.5t-12 -30.5t12 -30.5t31 -12.5t31 12.5t12 30.5t-12 30.5t-31 12.5z" />
    <glyph glyph-name="afii61289" unicode="&#x2113;" vert-adv-y="1105" 
d="M480 726q134 0 134 -190v-85q0 -219 -173 -305v-14q0 -54 52 -54q28 0 54 16q32 17 51 -13q21 -32 -11 -56q-41 -29 -99 -29q-141 0 -141 133v407q0 190 133 190zM480 638q-39 0 -39 -121v-277q33 27 55.5 82.5t22.5 129.5v65q0 121 -39 121z" />
    <glyph glyph-name="afii61352" unicode="&#x2116;" horiz-adv-x="1109" vert-adv-y="1105" 
d="M880 726q80 0 122 -47t42 -129v-21q0 -82 -42 -129t-122 -47t-122 47t-42 129v21q0 82 42 129t122 47zM577 720q20 0 33.5 -10t13.5 -30v-605q0 -41 -15.5 -57t-54.5 -16q-29 0 -46 13.5t-45 62.5l-242 419q-30 53 -41 96v-554q0 -20 -13.5 -30t-33.5 -10t-33.5 10
t-13.5 30v605q0 41 15.5 57t54.5 16q29 0 46 -14t45 -62l242 -419q27 -47 42 -96v554q0 20 13 30t33 10zM880 655q-85 0 -85 -109v-13q0 -57 20.5 -83t64.5 -26t64 26t20 83v13q0 56 -20.5 82.5t-63.5 26.5zM1013 281q14 0 22.5 -10.5t8.5 -26.5t-8 -26.5t-23 -10.5h-267
q-30 0 -30 37q0 16 8 26.5t22 10.5h267z" />
    <glyph glyph-name="uni2121" unicode="&#x2121;" horiz-adv-x="1060" vert-adv-y="1105" 
d="M440 715q36 0 36 -42t-36 -42h-150v-590q0 -21 -14.5 -31.5t-35.5 -10.5t-35.5 10.5t-14.5 31.5v590h-148q-36 0 -36 42t36 42h398zM809 528q21 0 35 -10.5t14 -31.5v-400h168q13 0 20.5 -13t7.5 -28t-7.5 -28t-20.5 -13h-204q-35 0 -48.5 13t-13.5 47v422q0 20 14.5 31
t34.5 11zM670 524q34 0 34 -41q0 -40 -34 -40h-174v-131h154q34 0 34 -40t-34 -40h-154v-146h181q17 0 26 -11.5t9 -29.5q0 -41 -35 -41h-217q-35 0 -48.5 13t-13.5 47v400q0 34 13.5 47t48.5 13h210z" />
    <glyph glyph-name="trademark" unicode="&#x2122;" horiz-adv-x="715" vert-adv-y="1105" 
d="M265 715q25 0 25 -30q0 -31 -25 -31h-76v-241q0 -29 -36 -29t-36 29v241h-75q-25 0 -25 31q0 30 25 30h223zM371 715q23 0 34 -9t25 -39l68 -145l68 145q14 30 25 39t33 9h6q27 0 37 -10.5t10 -36.5v-259q0 -12 -10 -19t-24 -7q-13 0 -23 7t-10 19v221q-11 -29 -27 -61
l-45 -91q-17 -34 -40 -34q-24 0 -41 34l-44 91q-10 19 -28 61v-221q0 -12 -10 -19t-24 -7q-13 0 -22.5 7t-9.5 19v259q0 26 10 36.5t36 10.5h6z" />
    <glyph glyph-name="Omega" unicode="&#x2126;" vert-adv-y="1105" 
d="M455 726q149 0 227 -85.5t78 -257.5v-41q0 -178 -102 -250h138q18 0 27 -12.5t9 -31.5q0 -44 -36 -44h-230q-41 0 -41 45q0 24 7 35t25 22q55 34 78.5 88.5t23.5 159.5v21q0 137 -50 198.5t-154 61.5t-154.5 -61.5t-50.5 -198.5v-21q0 -105 23.5 -159.5t78.5 -88.5
q18 -11 25.5 -22t7.5 -35q0 -45 -42 -45h-229q-36 0 -36 44q0 19 9 31.5t27 12.5h143q-108 66 -108 250v41q0 343 306 343z" />
    <glyph glyph-name="uni212B" unicode="&#x212b;" horiz-adv-x="675" vert-adv-y="1105" 
d="M336 822q44 0 72 -27.5t28 -68.5q0 -43 -31 -67l230 -595q8 -21 -0.5 -38t-27.5 -23q-51 -15 -67 28l-66 179h-277l-68 -182q-14 -42 -63 -25q-43 16 -27 58l231 594q-34 24 -34 71q0 41 28 68.5t72 27.5zM336 771q-20 0 -33 -13.5t-13 -31.5t13 -31.5t33 -13.5t32.5 13
t12.5 32q0 18 -12.5 31.5t-32.5 13.5zM336 597q-17 -57 -44 -130l-65 -173h217l-64 173q-30 83 -44 130z" />
    <glyph glyph-name="onethird" unicode="&#x2153;" vert-adv-y="1105" 
d="M612 720q32 -16 17 -46l-334 -660q-8 -15 -23 -19t-29 3q-32 18 -17 47l334 660q8 15 23 19t29 -4zM218 722q38 0 38 -33v-372q0 -16 -10.5 -24.5t-26.5 -8.5t-26.5 8.5t-10.5 24.5v314l-76 -47q-14 -7 -27 -2.5t-20 16.5t-4 27t16 21l105 63q23 13 42 13zM698 437
q67 0 104.5 -31t37.5 -84v-3q0 -35 -20 -60.5t-51 -34.5q36 -4 62.5 -29.5t26.5 -67.5v-6q0 -58 -43 -93t-114 -35q-74 0 -124 35q-27 18 -10 48q19 29 47 10q41 -27 85 -27q40 0 62 17t22 47v4q0 63 -86 63h-34q-28 0 -28 33q0 31 28 31h30q34 0 54 16t20 46v2q0 53 -69 53
q-40 0 -70 -32q-22 -23 -46 1q-19 21 -1 45q42 52 117 52z" />
    <glyph glyph-name="twothirds" unicode="&#x2154;" vert-adv-y="1105" 
d="M650 720q32 -16 17 -46l-334 -660q-8 -15 -23 -19t-29 3q-32 18 -17 47l334 660q8 15 23 19t29 -4zM197 726q68 0 103.5 -32.5t35.5 -83.5v-6q0 -62 -67 -130l-117 -123h164q29 0 29 -32q0 -14 -7.5 -23.5t-21.5 -9.5h-216q-50 0 -50 39q0 17 20 37l143 152
q29 31 39 49.5t10 40.5v2q-2 51 -64 51q-46 0 -79 -44q-18 -25 -46 -6q-27 18 -10 46q46 73 134 73zM698 437q67 0 104.5 -31t37.5 -84v-3q0 -35 -20 -60.5t-51 -34.5q36 -4 62.5 -29.5t26.5 -67.5v-6q0 -58 -43 -93t-114 -35q-74 0 -124 35q-27 18 -10 48q19 29 47 10
q41 -27 85 -27q40 0 62 17t22 47v4q0 63 -86 63h-34q-28 0 -28 33q0 31 28 31h30q34 0 54 16t20 46v2q0 53 -69 53q-40 0 -70 -32q-22 -23 -46 1q-19 21 -1 45q42 52 117 52z" />
    <glyph glyph-name="oneeighth" unicode="&#x215b;" vert-adv-y="1105" 
d="M609 720q33 -16 18 -46l-335 -660q-8 -15 -23 -19t-28 3q-33 17 -18 47l335 660q17 33 51 15zM218 722q38 0 38 -33v-372q0 -16 -10.5 -24.5t-26.5 -8.5t-26.5 8.5t-10.5 24.5v314l-76 -47q-14 -7 -27 -2.5t-20 16.5t-4 27t16 21l105 63q23 13 42 13zM707 437
q64 0 102 -34t38 -83v-6q0 -30 -18 -54.5t-47 -36.5q32 -9 54.5 -36.5t22.5 -64.5v-7q0 -54 -40 -88t-110 -34q-71 0 -111.5 34t-40.5 88v7q0 36 22.5 64t55.5 37q-29 12 -47.5 36.5t-18.5 54.5v6q0 50 37 83.5t101 33.5zM708 373q-29 0 -46.5 -15.5t-17.5 -41.5v-4
q0 -27 18.5 -43.5t46.5 -16.5q27 0 45.5 17t18.5 45v3q0 26 -18 41t-47 15zM709 187q-33 0 -55 -17t-22 -48v-3q0 -28 21 -44.5t56 -16.5q34 0 54.5 16.5t20.5 44.5v3q0 30 -21.5 47.5t-53.5 17.5z" />
    <glyph glyph-name="threeeighths" unicode="&#x215c;" vert-adv-y="1105" 
d="M644 720q32 -16 17 -46l-334 -660q-8 -15 -23 -19t-29 3q-32 18 -17 47l334 660q8 15 23 19t29 -4zM189 726q67 0 105 -31t38 -83v-4q0 -34 -20.5 -60t-50.5 -34q35 -5 61.5 -30.5t26.5 -67.5v-5q0 -58 -43 -93.5t-114 -35.5q-74 0 -124 35q-27 20 -9 48q19 28 46 11
q43 -27 86 -27q39 0 61 17t22 46v5q0 62 -86 62h-33q-29 0 -29 33q0 32 29 32h29q34 0 54.5 15.5t20.5 46.5v2q-2 52 -70 52q-41 0 -70 -32q-22 -22 -46 2q-20 20 -1 44q42 52 117 52zM707 437q64 0 102 -34t38 -83v-6q0 -30 -18 -54.5t-47 -36.5q32 -9 54.5 -36.5
t22.5 -64.5v-7q0 -54 -40 -88t-110 -34q-71 0 -111.5 34t-40.5 88v7q0 36 22.5 64t55.5 37q-29 12 -47.5 36.5t-18.5 54.5v6q0 50 37 83.5t101 33.5zM708 373q-29 0 -46.5 -15.5t-17.5 -41.5v-4q0 -27 18.5 -43.5t46.5 -16.5q27 0 45.5 17t18.5 45v3q0 26 -18 41t-47 15z
M709 187q-33 0 -55 -17t-22 -48v-3q0 -28 21 -44.5t56 -16.5q34 0 54.5 16.5t20.5 44.5v3q0 30 -21.5 47.5t-53.5 17.5z" />
    <glyph glyph-name="fiveeighths" unicode="&#x215d;" vert-adv-y="1105" 
d="M644 720q32 -16 17 -46l-334 -660q-8 -15 -23 -19t-29 3q-32 18 -17 47l334 660q8 15 23 19t29 -4zM298 721q30 0 30 -34q0 -32 -30 -32h-151l-7 -116q32 27 80 27q61 0 97 -37t36 -99v-4q0 -64 -42 -104t-114 -40q-78 0 -132 37q-27 19 -9 47t47 12q40 -27 93 -27
q39 0 61 20.5t22 55.5v2q0 37 -20.5 56.5t-57.5 19.5q-38 0 -70 -27q-18 -13 -35 -13q-14 0 -22.5 7.5t-7.5 20.5l10 176q2 30 12.5 41t40.5 11h169zM707 437q64 0 102 -34t38 -83v-6q0 -30 -18 -54.5t-47 -36.5q32 -9 54.5 -36.5t22.5 -64.5v-7q0 -54 -40 -88t-110 -34
q-71 0 -111.5 34t-40.5 88v7q0 36 22.5 64t55.5 37q-29 12 -47.5 36.5t-18.5 54.5v6q0 50 37 83.5t101 33.5zM708 373q-29 0 -46.5 -15.5t-17.5 -41.5v-4q0 -27 18.5 -43.5t46.5 -16.5q27 0 45.5 17t18.5 45v3q0 26 -18 41t-47 15zM709 187q-33 0 -55 -17t-22 -48v-3
q0 -28 21 -44.5t56 -16.5q34 0 54.5 16.5t20.5 44.5v3q0 30 -21.5 47.5t-53.5 17.5z" />
    <glyph glyph-name="seveneighths" unicode="&#x215e;" vert-adv-y="1105" 
d="M609 720q33 -16 18 -46l-335 -660q-8 -15 -23 -19t-28 3q-33 17 -18 47l335 660q17 33 51 15zM317 721q48 0 48 -40q0 -17 -15 -51l-148 -325q-15 -31 -48 -17q-33 15 -17 47l146 320h-201q-14 0 -21.5 9.5t-7.5 22.5q0 14 7.5 24t21.5 10h235zM707 437q64 0 102 -34
t38 -83v-6q0 -30 -18 -54.5t-47 -36.5q32 -9 54.5 -36.5t22.5 -64.5v-7q0 -54 -40 -88t-110 -34q-71 0 -111.5 34t-40.5 88v7q0 36 22.5 64t55.5 37q-29 12 -47.5 36.5t-18.5 54.5v6q0 50 37 83.5t101 33.5zM708 373q-29 0 -46.5 -15.5t-17.5 -41.5v-4q0 -27 18.5 -43.5
t46.5 -16.5q27 0 45.5 17t18.5 45v3q0 26 -18 41t-47 15zM709 187q-33 0 -55 -17t-22 -48v-3q0 -28 21 -44.5t56 -16.5q34 0 54.5 16.5t20.5 44.5v3q0 30 -21.5 47.5t-53.5 17.5z" />
    <glyph glyph-name="uni2160" unicode="&#x2160;" vert-adv-y="1105" 
d="M455 720q22 0 36 -10.5t14 -31.5v-637q0 -21 -14 -31.5t-36 -10.5t-36 10.5t-14 31.5v637q0 21 14 31.5t36 10.5z" />
    <glyph glyph-name="uni2161" unicode="&#x2161;" vert-adv-y="1105" 
d="M333 720q22 0 36.5 -10.5t14.5 -31.5v-637q0 -21 -14.5 -31.5t-36.5 -10.5q-21 0 -35 10.5t-14 31.5v637q0 21 14 31.5t35 10.5zM576 720q22 0 36 -10.5t14 -31.5v-637q0 -21 -14 -31.5t-36 -10.5q-21 0 -35.5 10.5t-14.5 31.5v637q0 21 14.5 31.5t35.5 10.5z" />
    <glyph glyph-name="uni2162" unicode="&#x2162;" vert-adv-y="1105" 
d="M218 720q22 0 36.5 -10.5t14.5 -31.5v-637q0 -21 -14.5 -31.5t-36.5 -10.5q-21 0 -35 10.5t-14 31.5v637q0 21 14 31.5t35 10.5zM455 720q22 0 36.5 -10.5t14.5 -31.5v-637q0 -21 -14.5 -31.5t-36.5 -10.5q-21 0 -35 10.5t-14 31.5v637q0 21 14 31.5t35 10.5zM690 720
q22 0 36 -10.5t14 -31.5v-637q0 -21 -14 -31.5t-36 -10.5t-36 10.5t-14 31.5v637q0 21 14 31.5t36 10.5z" />
    <glyph glyph-name="uni2163" unicode="&#x2163;" vert-adv-y="1105" 
d="M376 718q49 12 59 -31l148 -547l148 547q12 42 57 31q45 -12 33 -57l-180 -617q-13 -45 -60 -45q-49 0 -62 45l-178 617q-12 45 35 57zM221 720q22 0 36 -10.5t14 -31.5v-637q0 -21 -14 -31.5t-36 -10.5q-21 0 -35.5 10.5t-14.5 31.5v637q0 21 14.5 31.5t35.5 10.5z" />
    <glyph glyph-name="uni2164" unicode="&#x2164;" vert-adv-y="1105" 
d="M723 716q43 -15 27 -59l-236 -613q-19 -45 -61 -45q-44 0 -61 45l-232 612q-16 45 28 60q20 8 39.5 1.5t27.5 -27.5l200 -563l205 562q16 44 63 27z" />
    <glyph glyph-name="uni2165" unicode="&#x2165;" vert-adv-y="1105" 
d="M125 718q48 11 60 -31l147 -547l149 547q12 42 57 31q45 -12 33 -57l-180 -617q-13 -45 -61 -45t-61 45l-178 617q-12 45 34 57zM688 720q22 0 36.5 -10.5t14.5 -31.5v-637q0 -21 -14.5 -31.5t-36.5 -10.5q-21 0 -35 10.5t-14 31.5v637q0 21 14 31.5t35 10.5z" />
    <glyph glyph-name="uni2166" unicode="&#x2166;" vert-adv-y="1105" 
d="M79 718q48 12 58 -31l133 -540l134 540q10 42 57 31q42 -11 30 -57l-162 -617q-14 -45 -61 -45q-48 0 -61 45l-161 617q-12 46 33 57zM594 720q46 0 46 -42v-637q0 -42 -46 -42q-45 0 -45 42v637q0 42 45 42zM766 720q46 0 46 -42v-637q0 -42 -46 -42q-45 0 -45 42v637
q0 42 45 42z" />
    <glyph glyph-name="uni2167" unicode="&#x2167;" vert-adv-y="1105" 
d="M83 719q46 7 52 -35l92 -537l93 538q5 39 50 34q43 -5 36 -48l-120 -627q-9 -45 -61 -45q-53 0 -61 45l-118 627q-7 41 37 48zM492 720q43 0 43 -42v-637q0 -42 -43 -42q-42 0 -42 42v637q0 42 42 42zM647 720q43 0 43 -42v-637q0 -42 -43 -42t-43 42v637q0 42 43 42z
M804 720q43 0 43 -42v-637q0 -42 -43 -42q-42 0 -42 42v637q0 42 42 42z" />
    <glyph glyph-name="uni2168" unicode="&#x2168;" vert-adv-y="1105" 
d="M791 713q38 -19 14 -63l-158 -280l172 -305q22 -38 -17 -59q-19 -11 -36 -6t-27 23l-155 277l-152 -277q-11 -18 -27.5 -23t-35.5 6q-38 21 -17 59l172 305l-156 280q-23 42 19 63q19 11 38 5t29 -25l137 -258l133 258q22 43 67 20zM235 720q21 0 35 -10.5t14 -31.5v-637
q0 -21 -14 -31.5t-35 -10.5t-35 10.5t-14 31.5v637q0 21 14 31.5t35 10.5z" />
    <glyph glyph-name="uni2169" unicode="&#x2169;" vert-adv-y="1105" 
d="M696 713q42 -26 16 -65l-191 -280l199 -294q28 -41 -14 -67q-17 -11 -37 -7.5t-32 21.5l-182 279l-186 -278q-11 -17 -30 -21.5t-36 5.5q-41 26 -16 65l208 299l-191 275q-13 20 -7 38t26 30q18 10 38 5.5t32 -23.5l169 -260l169 261q25 39 65 17z" />
    <glyph glyph-name="uni2170" unicode="&#x2170;" vert-adv-y="1105" 
d="M455 732q28 0 47 -18.5t19 -44.5q0 -27 -19 -45.5t-47 -18.5t-47 18.5t-19 45.5q0 26 19 44.5t47 18.5zM455 534q21 0 35 -10.5t14 -30.5v-453q0 -20 -14 -30.5t-35 -10.5q-20 0 -34.5 10.5t-14.5 30.5v453q0 20 14.5 30.5t34.5 10.5z" />
    <glyph glyph-name="uni2171" unicode="&#x2171;" vert-adv-y="1105" 
d="M329 732q28 0 47 -18.5t19 -44.5q0 -27 -19 -45.5t-47 -18.5t-47 18.5t-19 45.5q0 26 19 44.5t47 18.5zM581 732q28 0 47 -18.5t19 -44.5q0 -27 -19 -45.5t-47 -18.5t-46.5 18.5t-18.5 45.5q0 26 18.5 44.5t46.5 18.5zM329 534q21 0 35 -10.5t14 -30.5v-453
q0 -20 -14 -30.5t-35 -10.5q-20 0 -34.5 10.5t-14.5 30.5v453q0 20 14.5 30.5t34.5 10.5zM581 534q21 0 35.5 -10.5t14.5 -30.5v-453q0 -20 -14.5 -30.5t-35.5 -10.5q-20 0 -34.5 10.5t-14.5 30.5v453q0 20 14.5 30.5t34.5 10.5z" />
    <glyph glyph-name="uni2172" unicode="&#x2172;" vert-adv-y="1105" 
d="M227 732q28 0 47 -18.5t19 -44.5q0 -27 -19 -45.5t-47 -18.5t-47 18.5t-19 45.5q0 26 19 44.5t47 18.5zM456 732q28 0 46.5 -18.5t18.5 -44.5q0 -27 -18.5 -45.5t-46.5 -18.5t-47 18.5t-19 45.5q0 26 19 44.5t47 18.5zM683 732q28 0 47 -18.5t19 -44.5q0 -27 -19 -45.5
t-47 -18.5t-46.5 18.5t-18.5 45.5q0 26 18.5 44.5t46.5 18.5zM227 534q21 0 35 -10.5t14 -30.5v-453q0 -20 -14 -30.5t-35 -10.5q-20 0 -34.5 10.5t-14.5 30.5v453q0 20 14.5 30.5t34.5 10.5zM456 534q21 0 35 -10.5t14 -30.5v-453q0 -20 -14 -30.5t-35 -10.5
q-20 0 -34.5 10.5t-14.5 30.5v453q0 20 14.5 30.5t34.5 10.5zM683 534q21 0 35.5 -10.5t14.5 -30.5v-453q0 -20 -14.5 -30.5t-35.5 -10.5q-20 0 -34.5 10.5t-14.5 30.5v453q0 20 14.5 30.5t34.5 10.5z" />
    <glyph glyph-name="uni2173" unicode="&#x2173;" vert-adv-y="1105" 
d="M261 732q28 0 47 -18.5t19 -44.5q0 -27 -19 -45.5t-47 -18.5t-47 18.5t-19 45.5q0 26 19 44.5t47 18.5zM391 531q21 6 38 -1t23 -29l112 -389l108 389q6 22 23 29t38 1q42 -14 29 -56l-130 -425q-16 -51 -70 -51t-69 50l-132 426q-12 42 30 56zM261 534q21 0 35 -10.5
t14 -30.5v-453q0 -20 -14 -30.5t-35 -10.5q-20 0 -34.5 10.5t-14.5 30.5v453q0 20 14.5 30.5t34.5 10.5z" />
    <glyph glyph-name="uni2174" unicode="&#x2174;" vert-adv-y="1105" 
d="M250 529q49 18 63 -24l144 -398l143 398q7 21 25.5 26.5t36.5 -2.5q19 -6 27.5 -21.5t-0.5 -36.5l-163 -421q-20 -51 -71 -51q-50 0 -70 50l-165 422q-8 21 1.5 36.5t28.5 21.5z" />
    <glyph glyph-name="uni2175" unicode="&#x2175;" vert-adv-y="1105" 
d="M650 732q28 0 46.5 -18.5t18.5 -44.5q0 -27 -18.5 -45.5t-46.5 -18.5t-47 18.5t-19 45.5q0 26 19 44.5t47 18.5zM178 531q21 6 38 -1t23 -29l112 -389l108 389q6 22 23 29t38 1q42 -14 29 -56l-130 -425q-16 -51 -70 -51t-69 50l-131 426q-13 42 29 56zM650 534
q21 0 35 -10.5t14 -30.5v-453q0 -20 -14 -30.5t-35 -10.5q-20 0 -34.5 10.5t-14.5 30.5v453q0 20 14.5 30.5t34.5 10.5z" />
    <glyph glyph-name="uni2176" unicode="&#x2176;" vert-adv-y="1105" 
d="M574 732q28 0 46.5 -18t18.5 -45t-18.5 -45.5t-46.5 -18.5t-46 18.5t-18 45.5t18 45t46 18zM757 732q27 0 45.5 -18t18.5 -45t-18 -45.5t-46 -18.5t-46.5 18.5t-18.5 45.5t18.5 45t46.5 18zM116 532q48 13 59 -31l109 -389l103 389q11 44 59 31q18 -5 26 -20.5t2 -35.5
l-122 -426q-14 -51 -70 -51q-55 0 -70 50l-125 427q-12 44 29 56zM574 534q48 0 48 -41v-453q0 -41 -48 -41q-20 0 -33.5 10.5t-13.5 30.5v453q0 20 13.5 30.5t33.5 10.5zM757 534q21 0 34.5 -10.5t13.5 -30.5v-453q0 -20 -13.5 -30.5t-34.5 -10.5t-34.5 10.5t-13.5 30.5
v453q0 20 13.5 30.5t34.5 10.5z" />
    <glyph glyph-name="uni2177" unicode="&#x2177;" vert-adv-y="1105" 
d="M508 732q28 0 44 -18t16 -45q0 -28 -16 -46t-44 -18q-29 0 -45 18t-16 46q0 27 16 45t45 18zM660 732q28 0 44 -18t16 -45q0 -28 -16 -46t-44 -18q-29 0 -45 18t-16 46q0 27 16 45t45 18zM812 732q28 0 44 -18t16 -45q0 -28 -16 -46t-44 -18q-29 0 -45 18t-16 46
q0 27 16 45t45 18zM90 532q45 12 56 -32l95 -374l90 374q10 45 57 32q19 -4 28 -19t3 -36l-112 -427q-13 -51 -67 -51t-67 50l-115 428q-6 21 3.5 36t28.5 19zM508 534q44 0 44 -41v-453q0 -41 -44 -41t-44 41v453q0 41 44 41zM660 534q44 0 44 -41v-453q0 -41 -44 -41
t-44 41v453q0 41 44 41zM812 534q44 0 44 -41v-453q0 -41 -44 -41t-44 41v453q0 41 44 41z" />
    <glyph glyph-name="uni2178" unicode="&#x2178;" vert-adv-y="1105" 
d="M258 732q28 0 47 -18.5t19 -44.5q0 -27 -19 -45.5t-47 -18.5t-47 18.5t-19 45.5q0 26 19 44.5t47 18.5zM759 524q17 -11 20 -28t-9 -34l-131 -189l138 -202q25 -38 -9 -62q-37 -26 -65 11l-126 187l-124 -187q-12 -18 -30.5 -20.5t-33.5 9.5q-36 24 -9 62l138 201
l-126 190q-12 17 -9 34t20 28q17 12 36 9t31 -20l110 -174l113 174q11 17 30 20t36 -9zM258 534q21 0 35.5 -10.5t14.5 -30.5v-453q0 -20 -14.5 -30.5t-35.5 -10.5q-20 0 -34.5 10.5t-14.5 30.5v453q0 20 14.5 30.5t34.5 10.5z" />
    <glyph glyph-name="uni2179" unicode="&#x2179;" vert-adv-y="1105" 
d="M263 523q15 13 35.5 11t32.5 -20l127 -175l125 174q14 19 33 21t34 -10q35 -28 10 -64l-144 -187l154 -197q27 -36 -9 -66q-15 -13 -35.5 -11t-33.5 20l-138 186l-138 -185q-14 -19 -33 -21t-34 10q-35 30 -10 64l157 199l-142 185q-28 36 9 66z" />
    <glyph glyph-name="arrowleft" unicode="&#x2190;" horiz-adv-x="850" vert-adv-y="1105" 
d="M765 357q0 -17 -8.5 -28t-24.5 -11h-530q20 -13 36 -28l106 -102q21 -21 -4 -48q-10 -11 -23.5 -13t-25.5 8l-188 188q-21 21 -21 34t21 34l188 188q12 10 25.5 8t23.5 -13q25 -27 4 -48l-106 -102q-17 -15 -36 -28h530q16 0 24.5 -11t8.5 -28z" />
    <glyph glyph-name="arrowup" unicode="&#x2191;" horiz-adv-x="670" vert-adv-y="1105" 
d="M335 11q-17 0 -28 8.5t-11 24.5v530q-13 -20 -28 -36l-102 -106q-21 -21 -48 4q-11 10 -13 23.5t8 25.5l188 188q21 21 34 21t34 -21l188 -188q10 -12 8 -25.5t-13 -23.5q-27 -25 -48 -4l-102 106q-15 16 -28 36v-530q0 -16 -11 -24.5t-28 -8.5z" />
    <glyph glyph-name="arrowright" unicode="&#x2192;" horiz-adv-x="850" vert-adv-y="1105" 
d="M85 357q0 17 8.5 28t24.5 11h530q-20 13 -36 28l-106 102q-21 21 4 48q10 11 23.5 13t25.5 -8l188 -188q21 -21 21 -34t-21 -34l-188 -188q-12 -10 -25.5 -8t-23.5 13q-25 27 -4 48l106 102q16 15 36 28h-530q-16 0 -24.5 11t-8.5 28z" />
    <glyph glyph-name="arrowdown" unicode="&#x2193;" horiz-adv-x="670" vert-adv-y="1105" 
d="M335 713q17 0 28 -8.5t11 -24.5v-530q13 20 28 36l102 106q21 21 48 -4q11 -10 13 -23.5t-8 -25.5l-188 -188q-21 -21 -34 -21t-34 21l-188 188q-10 12 -8 25.5t13 23.5q27 25 48 4l102 -106q15 -16 28 -36v530q0 16 11 24.5t28 8.5z" />
    <glyph glyph-name="arrowboth" unicode="&#x2194;" vert-adv-y="1105" 
d="M702 396q-20 13 -36 28l-106 102q-21 21 4 48q10 11 23.5 13t25.5 -8l188 -188q21 -21 21 -34t-21 -34l-188 -188q-12 -10 -25.5 -8t-23.5 13q-25 27 -4 48l106 102q16 15 36 28h-494q20 -13 36 -28l106 -102q21 -21 -4 -48q-10 -11 -23.5 -13t-25.5 8l-188 188
q-21 21 -21 34t21 34l188 188q12 10 25.5 8t23.5 -13q25 -27 4 -48l-106 -102q-16 -15 -36 -28h494z" />
    <glyph glyph-name="arrowupdn" unicode="&#x2195;" horiz-adv-x="670" vert-adv-y="1105" 
d="M296 574q-13 -20 -28 -36l-102 -106q-21 -21 -48 4q-11 10 -13 23.5t8 25.5l188 188q21 21 34 21t34 -21l188 -188q10 -12 8 -25.5t-13 -23.5q-27 -25 -48 -4l-102 106q-15 16 -28 36v-424q13 20 28 36l102 106q21 21 48 -4q11 -10 13 -23.5t-8 -25.5l-188 -188
q-21 -21 -34 -21t-34 21l-188 188q-10 12 -8 25.5t13 23.5q27 25 48 4l102 -106q15 -16 28 -36v424z" />
    <glyph glyph-name="uni2196" unicode="&#x2196;" horiz-adv-x="691" vert-adv-y="1105" 
d="M174 404v-117q0 -31 -37 -31t-37 31v266q0 29 9 39q11 9 39 9h266q31 0 31 -37t-31 -37h-117q-48 0 -75 7l374 -374q24 -24 -4 -51t-51 -4l-374 374q7 -27 7 -75z" />
    <glyph glyph-name="uni2197" unicode="&#x2197;" horiz-adv-x="691" vert-adv-y="1105" 
d="M517 287v117q0 48 7 75l-374 -374q-24 -23 -51 4t-4 51l374 374q-27 -7 -75 -7h-117q-31 0 -31 37t31 37h266q29 0 39 -9q9 -11 9 -39v-266q0 -31 -37 -31t-37 31z" />
    <glyph glyph-name="uni2198" unicode="&#x2198;" horiz-adv-x="691" vert-adv-y="1105" 
d="M517 310v117q0 31 37 31t37 -31v-266q0 -29 -9 -39q-10 -9 -39 -9h-266q-31 0 -31 37t31 37h117q48 0 75 -7l-374 374q-23 24 4 51t51 4l374 -374q-7 27 -7 75z" />
    <glyph glyph-name="uni2199" unicode="&#x2199;" horiz-adv-x="691" vert-adv-y="1105" 
d="M174 427v-117q0 -48 -7 -75l374 374q23 23 51 -4t4 -51l-374 -374q27 7 75 7h117q31 0 31 -37t-31 -37h-266q-29 0 -39 9q-9 10 -9 39v266q0 31 37 31t37 -31z" />
    <glyph glyph-name="uni21B0" unicode="&#x21b0;" vert-adv-y="1105" 
 />
    <glyph glyph-name="uni21B1" unicode="&#x21b1;" vert-adv-y="1105" 
 />
    <glyph glyph-name="uni21B2" unicode="&#x21b2;" vert-adv-y="1105" 
 />
    <glyph glyph-name="uni21B3" unicode="&#x21b3;" vert-adv-y="1105" 
 />
    <glyph glyph-name="uni21B4" unicode="&#x21b4;" vert-adv-y="1105" 
 />
    <glyph glyph-name="uni21BC" unicode="&#x21bc;" vert-adv-y="1105" 
 />
    <glyph glyph-name="uni21C0" unicode="&#x21c0;" vert-adv-y="1105" 
d="M455 759q304 0 304 -172t-304 -172t-304 172t304 172zM455 678q-205 0 -205 -91t205 -91t205 91t-205 91zM840 342q35 0 35 -42t-35 -42h-770q-35 0 -35 42t35 42h770zM724 170q16 0 25 -12t9 -30t-9 -29.5t-25 -11.5h-455q-21 0 -21 -21v-103q0 -21 21 -21h465
q16 0 25 -11.5t9 -29.5t-9 -30t-25 -12h-509q-43 0 -59.5 16t-16.5 59v161q0 43 16.5 59t59.5 16h499z" />
    <glyph glyph-name="uni21C4" unicode="&#x21c4;" vert-adv-y="1105" 
 />
    <glyph glyph-name="uni21C5" unicode="&#x21c5;" vert-adv-y="1105" 
 />
    <glyph glyph-name="uni21CD" unicode="&#x21cd;" vert-adv-y="1105" 
 />
    <glyph glyph-name="uni21CF" unicode="&#x21cf;" vert-adv-y="1105" 
 />
    <glyph glyph-name="arrowdblleft" unicode="&#x21d0;" vert-adv-y="1105" 
d="M348 765q116 0 176.5 -40.5t60.5 -110.5t-60.5 -110.5t-176.5 -40.5q-115 0 -175.5 40.5t-60.5 110.5t60.5 110.5t175.5 40.5zM348 687q-71 0 -106.5 -19.5t-35.5 -53.5q0 -33 35.5 -52.5t106.5 -19.5t107 19.5t36 52.5q0 73 -143 73zM757 778q21 0 35.5 -10.5
t14.5 -31.5v-563q0 -20 -14.5 -30.5t-35.5 -10.5q-20 0 -34.5 10.5t-14.5 30.5v39h-162q-15 0 -23.5 11t-8.5 27q0 17 8.5 28t23.5 11h162v447q0 20 14.5 31t34.5 11zM617 427q34 4 38 -36q5 -40 -30 -45q-116 -14 -261 -20v-144q0 -21 -14.5 -31.5t-35.5 -10.5
q-20 0 -34.5 11t-14.5 31v141q-62 -2 -184 -2q-34 0 -34 41q0 18 9 29.5t25 11.5q333 0 536 24zM488 182q50 0 50 -39v-14q0 -38 25 -65t82 -54q80 -36 161 -68q14 -6 18 -22.5t-3 -32.5q-6 -16 -21.5 -23t-34.5 0q-66 25 -144 62q-66 30 -95.5 52.5t-36.5 43.5h-1
q-11 -41 -132 -98q-88 -40 -144 -62q-40 -14 -56 24q-8 15 -4 32.5t19 23.5q92 36 161 68q56 27 81 54.5t25 64.5v14q0 19 14 29t36 10z" />
    <glyph glyph-name="arrowdblup" unicode="&#x21d1;" vert-adv-y="1105" 
 />
    <glyph glyph-name="arrowdblright" unicode="&#x21d2;" vert-adv-y="1105" 
d="M887 359l-264 -266l-37 38l112 111h-634v52h684l67 65l-67 66h-684v52h633l-111 110l37 37z" />
    <glyph glyph-name="arrowdbldown" unicode="&#x21d3;" vert-adv-y="1105" 
 />
    <glyph glyph-name="arrowdblboth" unicode="&#x21d4;" vert-adv-y="1105" 
d="M324 586l-111 -110h484l-111 110l37 37l264 -265l-264 -266l-37 38l112 111h-486l112 -111l-37 -38l-264 266l264 265zM95 358l67 -65h586l67 65l-67 66h-586z" />
    <glyph glyph-name="uni21E0" unicode="&#x21e0;" vert-adv-y="1105" 
 />
    <glyph glyph-name="uni21E1" unicode="&#x21e1;" vert-adv-y="1105" 
 />
    <glyph glyph-name="uni21E2" unicode="&#x21e2;" vert-adv-y="1105" 
 />
    <glyph glyph-name="uni21E3" unicode="&#x21e3;" vert-adv-y="1105" 
 />
    <glyph glyph-name="uni21E6" unicode="&#x21e6;" vert-adv-y="1105" 
 />
    <glyph glyph-name="uni21E7" unicode="&#x21e7;" vert-adv-y="1105" 
 />
    <glyph glyph-name="uni21E8" unicode="&#x21e8;" vert-adv-y="1105" 
 />
    <glyph glyph-name="uni21E9" unicode="&#x21e9;" vert-adv-y="1105" 
 />
    <glyph glyph-name="universal" unicode="&#x2200;" horiz-adv-x="675" vert-adv-y="1105" 
d="M68 716q50 15 66 -27l66 -180h278l67 182q15 42 63 25q43 -16 27 -58l-236 -614q-17 -45 -60 -45q-44 0 -61 45l-238 611q-8 22 0 38.5t28 22.5zM296 252q30 -82 44 -130q15 49 44 130l63 173h-216z" />
    <glyph glyph-name="partialdiff" unicode="&#x2202;" horiz-adv-x="532" vert-adv-y="1105" 
d="M231 726q114 0 190.5 -91.5t76.5 -258.5q0 -182 -79 -282.5t-194 -100.5q-96 0 -148 62t-52 148q0 105 63 175t156 70q57 0 99 -26t64 -62h1q1 12 1 39q-1 113 -51 181.5t-134 68.5q-69 0 -139 -40l-28 64q85 53 174 53zM259 375q-59 0 -100 -48.5t-41 -121.5
q0 -64 32 -100.5t84 -36.5q63 0 108 61.5t56 149.5q-14 40 -52 68t-87 28z" />
    <glyph glyph-name="existential" unicode="&#x2203;" horiz-adv-x="607" vert-adv-y="1105" 
d="M444 715q43 0 59.5 -16t16.5 -58v-563q0 -42 -16.5 -58t-59.5 -16h-348q-35 0 -35 42t35 42h325v232h-301q-33 0 -33 42q0 41 33 41h301v228h-323q-35 0 -35 42t35 42h346z" />
    <glyph glyph-name="Delta" unicode="&#x2206;" vert-adv-y="1105" 
 />
    <glyph glyph-name="gradient" unicode="&#x2207;" vert-adv-y="1105" 
d="M849 619l-394 -624l-394 624h788zM455 107l282 453h-565z" />
    <glyph glyph-name="element" unicode="&#x2208;" vert-adv-y="1105" 
d="M797 604v-73h-402q-91 0 -140 -36.5t-59 -93.5h599v-73h-600q10 -65 58.5 -103.5t141.5 -38.5h402v-73h-398q-142 0 -214.5 70.5t-72.5 181.5q0 105 70.5 172t212.5 67h402z" />
    <glyph glyph-name="notelement" unicode="&#x2209;" vert-adv-y="1105" 
 />
    <glyph glyph-name="suchthat" unicode="&#x220b;" vert-adv-y="1105" 
d="M514 604q142 0 212.5 -67t70.5 -172q0 -111 -72.5 -181.5t-214.5 -70.5h-398v72h402q93 0 141.5 38.5t57.5 104.5h-599v73h598q-9 57 -57.5 93.5t-140.5 36.5h-402v73h402z" />
    <glyph glyph-name="uni220C" unicode="&#x220c;" vert-adv-y="1105" 
 />
    <glyph glyph-name="product" unicode="&#x220f;" horiz-adv-x="653" vert-adv-y="1105" 
d="M598 715q36 0 36 -43t-36 -43h-89v-621q0 -21 -14.5 -31.5t-35.5 -10.5t-35.5 10.5t-14.5 31.5v621h-166v-621q0 -21 -14 -31.5t-36 -10.5q-21 0 -35 10.5t-14 31.5v621h-89q-36 0 -36 43t36 43h543z" />
    <glyph glyph-name="summation" unicode="&#x2211;" horiz-adv-x="562" vert-adv-y="1105" 
d="M480 715q17 0 26 -12.5t9 -30.5q0 -42 -35 -42h-315l163 -191q30 -35 40 -50t10 -29t-10.5 -30t-39.5 -50l-163 -191h319q36 0 36 -43q0 -42 -36 -42h-375q-37 0 -53 13t-16 41q0 27 34 67l199 235l-199 234q-34 40 -34 67q0 28 16 41t53 13h371z" />
    <glyph glyph-name="uni2213" unicode="&#x2213;" vert-adv-y="1105" 
d="M753 225q44 0 60.5 -16t16.5 -59v-73q0 -43 -16.5 -59t-60.5 -16h-442q-15 0 -15 -15v-40q0 -15 15 -15h509q16 0 24 -11.5t8 -27.5q0 -39 -32 -39h-544q-44 0 -60.5 16t-16.5 59v73q0 43 16.5 59t60.5 16h441q16 0 16 15v39q0 16 -16 16h-488q-32 0 -32 39q0 16 8 27.5
t24 11.5h524zM268 753q102 0 154.5 -41.5t52.5 -113.5q0 -63 -40 -102t-118 -49v-73q87 2 153 7q17 1 26.5 -9t10.5 -28q1 -17 -7 -29t-24 -13q-179 -13 -418 -13q-17 0 -26 12t-9 29t9 29t26 12h162v76q-79 9 -119 48.5t-40 102.5q0 72 52.5 113.5t154.5 41.5zM783 778
q20 0 33.5 -10t13.5 -29v-427q0 -19 -13.5 -29t-33.5 -10q-19 0 -32.5 10t-13.5 29v172h-97v-165q0 -19 -14 -29.5t-33 -10.5t-32.5 10.5t-13.5 29.5v415q0 19 13.5 29t32.5 10q20 0 33.5 -10t13.5 -29v-165h97v170q0 19 13.5 29t32.5 10zM268 674q-58 0 -87 -20.5
t-29 -55.5t29 -55.5t87 -20.5t87 20.5t29 55.5t-29 55.5t-87 20.5z" />
    <glyph glyph-name="radical" unicode="&#x221a;" horiz-adv-x="562" vert-adv-y="1105" 
d="M580 820l-230 -921h-66l-159 427l-74 -32l-20 49l140 58l141 -403h3l197 822h68z" />
    <glyph glyph-name="proportional" unicode="&#x221d;" vert-adv-y="1105" 
d="M300 546q68 0 111.5 -35.5t78.5 -93.5q74 129 190 129q56 0 115 -43l-34 -50q-48 32 -81 32q-52 0 -87 -30.5t-71 -96.5q35 -66 70.5 -96.5t87.5 -30.5q41 0 80 22l19 -56q-51 -27 -99 -27q-111 0 -190 128q-34 -57 -76.5 -92t-112.5 -35q-74 0 -130.5 50t-56.5 138
q0 85 56 136t130 51zM301 483q-55 0 -88 -35t-33 -89q0 -57 31.5 -91t89.5 -34q96 0 159 124q-66 125 -159 125z" />
    <glyph glyph-name="infinity" unicode="&#x221e;" horiz-adv-x="610" vert-adv-y="1105" 
d="M150 502q36 0 68 -18t47 -34t39 -47q39 50 74.5 74.5t88.5 24.5q62 0 98 -38.5t36 -104.5q0 -65 -38.5 -105t-103.5 -40q-12 0 -23.5 2t-20.5 3.5t-19 7t-16 8.5t-15 11t-13 11t-13 13.5t-11 13l-12 15t-11 13.5q-39 -49 -75 -73.5t-88 -24.5q-61 0 -97 39t-36 105
q0 64 37.5 104t103.5 40zM149 439q-34 0 -53 -22t-19 -59q0 -80 70 -80q33 0 59.5 20t56.5 58q-18 24 -31.5 39t-36.5 29.5t-46 14.5zM462 439q-24 0 -47 -14t-35 -27.5t-34 -40.5q19 -25 30.5 -38t35 -27.5t48.5 -14.5q34 0 53.5 22.5t19.5 59.5q0 80 -71 80z" />
    <glyph glyph-name="orthogonal" unicode="&#x221f;" vert-adv-y="1105" 
 />
    <glyph glyph-name="angle" unicode="&#x2220;" vert-adv-y="1105" 
d="M676 555l-417 -481h501v-70h-611v49l471 549z" />
    <glyph glyph-name="uni2222" unicode="&#x2222;" vert-adv-y="1105" 
 />
    <glyph glyph-name="uni2225" unicode="&#x2225;" vert-adv-y="1105" 
 />
    <glyph glyph-name="uni2226" unicode="&#x2226;" vert-adv-y="1105" 
 />
    <glyph glyph-name="logicaland" unicode="&#x2227;" vert-adv-y="1105" 
d="M482 631l294 -568l-57 -28l-264 513l-265 -513l-57 28l294 568h55z" />
    <glyph glyph-name="logicalor" unicode="&#x2228;" vert-adv-y="1105" 
d="M455 126l264 513l57 -27l-294 -569h-55l-294 569l57 27z" />
    <glyph glyph-name="intersection" unicode="&#x2229;" vert-adv-y="1105" 
d="M455 676q110 0 177.5 -72.5t67.5 -214.5v-398h-78v403q0 105 -45 157.5t-122 52.5q-78 0 -123 -52t-45 -158v-403h-78v398q0 142 67.5 214.5t178.5 72.5z" />
    <glyph glyph-name="union" unicode="&#x222a;" vert-adv-y="1105" 
d="M286 676v-403q0 -105 46 -156t119 -51q78 0 125 51t47 156v403h78v-398q0 -141 -71.5 -214t-181.5 -73q-105 0 -172.5 70.5t-67.5 211.5v403h78z" />
    <glyph glyph-name="integral" unicode="&#x222b;" horiz-adv-x="334" vert-adv-y="1105" 
d="M272 815q30 0 48 -7l-11 -64q-20 4 -32 4q-41 0 -57.5 -44.5t-16.5 -133.5q0 -72 6 -234t6 -240q0 -113 -32.5 -176.5t-112.5 -63.5q-38 0 -56 10l12 66q20 -6 34 -6q42 0 58.5 43t16.5 126q0 78 -6 243t-6 239q0 238 149 238z" />
    <glyph glyph-name="uni222C" unicode="&#x222c;" horiz-adv-x="571" vert-adv-y="1105" 
d="M272 815q30 0 48 -7l-11 -64q-20 4 -32 4q-41 0 -57.5 -44.5t-16.5 -133.5q0 -72 6 -234t6 -240q0 -113 -32.5 -176.5t-112.5 -63.5q-38 0 -56 10l12 66q20 -6 34 -6q42 0 58.5 43t16.5 126q0 78 -6 243t-6 239q0 238 149 238zM509 815q31 0 48 -7l-11 -64q-20 4 -32 4
q-41 0 -57.5 -44.5t-16.5 -133.5q0 -72 6 -234t6 -240q0 -240 -145 -240q-38 0 -56 10l12 66q18 -6 34 -6q42 0 58.5 43t16.5 126q0 78 -6 243t-6 239q0 238 149 238z" />
    <glyph glyph-name="uni222E" unicode="&#x222e;" vert-adv-y="1105" 
d="M570 770q62 0 94 -63l-47 -21q-18 40 -50 40q-22 0 -42 -59.5t-32 -164.5q53 -6 87.5 -40.5t34.5 -90.5q0 -66 -41 -108t-100 -50q-32 -267 -136 -267q-61 0 -92 59l44 26q20 -41 51 -41q23 0 43.5 60t30.5 164q-49 8 -81 41.5t-32 86.5q0 63 37.5 104t93.5 53
q33 271 137 271zM490 472q-3 -29 -6 -110t-7 -119q37 9 61 39.5t28 74.5v12q0 39 -20.5 67.5t-55.5 35.5zM430 468q-35 -13 -57 -46.5t-22 -78.5q0 -38 18 -64t49 -35q3 33 6 111t6 113z" />
    <glyph glyph-name="therefore" unicode="&#x2234;" horiz-adv-x="610" vert-adv-y="1105" 
d="M300 609q27 0 46.5 -19.5t19.5 -46.5t-19.5 -47.5t-46.5 -20.5t-47.5 20.5t-20.5 47.5t20.5 46.5t47.5 19.5zM121 240q27 0 47 -20t20 -46q0 -28 -19.5 -47.5t-47.5 -19.5q-27 0 -47 19.5t-20 47.5q0 26 20 46t47 20zM489 240q26 0 46.5 -20t20.5 -46q0 -27 -20 -47
t-47 -20q-28 0 -47.5 19.5t-19.5 47.5q0 27 19.5 46.5t47.5 19.5z" />
    <glyph glyph-name="uni2235" unicode="&#x2235;" horiz-adv-x="586" vert-adv-y="1105" 
d="M109 590q28 0 47 -19t19 -46t-19 -46t-47 -19q-26 0 -45.5 19t-19.5 46q0 26 19.5 45.5t45.5 19.5zM474 590q28 0 46.5 -19t18.5 -46t-18.5 -46t-46.5 -19q-27 0 -46.5 19t-19.5 46q0 26 20 45.5t46 19.5zM292 210q28 0 47 -18.5t19 -46.5q0 -26 -19.5 -45.5t-46.5 -19.5
t-46 19.5t-19 45.5q0 28 19 46.5t46 18.5z" />
    <glyph glyph-name="uni2236" unicode="&#x2236;" vert-adv-y="1105" 
d="M552 599l-97 -95l-97 95h194zM552 118h-194l97 95z" />
    <glyph glyph-name="uni2237" unicode="&#x2237;" vert-adv-y="1105" 
 />
    <glyph glyph-name="uni223D" unicode="&#x223d;" vert-adv-y="1105" 
d="M260 547q60 0 125 -42l-33 -51q-49 28 -85 28q-54 0 -87 -34t-33 -88q0 -56 31.5 -90t87.5 -34q34 0 63 14.5t52 44.5t33.5 47.5t27.5 50.5q77 154 204 154q78 0 130.5 -55.5t52.5 -131.5q0 -78 -52 -134t-130 -56q-61 0 -122 45l32 50q44 -32 90 -32q51 0 84 36.5
t33 90.5q0 49 -33 86.5t-83 37.5q-52 0 -89 -33t-73 -101q-11 -22 -15.5 -30t-19 -31.5t-25 -35t-30 -30.5t-38 -28t-44 -16.5t-53.5 -7.5q-72 0 -126 50t-54 139q0 86 53 136.5t126 50.5z" />
    <glyph glyph-name="uni2243" unicode="&#x2243;" vert-adv-y="1105" 
 />
    <glyph glyph-name="congruent" unicode="&#x2245;" vert-adv-y="1105" 
 />
    <glyph glyph-name="approxequal" unicode="&#x2248;" vert-adv-y="1105" 
 />
    <glyph glyph-name="uni2250" unicode="&#x2250;" vert-adv-y="1105" 
d="M267 743q102 0 155 -44.5t53 -121.5q0 -66 -40.5 -109t-118.5 -53v-81q86 2 154 7q17 1 26.5 -9t10.5 -29q1 -18 -7 -30t-24 -13q-179 -13 -418 -13q-17 0 -26 12t-9 30t9 30t26 12h161v84q-79 10 -119.5 53t-40.5 109q0 77 53 121.5t155 44.5zM753 171q44 0 60.5 -16
t16.5 -59v-208q0 -21 -14.5 -31.5t-35.5 -10.5q-20 0 -34.5 11t-14.5 31v59l-511 -11q-17 -1 -26 10.5t-10 29.5q0 43 34 43l513 6v42q0 21 -21 21h-487q-34 0 -34 41q0 42 34 42h530zM783 778q20 0 33.5 -10t13.5 -29v-477q0 -19 -13.5 -29t-33.5 -10q-19 0 -32.5 10
t-13.5 29v196h-97v-189q0 -19 -14 -29.5t-33 -10.5t-32.5 10.5t-13.5 29.5v465q0 19 13.5 29t32.5 10q20 0 33.5 -10t13.5 -29v-191h97v196q0 19 13.5 29t32.5 10zM267 664q-58 0 -87.5 -24t-29.5 -63t29.5 -63t87.5 -24t87.5 24t29.5 63t-29.5 63t-87.5 24z" />
    <glyph glyph-name="uni2251" unicode="&#x2251;" vert-adv-y="1105" 
 />
    <glyph glyph-name="uni2252" unicode="&#x2252;" horiz-adv-x="613" vert-adv-y="1105" 
d="M194 666q26 0 43.5 -17t17.5 -43t-17.5 -43.5t-43.5 -17.5t-43.5 17.5t-17.5 43.5t17.5 43t43.5 17zM510 478q32 0 32 -39t-32 -39h-407q-16 0 -24.5 11t-8.5 28q0 39 33 39h407zM510 316q32 0 32 -39t-32 -39h-407q-33 0 -33 39q0 17 8.5 28t24.5 11h407zM418 171
q26 0 44 -17.5t18 -43.5q0 -25 -18 -42.5t-44 -17.5t-43.5 17.5t-17.5 42.5q0 26 17.5 43.5t43.5 17.5z" />
    <glyph glyph-name="uni2253" unicode="&#x2253;" vert-adv-y="1105" 
 />
    <glyph glyph-name="uni225A" unicode="&#x225a;" vert-adv-y="1105" 
 />
    <glyph glyph-name="notequal" unicode="&#x2260;" horiz-adv-x="610" vert-adv-y="1105" 
d="M479 632q28 -19 13 -44l-54 -83h70q16 0 25 -11.5t9 -29.5t-9 -30t-25 -12h-125l-83 -128h208q16 0 25 -12t9 -30t-9 -29.5t-25 -11.5h-263l-73 -113q-19 -28 -50 -10q-27 17 -11 45l51 78h-57q-17 0 -26 11.5t-9 29.5q0 42 35 42h112l83 128h-195q-35 0 -35 42
q0 18 9 29.5t26 11.5h250l77 118q17 27 47 9z" />
    <glyph glyph-name="equivalence" unicode="&#x2261;" horiz-adv-x="610" vert-adv-y="1105" 
d="M545 539q24 0 24 -31q0 -30 -24 -30h-481q-24 0 -24 30q0 31 24 31h481zM545 389q24 0 24 -31q0 -30 -24 -30h-481q-24 0 -24 30q0 31 24 31h481zM545 237q24 0 24 -31q0 -29 -24 -29h-481q-24 0 -24 29q0 31 24 31h481z" />
    <glyph glyph-name="uni2262" unicode="&#x2262;" vert-adv-y="1105" 
 />
    <glyph glyph-name="lessequal" unicode="&#x2264;" horiz-adv-x="617" vert-adv-y="1105" 
d="M488 686q40 18 56 -20q7 -16 1.5 -34t-22.5 -25l-350 -145v-2l350 -145q17 -7 22.5 -25t-1.5 -34q-16 -38 -56 -20l-377 159q-48 21 -48 66t48 66zM515 156q16 0 25 -12t9 -30t-9 -30t-25 -12h-414q-35 0 -35 42t35 42h414z" />
    <glyph glyph-name="greaterequal" unicode="&#x2265;" horiz-adv-x="617" vert-adv-y="1105" 
d="M506 527q48 -21 48 -66t-48 -66l-377 -159q-41 -18 -56 20q-8 16 -2.5 34t23.5 25l349 145v2l-349 145q-18 7 -23.5 25t2.5 34q15 38 56 20zM516 156q16 0 25 -12t9 -30t-9 -30t-25 -12h-414q-16 0 -25 12t-9 30t9 30t25 12h414z" />
    <glyph glyph-name="uni2266" unicode="&#x2266;" vert-adv-y="1105" 
 />
    <glyph glyph-name="uni2267" unicode="&#x2267;" vert-adv-y="1105" 
 />
    <glyph glyph-name="uni226E" unicode="&#x226e;" vert-adv-y="1105" 
 />
    <glyph glyph-name="uni226F" unicode="&#x226f;" vert-adv-y="1105" 
 />
    <glyph glyph-name="uni2270" unicode="&#x2270;" vert-adv-y="1105" 
 />
    <glyph glyph-name="uni2271" unicode="&#x2271;" vert-adv-y="1105" 
 />
    <glyph glyph-name="uni2272" unicode="&#x2272;" vert-adv-y="1105" 
 />
    <glyph glyph-name="uni2273" unicode="&#x2273;" vert-adv-y="1105" 
 />
    <glyph glyph-name="uni2276" unicode="&#x2276;" vert-adv-y="1105" 
 />
    <glyph glyph-name="uni2277" unicode="&#x2277;" vert-adv-y="1105" 
 />
    <glyph glyph-name="uni2279" unicode="&#x2279;" vert-adv-y="1105" 
 />
    <glyph glyph-name="uni227A" unicode="&#x227a;" vert-adv-y="1105" 
 />
    <glyph glyph-name="uni227B" unicode="&#x227b;" vert-adv-y="1105" 
 />
    <glyph glyph-name="uni2280" unicode="&#x2280;" vert-adv-y="1105" 
 />
    <glyph glyph-name="uni2281" unicode="&#x2281;" vert-adv-y="1105" 
 />
    <glyph glyph-name="propersubset" unicode="&#x2282;" vert-adv-y="1105" 
d="M797 601v-74h-402q-106 0 -155 -46t-49 -119q0 -79 49.5 -126t154.5 -47h402v-73h-398q-142 0 -214.5 69.5t-72.5 179.5q0 104 70.5 170t212.5 66h402z" />
    <glyph glyph-name="propersuperset" unicode="&#x2283;" vert-adv-y="1105" 
d="M515 601q142 0 212 -65.5t70 -170.5q0 -110 -72.5 -179.5t-214.5 -69.5h-398v73h403q104 0 153.5 47t49.5 126q0 73 -48.5 119t-154.5 46h-403v74h403z" />
    <glyph glyph-name="notsubset" unicode="&#x2284;" vert-adv-y="1105" 
 />
    <glyph glyph-name="uni2285" unicode="&#x2285;" vert-adv-y="1105" 
 />
    <glyph glyph-name="reflexsubset" unicode="&#x2286;" vert-adv-y="1105" 
d="M797 643v-74h-402q-106 0 -155.5 -41.5t-49.5 -111.5q0 -75 49.5 -117.5t155.5 -42.5h402v-74h-398q-142 0 -214.5 65t-72.5 171q0 100 70.5 162.5t212.5 62.5h402zM795 95v-74h-647v74h647z" />
    <glyph glyph-name="reflexsuperset" unicode="&#x2287;" vert-adv-y="1105" 
d="M515 643q142 0 212 -62.5t70 -162.5q0 -106 -72.5 -171t-214.5 -65h-398v74h403q105 0 154.5 43t49.5 117q0 70 -48.5 111.5t-155.5 41.5h-403v74h403zM761 95v-74h-647v74h647z" />
    <glyph glyph-name="uni228A" unicode="&#x228a;" vert-adv-y="1105" 
 />
    <glyph glyph-name="uni228B" unicode="&#x228b;" vert-adv-y="1105" 
 />
    <glyph glyph-name="circleplus" unicode="&#x2295;" vert-adv-y="1105" 
 />
    <glyph glyph-name="uni2296" unicode="&#x2296;" vert-adv-y="1105" 
 />
    <glyph glyph-name="circlemultiply" unicode="&#x2297;" vert-adv-y="1105" 
 />
    <glyph glyph-name="uni22A3" unicode="&#x22a3;" vert-adv-y="1105" 
 />
    <glyph glyph-name="uni22A4" unicode="&#x22a4;" vert-adv-y="1105" 
 />
    <glyph glyph-name="perpendicular" unicode="&#x22a5;" vert-adv-y="1105" 
d="M491 579v-504h283v-71h-638v71h282v504h73z" />
    <glyph glyph-name="uni22BB" unicode="&#x22bb;" vert-adv-y="1105" 
 />
    <glyph glyph-name="uni22BC" unicode="&#x22bc;" vert-adv-y="1105" 
 />
    <glyph glyph-name="uni22CE" unicode="&#x22ce;" vert-adv-y="1105" 
 />
    <glyph glyph-name="uni22CF" unicode="&#x22cf;" vert-adv-y="1105" 
 />
    <glyph glyph-name="uni22DA" unicode="&#x22da;" vert-adv-y="1105" 
 />
    <glyph glyph-name="uni22DB" unicode="&#x22db;" vert-adv-y="1105" 
 />
    <glyph glyph-name="uni22EE" unicode="&#x22ee;" vert-adv-y="1105" 
 />
    <glyph glyph-name="uni2306" unicode="&#x2306;" vert-adv-y="1105" 
 />
    <glyph glyph-name="uni2312" unicode="&#x2312;" vert-adv-y="1105" 
d="M454 756q176 0 264 -162h-72q-60 110 -190 110q-67 0 -116 -30.5t-77 -79.5h-72q86 162 263 162z" />
    <glyph glyph-name="uni2314" unicode="&#x2314;" vert-adv-y="1105" 
 />
    <glyph glyph-name="uni2460" unicode="&#x2460;" vert-adv-y="1105" 
d="M455 775q180 0 298 -118.5t118 -298.5q0 -181 -117.5 -299t-298.5 -118t-298.5 118t-117.5 299q0 180 118 298.5t298 118.5zM455 713q-153 0 -253 -100.5t-100 -254.5t100 -254.5t253 -100.5t253 100.5t100 254.5t-100 254.5t-253 100.5zM486 573q36 0 36 -31v-375
q0 -30 -35 -30q-34 0 -34 30v323l-82 -50q-13 -7 -25 -2.5t-18 16.5q-7 10 -4 23t15 20l105 63q22 13 42 13z" />
    <glyph glyph-name="uni2461" unicode="&#x2461;" vert-adv-y="1105" 
d="M455 775q180 0 298 -118.5t118 -298.5q0 -181 -117.5 -299t-298.5 -118t-298.5 118t-117.5 299q0 180 118 298.5t298 118.5zM455 713q-153 0 -253 -100.5t-100 -254.5t100 -254.5t253 -100.5t253 100.5t100 254.5t-100 254.5t-253 100.5zM458 587q66 0 101.5 -31.5
t35.5 -79.5v-6q0 -62 -60 -126l-129 -135h182q26 0 26 -30q0 -29 -26 -29h-228q-48 0 -48 37q0 15 19 35l144 153q52 55 52 96v2q-2 52 -68 52q-49 0 -82 -46q-17 -22 -42 -6q-26 17 -10 42q44 72 133 72z" />
    <glyph glyph-name="uni2462" unicode="&#x2462;" vert-adv-y="1105" 
d="M455 775q180 0 298 -118.5t118 -298.5q0 -181 -117.5 -299t-298.5 -118t-298.5 118t-117.5 299q0 180 118 298.5t298 118.5zM455 713q-153 0 -253 -100.5t-100 -254.5t100 -254.5t253 -100.5t253 100.5t100 254.5t-100 254.5t-253 100.5zM452 587q66 0 103.5 -30.5
t37.5 -78.5v-4q0 -32 -19 -59.5t-54 -39.5q41 -6 65.5 -31t24.5 -66v-6q0 -54 -41 -90.5t-114 -36.5t-124 35q-26 17 -8 45q17 25 42 10q42 -28 87 -28q44 0 66 18t22 49v5q0 64 -89 64h-34q-26 0 -26 31q0 30 26 30h30q36 0 57 16.5t21 49.5v2q0 25 -19 39.5t-54 14.5
q-40 0 -73 -33q-20 -18 -43 1q-20 19 -1 43q42 50 117 50z" />
    <glyph glyph-name="uni2463" unicode="&#x2463;" vert-adv-y="1105" 
d="M455 775q180 0 298 -118.5t118 -298.5q0 -181 -117.5 -299t-298.5 -118t-298.5 118t-117.5 299q0 180 118 298.5t298 118.5zM455 713q-153 0 -253 -100.5t-100 -254.5t100 -254.5t253 -100.5t253 100.5t100 254.5t-100 254.5t-253 100.5zM516 581q28 -17 9 -43l-165 -235
h132v103q0 30 34 30t34 -30v-103h39q24 0 24 -29t-24 -29h-39v-64q0 -30 -34 -30t-34 30v64h-171q-44 0 -44 34q0 14 16 37l179 258q17 25 44 7z" />
    <glyph glyph-name="uni2464" unicode="&#x2464;" vert-adv-y="1105" 
d="M455 775q180 0 298 -118.5t118 -298.5q0 -181 -117.5 -299t-298.5 -118t-298.5 118t-117.5 299q0 180 118 298.5t298 118.5zM455 713q-153 0 -253 -100.5t-100 -254.5t100 -254.5t253 -100.5t253 100.5t100 254.5t-100 254.5t-253 100.5zM562 582q25 0 25 -30t-25 -30
h-157l-7 -123q34 29 81 29q62 0 97.5 -38t35.5 -96v-6q0 -61 -40 -102t-114 -41t-129 35q-26 17 -9 45q16 25 42 10q47 -28 95 -28q41 0 63.5 22t22.5 60v3q0 38 -21 58t-60 20q-40 0 -72 -27q-16 -13 -31 -13q-13 0 -21.5 7.5t-7.5 19.5l11 175q2 29 11.5 39.5t37.5 10.5
h172z" />
    <glyph glyph-name="uni2465" unicode="&#x2465;" vert-adv-y="1105" 
d="M455 775q180 0 298 -118.5t118 -298.5q0 -181 -117.5 -299t-298.5 -118t-298.5 118t-117.5 299q0 180 118 298.5t298 118.5zM455 713q-153 0 -253 -100.5t-100 -254.5t100 -254.5t253 -100.5t253 100.5t100 254.5t-100 254.5t-253 100.5zM475 587q60 0 98 -22
q12 -7 15 -19.5t-4 -23.5q-15 -26 -41 -13q-30 16 -70 16q-45 0 -69 -33.5t-30 -103.5q32 47 99 47q63 0 100.5 -37.5t37.5 -101.5v-9q0 -63 -41.5 -102.5t-109.5 -39.5q-75 0 -114 47.5t-39 136.5v16q0 133 44 187.5t124 54.5zM461 374q-40 0 -62.5 -22.5t-22.5 -54.5v-4
q0 -39 22.5 -62.5t59.5 -23.5q40 0 62.5 21.5t22.5 61.5v3q0 81 -82 81z" />
    <glyph glyph-name="uni2466" unicode="&#x2466;" vert-adv-y="1105" 
d="M455 775q180 0 298 -118.5t118 -298.5q0 -181 -117.5 -299t-298.5 -118t-298.5 118t-117.5 299q0 180 118 298.5t298 118.5zM455 713q-153 0 -253 -100.5t-100 -254.5t100 -254.5t253 -100.5t253 100.5t100 254.5t-100 254.5t-253 100.5zM570 562q46 0 46 -37
q0 -16 -15 -50l-150 -328q-15 -29 -45 -15q-29 12 -16 43l151 326h-208q-26 0 -26 30q0 31 26 31h237z" />
    <glyph glyph-name="uni2467" unicode="&#x2467;" vert-adv-y="1105" 
d="M455 775q180 0 298 -118.5t118 -298.5q0 -181 -117.5 -299t-298.5 -118t-298.5 118t-117.5 299q0 180 118 298.5t298 118.5zM455 713q-153 0 -253 -100.5t-100 -254.5t100 -254.5t253 -100.5t253 100.5t100 254.5t-100 254.5t-253 100.5zM456 587q64 0 101 -33.5
t37 -82.5v-6q0 -60 -62 -92q35 -11 54.5 -37.5t19.5 -61.5v-7q0 -54 -39.5 -88t-108.5 -34t-109 34t-40 88v7q0 33 20 60.5t53 39.5q-29 14 -45.5 39.5t-16.5 51.5v6q0 49 36.5 82.5t99.5 33.5zM457 527q-31 0 -49 -16.5t-18 -43.5v-4q0 -28 20 -44.5t48 -16.5
q29 0 47.5 16.5t19.5 44.5v4q0 27 -18.5 43.5t-49.5 16.5zM458 340q-35 0 -57.5 -17.5t-22.5 -48.5v-4q0 -29 22 -46.5t58 -17.5t57 17.5t21 45.5v5q0 31 -22 48.5t-56 17.5z" />
    <glyph glyph-name="uni2468" unicode="&#x2468;" vert-adv-y="1105" 
d="M455 775q180 0 298 -118.5t118 -298.5q0 -181 -117.5 -299t-298.5 -118t-298.5 118t-117.5 299q0 180 118 298.5t298 118.5zM455 713q-153 0 -253 -100.5t-100 -254.5t100 -254.5t253 -100.5t253 100.5t100 254.5t-100 254.5t-253 100.5zM460 587q75 0 114.5 -47
t39.5 -136v-16q0 -136 -43 -189.5t-126 -53.5q-61 0 -97 22q-25 15 -12 42q13 28 40 14q32 -15 71 -15q50 0 72.5 31t27.5 104q-29 -46 -100 -46q-63 0 -100 37.5t-37 100.5v10q0 64 41 103t109 39zM461 525q-39 0 -61.5 -21t-22.5 -60v-5q0 -81 82 -81q40 0 62.5 22
t22.5 55v5q0 39 -22.5 62t-60.5 23z" />
    <glyph glyph-name="uni2469" unicode="&#x2469;" vert-adv-y="1105" 
d="M455 775q180 0 298 -118.5t118 -298.5q0 -181 -117.5 -299t-298.5 -118t-298.5 118t-117.5 299q0 180 118 298.5t298 118.5zM455 713q-153 0 -253 -100.5t-100 -254.5t100 -254.5t253 -100.5t253 100.5t100 254.5t-100 254.5t-253 100.5zM578 579q144 0 144 -199v-28
q0 -199 -144 -199q-143 0 -143 199v28q0 199 143 199zM330 575q35 0 35 -30v-359q0 -15 -10 -22.5t-23 -7.5t-22.5 7.5t-9.5 22.5v306l-72 -47q-24 -14 -41 14q-7 9 -5 22t15 21l95 61q19 12 38 12zM578 514q-43 0 -60 -32t-17 -106v-19q0 -75 17 -106.5t60 -31.5t60.5 32
t17.5 106v19q0 74 -17.5 106t-60.5 32z" />
    <glyph glyph-name="uni246A" unicode="&#x246a;" vert-adv-y="1105" 
d="M455 775q180 0 298 -118.5t118 -298.5q0 -181 -117.5 -299t-298.5 -118t-298.5 118t-117.5 299q0 180 118 298.5t298 118.5zM455 713q-153 0 -253 -100.5t-100 -254.5t100 -254.5t253 -100.5t253 100.5t100 254.5t-100 254.5t-253 100.5zM359 575q34 0 34 -30v-359
q0 -15 -9.5 -22.5t-22.5 -7.5q-33 0 -33 30v306l-71 -47q-12 -6 -23.5 -2t-17.5 16q-18 27 10 43l95 61q19 12 38 12zM610 575q34 0 34 -30v-359q0 -30 -33 -30q-13 0 -22.5 7.5t-9.5 22.5v306l-72 -47q-24 -14 -41 14q-7 9 -4.5 22t15.5 21l95 61q17 12 38 12z" />
    <glyph glyph-name="uni246B" unicode="&#x246b;" vert-adv-y="1105" 
d="M455 775q180 0 298 -118.5t118 -298.5q0 -181 -117.5 -299t-298.5 -118t-298.5 118t-117.5 299q0 180 118 298.5t298 118.5zM455 713q-153 0 -253 -100.5t-100 -254.5t100 -254.5t253 -100.5t253 100.5t100 254.5t-100 254.5t-253 100.5zM571 579q61 0 93 -30.5t32 -77.5
v-6q0 -61 -54 -121l-115 -126h162q26 0 26 -31q0 -29 -26 -29h-207q-44 0 -44 37q0 11 18 34l131 146q47 53 47 91v2q-2 48 -62 48q-43 0 -73 -43q-16 -22 -40 -6q-23 17 -9 42q41 70 121 70zM330 575q35 0 35 -30v-359q0 -15 -10 -22.5t-23 -7.5t-22.5 7.5t-9.5 22.5v306
l-72 -47q-24 -14 -41 14q-7 9 -5 22t15 21l95 61q19 12 38 12z" />
    <glyph glyph-name="uni246C" unicode="&#x246c;" vert-adv-y="1105" 
d="M455 775q180 0 298 -118.5t118 -298.5q0 -181 -117.5 -299t-298.5 -118t-298.5 118t-117.5 299q0 180 118 298.5t298 118.5zM455 713q-153 0 -253 -100.5t-100 -254.5t100 -254.5t253 -100.5t253 100.5t100 254.5t-100 254.5t-253 100.5zM561 579q62 0 96 -30t34 -76v-4
q0 -30 -17.5 -55.5t-46.5 -37.5q34 -7 56.5 -31t22.5 -63v-6q0 -53 -38 -88t-104 -35q-67 0 -113 34q-23 18 -7 44q17 27 40 10q38 -25 79 -25q78 0 78 62v5q0 59 -80 59h-30q-26 0 -26 32q0 30 26 30h26q70 0 70 62v2q-2 50 -66 50q-35 0 -64 -32q-20 -18 -40 2
q-10 8 -10 20.5t8 22.5q38 48 106 48zM330 575q35 0 35 -30v-359q0 -15 -10 -22.5t-23 -7.5t-22.5 7.5t-9.5 22.5v306l-72 -47q-24 -14 -41 14q-7 9 -5 22t15 21l95 61q19 12 38 12z" />
    <glyph glyph-name="uni246D" unicode="&#x246d;" vert-adv-y="1105" 
d="M455 775q180 0 298 -118.5t118 -298.5q0 -181 -117.5 -299t-298.5 -118t-298.5 118t-117.5 299q0 180 118 298.5t298 118.5zM455 713q-153 0 -253 -100.5t-100 -254.5t100 -254.5t253 -100.5t253 100.5t100 254.5t-100 254.5t-253 100.5zM629 573q25 -18 9 -43l-149 -224
h116v99q0 29 32 29t32 -29v-99h34q23 0 23 -28q0 -29 -23 -29h-34v-60q0 -29 -32 -29t-32 29v60h-154q-41 0 -41 34q0 15 14 36l162 246q17 26 43 8zM330 575q35 0 35 -30v-359q0 -15 -10 -22.5t-23 -7.5t-22.5 7.5t-9.5 22.5v306l-72 -47q-24 -14 -41 14q-7 9 -5 22t15 21
l95 61q19 12 38 12z" />
    <glyph glyph-name="uni246E" unicode="&#x246e;" vert-adv-y="1105" 
d="M455 775q180 0 298 -118.5t118 -298.5q0 -181 -117.5 -299t-298.5 -118t-298.5 118t-117.5 299q0 180 118 298.5t298 118.5zM455 713q-153 0 -253 -100.5t-100 -254.5t100 -254.5t253 -100.5t253 100.5t100 254.5t-100 254.5t-253 100.5zM330 575q35 0 35 -30v-359
q0 -15 -10 -22.5t-23 -7.5t-22.5 7.5t-9.5 22.5v306l-72 -47q-24 -14 -41 14q-7 9 -5 22t15 21l95 61q19 12 38 12zM660 574q25 0 25 -30q0 -31 -25 -31h-139l-7 -115q26 28 71 28q58 0 90.5 -36t32.5 -93v-6q0 -58 -37 -98t-104 -40q-70 0 -118 33q-25 17 -8 45
q14 26 39 12q40 -27 86 -27q38 0 58 20.5t20 55.5v3q0 73 -74 73q-36 0 -64 -25q-13 -13 -29 -13q-13 0 -20.5 7t-6.5 20l10 167q2 28 11.5 39t34.5 11h154z" />
    <glyph glyph-name="uni246F" unicode="&#x246f;" vert-adv-y="1105" 
 />
    <glyph glyph-name="uni2470" unicode="&#x2470;" vert-adv-y="1105" 
 />
    <glyph glyph-name="uni2471" unicode="&#x2471;" vert-adv-y="1105" 
 />
    <glyph glyph-name="uni2472" unicode="&#x2472;" vert-adv-y="1105" 
 />
    <glyph glyph-name="uni2473" unicode="&#x2473;" vert-adv-y="1105" 
 />
    <glyph glyph-name="uni2474" unicode="&#x2474;" vert-adv-y="1105" 
d="M189 736q23 -14 11 -35q-84 -154 -84 -343t84 -343q12 -21 -11 -35q-26 -14 -42 11q-104 148 -104 367t104 367q16 25 42 11zM721 736q26 14 42 -11q104 -148 104 -367t-104 -367q-16 -25 -42 -11q-23 14 -11 35q84 154 84 343t-84 343q-12 21 11 35zM486 573
q36 0 36 -31v-375q0 -30 -35 -30q-34 0 -34 30v323l-82 -50q-13 -7 -25 -2.5t-18 16.5q-7 10 -4 23t15 20l105 63q22 13 42 13z" />
    <glyph glyph-name="uni2475" unicode="&#x2475;" vert-adv-y="1105" 
d="M189 736q23 -14 11 -35q-84 -154 -84 -343t84 -343q12 -21 -11 -35q-26 -14 -42 11q-104 148 -104 367t104 367q16 25 42 11zM721 736q26 14 42 -11q104 -148 104 -367t-104 -367q-16 -25 -42 -11q-23 14 -11 35q84 154 84 343t-84 343q-12 21 11 35zM458 587
q66 0 101.5 -31.5t35.5 -79.5v-6q0 -62 -60 -126l-129 -135h182q26 0 26 -30q0 -29 -26 -29h-228q-48 0 -48 37q0 15 19 35l144 153q52 55 52 96v2q-2 52 -68 52q-49 0 -82 -46q-17 -22 -42 -6q-26 17 -10 42q44 72 133 72z" />
    <glyph glyph-name="uni2476" unicode="&#x2476;" vert-adv-y="1105" 
d="M189 736q23 -14 11 -35q-84 -154 -84 -343t84 -343q12 -21 -11 -35q-26 -14 -42 11q-104 148 -104 367t104 367q16 25 42 11zM721 736q26 14 42 -11q104 -148 104 -367t-104 -367q-16 -25 -42 -11q-23 14 -11 35q84 154 84 343t-84 343q-12 21 11 35zM452 587
q66 0 103.5 -30.5t37.5 -78.5v-4q0 -32 -19 -59.5t-54 -39.5q41 -6 65.5 -31t24.5 -66v-6q0 -54 -41 -90.5t-114 -36.5t-124 35q-26 17 -8 45q17 25 42 10q42 -28 87 -28q44 0 66 18t22 49v5q0 64 -89 64h-34q-26 0 -26 31q0 30 26 30h30q36 0 57 16.5t21 49.5v2
q0 25 -19 39.5t-54 14.5q-40 0 -73 -33q-20 -18 -43 1q-20 19 -1 43q42 50 117 50z" />
    <glyph glyph-name="uni2477" unicode="&#x2477;" vert-adv-y="1105" 
d="M189 736q23 -14 11 -35q-84 -154 -84 -343t84 -343q12 -21 -11 -35q-26 -14 -42 11q-104 148 -104 367t104 367q16 25 42 11zM721 736q26 14 42 -11q104 -148 104 -367t-104 -367q-16 -25 -42 -11q-23 14 -11 35q84 154 84 343t-84 343q-12 21 11 35zM516 581
q28 -17 9 -43l-165 -235h132v103q0 30 34 30t34 -30v-103h39q24 0 24 -29t-24 -29h-39v-64q0 -30 -34 -30t-34 30v64h-171q-44 0 -44 34q0 14 16 37l179 258q17 25 44 7z" />
    <glyph glyph-name="uni2478" unicode="&#x2478;" vert-adv-y="1105" 
d="M189 736q23 -14 11 -35q-84 -154 -84 -343t84 -343q12 -21 -11 -35q-26 -14 -42 11q-104 148 -104 367t104 367q16 25 42 11zM721 736q26 14 42 -11q104 -148 104 -367t-104 -367q-16 -25 -42 -11q-23 14 -11 35q84 154 84 343t-84 343q-12 21 11 35zM562 582
q25 0 25 -30t-25 -30h-157l-7 -123q34 29 81 29q62 0 97.5 -38t35.5 -96v-6q0 -61 -40 -102t-114 -41t-129 35q-26 17 -9 45q16 25 42 10q47 -28 95 -28q41 0 63.5 22t22.5 60v3q0 38 -21 58t-60 20q-40 0 -72 -27q-16 -13 -31 -13q-13 0 -21.5 7.5t-7.5 19.5l11 175
q2 29 11.5 39.5t37.5 10.5h172z" />
    <glyph glyph-name="uni2479" unicode="&#x2479;" vert-adv-y="1105" 
d="M189 736q23 -14 11 -35q-84 -154 -84 -343t84 -343q12 -21 -11 -35q-26 -14 -42 11q-104 148 -104 367t104 367q16 25 42 11zM721 736q26 14 42 -11q104 -148 104 -367t-104 -367q-16 -25 -42 -11q-23 14 -11 35q84 154 84 343t-84 343q-12 21 11 35zM475 587
q60 0 98 -22q12 -7 15 -19.5t-4 -23.5q-15 -26 -41 -13q-30 16 -70 16q-45 0 -69 -33.5t-30 -103.5q32 47 99 47q63 0 100.5 -37.5t37.5 -101.5v-9q0 -63 -41.5 -102.5t-109.5 -39.5q-75 0 -114 47.5t-39 136.5v16q0 133 44 187.5t124 54.5zM461 374q-40 0 -62.5 -22.5
t-22.5 -54.5v-4q0 -39 22.5 -62.5t59.5 -23.5q40 0 62.5 21.5t22.5 61.5v3q0 81 -82 81z" />
    <glyph glyph-name="uni247A" unicode="&#x247a;" vert-adv-y="1105" 
d="M189 736q23 -14 11 -35q-84 -154 -84 -343t84 -343q12 -21 -11 -35q-26 -14 -42 11q-104 148 -104 367t104 367q16 25 42 11zM721 736q26 14 42 -11q104 -148 104 -367t-104 -367q-16 -25 -42 -11q-23 14 -11 35q84 154 84 343t-84 343q-12 21 11 35zM570 562
q46 0 46 -37q0 -16 -15 -50l-150 -328q-15 -29 -45 -15q-29 12 -16 43l151 326h-208q-26 0 -26 30q0 31 26 31h237z" />
    <glyph glyph-name="uni247B" unicode="&#x247b;" vert-adv-y="1105" 
d="M189 736q23 -14 11 -35q-84 -154 -84 -343t84 -343q12 -21 -11 -35q-26 -14 -42 11q-104 148 -104 367t104 367q16 25 42 11zM721 736q26 14 42 -11q104 -148 104 -367t-104 -367q-16 -25 -42 -11q-23 14 -11 35q84 154 84 343t-84 343q-12 21 11 35zM456 587
q64 0 101 -33.5t37 -82.5v-6q0 -60 -62 -92q35 -11 54.5 -37.5t19.5 -61.5v-7q0 -54 -39.5 -88t-108.5 -34t-109 34t-40 88v7q0 33 20 60.5t53 39.5q-29 14 -45.5 39.5t-16.5 51.5v6q0 49 36.5 82.5t99.5 33.5zM457 527q-31 0 -49 -16.5t-18 -43.5v-4q0 -28 20 -44.5
t48 -16.5q29 0 47.5 16.5t19.5 44.5v4q0 27 -18.5 43.5t-49.5 16.5zM458 340q-35 0 -57.5 -17.5t-22.5 -48.5v-4q0 -29 22 -46.5t58 -17.5t57 17.5t21 45.5v5q0 31 -22 48.5t-56 17.5z" />
    <glyph glyph-name="uni247C" unicode="&#x247c;" vert-adv-y="1105" 
d="M189 736q23 -14 11 -35q-84 -154 -84 -343t84 -343q12 -21 -11 -35q-26 -14 -42 11q-104 148 -104 367t104 367q16 25 42 11zM721 736q26 14 42 -11q104 -148 104 -367t-104 -367q-16 -25 -42 -11q-23 14 -11 35q84 154 84 343t-84 343q-12 21 11 35zM460 587
q75 0 114.5 -47t39.5 -136v-16q0 -136 -43 -189.5t-126 -53.5q-61 0 -97 22q-25 15 -12 42q13 28 40 14q32 -15 71 -15q49 0 72 31t28 103q-13 -20 -40 -32.5t-60 -12.5q-63 0 -100 37.5t-37 100.5v10q0 64 41 103t109 39zM461 525q-39 0 -61.5 -21t-22.5 -60v-5
q0 -81 82 -81q40 0 62.5 22t22.5 55v5q0 39 -22.5 62t-60.5 23z" />
    <glyph glyph-name="uni247D" unicode="&#x247d;" vert-adv-y="1105" 
d="M189 736q23 -14 11 -35q-84 -154 -84 -343t84 -343q12 -21 -11 -35q-26 -14 -42 11q-104 148 -104 367t104 367q16 25 42 11zM721 736q26 14 42 -11q104 -148 104 -367t-104 -367q-16 -25 -42 -11q-23 14 -11 35q84 154 84 343t-84 343q-12 21 11 35zM578 579
q144 0 144 -199v-28q0 -199 -144 -199q-143 0 -143 199v28q0 199 143 199zM330 575q35 0 35 -30v-359q0 -15 -10 -22.5t-23 -7.5t-22.5 7.5t-9.5 22.5v306l-72 -47q-24 -14 -41 14q-7 9 -5 22t15 21l95 61q19 12 38 12zM578 514q-43 0 -60 -32t-17 -106v-19q0 -75 17 -106.5
t60 -31.5t60.5 32t17.5 106v19q0 74 -17.5 106t-60.5 32z" />
    <glyph glyph-name="uni247E" unicode="&#x247e;" vert-adv-y="1105" 
d="M189 736q23 -14 11 -35q-84 -154 -84 -343t84 -343q12 -21 -11 -35q-26 -14 -42 11q-104 148 -104 367t104 367q16 25 42 11zM721 736q26 14 42 -11q104 -148 104 -367t-104 -367q-16 -25 -42 -11q-23 14 -11 35q84 154 84 343t-84 343q-12 21 11 35zM359 575
q34 0 34 -30v-359q0 -15 -9.5 -22.5t-22.5 -7.5q-33 0 -33 30v306l-71 -47q-12 -6 -23.5 -2t-17.5 16q-18 27 10 43l95 61q19 12 38 12zM610 575q34 0 34 -30v-359q0 -30 -33 -30q-13 0 -22.5 7.5t-9.5 22.5v306l-72 -47q-24 -14 -41 14q-7 9 -4.5 22t15.5 21l95 61
q17 12 38 12z" />
    <glyph glyph-name="uni247F" unicode="&#x247f;" vert-adv-y="1105" 
d="M189 736q23 -14 11 -35q-84 -154 -84 -343t84 -343q12 -21 -11 -35q-26 -14 -42 11q-104 148 -104 367t104 367q16 25 42 11zM721 736q26 14 42 -11q104 -148 104 -367t-104 -367q-16 -25 -42 -11q-23 14 -11 35q84 154 84 343t-84 343q-12 21 11 35zM571 579
q61 0 93 -30.5t32 -77.5v-6q0 -61 -54 -121l-115 -126h162q26 0 26 -31q0 -29 -26 -29h-207q-44 0 -44 37q0 11 18 34l131 146q47 53 47 91v2q-2 48 -62 48q-43 0 -73 -43q-16 -22 -40 -6q-23 17 -9 42q41 70 121 70zM330 575q35 0 35 -30v-359q0 -15 -10 -22.5t-23 -7.5
t-22.5 7.5t-9.5 22.5v306l-72 -47q-24 -14 -41 14q-7 9 -5 22t15 21l95 61q19 12 38 12z" />
    <glyph glyph-name="uni2480" unicode="&#x2480;" vert-adv-y="1105" 
d="M189 736q23 -14 11 -35q-84 -154 -84 -343t84 -343q12 -21 -11 -35q-26 -14 -42 11q-104 148 -104 367t104 367q16 25 42 11zM721 736q26 14 42 -11q104 -148 104 -367t-104 -367q-16 -25 -42 -11q-23 14 -11 35q84 154 84 343t-84 343q-12 21 11 35zM561 579
q62 0 96 -30t34 -76v-4q0 -30 -17.5 -55.5t-46.5 -37.5q34 -7 56.5 -31t22.5 -63v-6q0 -53 -38 -88t-104 -35q-67 0 -113 34q-23 18 -7 44q17 27 40 10q38 -25 79 -25q78 0 78 62v5q0 59 -80 59h-30q-26 0 -26 32q0 30 26 30h26q70 0 70 62v2q-2 50 -66 50q-35 0 -64 -32
q-20 -18 -40 2q-10 8 -10 20.5t8 22.5q38 48 106 48zM330 575q35 0 35 -30v-359q0 -15 -10 -22.5t-23 -7.5t-22.5 7.5t-9.5 22.5v306l-72 -47q-24 -14 -41 14q-7 9 -5 22t15 21l95 61q19 12 38 12z" />
    <glyph glyph-name="uni2481" unicode="&#x2481;" vert-adv-y="1105" 
d="M189 736q23 -14 11 -35q-84 -154 -84 -343t84 -343q12 -21 -11 -35q-26 -14 -42 11q-104 148 -104 367t104 367q16 25 42 11zM721 736q26 14 42 -11q104 -148 104 -367t-104 -367q-16 -25 -42 -11q-23 14 -11 35q84 154 84 343t-84 343q-12 21 11 35zM629 573
q25 -18 9 -43l-149 -224h116v99q0 29 32 29t32 -29v-99h34q23 0 23 -28q0 -29 -23 -29h-34v-60q0 -29 -32 -29t-32 29v60h-154q-41 0 -41 34q0 15 14 36l162 246q17 26 43 8zM330 575q35 0 35 -30v-359q0 -15 -10 -22.5t-23 -7.5t-22.5 7.5t-9.5 22.5v306l-72 -47
q-24 -14 -41 14q-7 9 -5 22t15 21l95 61q19 12 38 12z" />
    <glyph glyph-name="uni2482" unicode="&#x2482;" vert-adv-y="1105" 
d="M189 736q23 -14 11 -35q-84 -154 -84 -343t84 -343q12 -21 -11 -35q-26 -14 -42 11q-104 148 -104 367t104 367q16 25 42 11zM721 736q26 14 42 -11q104 -148 104 -367t-104 -367q-16 -25 -42 -11q-23 14 -11 35q84 154 84 343t-84 343q-12 21 11 35zM330 575
q35 0 35 -30v-359q0 -15 -10 -22.5t-23 -7.5t-22.5 7.5t-9.5 22.5v306l-72 -47q-24 -14 -41 14q-7 9 -5 22t15 21l95 61q19 12 38 12zM660 574q25 0 25 -30q0 -31 -25 -31h-139l-7 -115q26 28 71 28q58 0 90.5 -36t32.5 -93v-6q0 -58 -37 -98t-104 -40q-70 0 -118 33
q-25 17 -8 45q14 26 39 12q40 -27 86 -27q38 0 58 20.5t20 55.5v3q0 73 -74 73q-36 0 -64 -25q-13 -13 -29 -13q-13 0 -20.5 7t-6.5 20l10 167q2 28 11.5 39t34.5 11h154z" />
    <glyph glyph-name="uni2483" unicode="&#x2483;" vert-adv-y="1105" 
 />
    <glyph glyph-name="uni2484" unicode="&#x2484;" vert-adv-y="1105" 
 />
    <glyph glyph-name="uni2485" unicode="&#x2485;" vert-adv-y="1105" 
 />
    <glyph glyph-name="uni2486" unicode="&#x2486;" vert-adv-y="1105" 
 />
    <glyph glyph-name="uni2487" unicode="&#x2487;" vert-adv-y="1105" 
 />
    <glyph glyph-name="uni249C" unicode="&#x249c;" vert-adv-y="1105" 
d="M189 736q23 -14 11 -35q-84 -154 -84 -343t84 -343q12 -21 -11 -35q-26 -14 -42 11q-104 148 -104 367t104 367q16 25 42 11zM721 736q26 14 42 -11q104 -148 104 -367t-104 -367q-16 -25 -42 -11q-23 14 -11 35q84 154 84 343t-84 343q-12 21 11 35zM463 536
q63 0 100.5 -31t37.5 -84v-213q0 -13 -9.5 -19.5t-21.5 -6.5q-32 0 -32 26v21q-9 -19 -35 -33q-30 -16 -68 -16q-57 0 -89 27t-32 75v9q0 101 132 101h87v15q0 36 -17 52.5t-54 16.5q-46 0 -84 -25q-23 -15 -41 10q-15 26 7 40q50 35 119 35zM447 338q-65 0 -65 -50v-3
q0 -47 57 -47q37 0 61 12q34 19 34 58v30h-87z" />
    <glyph glyph-name="uni249D" unicode="&#x249d;" vert-adv-y="1105" 
d="M189 736q23 -14 11 -35q-84 -154 -84 -343t84 -343q12 -21 -11 -35q-26 -14 -42 11q-104 148 -104 367t104 367q16 25 42 11zM721 736q26 14 42 -11q104 -148 104 -367t-104 -367q-16 -25 -42 -11q-23 14 -11 35q84 154 84 343t-84 343q-12 21 11 35zM356 629
q15 0 25 -7.5t10 -20.5v-152q30 48 99 48q140 0 140 -167v-22q0 -82 -38.5 -124.5t-105.5 -42.5q-70 0 -98 49v-19q0 -28 -33 -28t-33 28v430q0 28 34 28zM479 438q-39 0 -64.5 -25t-25.5 -64v-74q0 -30 26 -52.5t65 -22.5q81 0 81 111v17q0 110 -82 110z" />
    <glyph glyph-name="uni249E" unicode="&#x249e;" vert-adv-y="1105" 
d="M189 736q23 -14 11 -35q-84 -154 -84 -343t84 -343q12 -21 -11 -35q-26 -14 -42 11q-104 148 -104 367t104 367q16 25 42 11zM721 736q26 14 42 -11q104 -148 104 -367t-104 -367q-16 -25 -42 -11q-23 14 -11 35q84 154 84 343t-84 343q-12 21 11 35zM461 537
q64 0 109 -30q10 -7 12 -19t-5 -23q-15 -24 -39 -9q-35 20 -77 20q-87 0 -87 -108v-20q0 -52 23 -79.5t65 -27.5q47 0 83 21q11 7 23 4.5t18 -13.5q15 -28 -8 -43q-45 -30 -116 -30q-75 0 -116 42.5t-41 124.5v22q0 83 41 125.5t115 42.5z" />
    <glyph glyph-name="uni249F" unicode="&#x249f;" vert-adv-y="1105" 
d="M189 736q23 -14 11 -35q-84 -154 -84 -343t84 -343q12 -21 -11 -35q-26 -14 -42 11q-104 148 -104 367t104 367q16 25 42 11zM721 736q26 14 42 -11q104 -148 104 -367t-104 -367q-16 -25 -42 -11q-23 14 -11 35q84 154 84 343t-84 343q-12 21 11 35zM554 629
q34 0 34 -28v-430q0 -28 -33 -28q-32 0 -32 28v23q-11 -24 -39.5 -38.5t-65.5 -14.5q-67 0 -102.5 43t-35.5 125v21q0 82 38.5 124.5t105.5 42.5q70 0 96 -42v146q0 28 34 28zM432 438q-83 0 -83 -111v-17q0 -110 81 -110q39 0 65 26.5t26 64.5v74q0 29 -24.5 51t-64.5 22z
" />
    <glyph glyph-name="uni24A0" unicode="&#x24a0;" vert-adv-y="1105" 
d="M189 736q23 -14 11 -35q-84 -154 -84 -343t84 -343q12 -21 -11 -35q-26 -14 -42 11q-104 148 -104 367t104 367q16 25 42 11zM721 736q26 14 42 -11q104 -148 104 -367t-104 -367q-16 -25 -42 -11q-23 14 -11 35q84 154 84 343t-84 343q-12 21 11 35zM457 537
q69 0 110.5 -41t41.5 -114v-2q0 -26 -10.5 -36.5t-37.5 -10.5h-193v-2q0 -44 24 -68.5t69 -24.5q51 0 92 21q25 13 38 -11q13 -28 -11 -41q-49 -27 -121 -27q-75 0 -116.5 43t-41.5 124v22q0 81 41.5 124.5t114.5 43.5zM456 479q-42 0 -65 -24.5t-23 -64.5v-4h174v5
q-2 88 -86 88z" />
    <glyph glyph-name="uni24A1" unicode="&#x24a1;" vert-adv-y="1105" 
d="M189 736q23 -14 11 -35q-84 -154 -84 -343t84 -343q12 -21 -11 -35q-26 -14 -42 11q-104 148 -104 367t104 367q16 25 42 11zM721 736q26 14 42 -11q104 -148 104 -367t-104 -367q-16 -25 -42 -11q-23 14 -11 35q84 154 84 343t-84 343q-12 21 11 35zM510 594q23 0 44 -7
q24 -8 18 -33q-5 -26 -29 -22q-13 4 -27 4q-46 0 -46 -53v-29h71q11 0 18 -8.5t7 -20.5q0 -28 -25 -28h-71v-262q0 -13 -10 -20.5t-25 -7.5q-34 0 -34 28v262h-37q-24 0 -24 28q0 29 24 29h37v31q0 109 109 109z" />
    <glyph glyph-name="uni24A2" unicode="&#x24a2;" vert-adv-y="1105" 
d="M189 736q23 -14 11 -35q-84 -154 -84 -343t84 -343q12 -21 -11 -35q-26 -14 -42 11q-104 148 -104 367t104 367q16 25 42 11zM721 736q26 14 42 -11q104 -148 104 -367t-104 -367q-16 -25 -42 -11q-23 14 -11 35q84 154 84 343t-84 343q-12 21 11 35zM443 578
q72 0 98 -44v14q0 26 34 26q14 0 23.5 -7.5t9.5 -20.5v-307q0 -147 -158 -147q-56 0 -105 27q-23 13 -8 41q15 27 39 13q38 -21 74 -21q90 0 90 87v44q-25 -52 -102 -52q-67 0 -102.5 42.5t-35.5 122.5v16q0 81 38 123.5t105 42.5zM452 518q-84 0 -84 -108v-12
q0 -109 82 -109q39 0 64.5 26.5t25.5 64.5v66q0 30 -23.5 51t-64.5 21z" />
    <glyph glyph-name="uni24A3" unicode="&#x24a3;" vert-adv-y="1105" 
d="M189 736q23 -14 11 -35q-84 -154 -84 -343t84 -343q12 -21 -11 -35q-26 -14 -42 11q-104 148 -104 367t104 367q16 25 42 11zM721 736q26 14 42 -11q104 -148 104 -367t-104 -367q-16 -25 -42 -11q-23 14 -11 35q84 154 84 343t-84 343q-12 21 11 35zM358 629
q33 0 33 -28v-157q32 53 106 53q59 0 92 -33.5t33 -94.5v-197q0 -29 -34 -29q-35 0 -35 29v183q0 82 -74 82q-36 0 -60.5 -22.5t-24.5 -61.5v-181q0 -29 -35 -29q-34 0 -34 29v429q0 28 33 28z" />
    <glyph glyph-name="uni24A4" unicode="&#x24a4;" vert-adv-y="1105" 
d="M189 736q23 -14 11 -35q-84 -154 -84 -343t84 -343q12 -21 -11 -35q-26 -14 -42 11q-104 148 -104 367t104 367q16 25 42 11zM721 736q26 14 42 -11q104 -148 104 -367t-104 -367q-16 -25 -42 -11q-23 14 -11 35q84 154 84 343t-84 343q-12 21 11 35zM455 590
q19 0 32 -12.5t13 -30.5t-13 -30.5t-32 -12.5t-32 12.5t-13 30.5t13 30.5t32 12.5zM455 462q15 0 25 -7.5t10 -20.5v-293q0 -29 -35 -29q-34 0 -34 29v293q0 28 34 28z" />
    <glyph glyph-name="uni24A5" unicode="&#x24a5;" vert-adv-y="1105" 
d="M189 736q23 -14 11 -35q-84 -154 -84 -343t84 -343q12 -21 -11 -35q-26 -14 -42 11q-104 148 -104 367t104 367q16 25 42 11zM721 736q26 14 42 -11q104 -148 104 -367t-104 -367q-16 -25 -42 -11q-23 14 -11 35q84 154 84 343t-84 343q-12 21 11 35zM478 641
q19 0 32.5 -12.5t13.5 -29.5q0 -18 -13.5 -31t-32.5 -13t-32 13t-13 31q0 17 13 29.5t32 12.5zM478 514q35 0 35 -29v-291q0 -113 -106 -113q-32 0 -56 11q-22 9 -13 36q8 26 32 17q22 -6 31 -6q23 0 33 12.5t10 41.5v292q0 14 10 21.5t24 7.5z" />
    <glyph glyph-name="uni24A6" unicode="&#x24a6;" vert-adv-y="1105" 
d="M189 736q23 -14 11 -35q-84 -154 -84 -343t84 -343q12 -21 -11 -35q-26 -14 -42 11q-104 148 -104 367t104 367q16 25 42 11zM721 736q26 14 42 -11q104 -148 104 -367t-104 -367q-16 -25 -42 -11q-23 14 -11 35q84 154 84 343t-84 343q-12 21 11 35zM366 629
q35 0 35 -29v-261l149 144q10 10 24 9.5t23 -10.5q23 -24 -1 -45l-101 -92l120 -148q9 -12 7 -24.5t-12 -20.5q-12 -10 -25.5 -10t-22.5 12l-116 148l-45 -41v-89q0 -29 -35 -29q-34 0 -34 29v428q0 29 34 29z" />
    <glyph glyph-name="uni24A7" unicode="&#x24a7;" vert-adv-y="1105" 
d="M189 736q23 -14 11 -35q-84 -154 -84 -343t84 -343q12 -21 -11 -35q-26 -14 -42 11q-104 148 -104 367t104 367q16 25 42 11zM721 736q26 14 42 -11q104 -148 104 -367t-104 -367q-16 -25 -42 -11q-23 14 -11 35q84 154 84 343t-84 343q-12 21 11 35zM455 601
q35 0 35 -29v-428q0 -29 -35 -29q-34 0 -34 29v428q0 29 34 29z" />
    <glyph glyph-name="uni24A8" unicode="&#x24a8;" vert-adv-y="1105" 
d="M189 736q23 -14 11 -35q-84 -154 -84 -343t84 -343q12 -21 -11 -35q-26 -14 -42 11q-104 148 -104 367t104 367q16 25 42 11zM721 736q26 14 42 -11q104 -148 104 -367t-104 -367q-16 -25 -42 -11q-23 14 -11 35q84 154 84 343t-84 343q-12 21 11 35zM380 536
q36 0 62.5 -15.5t36.5 -41.5q36 57 110 57q56 0 88.5 -35t32.5 -95v-195q0 -29 -34 -29t-34 29v181q0 83 -70 83q-33 0 -53.5 -21.5t-20.5 -57.5v-185q0 -29 -35 -29q-34 0 -34 29v182q0 82 -70 82q-34 0 -54 -22t-20 -55v-187q0 -29 -35 -29q-34 0 -34 29v293q0 27 33 27
t33 -27v-25q11 26 37.5 41.5t60.5 15.5z" />
    <glyph glyph-name="uni24A9" unicode="&#x24a9;" vert-adv-y="1105" 
d="M189 736q23 -14 11 -35q-84 -154 -84 -343t84 -343q12 -21 -11 -35q-26 -14 -42 11q-104 148 -104 367t104 367q16 25 42 11zM721 736q26 14 42 -11q104 -148 104 -367t-104 -367q-16 -25 -42 -11q-23 14 -11 35q84 154 84 343t-84 343q-12 21 11 35zM484 536
q59 0 92.5 -34t33.5 -95v-196q0 -29 -35 -29q-34 0 -34 29v182q0 82 -75 82q-36 0 -60.5 -22.5t-24.5 -60.5v-181q0 -29 -35 -29q-34 0 -34 29v293q0 27 33 27t33 -27v-23q14 25 42 40t64 15z" />
    <glyph glyph-name="uni24AA" unicode="&#x24aa;" vert-adv-y="1105" 
d="M189 736q23 -14 11 -35q-84 -154 -84 -343t84 -343q12 -21 -11 -35q-26 -14 -42 11q-104 148 -104 367t104 367q16 25 42 11zM721 736q26 14 42 -11q104 -148 104 -367t-104 -367q-16 -25 -42 -11q-23 14 -11 35q84 154 84 343t-84 343q-12 21 11 35zM455 537
q77 0 119.5 -43t42.5 -125v-22q0 -81 -42.5 -124t-119.5 -43q-76 0 -119 43t-43 124v22q0 81 43 124.5t119 43.5zM455 476q-92 0 -92 -109v-17q0 -110 92 -110q93 0 93 110v17q0 109 -93 109z" />
    <glyph glyph-name="uni24AB" unicode="&#x24ab;" vert-adv-y="1105" 
d="M189 736q23 -14 11 -35q-84 -154 -84 -343t84 -343q12 -21 -11 -35q-26 -14 -42 11q-104 148 -104 367t104 367q16 25 42 11zM721 736q26 14 42 -11q104 -148 104 -367t-104 -367q-16 -25 -42 -11q-23 14 -11 35q84 154 84 343t-84 343q-12 21 11 35zM490 558
q140 0 140 -167v-22q0 -81 -38.5 -124t-105.5 -43t-95 45v-140q0 -13 -10 -20.5t-25 -7.5q-34 0 -34 28v419q0 28 33 28t33 -28v-19q29 51 102 51zM479 499q-39 0 -64.5 -25t-25.5 -64v-74q0 -30 26 -52.5t65 -22.5q81 0 81 111v17q0 110 -82 110z" />
    <glyph glyph-name="uni24AC" unicode="&#x24ac;" vert-adv-y="1105" 
d="M189 736q23 -14 11 -35q-84 -154 -84 -343t84 -343q12 -21 -11 -35q-26 -14 -42 11q-104 148 -104 367t104 367q16 25 42 11zM721 736q26 14 42 -11q104 -148 104 -367t-104 -367q-16 -25 -42 -11q-23 14 -11 35q84 154 84 343t-84 343q-12 21 11 35zM424 558
q72 0 98 -45v15q0 26 33 26t33 -28v-419q0 -13 -10 -20.5t-23 -7.5q-35 0 -35 28v148q-24 -53 -102 -53q-67 0 -102.5 42.5t-35.5 124.5v22q0 82 38.5 124.5t105.5 42.5zM432 499q-83 0 -83 -110v-17q0 -111 81 -111q39 0 65 26t26 65v74q0 30 -24 51.5t-65 21.5z" />
    <glyph glyph-name="uni24AD" unicode="&#x24ad;" vert-adv-y="1105" 
d="M189 736q23 -14 11 -35q-84 -154 -84 -343t84 -343q12 -21 -11 -35q-26 -14 -42 11q-104 148 -104 367t104 367q16 25 42 11zM721 736q26 14 42 -11q104 -148 104 -367t-104 -367q-16 -25 -42 -11q-23 14 -11 35q84 154 84 343t-84 343q-12 21 11 35zM534 517q20 0 37 -7
q22 -9 15 -35q-3 -15 -13 -23t-22 -5q-25 5 -32 5q-34 0 -55.5 -26t-21.5 -65v-169q0 -29 -34 -29t-34 29v293q0 28 33 28q14 0 23.5 -7.5t9.5 -20.5v-31q12 28 37 45.5t57 17.5z" />
    <glyph glyph-name="uni24AE" unicode="&#x24ae;" vert-adv-y="1105" 
d="M189 736q23 -14 11 -35q-84 -154 -84 -343t84 -343q12 -21 -11 -35q-26 -14 -42 11q-104 148 -104 367t104 367q16 25 42 11zM721 736q26 14 42 -11q104 -148 104 -367t-104 -367q-16 -25 -42 -11q-23 14 -11 35q84 154 84 343t-84 343q-12 21 11 35zM459 537
q62 0 103 -24q28 -14 14 -40q-12 -22 -37 -13q-34 18 -75 18q-71 0 -71 -40q0 -18 14 -27t60 -18q75 -14 102 -37.5t27 -73.5q0 -45 -37.5 -73.5t-101.5 -28.5q-74 0 -125 32q-24 14 -11 40q15 26 41 12q45 -26 95 -26q35 0 52.5 12t17.5 32q0 21 -14.5 31t-67.5 20
q-68 13 -94.5 36.5t-26.5 70.5q0 42 35 69.5t100 27.5z" />
    <glyph glyph-name="uni24AF" unicode="&#x24af;" vert-adv-y="1105" 
d="M189 736q23 -14 11 -35q-84 -154 -84 -343t84 -343q12 -21 -11 -35q-26 -14 -42 11q-104 148 -104 367t104 367q16 25 42 11zM721 736q26 14 42 -11q104 -148 104 -367t-104 -367q-16 -25 -42 -11q-23 14 -11 35q84 154 84 343t-84 343q-12 21 11 35zM435 581
q34 0 34 -29v-66h73q24 0 24 -27q0 -29 -24 -29h-73v-182q0 -28 8.5 -39.5t28.5 -11.5q18 0 34 6q21 9 30 -16q11 -28 -15 -38q-22 -11 -54 -11q-53 0 -76.5 26t-23.5 84v182h-37q-25 0 -25 29q0 27 25 27h37v66q0 29 34 29z" />
    <glyph glyph-name="uni24B0" unicode="&#x24b0;" vert-adv-y="1105" 
d="M189 736q23 -14 11 -35q-84 -154 -84 -343t84 -343q12 -21 -11 -35q-26 -14 -42 11q-104 148 -104 367t104 367q16 25 42 11zM721 736q26 14 42 -11q104 -148 104 -367t-104 -367q-16 -25 -42 -11q-23 14 -11 35q84 154 84 343t-84 343q-12 21 11 35zM337 531
q34 0 34 -28v-180q0 -83 72 -83q37 0 61.5 23t24.5 63v177q0 28 34 28t34 -28v-293q0 -28 -33 -28q-14 0 -23.5 7.5t-9.5 20.5v22q-11 -23 -40.5 -37.5t-63.5 -14.5q-59 0 -92 33.5t-33 94.5v195q0 28 35 28z" />
    <glyph glyph-name="uni24B1" unicode="&#x24b1;" vert-adv-y="1105" 
d="M189 736q23 -14 11 -35q-84 -154 -84 -343t84 -343q12 -21 -11 -35q-26 -14 -42 11q-104 148 -104 367t104 367q16 25 42 11zM721 736q26 14 42 -11q104 -148 104 -367t-104 -367q-16 -25 -42 -11q-23 14 -11 35q84 154 84 343t-84 343q-12 21 11 35zM321 515
q13 6 26.5 2t17.5 -17l91 -253h1l91 252q4 14 17 18t25 -2q31 -12 20 -39l-106 -273q-13 -34 -48 -34t-49 34l-107 273q-5 13 1.5 23.5t19.5 15.5z" />
    <glyph glyph-name="uni24B2" unicode="&#x24b2;" vert-adv-y="1105" 
d="M189 736q23 -14 11 -35q-84 -154 -84 -343t84 -343q12 -21 -11 -35q-26 -14 -42 11q-104 148 -104 367t104 367q16 25 42 11zM721 736q26 14 42 -11q104 -148 104 -367t-104 -367q-16 -25 -42 -11q-23 14 -11 35q84 154 84 343t-84 343q-12 21 11 35zM458 518
q32 0 39 -33l65 -241h2l60 248q8 32 40 25q31 -6 23 -41l-74 -273q-10 -35 -46 -35t-46 35l-63 222h-2l-62 -223q-10 -34 -47 -34q-36 0 -46 35l-74 272q-4 16 2.5 27t21.5 15q34 8 42 -26l57 -247h3l66 241q7 33 39 33z" />
    <glyph glyph-name="uni24B3" unicode="&#x24b3;" vert-adv-y="1105" 
d="M189 736q23 -14 11 -35q-84 -154 -84 -343t84 -343q12 -21 -11 -35q-26 -14 -42 11q-104 148 -104 367t104 367q16 25 42 11zM721 736q26 14 42 -11q104 -148 104 -367t-104 -367q-16 -25 -42 -11q-23 14 -11 35q84 154 84 343t-84 343q-12 21 11 35zM583 527
q27 -20 6 -45l-91 -120l98 -126q21 -24 -6 -46q-10 -9 -24.5 -7t-23.5 14l-87 119l-88 -119q-9 -12 -23 -13.5t-23 6.5q-26 19 -8 44l101 128l-90 117q-20 25 5 47q10 9 25 7.5t24 -14.5l79 -110l79 110q20 28 47 8z" />
    <glyph glyph-name="uni24B4" unicode="&#x24b4;" vert-adv-y="1105" 
d="M189 736q23 -14 11 -35q-84 -154 -84 -343t84 -343q12 -21 -11 -35q-26 -14 -42 11q-104 148 -104 367t104 367q16 25 42 11zM721 736q26 14 42 -11q104 -148 104 -367t-104 -367q-16 -25 -42 -11q-23 14 -11 35q84 154 84 343t-84 343q-12 21 11 35zM594 550
q14 -4 19.5 -15t0.5 -25l-164 -419q-12 -28 -44 -15q-29 13 -18 38l39 93l-121 301q-5 14 1.5 25t20.5 16q34 14 44 -17l89 -247h1l89 247q4 13 16 18t27 0z" />
    <glyph glyph-name="uni24B5" unicode="&#x24b5;" vert-adv-y="1105" 
d="M189 736q23 -14 11 -35q-84 -154 -84 -343t84 -343q12 -21 -11 -35q-26 -14 -42 11q-104 148 -104 367t104 367q16 25 42 11zM721 736q26 14 42 -11q104 -148 104 -367t-104 -367q-16 -25 -42 -11q-23 14 -11 35q84 154 84 343t-84 343q-12 21 11 35zM544 530
q25 0 35.5 -8.5t10.5 -27.5q0 -16 -22 -43l-169 -205h178q25 0 25 -30q0 -29 -25 -29h-222q-45 0 -45 30q0 17 24 46l171 208h-159q-25 0 -25 29q0 30 25 30h198z" />
    <glyph glyph-name="uni24B6" unicode="&#x24b6;" vert-adv-y="1105" 
 />
    <glyph glyph-name="uni24B7" unicode="&#x24b7;" vert-adv-y="1105" 
 />
    <glyph glyph-name="uni24B8" unicode="&#x24b8;" vert-adv-y="1105" 
 />
    <glyph glyph-name="uni24B9" unicode="&#x24b9;" vert-adv-y="1105" 
 />
    <glyph glyph-name="uni24BA" unicode="&#x24ba;" vert-adv-y="1105" 
 />
    <glyph glyph-name="uni24BB" unicode="&#x24bb;" vert-adv-y="1105" 
 />
    <glyph glyph-name="uni24BC" unicode="&#x24bc;" vert-adv-y="1105" 
 />
    <glyph glyph-name="uni24BD" unicode="&#x24bd;" vert-adv-y="1105" 
 />
    <glyph glyph-name="uni24BE" unicode="&#x24be;" vert-adv-y="1105" 
 />
    <glyph glyph-name="uni24BF" unicode="&#x24bf;" vert-adv-y="1105" 
 />
    <glyph glyph-name="uni24C0" unicode="&#x24c0;" vert-adv-y="1105" 
 />
    <glyph glyph-name="uni24C1" unicode="&#x24c1;" vert-adv-y="1105" 
 />
    <glyph glyph-name="uni24C2" unicode="&#x24c2;" vert-adv-y="1105" 
 />
    <glyph glyph-name="uni24C3" unicode="&#x24c3;" vert-adv-y="1105" 
 />
    <glyph glyph-name="uni24C4" unicode="&#x24c4;" vert-adv-y="1105" 
 />
    <glyph glyph-name="uni24C5" unicode="&#x24c5;" vert-adv-y="1105" 
 />
    <glyph glyph-name="uni24C6" unicode="&#x24c6;" vert-adv-y="1105" 
 />
    <glyph glyph-name="uni24C7" unicode="&#x24c7;" vert-adv-y="1105" 
 />
    <glyph glyph-name="uni24C8" unicode="&#x24c8;" vert-adv-y="1105" 
 />
    <glyph glyph-name="uni24C9" unicode="&#x24c9;" vert-adv-y="1105" 
d="M188 752q19 0 32 -10t13 -28v-40q0 -39 3 -54.5t13 -33.5q9 -16 27 -38q10 -10 20 0q12 14 27 37q11 17 13.5 32.5t2.5 56.5v40q0 18 13 28t32 10t32.5 -10t13.5 -28v-40q0 -62 29 -96q8 -9 17 -19t19 -21t16 -18q10 -11 8.5 -26.5t-13.5 -26.5q-28 -24 -54 0
q-12 11 -41 44q-21 24 -26 47h-1q-3 -17 -28 -49q-15 -19 -43 -47q-27 -25 -54 0q-29 29 -43 48q-25 30 -28 48h-1q-4 -24 -26 -48q-14 -17 -46 -49q-14 -11 -28 -10t-26 11q-12 11 -13.5 27t8.5 27q24 23 57 62q29 35 29 96v40q0 18 13.5 28t32.5 10zM619 773
q19 0 32.5 -10t13.5 -28v-537q0 -18 -13.5 -28.5t-32.5 -10.5q-18 0 -31.5 10.5t-13.5 28.5v1h-123q-15 0 -23.5 11t-8.5 27q0 17 8.5 28t23.5 11h123v459q0 18 13.5 28t31.5 10zM790 778q19 0 32.5 -10t13.5 -28v-549q0 -18 -13.5 -28t-32.5 -10t-32.5 10t-13.5 28v549
q0 18 13.5 28t32.5 10zM494 411q17 2 27 -8t11 -28q2 -18 -6 -30.5t-24 -13.5q-68 -8 -175 -13v-111q0 -20 -14.5 -31t-34.5 -11t-34 11t-14 31v108q-56 -2 -172 -2q-17 0 -26 12t-9 29t9 29t26 12q280 0 436 16zM759 120q44 0 60.5 -16t16.5 -59v-155q0 -21 -14.5 -31.5
t-35.5 -10.5t-35.5 10.5t-14.5 31.5v125q0 21 -21 21h-501q-35 0 -35 42t35 42h545z" />
    <glyph glyph-name="uni24CA" unicode="&#x24ca;" vert-adv-y="1105" 
 />
    <glyph glyph-name="uni24CB" unicode="&#x24cb;" vert-adv-y="1105" 
 />
    <glyph glyph-name="uni24CC" unicode="&#x24cc;" vert-adv-y="1105" 
 />
    <glyph glyph-name="uni24CD" unicode="&#x24cd;" vert-adv-y="1105" 
 />
    <glyph glyph-name="uni24CE" unicode="&#x24ce;" vert-adv-y="1105" 
 />
    <glyph glyph-name="uni24CF" unicode="&#x24cf;" vert-adv-y="1105" 
 />
    <glyph glyph-name="uni24D0" unicode="&#x24d0;" vert-adv-y="1105" 
d="M455 775q180 0 298 -118.5t118 -298.5q0 -181 -117.5 -299t-298.5 -118t-298.5 118t-117.5 299q0 180 118 298.5t298 118.5zM455 713q-153 0 -253 -100.5t-100 -254.5t100 -254.5t253 -100.5t253 100.5t100 254.5t-100 254.5t-253 100.5zM463 536q63 0 100.5 -31
t37.5 -84v-213q0 -13 -9.5 -19.5t-21.5 -6.5q-32 0 -32 26v21q-9 -19 -35 -33q-30 -16 -68 -16q-57 0 -89 27t-32 75v9q0 101 132 101h87v15q0 36 -17 52.5t-54 16.5q-46 0 -84 -25q-23 -15 -41 10q-15 26 7 40q50 35 119 35zM447 338q-65 0 -65 -50v-3q0 -47 57 -47
q37 0 61 12q34 19 34 58v30h-87z" />
    <glyph glyph-name="uni24D1" unicode="&#x24d1;" vert-adv-y="1105" 
d="M455 775q180 0 298 -118.5t118 -298.5q0 -181 -117.5 -299t-298.5 -118t-298.5 118t-117.5 299q0 180 118 298.5t298 118.5zM455 713q-153 0 -253 -100.5t-100 -254.5t100 -254.5t253 -100.5t253 100.5t100 254.5t-100 254.5t-253 100.5zM356 629q15 0 25 -7.5t10 -20.5
v-152q30 48 99 48q140 0 140 -167v-22q0 -82 -38.5 -124.5t-105.5 -42.5q-70 0 -98 49v-19q0 -28 -33 -28t-33 28v430q0 28 34 28zM479 438q-39 0 -64.5 -25t-25.5 -64v-74q0 -30 26 -52.5t65 -22.5q81 0 81 111v17q0 110 -82 110z" />
    <glyph glyph-name="uni24D2" unicode="&#x24d2;" vert-adv-y="1105" 
d="M455 775q180 0 298 -118.5t118 -298.5q0 -181 -117.5 -299t-298.5 -118t-298.5 118t-117.5 299q0 180 118 298.5t298 118.5zM455 713q-153 0 -253 -100.5t-100 -254.5t100 -254.5t253 -100.5t253 100.5t100 254.5t-100 254.5t-253 100.5zM461 537q64 0 109 -30
q10 -7 12 -19t-5 -23q-15 -24 -39 -9q-35 20 -77 20q-87 0 -87 -108v-20q0 -52 23 -79.5t65 -27.5q47 0 83 21q11 7 23 4.5t18 -13.5q15 -28 -8 -43q-45 -30 -116 -30q-75 0 -116 42.5t-41 124.5v22q0 83 41 125.5t115 42.5z" />
    <glyph glyph-name="uni24D3" unicode="&#x24d3;" vert-adv-y="1105" 
d="M455 775q180 0 298 -118.5t118 -298.5q0 -181 -117.5 -299t-298.5 -118t-298.5 118t-117.5 299q0 180 118 298.5t298 118.5zM455 713q-153 0 -253 -100.5t-100 -254.5t100 -254.5t253 -100.5t253 100.5t100 254.5t-100 254.5t-253 100.5zM554 629q34 0 34 -28v-430
q0 -28 -33 -28q-32 0 -32 28v23q-11 -24 -39.5 -38.5t-65.5 -14.5q-67 0 -102.5 43t-35.5 125v21q0 82 38.5 124.5t105.5 42.5q70 0 96 -42v146q0 28 34 28zM432 438q-83 0 -83 -111v-17q0 -110 81 -110q39 0 65 26.5t26 64.5v74q0 29 -24.5 51t-64.5 22z" />
    <glyph glyph-name="uni24D4" unicode="&#x24d4;" vert-adv-y="1105" 
d="M455 775q180 0 298 -118.5t118 -298.5q0 -181 -117.5 -299t-298.5 -118t-298.5 118t-117.5 299q0 180 118 298.5t298 118.5zM455 713q-153 0 -253 -100.5t-100 -254.5t100 -254.5t253 -100.5t253 100.5t100 254.5t-100 254.5t-253 100.5zM457 537q69 0 110.5 -41
t41.5 -114v-2q0 -26 -10.5 -36.5t-37.5 -10.5h-193v-2q0 -44 24 -68.5t69 -24.5q51 0 92 21q25 13 38 -11q13 -28 -11 -41q-49 -27 -121 -27q-75 0 -116.5 43t-41.5 124v22q0 81 41.5 124.5t114.5 43.5zM456 479q-42 0 -65 -24.5t-23 -64.5v-4h174v5q-2 88 -86 88z" />
    <glyph glyph-name="uni24D5" unicode="&#x24d5;" vert-adv-y="1105" 
d="M455 775q180 0 298 -118.5t118 -298.5q0 -181 -117.5 -299t-298.5 -118t-298.5 118t-117.5 299q0 180 118 298.5t298 118.5zM455 713q-153 0 -253 -100.5t-100 -254.5t100 -254.5t253 -100.5t253 100.5t100 254.5t-100 254.5t-253 100.5zM510 594q23 0 44 -7
q24 -8 18 -33q-5 -26 -29 -22q-13 4 -27 4q-46 0 -46 -53v-29h71q11 0 18 -8.5t7 -20.5q0 -28 -25 -28h-71v-262q0 -13 -10 -20.5t-25 -7.5q-34 0 -34 28v262h-37q-24 0 -24 28q0 29 24 29h37v31q0 109 109 109z" />
    <glyph glyph-name="uni24D6" unicode="&#x24d6;" vert-adv-y="1105" 
d="M455 775q180 0 298 -118.5t118 -298.5q0 -181 -117.5 -299t-298.5 -118t-298.5 118t-117.5 299q0 180 118 298.5t298 118.5zM455 713q-153 0 -253 -100.5t-100 -254.5t100 -254.5t253 -100.5t253 100.5t100 254.5t-100 254.5t-253 100.5zM443 578q72 0 98 -44v14
q0 26 34 26q14 0 23.5 -7.5t9.5 -20.5v-307q0 -147 -158 -147q-56 0 -105 27q-23 13 -8 41q15 27 39 13q38 -21 74 -21q90 0 90 87v44q-25 -52 -102 -52q-67 0 -102.5 42.5t-35.5 122.5v16q0 81 38 123.5t105 42.5zM452 518q-84 0 -84 -108v-12q0 -109 82 -109
q39 0 64.5 26.5t25.5 64.5v66q0 30 -23.5 51t-64.5 21z" />
    <glyph glyph-name="uni24D7" unicode="&#x24d7;" vert-adv-y="1105" 
d="M455 775q180 0 298 -118.5t118 -298.5q0 -181 -117.5 -299t-298.5 -118t-298.5 118t-117.5 299q0 180 118 298.5t298 118.5zM455 713q-153 0 -253 -100.5t-100 -254.5t100 -254.5t253 -100.5t253 100.5t100 254.5t-100 254.5t-253 100.5zM358 629q33 0 33 -28v-157
q32 53 106 53q59 0 92 -33.5t33 -94.5v-197q0 -29 -34 -29q-35 0 -35 29v183q0 82 -74 82q-36 0 -60.5 -22.5t-24.5 -61.5v-181q0 -29 -35 -29q-34 0 -34 29v429q0 28 33 28z" />
    <glyph glyph-name="uni24D8" unicode="&#x24d8;" vert-adv-y="1105" 
d="M455 775q180 0 298 -118.5t118 -298.5q0 -181 -117.5 -299t-298.5 -118t-298.5 118t-117.5 299q0 180 118 298.5t298 118.5zM455 713q-153 0 -253 -100.5t-100 -254.5t100 -254.5t253 -100.5t253 100.5t100 254.5t-100 254.5t-253 100.5zM455 590q19 0 32 -12.5t13 -30.5
t-13 -30.5t-32 -12.5t-32 12.5t-13 30.5t13 30.5t32 12.5zM455 462q15 0 25 -7.5t10 -20.5v-293q0 -29 -35 -29q-34 0 -34 29v293q0 28 34 28z" />
    <glyph glyph-name="uni24D9" unicode="&#x24d9;" vert-adv-y="1105" 
d="M455 775q180 0 298 -118.5t118 -298.5q0 -181 -117.5 -299t-298.5 -118t-298.5 118t-117.5 299q0 180 118 298.5t298 118.5zM455 713q-153 0 -253 -100.5t-100 -254.5t100 -254.5t253 -100.5t253 100.5t100 254.5t-100 254.5t-253 100.5zM478 641q19 0 32.5 -12.5
t13.5 -29.5q0 -18 -13.5 -31t-32.5 -13t-32 13t-13 31q0 17 13 29.5t32 12.5zM478 514q35 0 35 -29v-291q0 -113 -106 -113q-32 0 -56 11q-22 9 -13 36q8 26 32 17q22 -6 31 -6q23 0 33 12.5t10 41.5v292q0 14 10 21.5t24 7.5z" />
    <glyph glyph-name="uni24DA" unicode="&#x24da;" vert-adv-y="1105" 
d="M455 775q180 0 298 -118.5t118 -298.5q0 -181 -117.5 -299t-298.5 -118t-298.5 118t-117.5 299q0 180 118 298.5t298 118.5zM455 713q-153 0 -253 -100.5t-100 -254.5t100 -254.5t253 -100.5t253 100.5t100 254.5t-100 254.5t-253 100.5zM366 629q35 0 35 -29v-261
l149 144q10 10 24 9.5t23 -10.5q23 -24 -1 -45l-101 -92l120 -148q9 -12 7 -24.5t-12 -20.5q-12 -10 -25.5 -10t-22.5 12l-116 148l-45 -41v-89q0 -29 -35 -29q-34 0 -34 29v428q0 29 34 29z" />
    <glyph glyph-name="uni24DB" unicode="&#x24db;" vert-adv-y="1105" 
d="M455 775q180 0 298 -118.5t118 -298.5q0 -181 -117.5 -299t-298.5 -118t-298.5 118t-117.5 299q0 180 118 298.5t298 118.5zM455 713q-153 0 -253 -100.5t-100 -254.5t100 -254.5t253 -100.5t253 100.5t100 254.5t-100 254.5t-253 100.5zM455 601q35 0 35 -29v-428
q0 -29 -35 -29q-34 0 -34 29v428q0 29 34 29z" />
    <glyph glyph-name="uni24DC" unicode="&#x24dc;" vert-adv-y="1105" 
d="M455 775q180 0 298 -118.5t118 -298.5q0 -181 -117.5 -299t-298.5 -118t-298.5 118t-117.5 299q0 180 118 298.5t298 118.5zM455 713q-153 0 -253 -100.5t-100 -254.5t100 -254.5t253 -100.5t253 100.5t100 254.5t-100 254.5t-253 100.5zM380 536q36 0 62.5 -15.5
t36.5 -41.5q36 57 110 57q56 0 88.5 -35t32.5 -95v-195q0 -29 -34 -29t-34 29v181q0 83 -70 83q-33 0 -53.5 -21.5t-20.5 -57.5v-185q0 -29 -35 -29q-34 0 -34 29v182q0 82 -70 82q-34 0 -54 -22t-20 -55v-187q0 -29 -35 -29q-34 0 -34 29v293q0 27 33 27t33 -27v-25
q11 26 37.5 41.5t60.5 15.5z" />
    <glyph glyph-name="uni24DD" unicode="&#x24dd;" vert-adv-y="1105" 
d="M455 775q180 0 298 -118.5t118 -298.5q0 -181 -117.5 -299t-298.5 -118t-298.5 118t-117.5 299q0 180 118 298.5t298 118.5zM455 713q-153 0 -253 -100.5t-100 -254.5t100 -254.5t253 -100.5t253 100.5t100 254.5t-100 254.5t-253 100.5zM484 536q59 0 92.5 -34t33.5 -95
v-196q0 -29 -35 -29q-34 0 -34 29v182q0 82 -75 82q-36 0 -60.5 -22.5t-24.5 -60.5v-181q0 -29 -35 -29q-34 0 -34 29v293q0 27 33 27t33 -27v-23q14 25 42 40t64 15z" />
    <glyph glyph-name="uni24DE" unicode="&#x24de;" vert-adv-y="1105" 
d="M455 775q180 0 298 -118.5t118 -298.5q0 -181 -117.5 -299t-298.5 -118t-298.5 118t-117.5 299q0 180 118 298.5t298 118.5zM455 713q-153 0 -253 -100.5t-100 -254.5t100 -254.5t253 -100.5t253 100.5t100 254.5t-100 254.5t-253 100.5zM455 537q77 0 119.5 -43
t42.5 -125v-22q0 -81 -42.5 -124t-119.5 -43q-76 0 -119 43t-43 124v22q0 81 43 124.5t119 43.5zM455 476q-92 0 -92 -109v-17q0 -110 92 -110q93 0 93 110v17q0 109 -93 109z" />
    <glyph glyph-name="uni24DF" unicode="&#x24df;" vert-adv-y="1105" 
d="M455 775q180 0 298 -118.5t118 -298.5q0 -181 -117.5 -299t-298.5 -118t-298.5 118t-117.5 299q0 180 118 298.5t298 118.5zM455 713q-153 0 -253 -100.5t-100 -254.5t100 -254.5t253 -100.5t253 100.5t100 254.5t-100 254.5t-253 100.5zM490 558q140 0 140 -167v-22
q0 -81 -38.5 -124t-105.5 -43t-95 45v-140q0 -13 -10 -20.5t-25 -7.5q-34 0 -34 28v419q0 28 33 28t33 -28v-19q29 51 102 51zM479 499q-39 0 -64.5 -25t-25.5 -64v-74q0 -30 26 -52.5t65 -22.5q81 0 81 111v17q0 110 -82 110z" />
    <glyph glyph-name="uni24E0" unicode="&#x24e0;" vert-adv-y="1105" 
d="M455 775q180 0 298 -118.5t118 -298.5q0 -181 -117.5 -299t-298.5 -118t-298.5 118t-117.5 299q0 180 118 298.5t298 118.5zM455 713q-153 0 -253 -100.5t-100 -254.5t100 -254.5t253 -100.5t253 100.5t100 254.5t-100 254.5t-253 100.5zM424 558q72 0 98 -45v15
q0 26 33 26t33 -28v-419q0 -13 -10 -20.5t-23 -7.5q-35 0 -35 28v148q-24 -53 -102 -53q-67 0 -102.5 42.5t-35.5 124.5v22q0 82 38.5 124.5t105.5 42.5zM432 499q-83 0 -83 -110v-17q0 -111 81 -111q39 0 65 26t26 65v74q0 30 -24 51.5t-65 21.5z" />
    <glyph glyph-name="uni24E1" unicode="&#x24e1;" vert-adv-y="1105" 
d="M455 775q180 0 298 -118.5t118 -298.5q0 -181 -117.5 -299t-298.5 -118t-298.5 118t-117.5 299q0 180 118 298.5t298 118.5zM455 713q-153 0 -253 -100.5t-100 -254.5t100 -254.5t253 -100.5t253 100.5t100 254.5t-100 254.5t-253 100.5zM534 517q20 0 37 -7
q22 -9 15 -35q-3 -15 -13 -23t-22 -5q-25 5 -32 5q-34 0 -55.5 -26t-21.5 -65v-169q0 -29 -34 -29t-34 29v293q0 28 33 28q14 0 23.5 -7.5t9.5 -20.5v-31q12 28 37 45.5t57 17.5z" />
    <glyph glyph-name="uni24E2" unicode="&#x24e2;" vert-adv-y="1105" 
d="M455 775q180 0 298 -118.5t118 -298.5q0 -181 -117.5 -299t-298.5 -118t-298.5 118t-117.5 299q0 180 118 298.5t298 118.5zM455 713q-153 0 -253 -100.5t-100 -254.5t100 -254.5t253 -100.5t253 100.5t100 254.5t-100 254.5t-253 100.5zM459 537q62 0 103 -24
q28 -14 14 -40q-12 -22 -37 -13q-34 18 -75 18q-71 0 -71 -40q0 -18 14 -27t60 -18q75 -14 102 -37.5t27 -73.5q0 -45 -37.5 -73.5t-101.5 -28.5q-74 0 -125 32q-24 14 -11 40q15 26 41 12q45 -26 95 -26q35 0 52.5 12t17.5 32q0 21 -14.5 31t-67.5 20q-68 13 -94.5 36.5
t-26.5 70.5q0 42 35 69.5t100 27.5z" />
    <glyph glyph-name="uni24E3" unicode="&#x24e3;" vert-adv-y="1105" 
d="M455 775q180 0 298 -118.5t118 -298.5q0 -181 -117.5 -299t-298.5 -118t-298.5 118t-117.5 299q0 180 118 298.5t298 118.5zM455 713q-153 0 -253 -100.5t-100 -254.5t100 -254.5t253 -100.5t253 100.5t100 254.5t-100 254.5t-253 100.5zM435 581q34 0 34 -29v-66h73
q24 0 24 -27q0 -29 -24 -29h-73v-182q0 -28 8.5 -39.5t28.5 -11.5q18 0 34 6q21 9 30 -16q11 -28 -15 -38q-22 -11 -54 -11q-53 0 -76.5 26t-23.5 84v182h-37q-25 0 -25 29q0 27 25 27h37v66q0 29 34 29z" />
    <glyph glyph-name="uni24E4" unicode="&#x24e4;" vert-adv-y="1105" 
d="M455 775q180 0 298 -118.5t118 -298.5q0 -181 -117.5 -299t-298.5 -118t-298.5 118t-117.5 299q0 180 118 298.5t298 118.5zM455 713q-153 0 -253 -100.5t-100 -254.5t100 -254.5t253 -100.5t253 100.5t100 254.5t-100 254.5t-253 100.5zM337 531q34 0 34 -28v-180
q0 -83 72 -83q37 0 61.5 23t24.5 63v177q0 28 34 28t34 -28v-293q0 -28 -33 -28q-14 0 -23.5 7.5t-9.5 20.5v22q-11 -23 -40.5 -37.5t-63.5 -14.5q-59 0 -92 33.5t-33 94.5v195q0 28 35 28z" />
    <glyph glyph-name="uni24E5" unicode="&#x24e5;" vert-adv-y="1105" 
d="M455 775q180 0 298 -118.5t118 -298.5q0 -181 -117.5 -299t-298.5 -118t-298.5 118t-117.5 299q0 180 118 298.5t298 118.5zM455 713q-153 0 -253 -100.5t-100 -254.5t100 -254.5t253 -100.5t253 100.5t100 254.5t-100 254.5t-253 100.5zM321 515q13 6 26.5 2t17.5 -17
l91 -253h1l91 252q4 14 17 18t25 -2q31 -12 20 -39l-106 -273q-13 -34 -48 -34t-49 34l-107 273q-5 13 1.5 23.5t19.5 15.5z" />
    <glyph glyph-name="uni24E6" unicode="&#x24e6;" vert-adv-y="1105" 
d="M455 775q180 0 298 -118.5t118 -298.5q0 -181 -117.5 -299t-298.5 -118t-298.5 118t-117.5 299q0 180 118 298.5t298 118.5zM455 713q-153 0 -253 -100.5t-100 -254.5t100 -254.5t253 -100.5t253 100.5t100 254.5t-100 254.5t-253 100.5zM458 518q32 0 39 -33l65 -241h2
l60 248q8 32 40 25q31 -6 23 -41l-74 -273q-10 -35 -46 -35t-46 35l-63 222h-2l-62 -223q-10 -34 -47 -34q-36 0 -46 35l-74 272q-4 16 2.5 27t21.5 15q34 8 42 -26l57 -247h3l66 241q7 33 39 33z" />
    <glyph glyph-name="uni24E7" unicode="&#x24e7;" vert-adv-y="1105" 
d="M455 775q180 0 298 -118.5t118 -298.5q0 -181 -117.5 -299t-298.5 -118t-298.5 118t-117.5 299q0 180 118 298.5t298 118.5zM455 713q-153 0 -253 -100.5t-100 -254.5t100 -254.5t253 -100.5t253 100.5t100 254.5t-100 254.5t-253 100.5zM583 527q27 -20 6 -45l-91 -120
l98 -126q21 -24 -6 -46q-10 -9 -24.5 -7t-23.5 14l-87 119l-88 -119q-9 -12 -23 -13.5t-23 6.5q-26 19 -8 44l101 128l-90 117q-20 25 5 47q10 9 25 7.5t24 -14.5l79 -110l79 110q20 28 47 8z" />
    <glyph glyph-name="uni24E8" unicode="&#x24e8;" vert-adv-y="1105" 
d="M455 775q180 0 298 -118.5t118 -298.5q0 -181 -117.5 -299t-298.5 -118t-298.5 118t-117.5 299q0 180 118 298.5t298 118.5zM455 713q-153 0 -253 -100.5t-100 -254.5t100 -254.5t253 -100.5t253 100.5t100 254.5t-100 254.5t-253 100.5zM594 550q14 -4 19.5 -15t0.5 -25
l-164 -419q-12 -28 -44 -15q-29 13 -18 38l39 93l-121 301q-5 14 1.5 25t20.5 16q34 14 44 -17l89 -247h1l89 247q4 13 16 18t27 0z" />
    <glyph glyph-name="uni24E9" unicode="&#x24e9;" vert-adv-y="1105" 
d="M455 775q180 0 298 -118.5t118 -298.5q0 -181 -117.5 -299t-298.5 -118t-298.5 118t-117.5 299q0 180 118 298.5t298 118.5zM455 713q-153 0 -253 -100.5t-100 -254.5t100 -254.5t253 -100.5t253 100.5t100 254.5t-100 254.5t-253 100.5zM544 530q25 0 35.5 -8.5
t10.5 -27.5q0 -16 -22 -43l-169 -205h178q25 0 25 -30q0 -29 -25 -29h-222q-45 0 -45 30q0 17 24 46l171 208h-159q-25 0 -25 29q0 30 25 30h198z" />
    <glyph glyph-name="SF100000" unicode="&#x2500;" vert-adv-y="1105" 
d="M910 312v-30h-910v30h910z" />
    <glyph glyph-name="uni2501" unicode="&#x2501;" vert-adv-y="1105" 
d="M910 333v-72h-910v72h910z" />
    <glyph glyph-name="SF110000" unicode="&#x2502;" vert-adv-y="1105" 
d="M470 850v-1105h-30v1105h30z" />
    <glyph glyph-name="uni2503" unicode="&#x2503;" vert-adv-y="1105" 
d="M493 850v-1105h-76v1105h76z" />
    <glyph glyph-name="SF010000" unicode="&#x250c;" vert-adv-y="1105" 
d="M910 312v-30h-440v-537h-30v567h470z" />
    <glyph glyph-name="uni250D" unicode="&#x250d;" vert-adv-y="1105" 
d="M440 -255v588h470v-72h-440v-516h-30z" />
    <glyph glyph-name="uni250E" unicode="&#x250e;" vert-adv-y="1105" 
d="M417 -255v567h493v-30h-417v-537h-76z" />
    <glyph glyph-name="uni250F" unicode="&#x250f;" vert-adv-y="1105" 
d="M910 333v-72h-417v-516h-76v588h493z" />
    <glyph glyph-name="SF030000" unicode="&#x2510;" vert-adv-y="1105" 
d="M470 312v-567h-30v537h-440v30h470z" />
    <glyph glyph-name="uni2511" unicode="&#x2511;" vert-adv-y="1105" 
d="M470 333v-588h-30v516h-440v72h470z" />
    <glyph glyph-name="uni2512" unicode="&#x2512;" vert-adv-y="1105" 
d="M493 312v-567h-76v537h-417v30h493z" />
    <glyph glyph-name="uni2513" unicode="&#x2513;" vert-adv-y="1105" 
d="M0 261v72h493v-588h-76v516h-417z" />
    <glyph glyph-name="SF020000" unicode="&#x2514;" vert-adv-y="1105" 
d="M910 312v-30h-470v568h30v-538h440z" />
    <glyph glyph-name="uni2515" unicode="&#x2515;" vert-adv-y="1105" 
d="M440 261v589h30v-517h440v-72h-470z" />
    <glyph glyph-name="uni2516" unicode="&#x2516;" vert-adv-y="1105" 
d="M417 282v568h76v-538h417v-30h-493z" />
    <glyph glyph-name="uni2517" unicode="&#x2517;" vert-adv-y="1105" 
d="M910 333v-72h-493v589h76v-517h417z" />
    <glyph glyph-name="SF040000" unicode="&#x2518;" vert-adv-y="1105" 
d="M470 850v-568h-470v30h440v538h30z" />
    <glyph glyph-name="uni2519" unicode="&#x2519;" vert-adv-y="1105" 
d="M470 850v-589h-470v72h440v517h30z" />
    <glyph glyph-name="uni251A" unicode="&#x251a;" vert-adv-y="1105" 
d="M493 850v-568h-493v30h417v538h76z" />
    <glyph glyph-name="uni251B" unicode="&#x251b;" vert-adv-y="1105" 
d="M0 261v72h417v517h76v-589h-493z" />
    <glyph glyph-name="SF080000" unicode="&#x251c;" vert-adv-y="1105" 
d="M910 312v-30h-440v-537h-30v1105h30v-538h440z" />
    <glyph glyph-name="uni251D" unicode="&#x251d;" vert-adv-y="1105" 
d="M470 850v-517h440v-72h-440v-516h-30v1105h30z" />
    <glyph glyph-name="uni251E" unicode="&#x251e;" vert-adv-y="1105" 
d="M493 850v-538h417v-30h-440v-537h-30v552h-23v553h76z" />
    <glyph glyph-name="uni251F" unicode="&#x251f;" vert-adv-y="1105" 
d="M493 282v-537h-76v552h23v553h30v-538h440v-30h-417z" />
    <glyph glyph-name="uni2520" unicode="&#x2520;" vert-adv-y="1105" 
d="M910 312v-30h-417v-537h-76v1105h76v-538h417z" />
    <glyph glyph-name="uni2521" unicode="&#x2521;" vert-adv-y="1105" 
d="M910 333v-72h-440v-516h-30v552h-23v553h76v-517h417z" />
    <glyph glyph-name="uni2522" unicode="&#x2522;" vert-adv-y="1105" 
d="M910 333v-72h-417v-516h-76v552h23v553h30v-517h440z" />
    <glyph glyph-name="uni2523" unicode="&#x2523;" vert-adv-y="1105" 
d="M910 333v-72h-417v-516h-76v1105h76v-517h417z" />
    <glyph glyph-name="SF090000" unicode="&#x2524;" vert-adv-y="1105" 
d="M0 282v30h440v538h30v-1105h-30v537h-440z" />
    <glyph glyph-name="uni2525" unicode="&#x2525;" vert-adv-y="1105" 
d="M470 850v-1105h-30v516h-440v72h440v517h30z" />
    <glyph glyph-name="uni2526" unicode="&#x2526;" vert-adv-y="1105" 
d="M417 312v538h76v-553h-23v-552h-30v537h-440v30h417z" />
    <glyph glyph-name="uni2527" unicode="&#x2527;" vert-adv-y="1105" 
d="M417 -255v537h-417v30h440v538h30v-553h23v-552h-76z" />
    <glyph glyph-name="uni2528" unicode="&#x2528;" vert-adv-y="1105" 
d="M0 282v30h417v538h76v-1105h-76v537h-417z" />
    <glyph glyph-name="uni2529" unicode="&#x2529;" vert-adv-y="1105" 
d="M0 261v72h417v517h76v-553h-23v-552h-30v516h-440z" />
    <glyph glyph-name="uni252A" unicode="&#x252a;" vert-adv-y="1105" 
d="M0 261v72h440v517h30v-553h23v-552h-76v516h-417z" />
    <glyph glyph-name="uni252B" unicode="&#x252b;" vert-adv-y="1105" 
d="M493 850v-1105h-76v516h-417v72h417v517h76z" />
    <glyph glyph-name="SF060000" unicode="&#x252c;" vert-adv-y="1105" 
d="M910 312v-30h-440v-537h-30v537h-440v30h910z" />
    <glyph glyph-name="uni252D" unicode="&#x252d;" vert-adv-y="1105" 
d="M910 312v-30h-440v-537h-30v516h-440v72h455v-21h455z" />
    <glyph glyph-name="uni252E" unicode="&#x252e;" vert-adv-y="1105" 
d="M910 333v-72h-440v-516h-30v537h-440v30h455v21h455z" />
    <glyph glyph-name="uni252F" unicode="&#x252f;" vert-adv-y="1105" 
d="M910 333v-72h-440v-516h-30v516h-440v72h910z" />
    <glyph glyph-name="uni2530" unicode="&#x2530;" vert-adv-y="1105" 
d="M910 312v-30h-417v-537h-76v537h-417v30h910z" />
    <glyph glyph-name="uni2531" unicode="&#x2531;" vert-adv-y="1105" 
d="M910 312v-30h-417v-537h-76v516h-417v72h455v-21h455z" />
    <glyph glyph-name="uni2532" unicode="&#x2532;" vert-adv-y="1105" 
d="M0 282v30h455v21h455v-72h-417v-516h-76v537h-417z" />
    <glyph glyph-name="uni2533" unicode="&#x2533;" vert-adv-y="1105" 
d="M910 333v-72h-417v-516h-76v516h-417v72h910z" />
    <glyph glyph-name="SF070000" unicode="&#x2534;" vert-adv-y="1105" 
d="M910 312v-30h-910v30h440v538h30v-538h440z" />
    <glyph glyph-name="uni2535" unicode="&#x2535;" vert-adv-y="1105" 
d="M910 312v-30h-455v-21h-455v72h440v517h30v-538h440z" />
    <glyph glyph-name="uni2536" unicode="&#x2536;" vert-adv-y="1105" 
d="M0 282v30h440v538h30v-517h440v-72h-455v21h-455z" />
    <glyph glyph-name="uni2537" unicode="&#x2537;" vert-adv-y="1105" 
d="M910 333v-72h-910v72h440v517h30v-517h440z" />
    <glyph glyph-name="uni2538" unicode="&#x2538;" vert-adv-y="1105" 
d="M910 312v-30h-910v30h417v538h76v-538h417z" />
    <glyph glyph-name="uni2539" unicode="&#x2539;" vert-adv-y="1105" 
d="M910 312v-30h-455v-21h-455v72h417v517h76v-538h417z" />
    <glyph glyph-name="uni253A" unicode="&#x253a;" vert-adv-y="1105" 
d="M0 282v30h417v538h76v-517h417v-72h-455v21h-455z" />
    <glyph glyph-name="uni253B" unicode="&#x253b;" vert-adv-y="1105" 
d="M910 333v-72h-910v72h417v517h76v-517h417z" />
    <glyph glyph-name="SF050000" unicode="&#x253c;" vert-adv-y="1105" 
d="M910 312v-30h-440v-537h-30v537h-440v30h440v538h30v-538h440z" />
    <glyph glyph-name="uni253D" unicode="&#x253d;" vert-adv-y="1105" 
d="M910 312v-30h-440v-537h-30v516h-440v72h440v517h30v-538h440z" />
    <glyph glyph-name="uni253E" unicode="&#x253e;" vert-adv-y="1105" 
d="M0 282v30h440v538h30v-517h440v-72h-440v-516h-30v537h-440z" />
    <glyph glyph-name="uni253F" unicode="&#x253f;" vert-adv-y="1105" 
d="M470 850v-517h440v-72h-440v-516h-30v516h-440v72h440v517h30z" />
    <glyph glyph-name="uni2540" unicode="&#x2540;" vert-adv-y="1105" 
d="M493 850v-538h417v-30h-440v-537h-30v537h-440v30h417v538h76z" />
    <glyph glyph-name="uni2541" unicode="&#x2541;" vert-adv-y="1105" 
d="M910 312v-30h-417v-537h-76v537h-417v30h440v538h30v-538h440z" />
    <glyph glyph-name="uni2542" unicode="&#x2542;" vert-adv-y="1105" 
d="M493 850v-538h417v-30h-417v-537h-76v537h-417v30h417v538h76z" />
    <glyph glyph-name="uni2543" unicode="&#x2543;" vert-adv-y="1105" 
d="M0 261v72h417v517h76v-538h417v-30h-440v-537h-30v516h-440z" />
    <glyph glyph-name="uni2544" unicode="&#x2544;" vert-adv-y="1105" 
d="M0 282v30h417v538h76v-517h417v-72h-440v-516h-30v537h-440z" />
    <glyph glyph-name="uni2545" unicode="&#x2545;" vert-adv-y="1105" 
d="M910 312v-30h-417v-537h-76v516h-417v72h440v517h30v-538h440z" />
    <glyph glyph-name="uni2546" unicode="&#x2546;" vert-adv-y="1105" 
d="M0 282v30h440v538h30v-517h440v-72h-417v-516h-76v537h-417z" />
    <glyph glyph-name="uni2547" unicode="&#x2547;" vert-adv-y="1105" 
d="M493 850v-517h417v-72h-440v-516h-30v516h-440v72h417v517h76z" />
    <glyph glyph-name="uni2548" unicode="&#x2548;" vert-adv-y="1105" 
d="M493 261v-516h-76v516h-417v72h440v517h30v-517h440v-72h-417z" />
    <glyph glyph-name="uni2549" unicode="&#x2549;" vert-adv-y="1105" 
d="M910 312v-30h-417v-537h-76v516h-417v72h417v517h76v-538h417z" />
    <glyph glyph-name="uni254A" unicode="&#x254a;" vert-adv-y="1105" 
d="M0 282v30h417v538h76v-517h417v-72h-417v-516h-76v537h-417z" />
    <glyph glyph-name="uni254B" unicode="&#x254b;" vert-adv-y="1105" 
d="M910 333v-72h-417v-516h-76v516h-417v72h417v517h76v-517h417z" />
    </font>
</defs>
</svg>
